<svg xmlns="http://www.w3.org/2000/svg" viewBox="0 0 176.13 178.98"><rect width="176.13" height="173.3" fill="#088084"/><text transform="translate(48.25 163.26)" font-size="30" fill="#fff" font-family="Baloo-Regular, Baloo" letter-spacing="-0.04em">A<tspan x="17.61" y="0" letter-spacing="-0.04em">R</tspan><tspan x="34.56" y="0" letter-spacing="-0.04em">MENIA</tspan></text><path d="M85.33,121.43V108.91a5.39,5.39,0,1,1,10.75,0v12.52" fill="none" stroke="#fff" stroke-linecap="round" stroke-linejoin="round" stroke-width="1.38"/><path d="M83.47,121.43V105c0-4.29,3.1-7.76,7.24-7.76S98,100.72,98,105v16.42" fill="none" stroke="#fff" stroke-linecap="round" stroke-linejoin="round" stroke-width="1.38"/><path d="M83.47,117.12V101.9c0-4.28,3.1-7.76,7.24-7.76S98,97.62,98,101.9v15.22" fill="none" stroke="#fff" stroke-linecap="round" stroke-linejoin="round" stroke-width="1.38"/><path d="M90.43,38s-7.13,7.23-7.13,6.84-5.6-5.44-5.6-5.44L73,47.32l1.28,2.2V67.11l-15.5,10,24.56-12H97.86l24.67,11.9-15.38-10V49.52l1.15-2.21-4.82-7.89s-5.64,5-5.64,5.41-7.18-6.89-7.18-6.89" fill="none" stroke="#fff" stroke-linecap="round" stroke-linejoin="round" stroke-width="1.38"/><polyline points="77.72 39.41 90.71 27.92 83.06 43.83" fill="none" stroke="#fff" stroke-linecap="round" stroke-linejoin="round" stroke-width="1.38"/><polyline points="38.66 79.54 38.66 68.48 37.71 67.5 40.94 63.1 44.09 66.46 47.86 62.45 51.87 66.2 55.14 63.1 58.5 66.98 57.77 68.4 57.77 80.29" fill="none" stroke="#fff" stroke-linecap="round" stroke-linejoin="round" stroke-width="1.38"/><polyline points="40.91 63.1 48.11 55.21 55.25 63.49" fill="none" stroke="#fff" stroke-linecap="round" stroke-linejoin="round" stroke-width="1.38"/><polyline points="43.77 65.3 47.73 55.73 51.81 65.17" fill="none" stroke="#fff" stroke-linecap="round" stroke-linejoin="round" stroke-width="1.38"/><line x1="47.86" y1="62.45" x2="47.73" y2="56.24" fill="none" stroke="#fff" stroke-linecap="round" stroke-linejoin="round" stroke-width="1.38"/><line x1="43.98" y1="78.37" x2="43.98" y2="66.29" fill="none" stroke="#fff" stroke-linecap="round" stroke-linejoin="round" stroke-width="1.38"/><line x1="51.64" y1="66.29" x2="51.64" y2="78.37" fill="none" stroke="#fff" stroke-linecap="round" stroke-linejoin="round" stroke-width="1.38"/><line x1="48.24" y1="55.11" x2="48.24" y2="48.09" fill="none" stroke="#fff" stroke-linecap="round" stroke-linejoin="round" stroke-width="1.38"/><line x1="46.69" y1="49.63" x2="49.78" y2="49.63" fill="none" stroke="#fff" stroke-linecap="round" stroke-linejoin="round" stroke-width="1.38"/><rect x="47.07" y="69.43" width="1.92" height="5.48" stroke-width="1.38" stroke="#fff" stroke-linecap="round" stroke-linejoin="round" fill="none"/><line x1="41.37" y1="70.17" x2="41.37" y2="75.23" fill="none" stroke="#fff" stroke-linecap="round" stroke-linejoin="round" stroke-width="1.38"/><line x1="54.73" y1="70.17" x2="54.73" y2="75.23" fill="none" stroke="#fff" stroke-linecap="round" stroke-linejoin="round" stroke-width="1.38"/><line x1="77.35" y1="50.8" x2="77.35" y2="59.74" fill="none" stroke="#fff" stroke-linecap="round" stroke-linejoin="round" stroke-width="1.38"/><line x1="80.38" y1="49.26" x2="80.38" y2="58.2" fill="none" stroke="#fff" stroke-linecap="round" stroke-linejoin="round" stroke-width="1.38"/><rect x="86.88" y="48.09" width="2.29" height="9.69" stroke-width="1.38" stroke="#fff" stroke-linecap="round" stroke-linejoin="round" fill="none"/><path d="M90.09,80.87a55.81,55.81,0,0,1-5.62,0c0,.32-.09,2.52,0,3.26H81.93v3.89H79.64V121.8" fill="none" stroke="#fff" stroke-linecap="round" stroke-linejoin="round" stroke-width="1.38"/><rect x="66.97" y="81.46" width="2.71" height="40.34" stroke-width="1.38" stroke="#fff" stroke-linecap="round" stroke-linejoin="round" fill="none"/><line x1="81.5" y1="84.17" x2="70.06" y2="84.17" fill="none" stroke="#fff" stroke-linecap="round" stroke-linejoin="round" stroke-width="1.38"/><polyline points="72.35 83.43 72.35 72.94 75.81 72.94 75.81 83.75" fill="none" stroke="#fff" stroke-linecap="round" stroke-linejoin="round" stroke-width="1.38"/><path d="M86.13,80.66v-8.9a1.39,1.39,0,1,1,2.72,0v8.9" fill="none" stroke="#fff" stroke-linecap="round" stroke-linejoin="round" stroke-width="1.38"/><polyline points="66.21 86.56 57.61 80.65 51.43 78.74 43.52 78.74 38.67 79.83 25.02 87.26 37.11 87.26" fill="none" stroke="#fff" stroke-linecap="round" stroke-linejoin="round" stroke-width="1.38"/><polyline points="43.45 78.61 37.4 84.54 54.36 84.54 50.79 79.25" fill="none" stroke="#fff" stroke-linecap="round" stroke-linejoin="round" stroke-width="1.38"/><line x1="37.86" y1="85.34" x2="37.86" y2="121.43" fill="none" stroke="#fff" stroke-linecap="round" stroke-linejoin="round" stroke-width="1.38"/><line x1="53.61" y1="85.34" x2="53.61" y2="121.43" fill="none" stroke="#fff" stroke-linecap="round" stroke-linejoin="round" stroke-width="1.38"/><line x1="25.62" y1="88.06" x2="25.62" y2="121.43" fill="none" stroke="#fff" stroke-linecap="round" stroke-linejoin="round" stroke-width="1.38"/><line x1="53.61" y1="87.63" x2="66.6" y2="87.63" fill="none" stroke="#fff" stroke-linecap="round" stroke-linejoin="round" stroke-width="1.38"/><path d="M69.52,96.56a5,5,0,1,1,9.94,0" fill="none" stroke="#fff" stroke-linecap="round" stroke-linejoin="round" stroke-width="1.38"/><path d="M77.35,109H72v-7.38a2.69,2.69,0,1,1,5.38,0Z" fill="none" stroke="#fff" stroke-linecap="round" stroke-linejoin="round" stroke-width="1.38"/><path d="M71.55,121v-2.78a3.06,3.06,0,1,1,6.12,0V121" fill="none" stroke="#fff" stroke-linecap="round" stroke-linejoin="round" stroke-width="1.38"/><path d="M55.9,121V100.72a4.41,4.41,0,1,1,8.78,0v20.71" fill="none" stroke="#fff" stroke-linecap="round" stroke-linejoin="round" stroke-width="1.38"/><path d="M27.91,121.8V101a3.85,3.85,0,1,1,7.66,0V121.8" fill="none" stroke="#fff" stroke-linecap="round" stroke-linejoin="round" stroke-width="1.38"/><rect x="30.25" y="103.17" width="3.03" height="18.63" stroke-width="1.38" stroke="#fff" stroke-linecap="round" stroke-linejoin="round" fill="none"/><rect x="44.41" y="100.46" width="3.09" height="21.34" stroke-width="1.38" stroke="#fff" stroke-linecap="round" stroke-linejoin="round" fill="none"/><rect x="58.19" y="103.17" width="3.83" height="18.63" stroke-width="1.38" stroke="#fff" stroke-linecap="round" stroke-linejoin="round" fill="none"/><polyline points="44.41 100.46 41.69 100.46 41.69 93.11 43.66 93.11 43.66 90.4 48.24 90.4 48.24 92.37 50.53 92.37 50.53 100.46 47.49 100.46" fill="none" stroke="#fff" stroke-linecap="round" stroke-linejoin="round" stroke-width="1.38"/><polyline points="103.45 39.41 90.46 27.92 98.11 43.83" fill="none" stroke="#fff" stroke-linecap="round" stroke-linejoin="round" stroke-width="1.38"/><polyline points="142.76 79.54 142.76 68.48 143.58 67.5 140.29 63.1 137.11 66.46 133.32 62.45 129.31 66.2 126.03 63.1 122.8 66.98 123.65 68.4 123.65 80.29" fill="none" stroke="#fff" stroke-linecap="round" stroke-linejoin="round" stroke-width="1.38"/><polyline points="140.26 63.1 133.06 55.21 125.92 63.49" fill="none" stroke="#fff" stroke-linecap="round" stroke-linejoin="round" stroke-width="1.38"/><polyline points="137.4 65.3 133.44 55.73 129.36 65.17" fill="none" stroke="#fff" stroke-linecap="round" stroke-linejoin="round" stroke-width="1.38"/><line x1="133.32" y1="62.45" x2="133.44" y2="56.24" fill="none" stroke="#fff" stroke-linecap="round" stroke-linejoin="round" stroke-width="1.38"/><line x1="137.44" y1="78.37" x2="137.44" y2="66.29" fill="none" stroke="#fff" stroke-linecap="round" stroke-linejoin="round" stroke-width="1.38"/><line x1="129.77" y1="66.29" x2="129.77" y2="78.37" fill="none" stroke="#fff" stroke-linecap="round" stroke-linejoin="round" stroke-width="1.38"/><line x1="133.18" y1="55.11" x2="133.18" y2="48.09" fill="none" stroke="#fff" stroke-linecap="round" stroke-linejoin="round" stroke-width="1.38"/><line x1="134.72" y1="49.63" x2="131.64" y2="49.63" fill="none" stroke="#fff" stroke-linecap="round" stroke-linejoin="round" stroke-width="1.38"/><rect x="132.44" y="69.43" width="1.92" height="5.48" stroke-width="1.38" stroke="#fff" stroke-linecap="round" stroke-linejoin="round" fill="none"/><line x1="140.05" y1="70.17" x2="140.05" y2="75.23" fill="none" stroke="#fff" stroke-linecap="round" stroke-linejoin="round" stroke-width="1.38"/><line x1="126.69" y1="70.17" x2="126.69" y2="75.23" fill="none" stroke="#fff" stroke-linecap="round" stroke-linejoin="round" stroke-width="1.38"/><line x1="104.07" y1="50.8" x2="104.07" y2="59.74" fill="none" stroke="#fff" stroke-linecap="round" stroke-linejoin="round" stroke-width="1.38"/><line x1="101.03" y1="49.26" x2="101.03" y2="58.2" fill="none" stroke="#fff" stroke-linecap="round" stroke-linejoin="round" stroke-width="1.38"/><rect x="92.25" y="48.09" width="2.29" height="9.69" stroke-width="1.38" stroke="#fff" stroke-linecap="round" stroke-linejoin="round" fill="none"/><path d="M89.58,80.87s7.38.23,7.18,0c0,.32,0,2.52-.05,3.26h2.78v3.89h2.29V121.8" fill="none" stroke="#fff" stroke-linecap="round" stroke-linejoin="round" stroke-width="1.38"/><rect x="111.73" y="81.46" width="2.71" height="40.34" stroke-width="1.38" stroke="#fff" stroke-linecap="round" stroke-linejoin="round" fill="none"/><line x1="111.36" y1="84.17" x2="99.92" y2="84.17" fill="none" stroke="#fff" stroke-linecap="round" stroke-linejoin="round" stroke-width="1.38"/><polyline points="109.07 83.43 109.07 72.94 105.61 72.94 105.61 83.75" fill="none" stroke="#fff" stroke-linecap="round" stroke-linejoin="round" stroke-width="1.38"/><path d="M95.29,80.66v-8.9a1.39,1.39,0,1,0-2.72,0v8.9" fill="none" stroke="#fff" stroke-linecap="round" stroke-linejoin="round" stroke-width="1.38"/><polyline points="115.09 86.56 123.63 80.65 129.75 78.74 137.65 78.74 142.5 79.83 156.15 87.26 144.3 87.26" fill="none" stroke="#fff" stroke-linecap="round" stroke-linejoin="round" stroke-width="1.38"/><polyline points="137.72 78.61 143.78 84.54 126.81 84.54 130.38 79.25" fill="none" stroke="#fff" stroke-linecap="round" stroke-linejoin="round" stroke-width="1.38"/><line x1="143.56" y1="85.34" x2="143.56" y2="121.43" fill="none" stroke="#fff" stroke-linecap="round" stroke-linejoin="round" stroke-width="1.38"/><line x1="127.81" y1="85.34" x2="127.81" y2="121.8" fill="none" stroke="#fff" stroke-linecap="round" stroke-linejoin="round" stroke-width="1.38"/><line x1="155.8" y1="88.06" x2="155.8" y2="121" fill="none" stroke="#fff" stroke-linecap="round" stroke-linejoin="round" stroke-width="1.38"/><line x1="127.81" y1="87.63" x2="114.82" y2="87.63" fill="none" stroke="#fff" stroke-linecap="round" stroke-linejoin="round" stroke-width="1.38"/><path d="M111.66,96.56a5,5,0,1,0-10,0" fill="none" stroke="#fff" stroke-linecap="round" stroke-linejoin="round" stroke-width="1.38"/><path d="M104.07,109h5.37v-7.38a2.69,2.69,0,1,0-5.37,0Z" fill="none" stroke="#fff" stroke-linecap="round" stroke-linejoin="round" stroke-width="1.38"/><path d="M109.87,121.43v-3.21a3.06,3.06,0,1,0-6.12,0v3.21" fill="none" stroke="#fff" stroke-linecap="round" stroke-linejoin="round" stroke-width="1.38"/><path d="M125.52,121.43V100.72a4.41,4.41,0,1,0-8.78,0v20.71" fill="none" stroke="#fff" stroke-linecap="round" stroke-linejoin="round" stroke-width="1.38"/><path d="M153.51,121.43V101a3.85,3.85,0,1,0-7.66,0v20.48" fill="none" stroke="#fff" stroke-linecap="round" stroke-linejoin="round" stroke-width="1.38"/><rect x="148.14" y="103.17" width="3.03" height="18.63" stroke-width="1.38" stroke="#fff" stroke-linecap="round" stroke-linejoin="round" fill="none"/><rect x="133.93" y="100.46" width="3.09" height="21.34" stroke-width="1.38" stroke="#fff" stroke-linecap="round" stroke-linejoin="round" fill="none"/><rect x="119.4" y="103.17" width="3.83" height="18.63" stroke-width="1.38" stroke="#fff" stroke-linecap="round" stroke-linejoin="round" fill="none"/><polyline points="137.01 100.46 139.73 100.46 139.73 93.11 137.76 93.11 137.76 90.4 133.18 90.4 133.18 92.37 130.89 92.37 130.89 100.46 133.93 100.46" fill="none" stroke="#fff" stroke-linecap="round" stroke-linejoin="round" stroke-width="1.38"/><line x1="90.71" y1="27.54" x2="90.71" y2="19.4" fill="none" stroke="#fff" stroke-linecap="round" stroke-linejoin="round" stroke-width="1.38"/><line x1="89.17" y1="20.94" x2="92.25" y2="20.94" fill="none" stroke="#fff" stroke-linecap="round" stroke-linejoin="round" stroke-width="1.38"/><line x1="83.47" y1="45" x2="83.47" y2="65.17" fill="none" stroke="#fff" stroke-linecap="round" stroke-linejoin="round" stroke-width="1.38"/><line x1="97.57" y1="45" x2="97.57" y2="65.17" fill="none" stroke="#fff" stroke-linecap="round" stroke-linejoin="round" stroke-width="1.38"/><line x1="25.72" y1="95.04" x2="37.01" y2="90.97" fill="none" stroke="#fff" stroke-linecap="round" stroke-linejoin="round" stroke-width="1.38"/><line x1="66.21" y1="95.04" x2="53.74" y2="90.97" fill="none" stroke="#fff" stroke-linecap="round" stroke-linejoin="round" stroke-width="1.38"/><line x1="114.77" y1="95.04" x2="127.24" y2="90.97" fill="none" stroke="#fff" stroke-linecap="round" stroke-linejoin="round" stroke-width="1.38"/><line x1="155.26" y1="95.04" x2="143.97" y2="90.97" fill="none" stroke="#fff" stroke-linecap="round" stroke-linejoin="round" stroke-width="1.38"/><line x1="80.38" y1="67.09" x2="80.38" y2="84.17" fill="none" stroke="#fff" stroke-linecap="round" stroke-linejoin="round" stroke-width="1.38"/><line x1="101.03" y1="67.09" x2="101.03" y2="84.17" fill="none" stroke="#fff" stroke-linecap="round" stroke-linejoin="round" stroke-width="1.38"/><line x1="22.21" y1="121.8" x2="159.21" y2="121.8" fill="none" stroke="#fff" stroke-linecap="round" stroke-linejoin="round" stroke-width="1.38"/></svg>