<svg xmlns="http://www.w3.org/2000/svg" viewBox="0 0 176.13 173.3"><rect width="176.13" height="173.3" fill="#863376"/><path d="M54.07,145.62a6.4,6.4,0,0,1,1.55-.57,8.19,8.19,0,0,1,2.08-.27,7.53,7.53,0,0,1,2.66.43,2.31,2.31,0,0,1,1.48,1.37q.54,1.56,1.17,3.63c.42,1.38.84,2.8,1.26,4.27l1.23,4.35c.4,1.43.75,2.7,1,3.8a2.47,2.47,0,0,1-1.08.67,5.13,5.13,0,0,1-1.71.26,5.2,5.2,0,0,1-1.21-.12,2.16,2.16,0,0,1-.81-.36,1.77,1.77,0,0,1-.51-.63,5.45,5.45,0,0,1-.35-.9l-.54-2.07H54.91q-.24.9-.48,1.86T54,163.2c-.28.1-.57.18-.88.26a6,6,0,0,1-1.13.1,4,4,0,0,1-2.26-.52,1.7,1.7,0,0,1-.74-1.46,3,3,0,0,1,.12-.84q.12-.42.27-1c.14-.54.34-1.21.59-2s.52-1.66.82-2.6.62-1.88,1-2.86l1-2.78c.3-.87.58-1.64.83-2.32S53.93,146,54.07,145.62Zm3.6,3.87c-.28.84-.59,1.77-.94,2.8s-.67,2.08-.95,3.14H59.5c-.28-1.08-.56-2.14-.85-3.17s-.56-1.95-.8-2.77Z" fill="#fff"/><path d="M73,157.38v5.76a8.21,8.21,0,0,1-1,.18,11.09,11.09,0,0,1-1.4.09,6.17,6.17,0,0,1-1.21-.11,1.92,1.92,0,0,1-.87-.37,1.68,1.68,0,0,1-.53-.75,3.66,3.66,0,0,1-.18-1.26V146.79a1.33,1.33,0,0,1,.35-1,2.44,2.44,0,0,1,.94-.55,11.24,11.24,0,0,1,2.37-.53,23.81,23.81,0,0,1,2.88-.16q4.14,0,6.24,1.74a5.8,5.8,0,0,1,2.1,4.71,5.26,5.26,0,0,1-1,3.18,6.89,6.89,0,0,1-2.28,2q1.08,1.47,2.13,2.76a17.78,17.78,0,0,1,1.65,2.34,2.78,2.78,0,0,1-1.09,1.6,3.07,3.07,0,0,1-1.79.56,3.84,3.84,0,0,1-1.14-.15,2.76,2.76,0,0,1-.84-.42,3.44,3.44,0,0,1-.66-.66,8.81,8.81,0,0,1-.57-.84l-2.52-4.05Zm1.89-4a2.62,2.62,0,0,0,1.8-.59,2.17,2.17,0,0,0,.66-1.72,2.09,2.09,0,0,0-.73-1.73,3.75,3.75,0,0,0-2.33-.58,6.83,6.83,0,0,0-.72,0l-.6.09v4.5Z" fill="#fff"/><path d="M97.33,158.79a2.86,2.86,0,0,1-1,.52,4.45,4.45,0,0,1-1.43.2,5,5,0,0,1-1.78-.27,1.44,1.44,0,0,1-.92-.93c-.56-1.76-1-3.19-1.38-4.27s-.64-2-.84-2.87h-.15c-.06,1.18-.1,2.25-.13,3.22s0,1.92-.06,2.84,0,1.85-.06,2.79-.08,2-.14,3.12a5.42,5.42,0,0,1-1,.25,7.66,7.66,0,0,1-1.26.11,4.15,4.15,0,0,1-2-.42,1.61,1.61,0,0,1-.74-1.53l.87-15.3a2.87,2.87,0,0,1,1.05-.84,4.75,4.75,0,0,1,2.28-.45,5.09,5.09,0,0,1,2.49.5,2.92,2.92,0,0,1,1.32,1.6c.18.48.38,1,.59,1.65s.42,1.26.63,1.92.41,1.32.61,2l.54,1.76h.15q.72-2.52,1.44-4.88c.48-1.56.92-2.88,1.32-3.94a5.32,5.32,0,0,1,1.16-.41,6.89,6.89,0,0,1,1.57-.16,5.86,5.86,0,0,1,2.4.43,1.73,1.73,0,0,1,1.08,1.25c.08.4.17,1,.26,1.84s.18,1.77.28,2.81.2,2.14.3,3.3.2,2.28.29,3.34.16,2.06.22,2.94.1,1.58.12,2.06a4.25,4.25,0,0,1-1.06.44,6.28,6.28,0,0,1-1.43.13,4.27,4.27,0,0,1-1.92-.39,1.65,1.65,0,0,1-.84-1.53q-.18-3.27-.22-5.88c0-1.74-.08-3.2-.14-4.38h-.15q-.3,1.17-.87,2.94T97.33,158.79Z" fill="#fff"/><path d="M107.47,147.87a2.59,2.59,0,0,1,2.79-2.79h9.9a3.58,3.58,0,0,1,.38.87,3.88,3.88,0,0,1,.16,1.14,2.2,2.2,0,0,1-.49,1.62,1.81,1.81,0,0,1-1.31.48h-6.33V152h6.75a3.72,3.72,0,0,1,.54,2,2.24,2.24,0,0,1-.48,1.62,1.74,1.74,0,0,1-1.29.48h-5.52v3.15h7.71a3.58,3.58,0,0,1,.38.87,3.88,3.88,0,0,1,.16,1.14,2.24,2.24,0,0,1-.49,1.63,1.78,1.78,0,0,1-1.31.5h-8.76a2.59,2.59,0,0,1-2.79-2.79Z" fill="#fff"/><path d="M139.18,162.63a2.72,2.72,0,0,1-1.21.64,7.08,7.08,0,0,1-1.91.23,6.6,6.6,0,0,1-2.1-.33,2.91,2.91,0,0,1-1.62-1.59l-3-6.06c-.3-.62-.57-1.2-.81-1.76s-.5-1.18-.78-1.9l-.18,0c.08,1.08.13,2.18.14,3.3s0,2.22,0,3.3v4.65a8.22,8.22,0,0,1-1,.18,10.17,10.17,0,0,1-1.34.09,6.79,6.79,0,0,1-1.17-.09,1.79,1.79,0,0,1-.84-.36,1.69,1.69,0,0,1-.51-.74,3.39,3.39,0,0,1-.18-1.21V146a2.51,2.51,0,0,1,1.29-.9,5.67,5.67,0,0,1,1.86-.3,6.5,6.5,0,0,1,2.12.34,2.87,2.87,0,0,1,1.6,1.58l3,6.06c.3.62.57,1.21.81,1.75s.5,1.19.78,1.91l.15,0q-.12-1.62-.15-3.24t0-3.24v-4.86a8.46,8.46,0,0,1,1-.18,10,10,0,0,1,1.33-.09,3.6,3.6,0,0,1,2,.46,2.21,2.21,0,0,1,.69,1.94Z" fill="#fff"/><path d="M147.13,163.14a8.21,8.21,0,0,1-1,.18,11.21,11.21,0,0,1-1.4.09,6.17,6.17,0,0,1-1.21-.11,2,2,0,0,1-.89-.37,1.62,1.62,0,0,1-.54-.75,3.66,3.66,0,0,1-.18-1.26V145.08l1.05-.17a9.54,9.54,0,0,1,1.38-.1,6.33,6.33,0,0,1,1.22.1,2.35,2.35,0,0,1,.88.38,1.62,1.62,0,0,1,.54.75,3.66,3.66,0,0,1,.18,1.26Z" fill="#fff"/><path d="M153.7,145.62a6.3,6.3,0,0,1,1.54-.57,8.27,8.27,0,0,1,2.09-.27,7.57,7.57,0,0,1,2.66.43,2.33,2.33,0,0,1,1.48,1.37q.54,1.56,1.17,3.63c.42,1.38.84,2.8,1.26,4.27l1.23,4.35c.4,1.43.75,2.7,1.05,3.8a2.47,2.47,0,0,1-1.08.67,5.13,5.13,0,0,1-1.71.26,5.29,5.29,0,0,1-1.22-.12,2.11,2.11,0,0,1-.8-.36,1.8,1.8,0,0,1-.52-.63,5.47,5.47,0,0,1-.34-.9l-.54-2.07h-5.43q-.24.9-.48,1.86t-.48,1.86c-.28.1-.58.18-.88.26a6.08,6.08,0,0,1-1.13.1,4,4,0,0,1-2.27-.52,1.69,1.69,0,0,1-.73-1.46,3,3,0,0,1,.12-.84q.12-.42.27-1c.14-.54.33-1.21.58-2s.53-1.66.83-2.6.62-1.88,1-2.86l1-2.78c.3-.87.57-1.64.83-2.32S153.56,146,153.7,145.62Zm3.6,3.87c-.28.84-.6,1.77-1,2.8s-.66,2.08-.94,3.14h3.72c-.28-1.08-.57-2.14-.86-3.17s-.55-1.95-.79-2.77Z" fill="#fff"/><path d="M85.33,121.43V108.91a5.39,5.39,0,1,1,10.75,0v12.52" fill="none" stroke="#fff" stroke-linecap="round" stroke-linejoin="round" stroke-width="1.38"/><path d="M83.47,121.43V105c0-4.29,3.1-7.76,7.24-7.76S98,100.72,98,105v16.42" fill="none" stroke="#fff" stroke-linecap="round" stroke-linejoin="round" stroke-width="1.38"/><path d="M83.47,117.12V101.9c0-4.28,3.1-7.76,7.24-7.76S98,97.62,98,101.9v15.22" fill="none" stroke="#fff" stroke-linecap="round" stroke-linejoin="round" stroke-width="1.38"/><path d="M90.43,38s-7.13,7.23-7.13,6.84-5.6-5.44-5.6-5.44L73,47.32l1.28,2.2V67.11l-15.5,10,24.56-12H97.86l24.67,11.9-15.38-10V49.52l1.15-2.21-4.82-7.89s-5.64,5-5.64,5.41-7.18-6.89-7.18-6.89" fill="none" stroke="#fff" stroke-linecap="round" stroke-linejoin="round" stroke-width="1.38"/><polyline points="77.72 39.41 90.71 27.92 83.06 43.83" fill="none" stroke="#fff" stroke-linecap="round" stroke-linejoin="round" stroke-width="1.38"/><polyline points="38.66 79.54 38.66 68.48 37.71 67.5 40.94 63.1 44.09 66.46 47.86 62.45 51.87 66.2 55.14 63.1 58.5 66.98 57.77 68.4 57.77 80.29" fill="none" stroke="#fff" stroke-linecap="round" stroke-linejoin="round" stroke-width="1.38"/><polyline points="40.91 63.1 48.11 55.21 55.25 63.49" fill="none" stroke="#fff" stroke-linecap="round" stroke-linejoin="round" stroke-width="1.38"/><polyline points="43.77 65.3 47.73 55.73 51.81 65.17" fill="none" stroke="#fff" stroke-linecap="round" stroke-linejoin="round" stroke-width="1.38"/><line x1="47.86" y1="62.45" x2="47.73" y2="56.24" fill="none" stroke="#fff" stroke-linecap="round" stroke-linejoin="round" stroke-width="1.38"/><line x1="43.98" y1="78.37" x2="43.98" y2="66.29" fill="none" stroke="#fff" stroke-linecap="round" stroke-linejoin="round" stroke-width="1.38"/><line x1="51.64" y1="66.29" x2="51.64" y2="78.37" fill="none" stroke="#fff" stroke-linecap="round" stroke-linejoin="round" stroke-width="1.38"/><line x1="48.24" y1="55.11" x2="48.24" y2="48.09" fill="none" stroke="#fff" stroke-linecap="round" stroke-linejoin="round" stroke-width="1.38"/><line x1="46.69" y1="49.63" x2="49.78" y2="49.63" fill="none" stroke="#fff" stroke-linecap="round" stroke-linejoin="round" stroke-width="1.38"/><rect x="47.07" y="69.43" width="1.92" height="5.48" stroke-width="1.38" stroke="#fff" stroke-linecap="round" stroke-linejoin="round" fill="none"/><line x1="41.37" y1="70.17" x2="41.37" y2="75.23" fill="none" stroke="#fff" stroke-linecap="round" stroke-linejoin="round" stroke-width="1.38"/><line x1="54.73" y1="70.17" x2="54.73" y2="75.23" fill="none" stroke="#fff" stroke-linecap="round" stroke-linejoin="round" stroke-width="1.38"/><line x1="77.35" y1="50.8" x2="77.35" y2="59.74" fill="none" stroke="#fff" stroke-linecap="round" stroke-linejoin="round" stroke-width="1.38"/><line x1="80.38" y1="49.26" x2="80.38" y2="58.2" fill="none" stroke="#fff" stroke-linecap="round" stroke-linejoin="round" stroke-width="1.38"/><rect x="86.88" y="48.09" width="2.29" height="9.69" stroke-width="1.38" stroke="#fff" stroke-linecap="round" stroke-linejoin="round" fill="none"/><path d="M90.09,80.87a55.81,55.81,0,0,1-5.62,0c0,.32-.09,2.52,0,3.26H81.93v3.89H79.64V121.8" fill="none" stroke="#fff" stroke-linecap="round" stroke-linejoin="round" stroke-width="1.38"/><rect x="66.97" y="81.46" width="2.71" height="40.34" stroke-width="1.38" stroke="#fff" stroke-linecap="round" stroke-linejoin="round" fill="none"/><line x1="81.5" y1="84.17" x2="70.06" y2="84.17" fill="none" stroke="#fff" stroke-linecap="round" stroke-linejoin="round" stroke-width="1.38"/><polyline points="72.35 83.43 72.35 72.94 75.81 72.94 75.81 83.75" fill="none" stroke="#fff" stroke-linecap="round" stroke-linejoin="round" stroke-width="1.38"/><path d="M86.13,80.66v-8.9a1.39,1.39,0,1,1,2.72,0v8.9" fill="none" stroke="#fff" stroke-linecap="round" stroke-linejoin="round" stroke-width="1.38"/><polyline points="66.21 86.56 57.61 80.65 51.43 78.74 43.52 78.74 38.67 79.83 25.02 87.26 37.11 87.26" fill="none" stroke="#fff" stroke-linecap="round" stroke-linejoin="round" stroke-width="1.38"/><polyline points="43.45 78.61 37.4 84.54 54.36 84.54 50.79 79.25" fill="none" stroke="#fff" stroke-linecap="round" stroke-linejoin="round" stroke-width="1.38"/><line x1="37.86" y1="85.34" x2="37.86" y2="121.43" fill="none" stroke="#fff" stroke-linecap="round" stroke-linejoin="round" stroke-width="1.38"/><line x1="53.61" y1="85.34" x2="53.61" y2="121.43" fill="none" stroke="#fff" stroke-linecap="round" stroke-linejoin="round" stroke-width="1.38"/><line x1="25.62" y1="88.06" x2="25.62" y2="121.43" fill="none" stroke="#fff" stroke-linecap="round" stroke-linejoin="round" stroke-width="1.38"/><line x1="53.61" y1="87.63" x2="66.6" y2="87.63" fill="none" stroke="#fff" stroke-linecap="round" stroke-linejoin="round" stroke-width="1.38"/><path d="M69.52,96.56a5,5,0,1,1,9.94,0" fill="none" stroke="#fff" stroke-linecap="round" stroke-linejoin="round" stroke-width="1.38"/><path d="M77.35,109H72v-7.38a2.69,2.69,0,1,1,5.38,0Z" fill="none" stroke="#fff" stroke-linecap="round" stroke-linejoin="round" stroke-width="1.38"/><path d="M71.55,121v-2.78a3.06,3.06,0,1,1,6.12,0V121" fill="none" stroke="#fff" stroke-linecap="round" stroke-linejoin="round" stroke-width="1.38"/><path d="M55.9,121V100.72a4.41,4.41,0,1,1,8.78,0v20.71" fill="none" stroke="#fff" stroke-linecap="round" stroke-linejoin="round" stroke-width="1.38"/><path d="M27.91,121.8V101a3.85,3.85,0,1,1,7.66,0V121.8" fill="none" stroke="#fff" stroke-linecap="round" stroke-linejoin="round" stroke-width="1.38"/><rect x="30.25" y="103.17" width="3.03" height="18.63" stroke-width="1.38" stroke="#fff" stroke-linecap="round" stroke-linejoin="round" fill="none"/><rect x="44.41" y="100.46" width="3.09" height="21.34" stroke-width="1.38" stroke="#fff" stroke-linecap="round" stroke-linejoin="round" fill="none"/><rect x="58.19" y="103.17" width="3.83" height="18.63" stroke-width="1.38" stroke="#fff" stroke-linecap="round" stroke-linejoin="round" fill="none"/><polyline points="44.41 100.46 41.69 100.46 41.69 93.11 43.66 93.11 43.66 90.4 48.24 90.4 48.24 92.37 50.53 92.37 50.53 100.46 47.49 100.46" fill="none" stroke="#fff" stroke-linecap="round" stroke-linejoin="round" stroke-width="1.38"/><polyline points="103.45 39.41 90.46 27.92 98.11 43.83" fill="none" stroke="#fff" stroke-linecap="round" stroke-linejoin="round" stroke-width="1.38"/><polyline points="142.76 79.54 142.76 68.48 143.58 67.5 140.29 63.1 137.11 66.46 133.32 62.45 129.31 66.2 126.03 63.1 122.8 66.98 123.65 68.4 123.65 80.29" fill="none" stroke="#fff" stroke-linecap="round" stroke-linejoin="round" stroke-width="1.38"/><polyline points="140.26 63.1 133.06 55.21 125.92 63.49" fill="none" stroke="#fff" stroke-linecap="round" stroke-linejoin="round" stroke-width="1.38"/><polyline points="137.4 65.3 133.44 55.73 129.36 65.17" fill="none" stroke="#fff" stroke-linecap="round" stroke-linejoin="round" stroke-width="1.38"/><line x1="133.32" y1="62.45" x2="133.44" y2="56.24" fill="none" stroke="#fff" stroke-linecap="round" stroke-linejoin="round" stroke-width="1.38"/><line x1="137.44" y1="78.37" x2="137.44" y2="66.29" fill="none" stroke="#fff" stroke-linecap="round" stroke-linejoin="round" stroke-width="1.38"/><line x1="129.77" y1="66.29" x2="129.77" y2="78.37" fill="none" stroke="#fff" stroke-linecap="round" stroke-linejoin="round" stroke-width="1.38"/><line x1="133.18" y1="55.11" x2="133.18" y2="48.09" fill="none" stroke="#fff" stroke-linecap="round" stroke-linejoin="round" stroke-width="1.38"/><line x1="134.72" y1="49.63" x2="131.64" y2="49.63" fill="none" stroke="#fff" stroke-linecap="round" stroke-linejoin="round" stroke-width="1.38"/><rect x="132.44" y="69.43" width="1.92" height="5.48" stroke-width="1.38" stroke="#fff" stroke-linecap="round" stroke-linejoin="round" fill="none"/><line x1="140.05" y1="70.17" x2="140.05" y2="75.23" fill="none" stroke="#fff" stroke-linecap="round" stroke-linejoin="round" stroke-width="1.38"/><line x1="126.69" y1="70.17" x2="126.69" y2="75.23" fill="none" stroke="#fff" stroke-linecap="round" stroke-linejoin="round" stroke-width="1.38"/><line x1="104.07" y1="50.8" x2="104.07" y2="59.74" fill="none" stroke="#fff" stroke-linecap="round" stroke-linejoin="round" stroke-width="1.38"/><line x1="101.03" y1="49.26" x2="101.03" y2="58.2" fill="none" stroke="#fff" stroke-linecap="round" stroke-linejoin="round" stroke-width="1.38"/><rect x="92.25" y="48.09" width="2.29" height="9.69" stroke-width="1.38" stroke="#fff" stroke-linecap="round" stroke-linejoin="round" fill="none"/><path d="M89.58,80.87s7.38.23,7.18,0c0,.32,0,2.52-.05,3.26h2.78v3.89h2.29V121.8" fill="none" stroke="#fff" stroke-linecap="round" stroke-linejoin="round" stroke-width="1.38"/><rect x="111.73" y="81.46" width="2.71" height="40.34" stroke-width="1.38" stroke="#fff" stroke-linecap="round" stroke-linejoin="round" fill="none"/><line x1="111.36" y1="84.17" x2="99.92" y2="84.17" fill="none" stroke="#fff" stroke-linecap="round" stroke-linejoin="round" stroke-width="1.38"/><polyline points="109.07 83.43 109.07 72.94 105.61 72.94 105.61 83.75" fill="none" stroke="#fff" stroke-linecap="round" stroke-linejoin="round" stroke-width="1.38"/><path d="M95.29,80.66v-8.9a1.39,1.39,0,1,0-2.72,0v8.9" fill="none" stroke="#fff" stroke-linecap="round" stroke-linejoin="round" stroke-width="1.38"/><polyline points="115.09 86.56 123.63 80.65 129.75 78.74 137.65 78.74 142.5 79.83 156.15 87.26 144.3 87.26" fill="none" stroke="#fff" stroke-linecap="round" stroke-linejoin="round" stroke-width="1.38"/><polyline points="137.72 78.61 143.78 84.54 126.81 84.54 130.38 79.25" fill="none" stroke="#fff" stroke-linecap="round" stroke-linejoin="round" stroke-width="1.38"/><line x1="143.56" y1="85.34" x2="143.56" y2="121.43" fill="none" stroke="#fff" stroke-linecap="round" stroke-linejoin="round" stroke-width="1.38"/><line x1="127.81" y1="85.34" x2="127.81" y2="121.8" fill="none" stroke="#fff" stroke-linecap="round" stroke-linejoin="round" stroke-width="1.38"/><line x1="155.8" y1="88.06" x2="155.8" y2="121" fill="none" stroke="#fff" stroke-linecap="round" stroke-linejoin="round" stroke-width="1.38"/><line x1="127.81" y1="87.63" x2="114.82" y2="87.63" fill="none" stroke="#fff" stroke-linecap="round" stroke-linejoin="round" stroke-width="1.38"/><path d="M111.66,96.56a5,5,0,1,0-10,0" fill="none" stroke="#fff" stroke-linecap="round" stroke-linejoin="round" stroke-width="1.38"/><path d="M104.07,109h5.37v-7.38a2.69,2.69,0,1,0-5.37,0Z" fill="none" stroke="#fff" stroke-linecap="round" stroke-linejoin="round" stroke-width="1.38"/><path d="M109.87,121.43v-3.21a3.06,3.06,0,1,0-6.12,0v3.21" fill="none" stroke="#fff" stroke-linecap="round" stroke-linejoin="round" stroke-width="1.38"/><path d="M125.52,121.43V100.72a4.41,4.41,0,1,0-8.78,0v20.71" fill="none" stroke="#fff" stroke-linecap="round" stroke-linejoin="round" stroke-width="1.38"/><path d="M153.51,121.43V101a3.85,3.85,0,1,0-7.66,0v20.48" fill="none" stroke="#fff" stroke-linecap="round" stroke-linejoin="round" stroke-width="1.38"/><rect x="148.14" y="103.17" width="3.03" height="18.63" stroke-width="1.38" stroke="#fff" stroke-linecap="round" stroke-linejoin="round" fill="none"/><rect x="133.93" y="100.46" width="3.09" height="21.34" stroke-width="1.38" stroke="#fff" stroke-linecap="round" stroke-linejoin="round" fill="none"/><rect x="119.4" y="103.17" width="3.83" height="18.63" stroke-width="1.38" stroke="#fff" stroke-linecap="round" stroke-linejoin="round" fill="none"/><polyline points="137.01 100.46 139.73 100.46 139.73 93.11 137.76 93.11 137.76 90.4 133.18 90.4 133.18 92.37 130.89 92.37 130.89 100.46 133.93 100.46" fill="none" stroke="#fff" stroke-linecap="round" stroke-linejoin="round" stroke-width="1.38"/><line x1="90.71" y1="27.54" x2="90.71" y2="19.4" fill="none" stroke="#fff" stroke-linecap="round" stroke-linejoin="round" stroke-width="1.38"/><line x1="89.17" y1="20.94" x2="92.25" y2="20.94" fill="none" stroke="#fff" stroke-linecap="round" stroke-linejoin="round" stroke-width="1.38"/><line x1="83.47" y1="45" x2="83.47" y2="65.17" fill="none" stroke="#fff" stroke-linecap="round" stroke-linejoin="round" stroke-width="1.38"/><line x1="97.57" y1="45" x2="97.57" y2="65.17" fill="none" stroke="#fff" stroke-linecap="round" stroke-linejoin="round" stroke-width="1.38"/><line x1="25.72" y1="95.04" x2="37.01" y2="90.97" fill="none" stroke="#fff" stroke-linecap="round" stroke-linejoin="round" stroke-width="1.38"/><line x1="66.21" y1="95.04" x2="53.74" y2="90.97" fill="none" stroke="#fff" stroke-linecap="round" stroke-linejoin="round" stroke-width="1.38"/><line x1="114.77" y1="95.04" x2="127.24" y2="90.97" fill="none" stroke="#fff" stroke-linecap="round" stroke-linejoin="round" stroke-width="1.38"/><line x1="155.26" y1="95.04" x2="143.97" y2="90.97" fill="none" stroke="#fff" stroke-linecap="round" stroke-linejoin="round" stroke-width="1.38"/><line x1="80.38" y1="67.09" x2="80.38" y2="84.17" fill="none" stroke="#fff" stroke-linecap="round" stroke-linejoin="round" stroke-width="1.38"/><line x1="101.03" y1="67.09" x2="101.03" y2="84.17" fill="none" stroke="#fff" stroke-linecap="round" stroke-linejoin="round" stroke-width="1.38"/><line x1="22.21" y1="121.8" x2="159.21" y2="121.8" fill="none" stroke="#fff" stroke-linecap="round" stroke-linejoin="round" stroke-width="1.38"/></svg>