<svg xmlns="http://www.w3.org/2000/svg" viewBox="0 0 176.13 173.3"><defs><style>.a{fill:#863376;}.b{fill:#fff;}</style></defs><title>BRAZIL</title><rect class="a" width="176.13" height="173.3"/><path class="b" d="M130.12,88.55c.65-.48,2.66-.63,2.89-.24v23c-1.24,0-2.95-1.52-3.25-3.53-5.16-5.53-10.44-12.6-21.47-17.88V82.18C116.64,83.38,128,88.49,130.12,88.55Z"/><path class="b" d="M37.57,79.41c3.51.2,11.51.53,16.58.57-.82-1.61-8.23-10.48-10.95-11.87-.39-.48.09-1.14.69-1.14,3.36,1.07,12,10.82,13.38,13,3.67,0,17.74-.12,22.14-.32A29.67,29.67,0,0,1,84.2,86.6c-4.62-.69-14.1-.06-14.83,0-2,1.13-5.72,6.25-8.44,9.17A1,1,0,0,1,59.46,95c1.28-2.25,4.81-6.12,6-8.28a217.24,217.24,0,0,1-26.86-1.21C34.8,84.72,35.46,79.48,37.57,79.41Z"/><path class="b" d="M66,17.32c6.93-2.48,12.85.29,15.55,5.63a27.24,27.24,0,0,0-3,.24c-2.5-4.55-8.8-4.09-11.16-2.37-4.27,3.09-4.33,8.65-2,14.23,5.8,14.22,25,9.08,36.38,30.48,5.4,10.11,2.31,20.5,2.82,30.88.55,11.12,2.58,14.86,2.58,21.64,0,5.24-3.07,6-4.51,4.36.38,15.24-8.52,13.08-8.71,3-1,.95-3.76.83-3.91-5.61,0-1.25,2.28-26-.79-32.14C81.28,72,62.58,71,57.49,41.53,55.13,27.86,58.9,19.86,66,17.32Z"/><path class="b" d="M79.68,26c3.59,8.71.92,12.73,4,19.29,7.08-1.9,26.58-1.44,35.07,6.25,1.41,1.28,2,1.15,2-.42C120.73,32.27,104,26,79.68,26ZM84,28.83c9.72,0,16.29,1.14,21.6,3.63,1.34,6.41,3,9.46,7,13.39-8.73-4.57-20.65-5.55-26.29-4C85,37.07,86,33.63,84,28.83Z"/><path class="b" d="M67,29.07a4.81,4.81,0,1,0,4.81-4.82A4.81,4.81,0,0,0,67,29.07Zm4.17-1.14a1.89,1.89,0,1,1,1.89,1.9A1.89,1.89,0,0,1,71.17,27.93Z"/><path class="b" d="M75.31,163.74l-1.2,0c-.46,0-.93-.06-1.42-.12s-1-.13-1.46-.22a7.89,7.89,0,0,1-1.32-.38,2.23,2.23,0,0,1-1.65-2.19v-14a1.33,1.33,0,0,1,.35-1,2.44,2.44,0,0,1,.94-.55,11.46,11.46,0,0,1,2.55-.53,29.39,29.39,0,0,1,3.15-.16,11.22,11.22,0,0,1,5.91,1.29,4.37,4.37,0,0,1,2.07,4,3.57,3.57,0,0,1-.78,2.32,4.39,4.39,0,0,1-2.1,1.43,5.21,5.21,0,0,1,2.51,1.53,4,4,0,0,1,1,2.79,4.84,4.84,0,0,1-2.2,4.39A11.73,11.73,0,0,1,75.31,163.74Zm-2-11.55h2.19a3,3,0,0,0,1.88-.48A1.72,1.72,0,0,0,78,150.3a1.5,1.5,0,0,0-.67-1.29,3.52,3.52,0,0,0-2-.48l-1,0a7.68,7.68,0,0,0-.92.09Zm0,7.32a5.41,5.41,0,0,0,1.08.16c.44,0,.86.05,1.26.05a3.73,3.73,0,0,0,2-.5,1.68,1.68,0,0,0,.79-1.54,1.54,1.54,0,0,0-.66-1.41,3.81,3.81,0,0,0-2-.42H73.36Z"/><path class="b" d="M92.05,157.38v5.76a8.21,8.21,0,0,1-1,.18,11.09,11.09,0,0,1-1.4.09,6.17,6.17,0,0,1-1.21-.11,1.92,1.92,0,0,1-.87-.37,1.68,1.68,0,0,1-.53-.75,3.66,3.66,0,0,1-.18-1.26V146.79a1.33,1.33,0,0,1,.35-1,2.44,2.44,0,0,1,.94-.55,11.24,11.24,0,0,1,2.37-.53,23.81,23.81,0,0,1,2.88-.16q4.14,0,6.24,1.74a5.8,5.8,0,0,1,2.1,4.71,5.26,5.26,0,0,1-1,3.18,6.89,6.89,0,0,1-2.28,2q1.08,1.47,2.13,2.76a17.78,17.78,0,0,1,1.65,2.34,2.78,2.78,0,0,1-1.09,1.6,3.07,3.07,0,0,1-1.79.56,3.84,3.84,0,0,1-1.14-.15,2.76,2.76,0,0,1-.84-.42,3.44,3.44,0,0,1-.66-.66,8.81,8.81,0,0,1-.57-.84l-2.52-4.05Zm1.89-4a2.62,2.62,0,0,0,1.8-.59,2.17,2.17,0,0,0,.66-1.72,2.09,2.09,0,0,0-.73-1.73,3.75,3.75,0,0,0-2.33-.58,6.83,6.83,0,0,0-.72,0l-.6.09v4.5Z"/><path class="b" d="M109.21,145.62a6.4,6.4,0,0,1,1.55-.57,8.19,8.19,0,0,1,2.08-.27,7.53,7.53,0,0,1,2.66.43,2.31,2.31,0,0,1,1.48,1.37q.54,1.56,1.17,3.63c.42,1.38.84,2.8,1.26,4.27l1.23,4.35c.4,1.43.75,2.7,1,3.8a2.47,2.47,0,0,1-1.08.67,5.13,5.13,0,0,1-1.71.26,5.2,5.2,0,0,1-1.21-.12,2.16,2.16,0,0,1-.81-.36,1.77,1.77,0,0,1-.51-.63,5.45,5.45,0,0,1-.35-.9l-.54-2.07h-5.43q-.24.9-.48,1.86t-.48,1.86c-.28.1-.57.18-.88.26a6,6,0,0,1-1.13.1,4,4,0,0,1-2.26-.52,1.7,1.7,0,0,1-.74-1.46,3,3,0,0,1,.12-.84q.12-.42.27-1c.14-.54.34-1.21.59-2s.52-1.66.82-2.6.62-1.88,1-2.86l1-2.78c.3-.87.58-1.64.83-2.32S109.07,146,109.21,145.62Zm3.6,3.87c-.28.84-.59,1.77-.94,2.8s-.67,2.08-1,3.14h3.72c-.28-1.08-.56-2.14-.85-3.17s-.56-1.95-.8-2.77Z"/><path class="b" d="M131.59,149.28h-7.38a3.88,3.88,0,0,1-.39-.9,4,4,0,0,1-.18-1.2,2.27,2.27,0,0,1,.53-1.68,1.86,1.86,0,0,1,1.36-.51h11.19a3.53,3.53,0,0,1,1.32,2.88,3.4,3.4,0,0,1-.34,1.48,6.74,6.74,0,0,1-.89,1.4L130,159h7.68a3.88,3.88,0,0,1,.39.9,4,4,0,0,1,.18,1.2,2.27,2.27,0,0,1-.52,1.68,1.89,1.89,0,0,1-1.37.51H124.54a3.14,3.14,0,0,1-.84-1.14,3.92,3.92,0,0,1-.33-1.65,3.41,3.41,0,0,1,.39-1.53,7.71,7.71,0,0,1,.93-1.44Z"/><path class="b" d="M146.35,163.14a8.21,8.21,0,0,1-1,.18,11.09,11.09,0,0,1-1.4.09,6.17,6.17,0,0,1-1.21-.11,2,2,0,0,1-.89-.37,1.62,1.62,0,0,1-.54-.75,3.66,3.66,0,0,1-.18-1.26V145.08l1.05-.17a9.54,9.54,0,0,1,1.38-.1,6.33,6.33,0,0,1,1.22.1,2.28,2.28,0,0,1,.88.38,1.62,1.62,0,0,1,.54.75,3.66,3.66,0,0,1,.18,1.26Z"/><path class="b" d="M153,163.35a2.59,2.59,0,0,1-2.79-2.79V145.05l1.05-.17a9.54,9.54,0,0,1,1.38-.1,6.33,6.33,0,0,1,1.22.1,2.35,2.35,0,0,1,.88.38,1.62,1.62,0,0,1,.54.75,3.66,3.66,0,0,1,.18,1.26v11.85h6.87a3.88,3.88,0,0,1,.39.88,3.75,3.75,0,0,1,.18,1.16,2.29,2.29,0,0,1-.51,1.69,1.86,1.86,0,0,1-1.35.5Z"/></svg>