<svg xmlns="http://www.w3.org/2000/svg" viewBox="0 0 176.13 173.3"><defs><style>.a{fill:#088084;}.b{fill:#fff;}</style></defs><title>CHINA</title><rect class="a" width="176.13" height="173.3"/><path class="b" d="M89.29,148.74a4.45,4.45,0,0,0-3.54,1.41,5.88,5.88,0,0,0-1.23,4,5.55,5.55,0,0,0,1.37,4,4.87,4.87,0,0,0,3.67,1.41,5.84,5.84,0,0,0,2.09-.33,14.24,14.24,0,0,0,1.63-.75,2.92,2.92,0,0,1,.8,1,3,3,0,0,1,.28,1.36A2.44,2.44,0,0,1,93,162.94a8,8,0,0,1-4.16.86,12.26,12.26,0,0,1-3.78-.57A8.44,8.44,0,0,1,82,161.47a8.19,8.19,0,0,1-2.08-3,11.1,11.1,0,0,1-.77-4.33,10.83,10.83,0,0,1,.74-4.13,8.84,8.84,0,0,1,2-3,8.44,8.44,0,0,1,3-1.86,10.5,10.5,0,0,1,3.66-.63,8.44,8.44,0,0,1,4.28.9,2.64,2.64,0,0,1,1.51,2.31,2.33,2.33,0,0,1-.39,1.35,3.21,3.21,0,0,1-.9.9,9.69,9.69,0,0,0-1.66-.87A5.45,5.45,0,0,0,89.29,148.74Z"/><path class="b" d="M113.41,163.14a8.21,8.21,0,0,1-1,.18,11.09,11.09,0,0,1-1.4.09,6.17,6.17,0,0,1-1.21-.11,2,2,0,0,1-.89-.37,1.62,1.62,0,0,1-.54-.75,3.66,3.66,0,0,1-.18-1.26v-4.68H102.4v6.9a8.21,8.21,0,0,1-1,.18,11.09,11.09,0,0,1-1.4.09,6.17,6.17,0,0,1-1.21-.11,2,2,0,0,1-.89-.37,1.62,1.62,0,0,1-.54-.75,3.66,3.66,0,0,1-.18-1.26V145.08l1-.17a9.54,9.54,0,0,1,1.38-.1,6.33,6.33,0,0,1,1.22.1,2.28,2.28,0,0,1,.88.38,1.62,1.62,0,0,1,.54.75,3.66,3.66,0,0,1,.18,1.26v4.8h5.76v-7l1-.17a9.54,9.54,0,0,1,1.38-.1,6.33,6.33,0,0,1,1.22.1,2.28,2.28,0,0,1,.88.38,1.62,1.62,0,0,1,.54.75,3.66,3.66,0,0,1,.18,1.26Z"/><path class="b" d="M122.56,163.14a8.21,8.21,0,0,1-1,.18,11.09,11.09,0,0,1-1.4.09,6.17,6.17,0,0,1-1.21-.11,2,2,0,0,1-.89-.37,1.62,1.62,0,0,1-.54-.75,3.66,3.66,0,0,1-.18-1.26V145.08l1-.17a9.54,9.54,0,0,1,1.38-.1,6.33,6.33,0,0,1,1.22.1,2.28,2.28,0,0,1,.88.38,1.62,1.62,0,0,1,.54.75,3.66,3.66,0,0,1,.18,1.26Z"/><path class="b" d="M142.93,162.63a2.72,2.72,0,0,1-1.21.64,7.08,7.08,0,0,1-1.91.23,6.6,6.6,0,0,1-2.1-.33,2.91,2.91,0,0,1-1.62-1.59l-3-6.06c-.3-.62-.57-1.2-.81-1.76s-.5-1.18-.78-1.9l-.18,0c.08,1.08.13,2.18.14,3.3s0,2.22,0,3.3v4.65a8.22,8.22,0,0,1-1,.18,10.17,10.17,0,0,1-1.34.09,6.79,6.79,0,0,1-1.17-.09,1.79,1.79,0,0,1-.84-.36,1.69,1.69,0,0,1-.51-.74,3.39,3.39,0,0,1-.18-1.21V146a2.51,2.51,0,0,1,1.29-.9,5.67,5.67,0,0,1,1.86-.3,6.5,6.5,0,0,1,2.12.34,2.87,2.87,0,0,1,1.6,1.58l3,6.06c.3.62.57,1.21.81,1.75s.5,1.19.78,1.91l.15,0q-.12-1.62-.15-3.24t0-3.24v-4.86a8.46,8.46,0,0,1,1-.18,10,10,0,0,1,1.33-.09,3.6,3.6,0,0,1,2,.46,2.21,2.21,0,0,1,.69,1.94Z"/><path class="b" d="M150.7,145.62a6.4,6.4,0,0,1,1.55-.57,8.19,8.19,0,0,1,2.08-.27,7.53,7.53,0,0,1,2.66.43,2.31,2.31,0,0,1,1.48,1.37q.54,1.56,1.17,3.63c.42,1.38.84,2.8,1.26,4.27l1.23,4.35c.4,1.43.75,2.7,1.05,3.8a2.47,2.47,0,0,1-1.08.67,5.13,5.13,0,0,1-1.71.26,5.2,5.2,0,0,1-1.21-.12,2.16,2.16,0,0,1-.81-.36,1.77,1.77,0,0,1-.51-.63,5.45,5.45,0,0,1-.35-.9l-.54-2.07h-5.43q-.24.9-.48,1.86t-.48,1.86c-.28.1-.57.18-.88.26a6,6,0,0,1-1.13.1,4,4,0,0,1-2.26-.52,1.7,1.7,0,0,1-.74-1.46,3,3,0,0,1,.12-.84q.12-.42.27-1c.14-.54.34-1.21.59-2s.52-1.66.82-2.6.62-1.88,1-2.86l1-2.78c.3-.87.58-1.64.83-2.32S150.56,146,150.7,145.62Zm3.6,3.87c-.28.84-.6,1.77-.94,2.8s-.67,2.08-1,3.14h3.72c-.28-1.08-.56-2.14-.85-3.17s-.56-1.95-.8-2.77Z"/><path class="b" d="M147.46,89.24V85.12l-11.82-5.91,8.52.51-1-4.17c-1.69-5.75-5.79-22.32-4.5-29.8l1-6L134.5,43c-.06,0-6.58,4-17.09,4.15l-1.8,0c0-1.14,0-2.48,0-3.86l.84-11.45-5.77,1.48a32.15,32.15,0,0,1-11.29,1.86l-3.78.05-4.25-6.48L89.88,24.9l-1.46,3.86-4.26,6.48-3.77-.05a32.26,32.26,0,0,1-11.3-1.86l-5.76-1.48.84,11.45c0,1.38,0,2.72,0,3.86l-1.8,0C51.84,47,45.31,43,45.25,43l-5.17-3.27,1,6c1.28,7.48-2.81,24-4.5,29.8l-1,4.17,8.53-.51L32.29,85.12v4.12H44.48v32.82H39.91v4.12h99.93v-4.12h-4.57V89.24ZM66.11,122.06H48.44v-5.7H66.11Zm0-8.64H48.44v-6.06H66.11Zm0-9H48.44V89.24H66.11Zm43.57,17.64H70.07v-14.7h39.61Zm0-17.64H70.07V89.24h39.61ZM85.46,64.71c0-4.63,2-8.38,4.42-8.38s4.42,3.75,4.42,8.38-2,8.38-4.42,8.38S85.46,69.34,85.46,64.71Zm24.2,9.2c.17-.84,0-1.15-2.08-2.29s-5.67-3.14-3.59-8.15c.46-1.12.56-1.35-2.42-2.69-2.34-1.05-6.26-2.8-5.48-7.45s-.83-7.51-6.21-10.26c-5.38,2.75-7,5.51-6.22,10.26s-3.13,6.4-5.48,7.45c-3,1.34-2.88,1.57-2.41,2.69,2.07,5-1.61,7-3.6,8.15s-2.24,1.45-2.08,2.29c1.3,6.47-4.68,9.15-8.64,10.92l-1,.47a5.39,5.39,0,0,0-1.18.73H56.47a7.58,7.58,0,0,1,3.09-2.58c4-1.83,9.6-3.81,8.53-9.14s8.38-3.81,5.79-10.06S82.72,60,81.65,53.67s1.83-9.83,8.23-12.88c6.4,3.05,9.29,6.55,8.22,12.88s10.36,4.34,7.77,10.58,6.86,4.73,5.79,10.06,4.57,7.31,8.53,9.14a7.55,7.55,0,0,1,3.1,2.58h-2.77a5.91,5.91,0,0,0-1.18-.73l-1-.47C114.35,83.06,108.37,80.38,109.66,73.91Zm21.65,48.15H113.64v-5.7h17.67Zm0-8.64H113.64v-6.06h17.67Zm0-9H113.64V89.24h17.67Z"/></svg>