<svg xmlns="http://www.w3.org/2000/svg" viewBox="0 0 176.13 178.98"><rect width="176.13" height="173.3" fill="#863376"/><text transform="translate(42.67 163.26)" font-size="30" fill="#fff" font-family="Baloo-Regular, Baloo" letter-spacing="-0.05em">E<tspan x="15.06" y="0" letter-spacing="-0.04em">C</tspan><tspan x="30.99" y="0" letter-spacing="-0.05em">U</tspan><tspan x="49.47" y="0" letter-spacing="-0.04em">ADOR</tspan></text><path d="M134.5,67c-1.12-2.19-6-7.16-8.43-8.59-.94-.79-2.29-1.37-6.57-2.18a30.6,30.6,0,0,0-5.4-.65c-4-.2-6.13.34-14.32,1.92a23.45,23.45,0,0,1-8.49.26,64.56,64.56,0,0,0-15.8.68c-2.4.56-6.16,1.43-8.36-.63A4.74,4.74,0,0,1,66,56.11a7.77,7.77,0,0,1-.42-1.57,3.77,3.77,0,0,1,0-.63c.07-2.69,1.71-9.08,1.78-11.89A30,30,0,0,0,67,37.4v.08c-.09-.76-.21-1.54-.36-2.33h0c-.17-.9-.38-1.81-.63-2.69a18.62,18.62,0,0,0-.85-2.2,15.09,15.09,0,0,0-1.51-2.92,3.62,3.62,0,0,0-1.54-1.29A10.72,10.72,0,0,0,61,24.26c-.81-1.07-.92-.87-1.72-1.94s-.77-1.36-1.61-2.46c-.5-.66-1.36-1.79-1.75-1.62s-.21.82-.18,1.16a6.89,6.89,0,0,0,1.11,3,4.29,4.29,0,0,0-.61-.54c-.59-.46-.88-.54-1.16-1a10.72,10.72,0,0,0-.9-1.52c-.08-.11-.22-.28-.36-.25s-.24.43-.25.48A1.8,1.8,0,0,0,54,20.8c.81,1.18.39,1.27,1.44,2.81a11.37,11.37,0,0,0,1.68,2.12c-1.32.17-3.35-.45-5.27.4a4.78,4.78,0,0,1-.76.25l-.29,0c-2.52.72-5.17,1.07-6.86,1.56a5.47,5.47,0,0,0-.67.2,2.73,2.73,0,0,0-.42.22h0a2.43,2.43,0,0,0-.49.35,2,2,0,0,0-.33.35,1.37,1.37,0,0,0-.15.25,2.92,2.92,0,0,0-.34.86,2.42,2.42,0,0,0-.06.28,1.42,1.42,0,0,0-.34,1.21v.05A2.63,2.63,0,0,0,41,32a.46.46,0,0,0-.1.29c0,.26.39.42.48.43h0a1.32,1.32,0,0,0,.49,0,.36.36,0,0,1,.12.14c.14.3-.28.39,0,.7l0,0a.57.57,0,0,0,.12.17.29.29,0,0,0,0,.09.41.41,0,0,0,.25.19l.07.06a2.72,2.72,0,0,0,1.33.75c.84.18.75.34,1.35-.21.21-.18,1.41.34,1.64.44.68.29,1.25.48,1.25.48l0-.08c2.48,1.07,4.57,2.64,7.41,2.47-.15.43-.26.85-.32,1.1C54.52,41.38,54,44,52.81,47.4c-1.44,4.35-2,4.74-2.84,7.57A31.61,31.61,0,0,0,49,68a25,25,0,0,0,3.43,10.17,23.68,23.68,0,0,0,7.1,7.33,32.56,32.56,0,0,0,3.31,2.37,28.1,28.1,0,0,0,4.36,2.21c1.68,4.6,3.49,8.86,5.36,12.78a7.11,7.11,0,0,0-.06,3.94h0a3.32,3.32,0,0,0,.6,1.47h0a2,2,0,0,0,.2.26,5.23,5.23,0,0,0,.5.54,7.29,7.29,0,0,0,.94.81l1.71,8.26a9.52,9.52,0,0,0-.78,3.76,9.27,9.27,0,0,0,.28,2.23l-.38.16c-.34.16-.74.37-.82.75a.69.69,0,0,0,0,.35,12.09,12.09,0,0,0-2.72,1.11c-.32.19-.7.45-.73.83a1,1,0,0,0,.35.77,2.53,2.53,0,0,0,2,.67l6.14-1.1a6,6,0,0,0-.28-1.16l3.63-.27a6.4,6.4,0,0,0-.32-1.76,4.74,4.74,0,0,0-.25-.64,2.14,2.14,0,0,0,1.23-1.27,2.06,2.06,0,0,0,0-1.19,58.75,58.75,0,0,1-2.15-9.46,17.68,17.68,0,0,1-.18-2.94,22.41,22.41,0,0,1,.59-4.07v0a6.16,6.16,0,0,0,.1-.91h0v0c0-1.24-.58-1.94-1.17-4.6s-.3-3.33-.44-5.4a30.12,30.12,0,0,0,6.43.81h.34c.41,0,.82,0,1.22,0a29.82,29.82,0,0,0,13.75-4.8,26.94,26.94,0,0,0,4.6-3.43l2.38-1.69c.09.24.19.48.3.71a56.18,56.18,0,0,0,3.81,5,99.2,99.2,0,0,1,2.71,10.6c.58,3.53.13,5.29.32,6-2.8,9.48-4.19,12.83-4.84,13.3a1.48,1.48,0,0,0-.72,1c0,.39.22.56.23,1,0,.67-2.75.38-4.71,2.32a4.82,4.82,0,0,0-.32,2.17c.07.55,2.74.68,5.2.33,1.38-.21,1.25-1,1.61-1.43a2.56,2.56,0,0,0,.53-1.34,1.55,1.55,0,0,1-.53-1.26,1.45,1.45,0,0,1,1.46-1.21L120.69,107a14,14,0,0,0,2-2.53c0,.43.06.84.08,1.23,0,.62,0,1.41.1,2.8,0,1.58,0,2.78-.1,3.72-.08,1.59-.37,3.79-.62,5.44a35.69,35.69,0,0,1-1,3.69c-.3.93-.61,1.76-.89,2.47h0c0,.1,0,.19-.07.29s-.09.23-.14.34l.05,0c0,.16-.08.32-.12.46a2.78,2.78,0,0,0-1.31,0c-.27.07-1.4.37-1.64,1.31a4.68,4.68,0,0,0-.15,1.79s6.53.6,7.08-.47a2.28,2.28,0,0,0,0-1.67,2.11,2.11,0,0,0-.16-.34h0a1.62,1.62,0,0,1,.56-1.79c.45-.49,2-13,4-20.46a1.37,1.37,0,0,0,.08-.42c-2.35-3.36-2-8.72-1.91-11.24.07-2.21,1.35-5.46,2.22-9.09l0,0a.94.94,0,0,0,.06-.29,25.25,25.25,0,0,0,.71-5.38.45.45,0,0,0,.06-.31c0-.13,0-.25-.07-.38s0-.34,0-.51c0-.71.11-1.49.15-2.32l0-.06a3,3,0,0,1,.09.65c0,2.77,1.34,5.47.41,7.55a4.58,4.58,0,0,0,2.72-.35c2.44-1.14,3.09-4.23,3.31-5.27C137,71.89,135.29,68.57,134.5,67ZM77.71,110.55a15.43,15.43,0,0,1,.31-2.81l.4.4.1.09,0,0,.51,2.69h0l1.08,5.6a9.28,9.28,0,0,0-.83,3.36,52.63,52.63,0,0,1-1.39-6.44A17.8,17.8,0,0,1,77.71,110.55Z" fill="#fff"/></svg>