<svg xmlns="http://www.w3.org/2000/svg" viewBox="0 0 176.13 173.3"><rect width="176.13" height="173.3" fill="#863376"/><path d="M44.62,147.87a2.59,2.59,0,0,1,2.79-2.79h9.9a3.58,3.58,0,0,1,.38.87,3.88,3.88,0,0,1,.16,1.14,2.2,2.2,0,0,1-.49,1.62,1.81,1.81,0,0,1-1.31.48H49.72V152h6.75a3.72,3.72,0,0,1,.54,2,2.24,2.24,0,0,1-.48,1.62,1.74,1.74,0,0,1-1.29.48H49.72v3.15h7.71a3.58,3.58,0,0,1,.38.87,3.88,3.88,0,0,1,.16,1.14,2.24,2.24,0,0,1-.49,1.63,1.78,1.78,0,0,1-1.31.5H47.41a2.59,2.59,0,0,1-2.79-2.79Z" fill="#fff"/><path d="M69,148.74a4.45,4.45,0,0,0-3.54,1.41,5.88,5.88,0,0,0-1.23,4,5.55,5.55,0,0,0,1.37,4,4.87,4.87,0,0,0,3.67,1.41,5.84,5.84,0,0,0,2.09-.33,14.24,14.24,0,0,0,1.63-.75,2.92,2.92,0,0,1,.8,1,3,3,0,0,1,.28,1.36,2.44,2.44,0,0,1-1.36,2.08,8,8,0,0,1-4.16.86,12.26,12.26,0,0,1-3.78-.57,8.44,8.44,0,0,1-3.09-1.76,8.19,8.19,0,0,1-2.08-3,11.1,11.1,0,0,1-.77-4.33,10.83,10.83,0,0,1,.74-4.13,8.84,8.84,0,0,1,2-3,8.44,8.44,0,0,1,3-1.86,10.5,10.5,0,0,1,3.66-.63,8.44,8.44,0,0,1,4.28.9A2.64,2.64,0,0,1,74,147.72a2.33,2.33,0,0,1-.39,1.35,3.21,3.21,0,0,1-.9.9A9.69,9.69,0,0,0,71,149.1,5.45,5.45,0,0,0,69,148.74Z" fill="#fff"/><path d="M91.72,156.54a7.65,7.65,0,0,1-.55,3,6.32,6.32,0,0,1-1.61,2.27A7.25,7.25,0,0,1,87,163.23a11.52,11.52,0,0,1-6.78,0,7.25,7.25,0,0,1-2.55-1.46,6.29,6.29,0,0,1-1.6-2.27,7.65,7.65,0,0,1-.56-3V145.08l1-.17a9.54,9.54,0,0,1,1.38-.1,6.33,6.33,0,0,1,1.22.1,2.28,2.28,0,0,1,.88.38,1.62,1.62,0,0,1,.54.75,3.66,3.66,0,0,1,.18,1.26v9.15a3.08,3.08,0,0,0,.8,2.25,3,3,0,0,0,4.12,0,3.11,3.11,0,0,0,.78-2.25V145.08l1-.17a9.54,9.54,0,0,1,1.38-.1,6.33,6.33,0,0,1,1.22.1,2.28,2.28,0,0,1,.88.38,1.62,1.62,0,0,1,.54.75,3.66,3.66,0,0,1,.18,1.26Z" fill="#fff"/><path d="M98,145.62a6.4,6.4,0,0,1,1.55-.57,8.19,8.19,0,0,1,2.08-.27,7.53,7.53,0,0,1,2.66.43,2.31,2.31,0,0,1,1.48,1.37q.54,1.56,1.17,3.63c.42,1.38.84,2.8,1.26,4.27l1.23,4.35c.4,1.43.75,2.7,1,3.8a2.47,2.47,0,0,1-1.08.67,5.13,5.13,0,0,1-1.71.26,5.2,5.2,0,0,1-1.21-.12,2.29,2.29,0,0,1-.82-.36,1.86,1.86,0,0,1-.5-.63,5.45,5.45,0,0,1-.35-.9l-.54-2.07H98.8q-.24.9-.48,1.86t-.48,1.86c-.28.1-.57.18-.89.26a5.8,5.8,0,0,1-1.12.1,4,4,0,0,1-2.26-.52,1.7,1.7,0,0,1-.74-1.46,3,3,0,0,1,.12-.84q.12-.42.27-1c.14-.54.33-1.21.59-2s.52-1.66.82-2.6.62-1.88,1-2.86l1-2.78c.3-.87.57-1.64.82-2.32S97.82,146,98,145.62Zm3.6,3.87c-.28.84-.6,1.77-.94,2.8s-.67,2.08-1,3.14h3.72c-.28-1.08-.56-2.14-.85-3.17s-.56-1.95-.8-2.77Z" fill="#fff"/><path d="M118.6,163.74l-1.17,0c-.44,0-.89-.06-1.36-.12s-.95-.13-1.41-.22a8,8,0,0,1-1.31-.38,2.23,2.23,0,0,1-1.65-2.19v-14a1.33,1.33,0,0,1,.35-1,2.44,2.44,0,0,1,.94-.55,12,12,0,0,1,2.73-.55c1-.09,1.82-.14,2.58-.14a14.82,14.82,0,0,1,4.25.57,8.72,8.72,0,0,1,3.27,1.75,8,8,0,0,1,2.11,3,11,11,0,0,1,.75,4.26,11.21,11.21,0,0,1-.72,4.19,8.23,8.23,0,0,1-2,3,8.75,8.75,0,0,1-3.2,1.81A13.33,13.33,0,0,1,118.6,163.74Zm-1.68-4.38c.22,0,.49.07.81.1a7.18,7.18,0,0,0,.9,0,5.66,5.66,0,0,0,1.88-.3,3.77,3.77,0,0,0,1.47-.93,4.24,4.24,0,0,0,1-1.64,7.45,7.45,0,0,0,.34-2.41,5.84,5.84,0,0,0-1.26-4.07,4.35,4.35,0,0,0-3.36-1.36l-.85,0-.89.09Z" fill="#fff"/><path d="M129.58,154.14a10.88,10.88,0,0,1,.74-4.14,8.33,8.33,0,0,1,2-3,8.44,8.44,0,0,1,3-1.84,11.36,11.36,0,0,1,7.46,0,8.61,8.61,0,0,1,3,1.84,8.48,8.48,0,0,1,2,3,10.69,10.69,0,0,1,.74,4.14,11.18,11.18,0,0,1-.72,4.15,8.64,8.64,0,0,1-2,3,8.76,8.76,0,0,1-3,1.84,11,11,0,0,1-3.78.63,10.79,10.79,0,0,1-3.78-.65,8.42,8.42,0,0,1-3-1.87,8.67,8.67,0,0,1-2-3A11,11,0,0,1,129.58,154.14Zm5.4,0a6.33,6.33,0,0,0,1.11,4.08,4,4,0,0,0,6,0,6.33,6.33,0,0,0,1.11-4.08,6.4,6.4,0,0,0-1.09-4,3.66,3.66,0,0,0-3-1.35,3.7,3.7,0,0,0-3,1.34A6.17,6.17,0,0,0,135,154.14Z" fill="#fff"/><path d="M155.59,157.38v5.76a8.45,8.45,0,0,1-1,.18,10.93,10.93,0,0,1-1.39.09,6.09,6.09,0,0,1-1.21-.11,1.83,1.83,0,0,1-.87-.37,1.6,1.6,0,0,1-.53-.75,3.66,3.66,0,0,1-.18-1.26V146.79a1.33,1.33,0,0,1,.34-1,2.48,2.48,0,0,1,.95-.55,11.24,11.24,0,0,1,2.37-.53,23.81,23.81,0,0,1,2.88-.16q4.14,0,6.24,1.74a5.8,5.8,0,0,1,2.1,4.71,5.26,5.26,0,0,1-1,3.18,6.89,6.89,0,0,1-2.28,2q1.08,1.47,2.13,2.76a17.78,17.78,0,0,1,1.65,2.34,2.82,2.82,0,0,1-1.09,1.6,3.09,3.09,0,0,1-1.79.56,3.84,3.84,0,0,1-1.14-.15,2.76,2.76,0,0,1-.84-.42,3.44,3.44,0,0,1-.66-.66,8.81,8.81,0,0,1-.57-.84l-2.52-4.05Zm1.89-4a2.62,2.62,0,0,0,1.8-.59,2.17,2.17,0,0,0,.66-1.72,2.1,2.1,0,0,0-.74-1.73,3.71,3.71,0,0,0-2.32-.58,6.83,6.83,0,0,0-.72,0l-.6.09v4.5Z" fill="#fff"/><path d="M134.5,67c-1.12-2.19-6-7.16-8.43-8.59-.94-.79-2.29-1.37-6.57-2.18a30.6,30.6,0,0,0-5.4-.65c-4-.2-6.13.34-14.32,1.92a23.45,23.45,0,0,1-8.49.26,64.56,64.56,0,0,0-15.8.68c-2.4.56-6.16,1.43-8.36-.63A4.74,4.74,0,0,1,66,56.11a7.77,7.77,0,0,1-.42-1.57,3.77,3.77,0,0,1,0-.63c.07-2.69,1.71-9.08,1.78-11.89A30,30,0,0,0,67,37.4v.08c-.09-.76-.21-1.54-.36-2.33h0c-.17-.9-.38-1.81-.63-2.69a18.62,18.62,0,0,0-.85-2.2,15.09,15.09,0,0,0-1.51-2.92,3.62,3.62,0,0,0-1.54-1.29A10.72,10.72,0,0,0,61,24.26c-.81-1.07-.92-.87-1.72-1.94s-.77-1.36-1.61-2.46c-.5-.66-1.36-1.79-1.75-1.62s-.21.82-.18,1.16a6.89,6.89,0,0,0,1.11,3,4.29,4.29,0,0,0-.61-.54c-.59-.46-.88-.54-1.16-1a10.72,10.72,0,0,0-.9-1.52c-.08-.11-.22-.28-.36-.25s-.24.43-.25.48A1.8,1.8,0,0,0,54,20.8c.81,1.18.39,1.27,1.44,2.81a11.37,11.37,0,0,0,1.68,2.12c-1.32.17-3.35-.45-5.27.4a4.78,4.78,0,0,1-.76.25l-.29,0c-2.52.72-5.17,1.07-6.86,1.56a5.47,5.47,0,0,0-.67.2,2.73,2.73,0,0,0-.42.22h0a2.43,2.43,0,0,0-.49.35,2,2,0,0,0-.33.35,1.37,1.37,0,0,0-.15.25,2.92,2.92,0,0,0-.34.86,2.42,2.42,0,0,0-.06.28,1.42,1.42,0,0,0-.34,1.21v.05A2.63,2.63,0,0,0,41,32a.46.46,0,0,0-.1.29c0,.26.39.42.48.43h0a1.32,1.32,0,0,0,.49,0,.36.36,0,0,1,.12.14c.14.3-.28.39,0,.7l0,0a.57.57,0,0,0,.12.17.29.29,0,0,0,0,.09.41.41,0,0,0,.25.19l.07.06a2.72,2.72,0,0,0,1.33.75c.84.18.75.34,1.35-.21.21-.18,1.41.34,1.64.44.68.29,1.25.48,1.25.48l0-.08c2.48,1.07,4.57,2.64,7.41,2.47-.15.43-.26.85-.32,1.1C54.52,41.38,54,44,52.81,47.4c-1.44,4.35-2,4.74-2.84,7.57A31.61,31.61,0,0,0,49,68a25,25,0,0,0,3.43,10.17,23.68,23.68,0,0,0,7.1,7.33,32.56,32.56,0,0,0,3.31,2.37,28.1,28.1,0,0,0,4.36,2.21c1.68,4.6,3.49,8.86,5.36,12.78a7.11,7.11,0,0,0-.06,3.94h0a3.32,3.32,0,0,0,.6,1.47h0a2,2,0,0,0,.2.26,5.23,5.23,0,0,0,.5.54,7.29,7.29,0,0,0,.94.81l1.71,8.26a9.52,9.52,0,0,0-.78,3.76,9.27,9.27,0,0,0,.28,2.23l-.38.16c-.34.16-.74.37-.82.75a.69.69,0,0,0,0,.35,12.09,12.09,0,0,0-2.72,1.11c-.32.19-.7.45-.73.83a1,1,0,0,0,.35.77,2.53,2.53,0,0,0,2,.67l6.14-1.1a6,6,0,0,0-.28-1.16l3.63-.27a6.4,6.4,0,0,0-.32-1.76,4.74,4.74,0,0,0-.25-.64,2.14,2.14,0,0,0,1.23-1.27,2.06,2.06,0,0,0,0-1.19,58.75,58.75,0,0,1-2.15-9.46,17.68,17.68,0,0,1-.18-2.94,22.41,22.41,0,0,1,.59-4.07v0a6.16,6.16,0,0,0,.1-.91h0v0c0-1.24-.58-1.94-1.17-4.6s-.3-3.33-.44-5.4a30.12,30.12,0,0,0,6.43.81h.34c.41,0,.82,0,1.22,0a29.82,29.82,0,0,0,13.75-4.8,26.94,26.94,0,0,0,4.6-3.43l2.38-1.69c.09.24.19.48.3.71a56.18,56.18,0,0,0,3.81,5,99.2,99.2,0,0,1,2.71,10.6c.58,3.53.13,5.29.32,6-2.8,9.48-4.19,12.83-4.84,13.3a1.48,1.48,0,0,0-.72,1c0,.39.22.56.23,1,0,.67-2.75.38-4.71,2.32a4.82,4.82,0,0,0-.32,2.17c.07.55,2.74.68,5.2.33,1.38-.21,1.25-1,1.61-1.43a2.56,2.56,0,0,0,.53-1.34,1.55,1.55,0,0,1-.53-1.26,1.45,1.45,0,0,1,1.46-1.21L120.69,107a14,14,0,0,0,2-2.53c0,.43.06.84.08,1.23,0,.62,0,1.41.1,2.8,0,1.58,0,2.78-.1,3.72-.08,1.59-.37,3.79-.62,5.44a35.69,35.69,0,0,1-1,3.69c-.3.93-.61,1.76-.89,2.47h0c0,.1,0,.19-.07.29s-.09.23-.14.34l.05,0c0,.16-.08.32-.12.46a2.78,2.78,0,0,0-1.31,0c-.27.07-1.4.37-1.64,1.31a4.68,4.68,0,0,0-.15,1.79s6.53.6,7.08-.47a2.28,2.28,0,0,0,0-1.67,2.11,2.11,0,0,0-.16-.34h0a1.62,1.62,0,0,1,.56-1.79c.45-.49,2-13,4-20.46a1.37,1.37,0,0,0,.08-.42c-2.35-3.36-2-8.72-1.91-11.24.07-2.21,1.35-5.46,2.22-9.09l0,0a.94.94,0,0,0,.06-.29,25.25,25.25,0,0,0,.71-5.38.45.45,0,0,0,.06-.31c0-.13,0-.25-.07-.38s0-.34,0-.51c0-.71.11-1.49.15-2.32l0-.06a3,3,0,0,1,.09.65c0,2.77,1.34,5.47.41,7.55a4.58,4.58,0,0,0,2.72-.35c2.44-1.14,3.09-4.23,3.31-5.27C137,71.89,135.29,68.57,134.5,67ZM77.71,110.55a15.43,15.43,0,0,1,.31-2.81l.4.4.1.09,0,0,.51,2.69h0l1.08,5.6a9.28,9.28,0,0,0-.83,3.36,52.63,52.63,0,0,1-1.39-6.44A17.8,17.8,0,0,1,77.71,110.55Z" fill="#fff"/></svg>