<svg xmlns="http://www.w3.org/2000/svg" viewBox="0 0 176.13 173.3"><defs><style>.a{fill:#f7b524;}.b{fill:#fff;}</style></defs><title>EGYPT</title><rect class="a" width="176.13" height="173.3"/><path class="b" d="M78.61,147.87a2.59,2.59,0,0,1,2.79-2.79h9.9a3.58,3.58,0,0,1,.38.87,3.88,3.88,0,0,1,.16,1.14,2.2,2.2,0,0,1-.49,1.62,1.81,1.81,0,0,1-1.31.48H83.71V152h6.75a3.72,3.72,0,0,1,.54,2,2.24,2.24,0,0,1-.48,1.62,1.74,1.74,0,0,1-1.29.48H83.71v3.15h7.71a3.58,3.58,0,0,1,.38.87,3.88,3.88,0,0,1,.16,1.14,2.24,2.24,0,0,1-.49,1.63,1.78,1.78,0,0,1-1.31.5H81.4a2.59,2.59,0,0,1-2.79-2.79Z"/><path class="b" d="M111.34,160.29a2.34,2.34,0,0,1-.33,1.38,3.42,3.42,0,0,1-1.05.87,6.67,6.67,0,0,1-1,.46,11.38,11.38,0,0,1-1.38.39,14.69,14.69,0,0,1-1.57.26,15.16,15.16,0,0,1-1.64.09,13.63,13.63,0,0,1-4-.59A9.19,9.19,0,0,1,97,161.38a8.4,8.4,0,0,1-2.21-2.95,10.81,10.81,0,0,1,.08-8.4A9,9,0,0,1,97.2,147a9.79,9.79,0,0,1,3.33-1.81,12.54,12.54,0,0,1,3.85-.6,9.44,9.44,0,0,1,4.52.91,2.71,2.71,0,0,1,1.66,2.39,2.33,2.33,0,0,1-.39,1.35,3.21,3.21,0,0,1-.9.9,13.24,13.24,0,0,0-1.87-.89,7.23,7.23,0,0,0-2.54-.43,5.5,5.5,0,0,0-4,1.44,5.3,5.3,0,0,0-1.49,4,6.39,6.39,0,0,0,.41,2.39,4.49,4.49,0,0,0,1.09,1.64,4.32,4.32,0,0,0,1.59,1,5.77,5.77,0,0,0,1.92.32,5.14,5.14,0,0,0,1.17-.12,3.15,3.15,0,0,0,.78-.27v-2.82h-3.21a4.79,4.79,0,0,1-.34-.87,3.88,3.88,0,0,1-.17-1.14,2.1,2.1,0,0,1,.5-1.56,1.74,1.74,0,0,1,1.27-.48h5.07a1.71,1.71,0,0,1,1.89,1.89Z"/><path class="b" d="M123.73,163.14a8.33,8.33,0,0,1-1,.18,10.43,10.43,0,0,1-1.35.09,3.73,3.73,0,0,1-2.07-.47,2.23,2.23,0,0,1-.69-2v-4q-.75-1.11-1.62-2.46t-1.71-2.76c-.56-.94-1.08-1.87-1.56-2.78a24.44,24.44,0,0,1-1.17-2.5,4.11,4.11,0,0,1,1.07-1,2.9,2.9,0,0,1,1.66-.45,3.44,3.44,0,0,1,1.91.48,4.6,4.6,0,0,1,1.39,1.8l2.49,5h.18c.28-.62.53-1.19.73-1.7s.42-1,.62-1.53l.63-1.59c.22-.55.47-1.18.75-1.9a5.3,5.3,0,0,1,1.2-.42,5.69,5.69,0,0,1,1.26-.15,2.86,2.86,0,0,1,1.78.55,2,2,0,0,1,.74,1.67,3.17,3.17,0,0,1-.15.87,9.74,9.74,0,0,1-.69,1.54c-.36.69-.89,1.63-1.57,2.81s-1.63,2.72-2.81,4.62Z"/><path class="b" d="M136.66,163.14a8.45,8.45,0,0,1-1,.18,10.93,10.93,0,0,1-1.39.09,6.17,6.17,0,0,1-1.21-.11,2,2,0,0,1-.89-.37,1.62,1.62,0,0,1-.54-.75,3.66,3.66,0,0,1-.18-1.26V146.79a1.37,1.37,0,0,1,.34-1,2.48,2.48,0,0,1,.95-.55,11.12,11.12,0,0,1,2.33-.53,20.71,20.71,0,0,1,2.62-.16q4.14,0,6.33,1.77a5.84,5.84,0,0,1,2.19,4.8,7.19,7.19,0,0,1-.47,2.65,5.61,5.61,0,0,1-1.37,2,6.28,6.28,0,0,1-2.31,1.32,10.27,10.27,0,0,1-3.23.47h-2.13Zm1.56-9.63a2.86,2.86,0,0,0,1.93-.59,2.18,2.18,0,0,0,.68-1.78,2.22,2.22,0,0,0-.71-1.76,3,3,0,0,0-2.05-.61l-.79,0a3.59,3.59,0,0,0-.65.07v4.65Z"/><path class="b" d="M148.12,149.28a3.88,3.88,0,0,1-.39-.9,4,4,0,0,1-.18-1.2,2.27,2.27,0,0,1,.53-1.68,1.86,1.86,0,0,1,1.36-.51h13.08a3.88,3.88,0,0,1,.39.9,4,4,0,0,1,.18,1.2,2.31,2.31,0,0,1-.52,1.68,1.89,1.89,0,0,1-1.37.51h-3.33v13.86a8.21,8.21,0,0,1-1,.18,11.09,11.09,0,0,1-1.4.09,6.17,6.17,0,0,1-1.21-.11,2,2,0,0,1-.89-.37,1.62,1.62,0,0,1-.54-.75,3.66,3.66,0,0,1-.18-1.26V149.28Z"/><path class="b" d="M96.71,55.06c.69.26,1.61.9.88,2.55a46.12,46.12,0,0,0-3.73,10.56c-.06.29-.13.71-.23,1.2a106.27,106.27,0,0,1,17.57,5.3c.08-.32.25-1,.53-1.93.47-1.57.69-2.21,2.59-2.61.92-.2,15.42-.81,16.69-.84a2.08,2.08,0,0,0,2.31-2c1.65-.31,1.83-2.42,2.06-3a2.08,2.08,0,0,0-.67-2.12c-1-1-11.57-5-11.92-5.46-.55-.71-.31-1.64-1.11-2.62a29.91,29.91,0,0,0-5-3.38c-4.64-2.51-7.14-2-10.48-1-.6.17-2,.49-1.9-1,.38-9.38-3.68-22.09-4.88-26.92-.29-1.2-1.57-1.12-2.24.56C93,33,88.63,46.77,92.62,52.29A7.24,7.24,0,0,0,96.71,55.06Zm7.09,2.35c2.17-.22,4.34-2.08,7.81-2.08,4.24,0,4.38,3.06,5.19,3.19,1.14.17,1.36,1.09-.09,1.09-.79,0-2.25,1.29-4.65,1.29-4,0-5.64-2.28-8.15-2.61C102.11,58.05,102.57,57.53,103.8,57.41ZM97,28.19c.68-1.68.59-1.22.89,0A65.3,65.3,0,0,1,99,49.34c-.22,2-1.82,3-3.88,1C92.24,47.58,93.9,36.08,97,28.19Z"/><path class="b" d="M115.65,46.47c2.4-7.21.34-20.37-.73-24.7-.3-1.19-1-1.1-1.66.59-3.15,7.88-6,16.7-5.86,23.4A13.1,13.1,0,0,1,115.65,46.47Z"/><path class="b" d="M110.1,81.81c-6-2.36-12.42-3.65-18.56-5.44a13.47,13.47,0,0,1-1.28,2.26c6.57,1.6,13.13,3.81,19.7,6C110,83.67,110,82.73,110.1,81.81Z"/><path class="b" d="M92.45,74c5.9,1.83,12.06,3.45,17.88,5.64.1-.93.24-1.84.4-2.73C104.88,75,99.1,73.36,93.19,71.43,93,72.25,92.75,73.13,92.45,74Z"/><path class="b" d="M152.8,117.44a128.37,128.37,0,0,1-14-1.22,120.27,120.27,0,0,1-19-5.44c-.84-.3-2-1.26-2.8-3.81s-3.56-11.86-5.1-15.13a22.05,22.05,0,0,1-1.81-5.06c-2.3-.76-19.32-5.63-21.59-6.28-2.76,2-6.52,8.37-13.09,9.07-12.48,1.32-24.22-5.74-37.24-.24-7.39,3.13-12.27,15.85-12.27,20.82,0,4.52,3.44,6.46,3.44,9,0,1.18-1,2.15-1.15,3a2.54,2.54,0,0,0,2.45,3.06c3.56,0,10.88-.48,15.48-.58,3.11-.06,10.51.39,12.23.6a26.35,26.35,0,0,0,5.51.14c2.58-.38,2.14-5.75-1.28-7.42-4.56-2.22-12.06,1.12-14.64-1.88,1.29-2.85,2.33-11.61-7.18-15.89,2.61-1.94,13.4.38,14.55,13.3,13-1.63,16.27,7.27,34.84,7.27,4,0,8.16-4.32,10.91-4.32,3.09,0,3.75,2.36,5.83,5.16,1.78,2.38,5.44,3.6,10.11,3.6,5.88,0,28-2,29.07-1.81,1.44.21,2.54,1.76,4.3,2a22.12,22.12,0,0,0,5.25,0c1.34-.24,3-.36,3-3.66C158.61,120.22,156.89,117.44,152.8,117.44Z"/></svg>