<svg xmlns="http://www.w3.org/2000/svg" viewBox="0 0 176.13 173.3"><rect width="176.13" height="173.3" fill="#f7b524"/><path d="M113.77,160.29a2.34,2.34,0,0,1-.33,1.38,3.42,3.42,0,0,1-1,.87,6.67,6.67,0,0,1-1,.46,11.38,11.38,0,0,1-1.38.39,14.69,14.69,0,0,1-1.57.26,15.16,15.16,0,0,1-1.64.09,13.63,13.63,0,0,1-4-.59,9.19,9.19,0,0,1-3.28-1.77,8.4,8.4,0,0,1-2.21-2.95,10.81,10.81,0,0,1,.08-8.4A9,9,0,0,1,99.63,147a9.79,9.79,0,0,1,3.33-1.81,12.54,12.54,0,0,1,3.85-.6,9.44,9.44,0,0,1,4.52.91,2.71,2.71,0,0,1,1.66,2.39,2.33,2.33,0,0,1-.39,1.35,3.21,3.21,0,0,1-.9.9,13.24,13.24,0,0,0-1.87-.89,7.23,7.23,0,0,0-2.54-.43,5.5,5.5,0,0,0-4,1.44,5.3,5.3,0,0,0-1.49,4,6.39,6.39,0,0,0,.41,2.39,4.49,4.49,0,0,0,1.09,1.64,4.32,4.32,0,0,0,1.59,1,5.77,5.77,0,0,0,1.92.32,5.14,5.14,0,0,0,1.17-.12,3.15,3.15,0,0,0,.78-.27v-2.82h-3.21a4.79,4.79,0,0,1-.34-.87,3.88,3.88,0,0,1-.17-1.14,2.1,2.1,0,0,1,.5-1.56,1.74,1.74,0,0,1,1.27-.48h5.07a1.71,1.71,0,0,1,1.89,1.89Z" fill="#fff"/><path d="M120.19,145.62a6.24,6.24,0,0,1,1.55-.57,8.19,8.19,0,0,1,2.08-.27,7.57,7.57,0,0,1,2.66.43,2.33,2.33,0,0,1,1.48,1.37q.54,1.56,1.17,3.63c.42,1.38.84,2.8,1.26,4.27l1.23,4.35c.4,1.43.75,2.7,1,3.8a2.47,2.47,0,0,1-1.08.67,5.13,5.13,0,0,1-1.71.26,5.2,5.2,0,0,1-1.21-.12,2.16,2.16,0,0,1-.81-.36,1.77,1.77,0,0,1-.51-.63,4.69,4.69,0,0,1-.35-.9l-.54-2.07H121q-.24.9-.48,1.86t-.48,1.86c-.28.1-.57.18-.88.26a6.08,6.08,0,0,1-1.13.1,4,4,0,0,1-2.27-.52,1.69,1.69,0,0,1-.73-1.46,3,3,0,0,1,.12-.84q.12-.42.27-1c.14-.54.34-1.21.59-2s.52-1.66.82-2.6.62-1.88,1-2.86l1-2.78c.3-.87.58-1.64.83-2.32S120.05,146,120.19,145.62Zm3.6,3.87c-.28.84-.59,1.77-.94,2.8s-.67,2.08-.95,3.14h3.72c-.28-1.08-.57-2.14-.85-3.17s-.56-1.95-.8-2.77Z" fill="#fff"/><path d="M141.37,149.28H134a3.88,3.88,0,0,1-.39-.9,4,4,0,0,1-.18-1.2,2.27,2.27,0,0,1,.53-1.68,1.85,1.85,0,0,1,1.36-.51H146.5a3.67,3.67,0,0,1,1,4.36,6.74,6.74,0,0,1-.89,1.4L139.78,159h7.68a3.88,3.88,0,0,1,.39.9,4,4,0,0,1,.18,1.2,2.27,2.27,0,0,1-.52,1.68,1.89,1.89,0,0,1-1.37.51H134.32a3.14,3.14,0,0,1-.84-1.14,3.92,3.92,0,0,1-.33-1.65,3.41,3.41,0,0,1,.39-1.53,7.71,7.71,0,0,1,.93-1.44Z" fill="#fff"/><path d="M153.7,145.62a6.4,6.4,0,0,1,1.55-.57,8.19,8.19,0,0,1,2.08-.27,7.53,7.53,0,0,1,2.66.43,2.31,2.31,0,0,1,1.48,1.37q.54,1.56,1.17,3.63c.42,1.38.84,2.8,1.26,4.27l1.23,4.35c.4,1.43.75,2.7,1.05,3.8a2.47,2.47,0,0,1-1.08.67,5.13,5.13,0,0,1-1.71.26,5.2,5.2,0,0,1-1.21-.12,2.16,2.16,0,0,1-.81-.36,1.77,1.77,0,0,1-.51-.63,5.45,5.45,0,0,1-.35-.9l-.54-2.07h-5.43q-.24.9-.48,1.86t-.48,1.86c-.28.1-.57.18-.88.26a6,6,0,0,1-1.13.1,4,4,0,0,1-2.26-.52,1.7,1.7,0,0,1-.74-1.46,3,3,0,0,1,.12-.84q.12-.42.27-1c.14-.54.34-1.21.59-2s.52-1.66.82-2.6.62-1.88,1-2.86l1-2.78c.3-.87.58-1.64.83-2.32S153.56,146,153.7,145.62Zm3.6,3.87c-.28.84-.6,1.77-.94,2.8s-.67,2.08-1,3.14h3.72c-.28-1.08-.56-2.14-.85-3.17s-.56-1.95-.8-2.77Z" fill="#fff"/><path d="M145.78,38.32v-1.1c-.15-.08-.12-.28-.25-.38a3.07,3.07,0,0,0-1-1.14c-.69-.05-2.05-1.33-2.56-1.83-.72.08-2-2-2.45-2.45-.92.33-6.69-5.28-7.4-6.05-2.17-2.38-5.12-4-7.4-6.31h-.24c-.67-.67-3.62-3.78-4.53-3.66-.85.85-3,4-3,5.32a4.67,4.67,0,0,0-1.6,2.46,8.12,8.12,0,0,1-.48.84c.06.16-.18.22-.13.37q-.34.51-.72,1a1.47,1.47,0,0,1-.49.59c0,.35-.59.77-.61,1.2l-.73.73v.3c-1,.88-1.38,2.57-2.45,3.27,0,.29-.58.75-.49,1-2.76,2.8-4.64,6.5-7.46,9.29V42c-.23.24-.23.24-.26.51-1,1-1.66,2.29-2.68,3.26V46c-.52.52-3,2.69-2.69,3.42-1,1-4.41,4-4.68,5.3-2.33,2.33-4.14,5.08-6.34,7.55-.84,1-2.68,2.41-3.08,3.56-.49,1.43-3.42,2.78-3.5,4.38-.49.49-2,1.78-2.1,2.59C75.12,74.14,74,75.63,72.66,77v.24l-1.59,1.59V79l-.48.48c0,.37-.85.85-1.11,1.11v.25c-1.86,1.86-3.81,3.59-5.69,5.44-.75-.27-1.33,2.19-2.17,2.07l-.33.31c0,.25,0,.53-.32.56-.12.18-.67.56-.82.73h-.27c-.71.7-1.79,2.36-2.87,2.45C55.37,94.86,52.47,97,50.4,99.1c0,.26-.45.57-.61.73a1.29,1.29,0,0,1-.3.55c-.31-.07-2.84,2.56-3.43,3.06-2.51,2.14-4.87,4.63-7.21,7h-.26c-2.85,2.91-6.2,5.37-9.09,8.26a.83.83,0,0,0,.17.66c.78.17,2,3,2,3.81.13.13.31.29.49.45a5.54,5.54,0,0,0,.82,1.81l.4.39a1.74,1.74,0,0,0,.36.75c-.06.23.15.31.25.46v.46l.24.29c0,.22.12.32.25.45,0,1.16,1,1.41,1.91,1.41a1.84,1.84,0,0,0,.4.69c0,.18,0,.34,0,.5.3.22-.09.61.34.83,0,.2.19.24.24.39a5.1,5.1,0,0,0,.84,2.65c0,1.34,1,2.61,1,3.87l.24.17c0,.48,0,1.94.49,2.21a3.45,3.45,0,0,0,.48,1.58c-.05.16.18.21.13.37.15.09.11.29.25.39,0,.2.2.23.25.44v.66l.23.23v.78l.26.19v.63c.47.31.06,1.78.6,2.08,0,.19.2.23.25.38a.84.84,0,0,0,.12.69,5.15,5.15,0,0,1,.49,2l.24.25c0,.53.62,1.33.49,1.83l.25.26v.74l.24.22v.46l.24.15a1,1,0,0,0,0,.51c.07.08.15.15.22.22,0,.26,0,.26.26.51v.48c.2.13.08.33.16.62l.21.1v.76l.23.23c0,.17,0,.33,0,.5.7.67.57.51,1.34-.25.05-.69.7-.9,1.18-1.18.67-.67,1.4-1.15,2.06-1.82h.25c.73-.74,3.83-5,4.87-4.76l.27-.25a3.63,3.63,0,0,0,1.34-.61c.16,0,.21-.19.37-.14.91-.66,2-1,2.84-1.7.22,0,.32-.12.45-.24.41,0,.7-.25,1.1-.25l.26-.25h.73l.24-.24h.24l1.34-1.34c.51-.48,1.26-.23,1.31-1.07a.46.46,0,0,0,.23-.47c.76-.76,3.16-2.29,3.3-3.53.38-.14.3-1.29.73-1.47-.07-.17.19-.22.13-.38.53-.37,1.09-2.42,1.79-2.37.15-.17,1-1,1.32-.86a.29.29,0,0,1,.25-.13A5,5,0,0,1,75.3,135c1.6-1.81,4.84-1.68,5.07-4.71l.23-.23a4.87,4.87,0,0,1,0-.54l.24-.19a1.6,1.6,0,0,1,.48-1.24c0-.16-.07-.36.12-.48V127l.24-.16v-1.26l-.23-.23v-5l-.25-.25v-.38c.94-.56-.61-8.72-.61-10l-.25-.24a8.81,8.81,0,0,0,0-.89l-.22-.21a1.71,1.71,0,0,0-.13-1.24c0-.05-.1-.86-.1-.86a9.48,9.48,0,0,0-.14-1.69c-.08-.09-.17-.17-.24-.26a2.42,2.42,0,0,1,.79-1.88h.61l.55-.56a1.76,1.76,0,0,1,.86-1.83c0-.41-.46-.81-.35-1.24l.22-.22c0-.17-.07-.37.13-.5-.06-.16.18-.21.13-.37a8.35,8.35,0,0,0,1.82-2.36v-.22l.38-.32c0-.29-.27-.49.06-.7,1.12.24,4.51-4.94,5.2-5.73.88-.2,1.3-1.12,1.82-1.78,0-.29,0-.52.34-.59.07-.13.27-.07.33-.21,1.18.1,1.46-1.35,2.58-1.35a17.87,17.87,0,0,1,3.17-3.42c1,0,3.31-2.65,3.37-3.62.73-.45.87-1.68,1.55-2.25.5,0,.93-.48,1.45-.5,1-1,2-1.81,3.11-2.87v-.24c3-3,6-6,8.85-8.86h.26c.78-.78,1.41-1.66,2.21-2.45.9-.22.73-.71,1.26-1-.07-.21.47-.76.68-.68.61-.6,4.49-4.62,5.14-4.53l.61-.6h.28l1-1h.47l.24-.24c1.63,0,2.89,0,4-1.09,1-.11,1.57-1.35,2.69-1.35,1-.82,2.42-.95,3.46-1.62a12,12,0,0,0,2.47-2.56c0-.21.14-.27.25-.41a5,5,0,0,1,1.65-2.92l.45-.44a1.16,1.16,0,0,0,.84-.66v-.26c.49-.5,1.46-1.71,1.34-2.57C145.76,38.1,145.81,38.5,145.78,38.32Z" fill="#fff" fill-rule="evenodd"/></svg>