<svg xmlns="http://www.w3.org/2000/svg" viewBox="0 0 176.13 173.3"><defs><style>.a{fill:#273691;}.b,.c{fill:#fff;}.c{fill-rule:evenodd;}</style></defs><title>GERMANY</title><rect class="a" width="176.13" height="173.3"/><path class="b" d="M47.14,160.29a2.34,2.34,0,0,1-.33,1.38,3.42,3.42,0,0,1-1.05.87,6.67,6.67,0,0,1-1,.46,11.38,11.38,0,0,1-1.38.39,14.69,14.69,0,0,1-1.57.26,15.16,15.16,0,0,1-1.64.09,13.63,13.63,0,0,1-4-.59,9.19,9.19,0,0,1-3.28-1.77,8.4,8.4,0,0,1-2.21-2.95,10.81,10.81,0,0,1,.08-8.4A9,9,0,0,1,33,147a9.79,9.79,0,0,1,3.33-1.81,12.54,12.54,0,0,1,3.85-.6,9.44,9.44,0,0,1,4.52.91,2.71,2.71,0,0,1,1.66,2.39,2.33,2.33,0,0,1-.39,1.35,3.21,3.21,0,0,1-.9.9,13.24,13.24,0,0,0-1.87-.89,7.23,7.23,0,0,0-2.54-.43,5.5,5.5,0,0,0-4,1.44,5.3,5.3,0,0,0-1.49,4,6.39,6.39,0,0,0,.41,2.39,4.49,4.49,0,0,0,1.09,1.64,4.32,4.32,0,0,0,1.59,1,5.77,5.77,0,0,0,1.92.32,5.14,5.14,0,0,0,1.17-.12,3.15,3.15,0,0,0,.78-.27v-2.82H38.92a4.79,4.79,0,0,1-.34-.87,3.88,3.88,0,0,1-.17-1.14,2.1,2.1,0,0,1,.5-1.56,1.74,1.74,0,0,1,1.27-.48h5.07a1.71,1.71,0,0,1,1.89,1.89Z"/><path class="b" d="M50.59,147.87a2.59,2.59,0,0,1,2.79-2.79h9.9a3.58,3.58,0,0,1,.38.87,3.88,3.88,0,0,1,.16,1.14,2.2,2.2,0,0,1-.49,1.62,1.81,1.81,0,0,1-1.31.48H55.69V152h6.75a3.72,3.72,0,0,1,.54,2,2.24,2.24,0,0,1-.48,1.62,1.74,1.74,0,0,1-1.29.48H55.69v3.15H63.4a3.58,3.58,0,0,1,.38.87,3.88,3.88,0,0,1,.16,1.14,2.24,2.24,0,0,1-.49,1.63,1.78,1.78,0,0,1-1.31.5H53.38a2.59,2.59,0,0,1-2.79-2.79Z"/><path class="b" d="M72.25,157.38v5.76a8.21,8.21,0,0,1-1,.18,11.09,11.09,0,0,1-1.4.09,6.17,6.17,0,0,1-1.21-.11,1.92,1.92,0,0,1-.87-.37,1.68,1.68,0,0,1-.53-.75,3.66,3.66,0,0,1-.18-1.26V146.79a1.33,1.33,0,0,1,.35-1,2.44,2.44,0,0,1,.94-.55,11.24,11.24,0,0,1,2.37-.53,23.81,23.81,0,0,1,2.88-.16q4.14,0,6.24,1.74a5.8,5.8,0,0,1,2.1,4.71,5.26,5.26,0,0,1-1,3.18,6.89,6.89,0,0,1-2.28,2q1.08,1.47,2.13,2.76a17.78,17.78,0,0,1,1.65,2.34,2.78,2.78,0,0,1-1.09,1.6,3.07,3.07,0,0,1-1.79.56,3.84,3.84,0,0,1-1.14-.15,2.76,2.76,0,0,1-.84-.42,3.44,3.44,0,0,1-.66-.66,8.81,8.81,0,0,1-.57-.84l-2.52-4.05Zm1.89-4a2.62,2.62,0,0,0,1.8-.59,2.17,2.17,0,0,0,.66-1.72,2.09,2.09,0,0,0-.73-1.73,3.75,3.75,0,0,0-2.33-.58,6.83,6.83,0,0,0-.72,0l-.6.09v4.5Z"/><path class="b" d="M97.75,158.79a2.86,2.86,0,0,1-1,.52,4.45,4.45,0,0,1-1.43.2,5,5,0,0,1-1.78-.27,1.44,1.44,0,0,1-.92-.93c-.56-1.76-1-3.19-1.38-4.27s-.64-2-.84-2.87h-.15c-.06,1.18-.1,2.25-.13,3.22s-.05,1.92-.06,2.84,0,1.85-.06,2.79-.08,2-.14,3.12a5.42,5.42,0,0,1-1,.25,7.66,7.66,0,0,1-1.26.11,4.15,4.15,0,0,1-2-.42,1.61,1.61,0,0,1-.74-1.53l.87-15.3a2.87,2.87,0,0,1,1-.84A4.75,4.75,0,0,1,89,145a5.09,5.09,0,0,1,2.49.5,2.92,2.92,0,0,1,1.32,1.6c.18.48.38,1,.59,1.65s.42,1.26.63,1.92.41,1.32.61,2l.54,1.76h.15q.72-2.52,1.44-4.88c.48-1.56.92-2.88,1.32-3.94a5.32,5.32,0,0,1,1.16-.41,6.89,6.89,0,0,1,1.57-.16,5.86,5.86,0,0,1,2.4.43,1.73,1.73,0,0,1,1.08,1.25c.08.4.17,1,.26,1.84s.18,1.77.28,2.81.2,2.14.3,3.3.2,2.28.29,3.34.16,2.06.22,2.94.1,1.58.12,2.06a4.25,4.25,0,0,1-1.06.44,6.28,6.28,0,0,1-1.43.13,4.27,4.27,0,0,1-1.92-.39,1.65,1.65,0,0,1-.84-1.53q-.18-3.27-.22-5.88c0-1.74-.08-3.2-.14-4.38H100q-.3,1.17-.87,2.94T97.75,158.79Z"/><path class="b" d="M113.11,145.62a6.4,6.4,0,0,1,1.55-.57,8.19,8.19,0,0,1,2.08-.27,7.53,7.53,0,0,1,2.66.43,2.31,2.31,0,0,1,1.48,1.37q.54,1.56,1.17,3.63c.42,1.38.84,2.8,1.26,4.27l1.23,4.35c.4,1.43.75,2.7,1,3.8a2.47,2.47,0,0,1-1.08.67,5.13,5.13,0,0,1-1.71.26,5.2,5.2,0,0,1-1.21-.12,2.16,2.16,0,0,1-.81-.36,1.77,1.77,0,0,1-.51-.63,5.45,5.45,0,0,1-.35-.9l-.54-2.07H114q-.24.9-.48,1.86T113,163.2c-.28.1-.57.18-.88.26a6,6,0,0,1-1.13.1,4,4,0,0,1-2.26-.52,1.7,1.7,0,0,1-.74-1.46,3,3,0,0,1,.12-.84q.12-.42.27-1c.14-.54.34-1.21.59-2s.52-1.66.82-2.6.62-1.88,1-2.86l1-2.78c.3-.87.58-1.64.83-2.32S113,146,113.11,145.62Zm3.6,3.87c-.28.84-.59,1.77-.94,2.8s-.67,2.08-1,3.14h3.72c-.28-1.08-.56-2.14-.85-3.17s-.56-1.95-.8-2.77Z"/><path class="b" d="M144.52,162.63a2.72,2.72,0,0,1-1.21.64,7.08,7.08,0,0,1-1.91.23,6.6,6.6,0,0,1-2.1-.33,2.91,2.91,0,0,1-1.62-1.59l-3-6.06c-.3-.62-.57-1.2-.81-1.76s-.5-1.18-.78-1.9l-.18,0c.08,1.08.13,2.18.14,3.3s0,2.22,0,3.3v4.65a8.22,8.22,0,0,1-1,.18,10.17,10.17,0,0,1-1.34.09,6.79,6.79,0,0,1-1.17-.09,1.79,1.79,0,0,1-.84-.36,1.69,1.69,0,0,1-.51-.74,3.39,3.39,0,0,1-.18-1.21V146a2.51,2.51,0,0,1,1.29-.9,5.67,5.67,0,0,1,1.86-.3,6.5,6.5,0,0,1,2.12.34,2.87,2.87,0,0,1,1.6,1.58l3,6.06c.3.62.57,1.21.81,1.75s.5,1.19.78,1.91l.15,0q-.12-1.62-.15-3.24t0-3.24v-4.86a8.46,8.46,0,0,1,1-.18,10,10,0,0,1,1.33-.09,3.6,3.6,0,0,1,2,.46,2.21,2.21,0,0,1,.69,1.94Z"/><path class="b" d="M158,163.14a8.33,8.33,0,0,1-1,.18,10.43,10.43,0,0,1-1.35.09,3.73,3.73,0,0,1-2.07-.47,2.23,2.23,0,0,1-.69-2v-4q-.75-1.11-1.62-2.46t-1.71-2.76c-.56-.94-1.08-1.87-1.56-2.78a24.44,24.44,0,0,1-1.17-2.5,4.11,4.11,0,0,1,1.07-1,2.92,2.92,0,0,1,1.66-.45,3.47,3.47,0,0,1,1.91.48,4.51,4.51,0,0,1,1.39,1.8l2.49,5h.18c.28-.62.53-1.19.74-1.7s.41-1,.61-1.53l.63-1.59c.22-.55.47-1.18.75-1.9a5.3,5.3,0,0,1,1.2-.42,5.69,5.69,0,0,1,1.26-.15,2.91,2.91,0,0,1,1.79.55,2,2,0,0,1,.73,1.67,3.17,3.17,0,0,1-.15.87,9.74,9.74,0,0,1-.69,1.54c-.36.69-.88,1.63-1.57,2.81s-1.63,2.72-2.81,4.62Z"/><path class="c" d="M114.86,56.4v5.46h1.91c.28,0,.5.38.5.83h0c0,.45-.22.83-.5.83h-.58v1c0,.36-.18.66-.4.66H58.46c-.22,0-.4-.3-.4-.66v-1h-.57c-.28,0-.51-.38-.51-.83h0c0-.45.23-.83.51-.83H59.4V56.4H78.58c.14,0,.26-.19.26-.43h0c0-.24-.12-.44-.26-.44H59.19c-.28,0-.51-.37-.51-.83h0c0-.46.23-.84.51-.84H78.84v-1c0-.55.28-1,.61-1h3.33a2.79,2.79,0,0,1-.39-.77l-.06-.17c-1.22-3.67-1,1.46-1.49-.49l-.18-.71a7.81,7.81,0,0,1,0-3.55c.17-.84.4-1.7,0-1.39-.74.55-.41-2.56-.4-2.57,1.23-.6,1.38,3.69,2.73,4.16,1.16.4,1.37-.65,1.34-2.13a5.61,5.61,0,0,1-.23-1.33c.05-.89.43-1.82.88-1l.07.15c.5.62.23-.2.2-1.09s.18-1.8,1-1.11c.08-.07.08,0,.09-.18a1.2,1.2,0,0,1,.54-1.09V36.73a1.49,1.49,0,0,1-.66-1.4,1.52,1.52,0,0,1,.64-1.39.72.72,0,0,0-.32-.51,4,4,0,0,1-.85-2.3c.07-.08.7.33.79.46s.12.46.19.76.14.24.21.14v-.42c0-.2.09-.35.21-.35h0c.12,0,.21.15.21.35v.42c.07.1.15.11.21-.14a2,2,0,0,1,.18-.76c.1-.13.73-.54.8-.46a4,4,0,0,1-.86,2.3.72.72,0,0,0-.31.51A1.52,1.52,0,0,1,88,35.33a1.49,1.49,0,0,1-.66,1.4v1.85a1.2,1.2,0,0,1,.54,1.09c0,.14,0,.11.08.18.84-.69,1.05.25,1,1.11s-.31,1.71.2,1.09l.07-.15c.45-.86.83.07.87,1a5.76,5.76,0,0,1-.22,1.33c0,1.48.18,2.53,1.33,2.13,1.36-.47,1.51-4.76,2.74-4.16,0,0,.33,3.12-.4,2.57-.42-.31-.19.55,0,1.39a8,8,0,0,1,0,3.55l-.19.71c-.51,1.95-.26-3.18-1.49.49l0,.17a3.48,3.48,0,0,1-.39.77h3.33c.33,0,.6.46.6,1v1h19.66c.28,0,.5.38.5.84h0c0,.46-.22.83-.5.83H95.68c-.15,0-.27.2-.27.44h0c0,.24.12.43.27.43Zm-89.14,57H148.54c.39,0,.71-.53.71-1.18h0c0-.65-.32-1.19-.71-1.19H146l-.41-25c.1,0,.18-.14.18-.31H146v-1h-2.77v1h.25c0,.17.09.31.19.31h0l-.42,25h-3l-.42-25c.1,0,.19-.14.19-.31h.25v-1h-2.77v1h.25c0,.17.08.31.18.31h0l-.41,25h-8.49l-.42-25c.1,0,.18-.14.18-.31h.26v-1H126.3v1h.25c0,.17.08.31.18.31h0l-.41,25h-3l-.41-25c.1,0,.18-.14.18-.31h.25v-1h-2.77v1h.25c0,.17.09.31.19.31h0l-.42,25h-5.21l-.62-38c.13,0,.25-.18.25-.41h.35V71.18h-3.83v1.46h.35c0,.23.11.41.25.41h0l-.63,38h-6l-.63-38c.14,0,.25-.18.25-.41h.35V71.18h-3.82v1.46H102c0,.23.12.41.26.41h0l-.63,38h-6l-.63-38c.14,0,.26-.18.26-.41h.34V71.18H91.79v1.46h.35c0,.23.11.41.25.41h0l-.63,38H82.49l-.62-38c.13,0,.25-.18.25-.41h.35V71.18H78.64v1.46H79c0,.23.11.41.25.41h0l-.63,38h-6l-.63-38c.14,0,.25-.18.25-.41h.35V71.18H68.77v1.46h.34c0,.23.12.41.26.41h0l-.63,38h-6l-.63-38c.14,0,.26-.18.26-.41h.34V71.18H58.89v1.46h.35c0,.23.11.41.25.41h0l-.63,38H53.65l-.41-25c.1,0,.18-.14.18-.31h.26v-1H50.9v1h.26c0,.17.08.31.18.31h0l-.41,25h-3l-.41-25c.1,0,.18-.14.18-.31H48v-1H45.19v1h.25c0,.17.08.31.19.31h0l-.42,25H36.72l-.42-25c.11,0,.19-.14.19-.31h.25v-1H34v1h.25c0,.17.08.31.18.31h0L34,111H31l-.41-25c.1,0,.18-.14.18-.31H31v-1H28.25v1h.26c0,.17.08.31.18.31h0l-.41,25H25.72c-.4,0-.72.54-.72,1.19h0c0,.65.32,1.18.72,1.18ZM41,69.73l9,4.81,5.76,3.26-.27.85h-.56v1H27v-1h-.56l-.27-.85L32,74.54l9-4.81ZM53.37,80.52v3.32H28.56V80.52Zm79.92-10.79,9,4.81,5.75,3.26-.26.85h-.56v1h-27.9v-1h-.55l-.27-.85,5.76-3.26,9-4.81ZM145.7,80.52v3.32H120.88V80.52Zm-58.57-46c-.26,0-.46.35-.46.77s.2.76.46.76.46-.34.46-.76-.21-.77-.46-.77Zm27.73,31.51v4.24H59.4V66.07Z"/></svg>