<svg xmlns="http://www.w3.org/2000/svg" viewBox="0 0 176.13 173.3"><rect width="176.13" height="173.3" fill="#f7b524"/><path d="M27.1,159.34a2.34,2.34,0,0,1-.33,1.38,3.42,3.42,0,0,1-1.05.87,6.62,6.62,0,0,1-1,.47,11.38,11.38,0,0,1-1.38.39,15.89,15.89,0,0,1-3.21.34,13.63,13.63,0,0,1-4-.58,9.24,9.24,0,0,1-3.29-1.77,8.41,8.41,0,0,1-2.2-3,10.87,10.87,0,0,1,.07-8.4A9,9,0,0,1,13,146a9.81,9.81,0,0,1,3.33-1.82,12.6,12.6,0,0,1,3.86-.6,9.39,9.39,0,0,1,4.51.92,2.71,2.71,0,0,1,1.67,2.38,2.33,2.33,0,0,1-.39,1.35,3.21,3.21,0,0,1-.9.9,12.43,12.43,0,0,0-1.88-.88,7,7,0,0,0-2.53-.44,5.52,5.52,0,0,0-4,1.44,5.3,5.3,0,0,0-1.48,4,6.4,6.4,0,0,0,.4,2.39,4.55,4.55,0,0,0,1.1,1.65,4.46,4.46,0,0,0,1.59,1,5.77,5.77,0,0,0,1.92.31,5.14,5.14,0,0,0,1.17-.12,3.15,3.15,0,0,0,.78-.27v-2.82H18.88a4.73,4.73,0,0,1-.35-.87,3.88,3.88,0,0,1-.16-1.14,2.1,2.1,0,0,1,.49-1.56,1.77,1.77,0,0,1,1.28-.48h5.07a1.73,1.73,0,0,1,1.89,1.89Z" fill="#fff"/><path d="M45.46,155.59a7.65,7.65,0,0,1-.56,3,6.24,6.24,0,0,1-1.6,2.28,7.23,7.23,0,0,1-2.55,1.45,11.52,11.52,0,0,1-6.78,0,7.23,7.23,0,0,1-2.55-1.45,6.27,6.27,0,0,1-1.61-2.28,7.65,7.65,0,0,1-.55-3V144.13l1-.16a9.6,9.6,0,0,1,1.38-.11,6.17,6.17,0,0,1,1.21.11,2.18,2.18,0,0,1,.89.37,1.62,1.62,0,0,1,.54.75,3.66,3.66,0,0,1,.18,1.26v9.15a3.07,3.07,0,0,0,.79,2.25,3,3,0,0,0,4.13,0,3.11,3.11,0,0,0,.78-2.25V144.13l1-.16a9.6,9.6,0,0,1,1.38-.11,6.17,6.17,0,0,1,1.21.11,2.18,2.18,0,0,1,.89.37,1.62,1.62,0,0,1,.54.75,3.66,3.66,0,0,1,.18,1.26Z" fill="#fff"/><path d="M51.7,144.67a6.3,6.3,0,0,1,1.54-.57,8.27,8.27,0,0,1,2.09-.27,7.47,7.47,0,0,1,2.65.44,2.31,2.31,0,0,1,1.49,1.36q.54,1.56,1.17,3.63c.42,1.38.84,2.81,1.26,4.28s.83,2.92,1.23,4.35.75,2.69,1.05,3.79a2.48,2.48,0,0,1-1.08.68,5.14,5.14,0,0,1-1.71.25,5.29,5.29,0,0,1-1.22-.12,2.16,2.16,0,0,1-.81-.36,1.77,1.77,0,0,1-.51-.63,5.47,5.47,0,0,1-.34-.9L58,158.53H52.54q-.24.9-.48,1.86t-.48,1.86a7.71,7.71,0,0,1-.89.26,5.17,5.17,0,0,1-1.12.1,4,4,0,0,1-2.27-.52,1.69,1.69,0,0,1-.73-1.46,3,3,0,0,1,.12-.84q.12-.42.27-1c.14-.54.33-1.21.58-2s.53-1.66.83-2.59.62-1.89,1-2.87l1-2.77c.3-.87.57-1.65.82-2.33S51.56,145,51.7,144.67Zm3.6,3.87c-.28.84-.6,1.78-.95,2.81s-.66,2.07-.94,3.13h3.72c-.28-1.08-.57-2.13-.86-3.16s-.55-2-.79-2.78Z" fill="#fff"/><path d="M63.55,148.33a3.88,3.88,0,0,1-.39-.9,4,4,0,0,1-.18-1.2,2.27,2.27,0,0,1,.52-1.68,1.89,1.89,0,0,1,1.37-.51H78a3.88,3.88,0,0,1,.39.9,4,4,0,0,1,.18,1.2,2.27,2.27,0,0,1-.53,1.68,1.86,1.86,0,0,1-1.36.51H73.3v13.86a8.45,8.45,0,0,1-1,.18,10.93,10.93,0,0,1-1.39.09,6.33,6.33,0,0,1-1.22-.1,2.14,2.14,0,0,1-.88-.38,1.62,1.62,0,0,1-.54-.75,3.66,3.66,0,0,1-.18-1.26V148.33Z" fill="#fff"/><path d="M79.87,146.92a2.59,2.59,0,0,1,2.79-2.79h9.9a3.6,3.6,0,0,1,.37.87,3.88,3.88,0,0,1,.17,1.14,2.2,2.2,0,0,1-.5,1.62,1.78,1.78,0,0,1-1.3.48H85V151h6.75a4.06,4.06,0,0,1,.54,2,2.24,2.24,0,0,1-.48,1.62,1.74,1.74,0,0,1-1.29.48H85v3.15h7.71a3.6,3.6,0,0,1,.37.87,3.88,3.88,0,0,1,.17,1.14,2.27,2.27,0,0,1-.5,1.64,1.75,1.75,0,0,1-1.3.49H82.66a2.59,2.59,0,0,1-2.79-2.79Z" fill="#fff"/><path d="M107.8,157.84a2.92,2.92,0,0,1-1,.53,4.69,4.69,0,0,1-1.42.19,5.07,5.07,0,0,1-1.79-.27,1.43,1.43,0,0,1-.91-.93c-.56-1.76-1-3.18-1.38-4.27s-.64-2.05-.84-2.87h-.15c-.06,1.18-.11,2.26-.14,3.23s0,1.91-.06,2.83,0,1.85-.06,2.79-.07,2-.13,3.12a5.34,5.34,0,0,1-1,.26,7.64,7.64,0,0,1-1.26.1,4.19,4.19,0,0,1-2.06-.42,1.61,1.61,0,0,1-.73-1.53l.87-15.3a2.87,2.87,0,0,1,1.05-.84A4.75,4.75,0,0,1,99,144a5.2,5.2,0,0,1,2.49.5,2.92,2.92,0,0,1,1.32,1.6c.18.48.37,1,.58,1.65s.42,1.26.63,1.92.42,1.32.62,2l.54,1.75h.15q.72-2.52,1.44-4.87c.48-1.57.92-2.89,1.32-3.95a4.78,4.78,0,0,1,1.15-.4,7,7,0,0,1,1.58-.17,5.69,5.69,0,0,1,2.4.44,1.72,1.72,0,0,1,1.08,1.24c.08.4.16,1,.25,1.85s.19,1.76.29,2.8.2,2.14.3,3.3.19,2.28.28,3.35.17,2,.23,2.94.1,1.57.12,2a4,4,0,0,1-1.07.44,6.18,6.18,0,0,1-1.42.13,4.27,4.27,0,0,1-1.92-.39,1.65,1.65,0,0,1-.84-1.53q-.18-3.27-.23-5.88c0-1.74-.07-3.2-.13-4.38h-.15q-.3,1.17-.87,2.94T107.8,157.84Z" fill="#fff"/><path d="M122,144.67a6.3,6.3,0,0,1,1.54-.57,8.27,8.27,0,0,1,2.09-.27,7.47,7.47,0,0,1,2.65.44,2.31,2.31,0,0,1,1.49,1.36q.54,1.56,1.17,3.63c.42,1.38.84,2.81,1.26,4.28s.83,2.92,1.23,4.35.75,2.69,1.05,3.79a2.48,2.48,0,0,1-1.08.68,5.14,5.14,0,0,1-1.71.25,5.29,5.29,0,0,1-1.22-.12,2.16,2.16,0,0,1-.81-.36,1.77,1.77,0,0,1-.51-.63,5.47,5.47,0,0,1-.34-.9l-.54-2.07H122.8q-.24.9-.48,1.86t-.48,1.86a7.71,7.71,0,0,1-.89.26,5.17,5.17,0,0,1-1.12.1,4,4,0,0,1-2.27-.52,1.69,1.69,0,0,1-.73-1.46,3,3,0,0,1,.12-.84q.12-.42.27-1c.14-.54.33-1.21.58-2s.53-1.66.83-2.59.62-1.89,1-2.87l1-2.77c.3-.87.57-1.65.82-2.33S121.82,145,122,144.67Zm3.6,3.87c-.28.84-.6,1.78-1,2.81s-.66,2.07-.94,3.13h3.72c-.28-1.08-.57-2.13-.86-3.16s-.55-2-.79-2.78Z" fill="#fff"/><path d="M138.49,162.4a2.59,2.59,0,0,1-2.79-2.79V144.1l1.05-.16a9.6,9.6,0,0,1,1.38-.11,6.17,6.17,0,0,1,1.21.11,2.18,2.18,0,0,1,.89.37,1.62,1.62,0,0,1,.54.75,3.66,3.66,0,0,1,.18,1.26v11.85h6.87a4,4,0,0,1,.39.89,3.69,3.69,0,0,1,.18,1.15,2.32,2.32,0,0,1-.51,1.7,1.85,1.85,0,0,1-1.35.49Z" fill="#fff"/><path d="M154.06,144.67a6.3,6.3,0,0,1,1.54-.57,8.27,8.27,0,0,1,2.09-.27,7.47,7.47,0,0,1,2.65.44,2.31,2.31,0,0,1,1.49,1.36q.54,1.56,1.17,3.63c.42,1.38.84,2.81,1.26,4.28s.83,2.92,1.23,4.35.75,2.69,1,3.79a2.48,2.48,0,0,1-1.08.68,5.14,5.14,0,0,1-1.71.25,5.29,5.29,0,0,1-1.22-.12,2.16,2.16,0,0,1-.81-.36,1.77,1.77,0,0,1-.51-.63,5.47,5.47,0,0,1-.34-.9l-.54-2.07H154.9q-.24.9-.48,1.86t-.48,1.86a7.71,7.71,0,0,1-.89.26,5.17,5.17,0,0,1-1.12.1,4,4,0,0,1-2.27-.52,1.69,1.69,0,0,1-.73-1.46,3,3,0,0,1,.12-.84q.12-.42.27-1c.14-.54.33-1.21.58-2s.53-1.66.83-2.59.62-1.89,1-2.87l1-2.77c.3-.87.57-1.65.82-2.33S153.92,145,154.06,144.67Zm3.6,3.87c-.28.84-.6,1.78-.95,2.81s-.66,2.07-.94,3.13h3.72c-.28-1.08-.57-2.13-.86-3.16s-.55-2-.79-2.78Z" fill="#fff"/><path d="M72.47,114.56l-47.41,0-2.44,9.32H72.09l.38-9.29ZM93,51.5H83.15l0,1.37H93l0-1.37Zm-9.8-1.33H100l2.91,73.64H94.59l0-1.06h-13l0,1.06H73.2l2.92-73.64h7.06ZM93,54.24h-10l0,1.37h10l0-1.37ZM93.1,57H83l0,1.37H93.13l0-1.37Zm.06,2.74H83l0,1.37H93.19l0-1.37Zm.06,2.74H82.91l0,1.37H93.25l0-1.37Zm.07,2.74H82.85l0,1.37h10.5l0-1.37Zm.06,2.74H82.79l0,1.37H93.38l0-1.37Zm.06,2.74H82.73l0,1.37H93.44l0-1.37Zm.06,2.74H82.66l0,1.37H93.5l0-1.37Zm.06,2.74H82.6l0,1.37h11l0-1.37Zm.06,2.74h-11l0,1.37H93.62l0-1.37Zm.06,2.74H82.48l0,1.37H93.68l0-1.37Zm.06,2.74H82.42l0,1.37H93.74l0-1.37Zm.06,2.74H82.36l0,1.37H93.8l0-1.37Zm.07,2.74H82.3l0,1.37h11.6l0-1.37Zm.06,2.74H82.24l0,1.37H93.93l0-1.37ZM94,95.34H82.18l0,1.37H94l0-1.37ZM94,98.08H82.11l0,1.37h12l0-1.37Zm.06,2.74h-12l0,1.37H94.11l0-1.37Zm.06,2.74H82l0,1.37H94.17l0-1.37Zm.06,2.74H81.93l0,1.38H94.23l0-1.38Zm.06,2.75H81.87l0,1.37H94.29l0-1.37Zm.06,2.74H81.81l0,1.37H94.35l0-1.37Zm.07,2.74H81.75l0,1.37h12.7l0-1.37Zm.06,2.74H81.69l0,1.37H94.48l0-1.37Zm.06,2.74H81.63l0,1.37h13l0-1.37ZM85.19,45.46v.93h5.75v-6.5H85.19v5.57Zm-11.4.93V32.54h2.44V26.26h2.14V21.45H97.76v4.81H99.9v6.28h2.44V46.39h1.1l.52,2.85H72.17l.52-2.85Zm29.88,68.17,47.41,0,2.43,9.32H104l-.37-9.29ZM101.1,50.17h6.42L109,55.91h-7.7l-.23-5.74Zm.26,6.68h10.8l1.5,5.75H101.59l-.23-5.74Zm.27,6.67H117l1.5,5.75H101.86l-.23-5.74Zm.27,6.68h20L123.68,77H102.17l-.27-6.81Zm.31,7.74h25.13l1.86,7.13H102.49l-.28-7.12Zm.32,8.07L133,86l1.86,7.14h-32L102.53,86Zm.32,8.06,35.79,0,2.44,9.32H103.22l-.37-9.29Zm.41,10.25,41.6,0,2.44,9.32H103.63l-.37-9.29ZM75,50.17H68.61l-1.5,5.75h7.7L75,50.17Zm-.26,6.68H64l-1.51,5.75H74.54l.23-5.74Zm-.27,6.67H59.11l-1.5,5.75H74.27l.23-5.74Zm-.26,6.68h-20L52.46,77H74l.28-6.81Zm-.31,7.74H48.8l-1.87,7.13H73.64l.29-7.12ZM73.6,86,43.14,86l-1.86,7.14h32L73.6,86Zm-.32,8.06L37.49,94l-2.43,9.32H72.91l.37-9.29Zm-.41,10.25-41.6,0-2.44,9.32H72.5l.37-9.29Z" fill="#fff" fill-rule="evenodd"/></svg>