<svg xmlns="http://www.w3.org/2000/svg" viewBox="0 0 176.13 178.03"><rect width="176.13" height="173.3" fill="#f7b524"/><text transform="translate(8.68 162.31)" font-size="30" fill="#fff" font-family="Baloo-Regular, Baloo" letter-spacing="-0.04em">G<tspan x="18.72" y="0" letter-spacing="-0.05em">U</tspan><tspan x="37.2" y="0" letter-spacing="-0.07em">A</tspan><tspan x="53.76" y="0" letter-spacing="-0.04em">T</tspan><tspan x="69.24" y="0" letter-spacing="-0.04em">E</tspan><tspan x="84.6" y="0" letter-spacing="-0.04em">M</tspan><tspan x="107.46" y="0" letter-spacing="-0.04em">A</tspan><tspan x="125.07" y="0" letter-spacing="-0.03em">L</tspan><tspan x="139.56" y="0" letter-spacing="-0.04em">A</tspan></text><path d="M72.47,114.56l-47.41,0-2.44,9.32H72.09l.38-9.29ZM93,51.5H83.15l0,1.37H93l0-1.37Zm-9.8-1.33H100l2.91,73.64H94.59l0-1.06h-13l0,1.06H73.2l2.92-73.64h7.06ZM93,54.24h-10l0,1.37h10l0-1.37ZM93.1,57H83l0,1.37H93.13l0-1.37Zm.06,2.74H83l0,1.37H93.19l0-1.37Zm.06,2.74H82.91l0,1.37H93.25l0-1.37Zm.07,2.74H82.85l0,1.37h10.5l0-1.37Zm.06,2.74H82.79l0,1.37H93.38l0-1.37Zm.06,2.74H82.73l0,1.37H93.44l0-1.37Zm.06,2.74H82.66l0,1.37H93.5l0-1.37Zm.06,2.74H82.6l0,1.37h11l0-1.37Zm.06,2.74h-11l0,1.37H93.62l0-1.37Zm.06,2.74H82.48l0,1.37H93.68l0-1.37Zm.06,2.74H82.42l0,1.37H93.74l0-1.37Zm.06,2.74H82.36l0,1.37H93.8l0-1.37Zm.07,2.74H82.3l0,1.37h11.6l0-1.37Zm.06,2.74H82.24l0,1.37H93.93l0-1.37ZM94,95.34H82.18l0,1.37H94l0-1.37ZM94,98.08H82.11l0,1.37h12l0-1.37Zm.06,2.74h-12l0,1.37H94.11l0-1.37Zm.06,2.74H82l0,1.37H94.17l0-1.37Zm.06,2.74H81.93l0,1.38H94.23l0-1.38Zm.06,2.75H81.87l0,1.37H94.29l0-1.37Zm.06,2.74H81.81l0,1.37H94.35l0-1.37Zm.07,2.74H81.75l0,1.37h12.7l0-1.37Zm.06,2.74H81.69l0,1.37H94.48l0-1.37Zm.06,2.74H81.63l0,1.37h13l0-1.37ZM85.19,45.46v.93h5.75v-6.5H85.19v5.57Zm-11.4.93V32.54h2.44V26.26h2.14V21.45H97.76v4.81H99.9v6.28h2.44V46.39h1.1l.52,2.85H72.17l.52-2.85Zm29.88,68.17,47.41,0,2.43,9.32H104l-.37-9.29ZM101.1,50.17h6.42L109,55.91h-7.7l-.23-5.74Zm.26,6.68h10.8l1.5,5.75H101.59l-.23-5.74Zm.27,6.67H117l1.5,5.75H101.86l-.23-5.74Zm.27,6.68h20L123.68,77H102.17l-.27-6.81Zm.31,7.74h25.13l1.86,7.13H102.49l-.28-7.12Zm.32,8.07L133,86l1.86,7.14h-32L102.53,86Zm.32,8.06,35.79,0,2.44,9.32H103.22l-.37-9.29Zm.41,10.25,41.6,0,2.44,9.32H103.63l-.37-9.29ZM75,50.17H68.61l-1.5,5.75h7.7L75,50.17Zm-.26,6.68H64l-1.51,5.75H74.54l.23-5.74Zm-.27,6.67H59.11l-1.5,5.75H74.27l.23-5.74Zm-.26,6.68h-20L52.46,77H74l.28-6.81Zm-.31,7.74H48.8l-1.87,7.13H73.64l.29-7.12ZM73.6,86,43.14,86l-1.86,7.14h32L73.6,86Zm-.32,8.06L37.49,94l-2.43,9.32H72.91l.37-9.29Zm-.41,10.25-41.6,0-2.44,9.32H72.5l.37-9.29Z" fill="#fff" fill-rule="evenodd"/></svg>