<svg xmlns="http://www.w3.org/2000/svg" viewBox="0 0 176.13 178.98"><defs><style>.a{fill:#088084;}.b{font-size:30px;font-family:Baloo-Regular, Baloo;letter-spacing:-0.04em;}.b,.e{fill:#fff;}.c{letter-spacing:-0.06em;}.d{letter-spacing:-0.04em;}</style></defs><title>HONG KONG</title><rect class="a" width="176.13" height="173.3"/><text class="b" transform="translate(10.08 163.26)">HONG <tspan class="c" x="81.54" y="0">K</tspan><tspan class="d" x="98.19" y="0">ONG</tspan></text><path class="e" d="M150.71,120.74H136.3V79.82H39.83v40.92H25.43a1.86,1.86,0,1,0,0,3.71H150.71a1.86,1.86,0,0,0,0-3.71ZM112.57,107.2a6.91,6.91,0,1,1,13.82,0v13.54H112.57Zm-39.06-4.53a14.56,14.56,0,0,1,29.11,0v18.07H73.51ZM49.74,107.2a6.92,6.92,0,0,1,13.83,0v13.54H49.74Z"/><rect class="e" x="79.75" y="44.02" width="16.63" height="8.51"/><path class="e" d="M60.7,48.71H76V40.3H100.1v8.41h15.33a13.34,13.34,0,0,0,10.7-7c-3.91-1-12-3.63-17.28-8.82V23.75a1.86,1.86,0,1,0-3.72,0v5.57H71V23.75a1.86,1.86,0,1,0-3.71,0v9.14C62,38.08,53.91,40.71,50,41.71A13.49,13.49,0,0,0,60.7,48.71Z"/><path class="e" d="M113.62,76.11V52.42H100.1v3.81H76V52.42H62.51V76.11H81.15V69.18a6.92,6.92,0,1,1,13.83,0v6.93Z"/><path class="e" d="M117.34,76.11h20.82c.51,0,10,.36,14.58-8.67a24.36,24.36,0,0,1-21.18-15H117.34Z"/><path class="e" d="M37.87,76.11H58.8V52.42H44.58a24.38,24.38,0,0,1-21.19,15C28.08,76.54,37.76,76.11,37.87,76.11Z"/></svg>