<svg xmlns="http://www.w3.org/2000/svg" width="176.13" height="173.3" viewBox="0 0 176.13 173.3"><defs><style>.a{fill:#088084;}.b{fill:#fff;}</style></defs><title>Asset 72</title><rect class="a" width="176.13" height="173.3"/><path class="b" d="M28.29,163.14a8.21,8.21,0,0,1-1,.18,11.09,11.09,0,0,1-1.4.09,6.17,6.17,0,0,1-1.21-.11,2,2,0,0,1-.89-.37,1.62,1.62,0,0,1-.54-.75,3.66,3.66,0,0,1-.18-1.26v-4.68H17.28v6.9a8.21,8.21,0,0,1-1,.18,11.09,11.09,0,0,1-1.4.09,6.17,6.17,0,0,1-1.21-.11,2,2,0,0,1-.89-.37,1.62,1.62,0,0,1-.54-.75,3.66,3.66,0,0,1-.18-1.26V145.08l1.05-.17a9.54,9.54,0,0,1,1.38-.1,6.33,6.33,0,0,1,1.22.1,2.28,2.28,0,0,1,.88.38,1.62,1.62,0,0,1,.54.75,3.66,3.66,0,0,1,.18,1.26v4.8H23v-7l1.05-.17a9.54,9.54,0,0,1,1.38-.1,6.33,6.33,0,0,1,1.22.1,2.28,2.28,0,0,1,.88.38,1.62,1.62,0,0,1,.54.75,3.66,3.66,0,0,1,.18,1.26Z"/><path class="b" d="M30.09,154.14a10.88,10.88,0,0,1,.74-4.14,8.31,8.31,0,0,1,5-4.86,11.39,11.39,0,0,1,7.47,0,8.66,8.66,0,0,1,3,1.84,8.51,8.51,0,0,1,2,3,10.89,10.89,0,0,1,.73,4.14,11.18,11.18,0,0,1-.72,4.15,8.5,8.5,0,0,1-2,3,8.67,8.67,0,0,1-3,1.84,11,11,0,0,1-3.78.63,10.79,10.79,0,0,1-3.78-.65,8.42,8.42,0,0,1-3-1.87,8.67,8.67,0,0,1-2-3A11,11,0,0,1,30.09,154.14Zm5.4,0a6.33,6.33,0,0,0,1.11,4.08,4,4,0,0,0,6,0,8.06,8.06,0,0,0,0-8.13,3.65,3.65,0,0,0-3-1.35,3.7,3.7,0,0,0-3,1.34A6.17,6.17,0,0,0,35.49,154.14Z"/><path class="b" d="M67.35,162.63a2.72,2.72,0,0,1-1.21.64,7.08,7.08,0,0,1-1.91.23,6.6,6.6,0,0,1-2.1-.33,2.91,2.91,0,0,1-1.62-1.59l-3-6.06c-.3-.62-.57-1.2-.81-1.76s-.5-1.18-.78-1.9l-.18,0c.08,1.08.13,2.18.14,3.3s0,2.22,0,3.3v4.65a8.22,8.22,0,0,1-1,.18,10.17,10.17,0,0,1-1.34.09,6.79,6.79,0,0,1-1.17-.09,1.79,1.79,0,0,1-.84-.36,1.69,1.69,0,0,1-.51-.74,3.39,3.39,0,0,1-.18-1.21V146a2.51,2.51,0,0,1,1.29-.9,5.67,5.67,0,0,1,1.86-.3,6.5,6.5,0,0,1,2.12.34,2.87,2.87,0,0,1,1.6,1.58l3,6.06c.3.62.57,1.21.81,1.75s.5,1.19.78,1.91l.15,0q-.12-1.62-.15-3.24t0-3.24v-4.86a8.46,8.46,0,0,1,1-.18,10,10,0,0,1,1.33-.09,3.6,3.6,0,0,1,2,.46,2.21,2.21,0,0,1,.69,1.94Z"/><path class="b" d="M86.52,160.29a2.34,2.34,0,0,1-.33,1.38,3.42,3.42,0,0,1-1,.87,6.67,6.67,0,0,1-1,.46,11.38,11.38,0,0,1-1.38.39,14.69,14.69,0,0,1-1.57.26,15.16,15.16,0,0,1-1.64.09,13.63,13.63,0,0,1-4-.59,9.19,9.19,0,0,1-3.28-1.77A8.4,8.4,0,0,1,70,158.43,10.81,10.81,0,0,1,70,150,9,9,0,0,1,72.38,147a9.79,9.79,0,0,1,3.33-1.81,12.54,12.54,0,0,1,3.85-.6,9.44,9.44,0,0,1,4.52.91,2.71,2.71,0,0,1,1.66,2.39,2.33,2.33,0,0,1-.39,1.35,3.21,3.21,0,0,1-.9.9,13.24,13.24,0,0,0-1.87-.89A7.23,7.23,0,0,0,80,148.8a5.5,5.5,0,0,0-4,1.44,5.3,5.3,0,0,0-1.49,4,6.39,6.39,0,0,0,.41,2.39,4.49,4.49,0,0,0,1.09,1.64,4.32,4.32,0,0,0,1.59,1,5.77,5.77,0,0,0,1.92.32,5.14,5.14,0,0,0,1.17-.12,3.15,3.15,0,0,0,.78-.27v-2.82H78.3a4.79,4.79,0,0,1-.34-.87,3.88,3.88,0,0,1-.17-1.14,2.1,2.1,0,0,1,.5-1.56,1.74,1.74,0,0,1,1.27-.48h5.07a1.71,1.71,0,0,1,1.89,1.89Z"/><path class="b" d="M98.85,156.51v6.63a8.34,8.34,0,0,1-1,.18,11.36,11.36,0,0,1-1.41.09,6.17,6.17,0,0,1-1.21-.11,2,2,0,0,1-.89-.37,1.62,1.62,0,0,1-.54-.75,3.66,3.66,0,0,1-.18-1.26V145.08l1.05-.17a9.54,9.54,0,0,1,1.38-.1,6.33,6.33,0,0,1,1.22.1,2.28,2.28,0,0,1,.88.38,1.62,1.62,0,0,1,.54.75,3.66,3.66,0,0,1,.18,1.26v4.77l6.24-7.17a4.48,4.48,0,0,1,2.93.76,2.33,2.33,0,0,1,.88,1.82,2.94,2.94,0,0,1-.39,1.47,7.66,7.66,0,0,1-1.26,1.56l-3.75,3.75,1.58,1.74,1.62,1.75c.53.58,1,1.12,1.53,1.64l1.27,1.35a2.72,2.72,0,0,1-.24,1.17,2.66,2.66,0,0,1-.64.87,2.76,2.76,0,0,1-.92.54,3.22,3.22,0,0,1-1.08.18,3.15,3.15,0,0,1-2-.62,10.71,10.71,0,0,1-1.5-1.45Z"/><path class="b" d="M109.32,154.14a10.88,10.88,0,0,1,.74-4.14,8.31,8.31,0,0,1,5-4.86,11.39,11.39,0,0,1,7.47,0,8.66,8.66,0,0,1,3,1.84,8.51,8.51,0,0,1,2,3,10.89,10.89,0,0,1,.73,4.14,11.18,11.18,0,0,1-.72,4.15,8.5,8.5,0,0,1-2,3,8.67,8.67,0,0,1-3,1.84,11,11,0,0,1-3.78.63,10.79,10.79,0,0,1-3.78-.65,8.42,8.42,0,0,1-3-1.87,8.67,8.67,0,0,1-2-3A11,11,0,0,1,109.32,154.14Zm5.4,0a6.33,6.33,0,0,0,1.11,4.08,4,4,0,0,0,6,0,8.06,8.06,0,0,0,0-8.13,3.65,3.65,0,0,0-3-1.35,3.7,3.7,0,0,0-3,1.34A6.17,6.17,0,0,0,114.72,154.14Z"/><path class="b" d="M146.58,162.63a2.72,2.72,0,0,1-1.21.64,7.08,7.08,0,0,1-1.91.23,6.6,6.6,0,0,1-2.1-.33,2.91,2.91,0,0,1-1.62-1.59l-3-6.06c-.3-.62-.57-1.2-.81-1.76s-.5-1.18-.78-1.9l-.18,0c.08,1.08.13,2.18.14,3.3s0,2.22,0,3.3v4.65a8.22,8.22,0,0,1-1,.18,10.17,10.17,0,0,1-1.34.09,6.79,6.79,0,0,1-1.17-.09,1.79,1.79,0,0,1-.84-.36,1.69,1.69,0,0,1-.51-.74,3.39,3.39,0,0,1-.18-1.21V146a2.51,2.51,0,0,1,1.29-.9,5.67,5.67,0,0,1,1.86-.3,6.5,6.5,0,0,1,2.12.34,2.87,2.87,0,0,1,1.6,1.58l3,6.06c.3.62.57,1.21.81,1.75s.5,1.19.78,1.91l.15,0q-.12-1.62-.15-3.24t0-3.24v-4.86a8.46,8.46,0,0,1,1-.18,10,10,0,0,1,1.33-.09,3.6,3.6,0,0,1,2,.46,2.21,2.21,0,0,1,.69,1.94Z"/><path class="b" d="M165.75,160.29a2.34,2.34,0,0,1-.33,1.38,3.42,3.42,0,0,1-1,.87,6.67,6.67,0,0,1-1.05.46,11.38,11.38,0,0,1-1.38.39,14.69,14.69,0,0,1-1.57.26,15.16,15.16,0,0,1-1.64.09,13.63,13.63,0,0,1-4-.59,9.19,9.19,0,0,1-3.28-1.77,8.4,8.4,0,0,1-2.21-2.95,10.81,10.81,0,0,1,.08-8.4,9,9,0,0,1,2.34-3.05,9.79,9.79,0,0,1,3.33-1.81,12.54,12.54,0,0,1,3.85-.6,9.44,9.44,0,0,1,4.52.91,2.71,2.71,0,0,1,1.66,2.39,2.33,2.33,0,0,1-.39,1.35,3.21,3.21,0,0,1-.9.9,13.24,13.24,0,0,0-1.87-.89,7.23,7.23,0,0,0-2.54-.43,5.5,5.5,0,0,0-4,1.44,5.3,5.3,0,0,0-1.49,4,6.39,6.39,0,0,0,.41,2.39,4.49,4.49,0,0,0,1.09,1.64,4.32,4.32,0,0,0,1.59,1,5.77,5.77,0,0,0,1.92.32,5.14,5.14,0,0,0,1.17-.12,3.15,3.15,0,0,0,.78-.27v-2.82h-3.21a4.79,4.79,0,0,1-.34-.87,3.88,3.88,0,0,1-.17-1.14,2.1,2.1,0,0,1,.5-1.56,1.74,1.74,0,0,1,1.27-.48h5.07a1.71,1.71,0,0,1,1.89,1.89Z"/><path class="b" d="M150.71,120.74H136.3V79.82H39.83v40.92H25.43a1.86,1.86,0,1,0,0,3.71H150.71a1.86,1.86,0,0,0,0-3.71ZM112.57,107.2a6.91,6.91,0,1,1,13.82,0v13.54H112.57Zm-39.06-4.53a14.56,14.56,0,0,1,29.11,0v18.07H73.51ZM49.74,107.2a6.92,6.92,0,0,1,13.83,0v13.54H49.74Z"/><rect class="b" x="79.75" y="44.02" width="16.63" height="8.51"/><path class="b" d="M60.7,48.71H76V40.3H100.1v8.41h15.33a13.34,13.34,0,0,0,10.7-7c-3.91-1-12-3.63-17.28-8.82V23.75a1.86,1.86,0,1,0-3.72,0v5.57H71V23.75a1.86,1.86,0,1,0-3.71,0v9.14C62,38.08,53.91,40.71,50,41.71A13.49,13.49,0,0,0,60.7,48.71Z"/><path class="b" d="M113.62,76.11V52.42H100.1v3.81H76V52.42H62.51V76.11H81.15V69.18a6.92,6.92,0,1,1,13.83,0v6.93Z"/><path class="b" d="M117.34,76.11h20.82c.51,0,10,.36,14.58-8.67a24.36,24.36,0,0,1-21.18-15H117.34Z"/><path class="b" d="M37.87,76.11H58.8V52.42H44.58a24.38,24.38,0,0,1-21.19,15C28.08,76.54,37.76,76.11,37.87,76.11Z"/></svg>