<svg xmlns="http://www.w3.org/2000/svg" viewBox="0 0 176.13 173.3"><defs><style>.a{fill:#f7b524;}.b{fill:#fff;}</style></defs><title>HUNGARY</title><rect class="a" width="176.13" height="173.3"/><path class="b" d="M58.91,163.14a8.21,8.21,0,0,1-1,.18,11.09,11.09,0,0,1-1.4.09,6.17,6.17,0,0,1-1.21-.11,2,2,0,0,1-.89-.37,1.62,1.62,0,0,1-.54-.75,3.66,3.66,0,0,1-.18-1.26v-4.68H47.9v6.9a8.21,8.21,0,0,1-1,.18,11.09,11.09,0,0,1-1.4.09,6.17,6.17,0,0,1-1.21-.11,2,2,0,0,1-.89-.37,1.62,1.62,0,0,1-.54-.75,3.66,3.66,0,0,1-.18-1.26V145.08l1.05-.17a9.54,9.54,0,0,1,1.38-.1,6.33,6.33,0,0,1,1.22.1,2.28,2.28,0,0,1,.88.38,1.62,1.62,0,0,1,.54.75,3.66,3.66,0,0,1,.18,1.26v4.8h5.76v-7l1.05-.17a9.54,9.54,0,0,1,1.38-.1,6.33,6.33,0,0,1,1.22.1,2.28,2.28,0,0,1,.88.38,1.62,1.62,0,0,1,.54.75,3.66,3.66,0,0,1,.18,1.26Z"/><path class="b" d="M77.72,156.54a7.65,7.65,0,0,1-.55,3,6.32,6.32,0,0,1-1.61,2.27A7.25,7.25,0,0,1,73,163.23a11.52,11.52,0,0,1-6.78,0,7.25,7.25,0,0,1-2.55-1.46,6.29,6.29,0,0,1-1.6-2.27,7.65,7.65,0,0,1-.56-3V145.08l1-.17a9.54,9.54,0,0,1,1.38-.1,6.33,6.33,0,0,1,1.22.1,2.28,2.28,0,0,1,.88.38,1.62,1.62,0,0,1,.54.75,3.66,3.66,0,0,1,.18,1.26v9.15a3.08,3.08,0,0,0,.8,2.25,3,3,0,0,0,4.12,0,3.11,3.11,0,0,0,.78-2.25V145.08l1-.17a9.54,9.54,0,0,1,1.38-.1,6.33,6.33,0,0,1,1.22.1,2.28,2.28,0,0,1,.88.38,1.62,1.62,0,0,1,.54.75,3.66,3.66,0,0,1,.18,1.26Z"/><path class="b" d="M96.8,162.63a2.72,2.72,0,0,1-1.21.64,7.08,7.08,0,0,1-1.91.23,6.6,6.6,0,0,1-2.1-.33A2.91,2.91,0,0,1,90,161.58l-3-6.06c-.3-.62-.57-1.2-.81-1.76s-.5-1.18-.78-1.9l-.18,0c.08,1.08.13,2.18.14,3.3s0,2.22,0,3.3v4.65a8.22,8.22,0,0,1-1,.18,10.17,10.17,0,0,1-1.34.09,6.79,6.79,0,0,1-1.17-.09A1.79,1.79,0,0,1,81,163a1.69,1.69,0,0,1-.51-.74,3.39,3.39,0,0,1-.18-1.21V146a2.51,2.51,0,0,1,1.29-.9,5.67,5.67,0,0,1,1.86-.3,6.5,6.5,0,0,1,2.12.34,2.87,2.87,0,0,1,1.6,1.58l3,6.06c.3.62.57,1.21.81,1.75s.5,1.19.78,1.91l.15,0q-.12-1.62-.15-3.24t0-3.24v-4.86a8.46,8.46,0,0,1,1-.18,10,10,0,0,1,1.33-.09,3.6,3.6,0,0,1,2,.46,2.21,2.21,0,0,1,.69,1.94Z"/><path class="b" d="M116,160.29a2.34,2.34,0,0,1-.33,1.38,3.42,3.42,0,0,1-1,.87,6.67,6.67,0,0,1-1,.46,11.38,11.38,0,0,1-1.38.39,14.69,14.69,0,0,1-1.57.26,15.16,15.16,0,0,1-1.64.09,13.63,13.63,0,0,1-4-.59,9.19,9.19,0,0,1-3.28-1.77,8.4,8.4,0,0,1-2.21-2.95,10.81,10.81,0,0,1,.08-8.4,9,9,0,0,1,2.34-3.05,9.79,9.79,0,0,1,3.33-1.81,12.54,12.54,0,0,1,3.85-.6,9.44,9.44,0,0,1,4.52.91,2.71,2.71,0,0,1,1.66,2.39,2.33,2.33,0,0,1-.39,1.35,3.21,3.21,0,0,1-.9.9,13.24,13.24,0,0,0-1.87-.89,7.23,7.23,0,0,0-2.54-.43,5.5,5.5,0,0,0-4,1.44,5.3,5.3,0,0,0-1.49,4,6.39,6.39,0,0,0,.41,2.39,4.49,4.49,0,0,0,1.09,1.64,4.32,4.32,0,0,0,1.59,1,5.77,5.77,0,0,0,1.92.32,5.14,5.14,0,0,0,1.17-.12,3.15,3.15,0,0,0,.78-.27v-2.82h-3.21a4.79,4.79,0,0,1-.34-.87,3.88,3.88,0,0,1-.17-1.14,2.1,2.1,0,0,1,.5-1.56,1.74,1.74,0,0,1,1.27-.48h5.07a1.71,1.71,0,0,1,1.89,1.89Z"/><path class="b" d="M122.39,145.62a6.4,6.4,0,0,1,1.55-.57,8.19,8.19,0,0,1,2.08-.27,7.53,7.53,0,0,1,2.66.43,2.31,2.31,0,0,1,1.48,1.37q.54,1.56,1.17,3.63c.42,1.38.84,2.8,1.26,4.27l1.23,4.35c.4,1.43.75,2.7,1.05,3.8a2.47,2.47,0,0,1-1.08.67,5.13,5.13,0,0,1-1.71.26,5.2,5.2,0,0,1-1.21-.12,2.16,2.16,0,0,1-.81-.36,1.77,1.77,0,0,1-.51-.63,5.45,5.45,0,0,1-.35-.9l-.54-2.07h-5.43q-.24.9-.48,1.86t-.48,1.86c-.28.1-.57.18-.88.26a6,6,0,0,1-1.13.1A4,4,0,0,1,118,163a1.7,1.7,0,0,1-.74-1.46,3,3,0,0,1,.12-.84q.12-.42.27-1c.14-.54.34-1.21.59-2s.52-1.66.82-2.6.62-1.88,1-2.86l1-2.78c.3-.87.58-1.64.83-2.32S122.25,146,122.39,145.62Zm3.6,3.87c-.28.84-.59,1.77-.94,2.8s-.67,2.08-1,3.14h3.72c-.28-1.08-.56-2.14-.85-3.17s-.56-1.95-.8-2.77Z"/><path class="b" d="M141.35,157.38v5.76a8.21,8.21,0,0,1-1,.18,11.09,11.09,0,0,1-1.4.09,6.27,6.27,0,0,1-1.22-.11,1.93,1.93,0,0,1-.86-.37,1.68,1.68,0,0,1-.53-.75,3.66,3.66,0,0,1-.18-1.26V146.79a1.33,1.33,0,0,1,.35-1,2.36,2.36,0,0,1,.94-.55,11.24,11.24,0,0,1,2.37-.53,23.81,23.81,0,0,1,2.88-.16q4.14,0,6.24,1.74A5.8,5.8,0,0,1,151,151a5.26,5.26,0,0,1-1,3.18,6.89,6.89,0,0,1-2.28,2q1.08,1.47,2.13,2.76a17.78,17.78,0,0,1,1.65,2.34,2.78,2.78,0,0,1-1.09,1.6,3.07,3.07,0,0,1-1.79.56,3.84,3.84,0,0,1-1.14-.15,2.76,2.76,0,0,1-.84-.42,3.44,3.44,0,0,1-.66-.66,8.81,8.81,0,0,1-.57-.84l-2.52-4.05Zm1.89-4a2.62,2.62,0,0,0,1.8-.59,2.17,2.17,0,0,0,.66-1.72,2.12,2.12,0,0,0-.73-1.73,3.75,3.75,0,0,0-2.33-.58,6.83,6.83,0,0,0-.72,0l-.6.09v4.5Z"/><path class="b" d="M162,163.14a8.33,8.33,0,0,1-1,.18,10.43,10.43,0,0,1-1.35.09,3.73,3.73,0,0,1-2.07-.47,2.23,2.23,0,0,1-.69-2v-4q-.75-1.11-1.62-2.46t-1.71-2.76c-.56-.94-1.08-1.87-1.56-2.78a24.44,24.44,0,0,1-1.17-2.5,4.11,4.11,0,0,1,1.07-1,2.92,2.92,0,0,1,1.66-.45,3.47,3.47,0,0,1,1.91.48,4.51,4.51,0,0,1,1.39,1.8l2.49,5h.18c.28-.62.53-1.19.74-1.7s.41-1,.61-1.53l.63-1.59c.22-.55.47-1.18.75-1.9a5.3,5.3,0,0,1,1.2-.42,5.69,5.69,0,0,1,1.26-.15,2.91,2.91,0,0,1,1.79.55,2,2,0,0,1,.73,1.67,3.17,3.17,0,0,1-.15.87,9.74,9.74,0,0,1-.69,1.54c-.36.69-.88,1.63-1.57,2.81s-1.63,2.72-2.81,4.62Z"/><path class="b" d="M80.55,28.15h0A9.87,9.87,0,0,0,86.83,19V16.4h2.56V19a9.81,9.81,0,0,0,6.22,9.19h0c8,3.27,13.74,11.59,14.2,21.51h-5.07V44.54h-2.56v5.12H94.5V44.54H92v5.12H84.27V44.54H81.71v5.12H74V44.54H71.48v5.12H66.41C66.87,39.74,72.58,31.42,80.55,28.15ZM56.8,85.47h-16V82.91l9-53.72,9.1,53.72ZM51,68.84H48.46v7.68H51ZM61.25,79.9V68.84L66.37,62V52.21h43.48V62L115,68.84V79.9l-1.28-1.59-5.12,6.39-5.11-6.39L98.34,84.7l-5.11-6.39L88.11,84.7,83,78.31,77.88,84.7l-5.12-6.39L67.64,84.7l-5.11-6.39ZM97.06,57.33h2.56V54.77H97.06ZM94.5,74l3.84,5.11L102.18,74V65l-3.84-5.11L94.5,65ZM86.83,57.33h2.56V54.77H86.83ZM84.27,74l3.84,5.11L92,74V65l-3.84-5.11L84.27,65ZM76.6,57.33h2.56V54.77H76.6ZM74,74l3.84,5.11L81.71,74V65l-3.83-5.11L74,65Zm61.39,16.63v33.25h5.12v2.56H35.67v-2.56h5.11V90.59H35.67V88H58l4.5-5.63,5.11,6.4,5.12-6.4,5.12,6.4L83,82.4l5.12,6.4,5.12-6.4,5.11,6.4,5.12-6.4,5.11,6.4,5.12-6.4,4.5,5.63h22.36v2.56ZM51,118.72H48.46v5.12H51Zm0-7.67H48.46v5.12H51Zm0-11.51a1.28,1.28,0,0,0-2.56,0v8.95H51Zm10.23,19.18H58.69v5.12h2.56Zm0-7.67H58.69v5.12h2.56Zm5.12,7.67H63.81v5.12h2.56Zm0-7.67H63.81v5.12h2.56Zm0-14.07a3.84,3.84,0,1,0-7.68,0v11.51h7.68Zm5.11,21.74H68.92v5.12h2.56Zm0-7.67H68.92v5.12h2.56Zm5.12,7.67H74v5.12H76.6Zm0-7.67H74v5.12H76.6ZM76.6,97a3.84,3.84,0,1,0-7.68,0v11.51H76.6Zm5.11,21.74H79.16v5.12h2.55Zm0-7.67H79.16v5.12h2.55Zm5.12,7.67H84.27v5.12h2.56Zm0-7.67H84.27v5.12h2.56Zm0-14.07a3.84,3.84,0,1,0-7.67,0v11.51h7.67ZM92,118.72H89.39v5.12H92Zm0-7.67H89.39v5.12H92Zm5.11,7.67H94.5v5.12h2.56Zm0-7.67H94.5v5.12h2.56Zm0-14.07a3.84,3.84,0,1,0-7.67,0v11.51h7.67Zm5.12,21.74H99.62v5.12h2.56Zm0-7.67H99.62v5.12h2.56Zm5.12,7.67h-2.56v5.12h2.56Zm0-7.67h-2.56v5.12h2.56Zm0-14.07a3.84,3.84,0,0,0-7.68,0v11.51h7.68Zm5.11,21.74h-2.56v5.12h2.56Zm0-7.67h-2.56v5.12h2.56Zm5.12,7.67H115v5.12h2.56Zm0-7.67H115v5.12h2.56Zm0-14.07a3.84,3.84,0,0,0-7.68,0v11.51h7.68Zm10.23,21.74H125.2v5.12h2.56Zm0-7.67H125.2v5.12h2.56Zm0-11.51a1.28,1.28,0,0,0-2.56,0v8.95h2.56ZM117.38,82.91l9.1-53.72,9,53.72v2.56h-16Zm7.82-6.39h2.56V68.84H125.2Z"/></svg>