<svg xmlns="http://www.w3.org/2000/svg" viewBox="0 0 176.13 173.3"><defs><style>.a{fill:#863376;}.b,.c{fill:#fff;}.c{fill-rule:evenodd;}</style></defs><title>INDIA</title><rect class="a" width="176.13" height="173.3"/><path class="b" d="M102.23,163.14a8.21,8.21,0,0,1-1,.18,11.09,11.09,0,0,1-1.4.09,6.17,6.17,0,0,1-1.21-.11,2,2,0,0,1-.89-.37,1.62,1.62,0,0,1-.54-.75,3.66,3.66,0,0,1-.18-1.26V145.08l1-.17a9.54,9.54,0,0,1,1.38-.1,6.33,6.33,0,0,1,1.22.1,2.28,2.28,0,0,1,.88.38,1.62,1.62,0,0,1,.54.75,3.66,3.66,0,0,1,.18,1.26Z"/><path class="b" d="M121.4,162.63a2.72,2.72,0,0,1-1.21.64,7.08,7.08,0,0,1-1.91.23,6.6,6.6,0,0,1-2.1-.33,2.91,2.91,0,0,1-1.62-1.59l-3-6.06c-.3-.62-.57-1.2-.81-1.76s-.5-1.18-.78-1.9l-.18,0c.08,1.08.13,2.18.14,3.3s0,2.22,0,3.3v4.65a8.22,8.22,0,0,1-1,.18,10.17,10.17,0,0,1-1.34.09,6.79,6.79,0,0,1-1.17-.09,1.79,1.79,0,0,1-.84-.36,1.69,1.69,0,0,1-.51-.74,3.39,3.39,0,0,1-.18-1.21V146a2.51,2.51,0,0,1,1.29-.9,5.67,5.67,0,0,1,1.86-.3,6.5,6.5,0,0,1,2.12.34,2.87,2.87,0,0,1,1.6,1.58l3,6.06c.3.62.57,1.21.81,1.75s.5,1.19.78,1.91l.15,0q-.12-1.62-.15-3.24t0-3.24v-4.86a8.46,8.46,0,0,1,1-.18,10,10,0,0,1,1.33-.09,3.6,3.6,0,0,1,2,.46,2.21,2.21,0,0,1,.69,1.94Z"/><path class="b" d="M131,163.74l-1.17,0c-.44,0-.89-.06-1.36-.12s-.94-.13-1.41-.22a8,8,0,0,1-1.31-.38,2.23,2.23,0,0,1-1.65-2.19v-14a1.33,1.33,0,0,1,.35-1,2.44,2.44,0,0,1,.94-.55,12,12,0,0,1,2.73-.55c1-.09,1.82-.14,2.58-.14a14.82,14.82,0,0,1,4.25.57,8.72,8.72,0,0,1,3.27,1.75,8,8,0,0,1,2.11,3,11,11,0,0,1,.75,4.26,11.21,11.21,0,0,1-.72,4.19,8.23,8.23,0,0,1-2.05,3,8.75,8.75,0,0,1-3.2,1.81A13.33,13.33,0,0,1,131,163.74Zm-1.68-4.38c.22,0,.49.07.81.1a7.18,7.18,0,0,0,.9,0,5.66,5.66,0,0,0,1.88-.3,3.77,3.77,0,0,0,1.47-.93,4.24,4.24,0,0,0,1-1.64,7.45,7.45,0,0,0,.34-2.41,5.84,5.84,0,0,0-1.26-4.07,4.35,4.35,0,0,0-3.36-1.36l-.85,0-.89.09Z"/><path class="b" d="M148.13,163.14a8.21,8.21,0,0,1-1,.18,11.21,11.21,0,0,1-1.4.09,6.17,6.17,0,0,1-1.21-.11,2,2,0,0,1-.89-.37,1.62,1.62,0,0,1-.54-.75,3.66,3.66,0,0,1-.18-1.26V145.08l1.05-.17a9.54,9.54,0,0,1,1.38-.1,6.33,6.33,0,0,1,1.22.1,2.35,2.35,0,0,1,.88.38,1.62,1.62,0,0,1,.54.75,3.66,3.66,0,0,1,.18,1.26Z"/><path class="b" d="M154.7,145.62a6.4,6.4,0,0,1,1.55-.57,8.19,8.19,0,0,1,2.08-.27,7.53,7.53,0,0,1,2.66.43,2.31,2.31,0,0,1,1.48,1.37q.54,1.56,1.17,3.63c.42,1.38.84,2.8,1.26,4.27l1.23,4.35c.4,1.43.75,2.7,1.05,3.8a2.47,2.47,0,0,1-1.08.67,5.13,5.13,0,0,1-1.71.26,5.2,5.2,0,0,1-1.21-.12,2.16,2.16,0,0,1-.81-.36,1.77,1.77,0,0,1-.51-.63,5.45,5.45,0,0,1-.35-.9l-.54-2.07h-5.43q-.24.9-.48,1.86t-.48,1.86c-.28.1-.57.18-.88.26a6,6,0,0,1-1.13.1,4,4,0,0,1-2.26-.52,1.7,1.7,0,0,1-.74-1.46,3,3,0,0,1,.12-.84q.12-.42.27-1c.14-.54.34-1.21.59-2s.52-1.66.82-2.6.62-1.88,1-2.86l1-2.78c.3-.87.58-1.64.83-2.32S154.56,146,154.7,145.62Zm3.6,3.87c-.28.84-.6,1.77-.94,2.8s-.67,2.08-1,3.14h3.72c-.28-1.08-.56-2.14-.85-3.17s-.56-1.95-.8-2.77Z"/><path class="c" d="M25.27,102.81H155.11V111H25.27v-8.19ZM90.88,38.88h0a1.87,1.87,0,0,0,0-3.47v-.29a1.2,1.2,0,0,0,0-2v-1.6a.7.7,0,0,0-1.39,0v1.6a1.22,1.22,0,0,0,0,2v.29a1.87,1.87,0,0,0,0,3.47v1.58c-1.19,1.09-2.56,2.27-4,3.51a.46.46,0,0,0-.12.51.43.43,0,0,0,.43.3h8.76a.46.46,0,0,0,.3-.81c-1.42-1.24-2.8-2.42-4-3.51V38.88ZM33.26,54.78h0l0,.65h.56a.7.7,0,1,1,0,1.39h-.49l.16,3.41h.82a.7.7,0,1,1,0,1.39H34a.69.69,0,0,1-.3,1.29l0,.54.54,11.36H28l.54-11.36,0-.54a.69.69,0,0,1-.3-1.29h-.39a.7.7,0,1,1,0-1.39h.82l.16-3.41h-.49a.7.7,0,1,1,0-1.39h.56l0-.65a2.59,2.59,0,0,1,.63-1.62,2.16,2.16,0,0,1,1-.66V50.67c0-.38.23-.69.51-.69s.5.31.5.69V52.5a2.16,2.16,0,0,1,1,.66,2.65,2.65,0,0,1,.63,1.62Zm113.85,0h0l0,.65h-.55a.7.7,0,1,0,0,1.39H147l-.17,3.41H146a.7.7,0,1,0,0,1.39h.39a.69.69,0,0,0,.3,1.29l0,.54-.54,11.36h6.25l-.55-11.36,0-.54a.69.69,0,0,0,.3-1.29h.39a.7.7,0,0,0,0-1.39h-.82l-.16-3.41H152a.7.7,0,0,0,0-1.39h-.56l0-.65a2.65,2.65,0,0,0-.63-1.62,2.14,2.14,0,0,0-1-.66V50.67c0-.38-.22-.69-.5-.69s-.5.31-.5.69V52.5a2.11,2.11,0,0,0-1,.66,2.65,2.65,0,0,0-.64,1.62Zm-14,12.28h0l0,.49h-.42a.51.51,0,1,0,0,1H133l-.12,2.52h-.61a.51.51,0,0,0-.51.51.51.51,0,0,0,.51.51h.29a.53.53,0,0,0-.26.45.51.51,0,0,0,.48.51l0,.4-.4,8.39H137l-.4-8.39,0-.4a.51.51,0,0,0,.48-.51.51.51,0,0,0-.26-.45h.29a.51.51,0,0,0,.51-.51.51.51,0,0,0-.51-.51h-.61l-.12-2.52h.37a.51.51,0,0,0,0-1h-.42l0-.49a1.9,1.9,0,0,0-.47-1.19,1.52,1.52,0,0,0-.76-.49V64c0-.28-.17-.51-.37-.51s-.37.23-.37.51v1.35a1.52,1.52,0,0,0-.76.49,1.9,1.9,0,0,0-.47,1.19Zm-.73,15.25h-.48a.51.51,0,0,0-.52.51.51.51,0,0,0,.52.51H132a.51.51,0,0,0,.23,1l-.35,7.45h5.56l-.35-7.45a.51.51,0,0,0,.23-1h.15a.51.51,0,0,0,.52-.51.51.51,0,0,0-.52-.51h-5.14Zm-.48,10h-.43a.51.51,0,1,0,0,1h.07a.53.53,0,0,0-.26.45.51.51,0,0,0,.51.51h0l-.36,7.5H138l-.35-7.5h0a.51.51,0,0,0,.25-1h.07a.51.51,0,1,0,0-1h-6.05Zm14.25-16.9h-.66a.7.7,0,0,0,0,1.39h.21a.7.7,0,0,0,.32,1.3l-.48,10.09h7.53l-.48-10.09a.7.7,0,0,0,.67-.7.71.71,0,0,0-.36-.6h.21a.7.7,0,1,0,0-1.39h-7ZM145.48,89h-.59a.7.7,0,0,0,0,1.39h.1a.7.7,0,0,0-.35.61.69.69,0,0,0,.69.69h0l-.49,10.15h8.84l-.49-10.15h0a.69.69,0,0,0,.69-.69.7.7,0,0,0-.35-.61h.1a.7.7,0,1,0,0-1.39h-8.19ZM47.29,67.06h0l0,.49h.41a.51.51,0,1,1,0,1h-.36l.12,2.52h.6a.51.51,0,0,1,.52.51.51.51,0,0,1-.52.51H47.8a.53.53,0,0,1,.25.45.51.51,0,0,1-.48.51l0,.4L48,81.86H43.38l.4-8.39,0-.4a.51.51,0,0,1-.48-.51.51.51,0,0,1,.26-.45h-.29a.51.51,0,0,1-.52-.51.51.51,0,0,1,.52-.51h.6L44,68.57h-.36a.51.51,0,1,1,0-1h.41l0-.49a2,2,0,0,1,.47-1.19,1.55,1.55,0,0,1,.77-.49V64c0-.28.16-.51.37-.51s.37.23.37.51v1.35a1.57,1.57,0,0,1,.76.49,2,2,0,0,1,.47,1.19ZM48,82.31h.48a.51.51,0,0,1,.51.51.51.51,0,0,1-.51.51h-.15a.53.53,0,0,1,.26.45.52.52,0,0,1-.5.51l.36,7.45H42.9l.36-7.45a.52.52,0,0,1-.49-.51.53.53,0,0,1,.25-.45h-.15a.51.51,0,0,1-.51-.51.51.51,0,0,1,.51-.51H48Zm.48,10h.43a.51.51,0,1,1,0,1h-.07a.53.53,0,0,1,.26.45.51.51,0,0,1-.52.51h0l.36,7.5H42.42l.36-7.5h0a.51.51,0,0,1-.25-1h-.08a.51.51,0,1,1,0-1H48.5ZM34.25,75.41h.65a.7.7,0,1,1,0,1.39h-.2a.7.7,0,0,1-.32,1.3l.48,10.09H27.33l.48-10.09a.7.7,0,0,1-.32-1.3h-.21a.7.7,0,0,1,0-1.39h7ZM34.9,89h.59a.7.7,0,0,1,0,1.39h-.1a.7.7,0,0,1,.35.61.69.69,0,0,1-.7.69h0l.48,10.15H26.68l.48-10.15h0a.69.69,0,0,1-.7-.69.7.7,0,0,1,.35-.61h-.1a.7.7,0,0,1,0-1.39h8.2ZM66.16,76.59h2v-2.8a.93.93,0,0,0-.92-.93h-.16a.93.93,0,0,0-.93.93v2.8Zm6.67,0h2v-2.8a.93.93,0,0,0-.93-.93h-.15a.93.93,0,0,0-.93.93v2.8Zm-3.69,0h2.72v-2.8c0-.51-.56-.93-1.25-.93H70.4c-.69,0-1.26.42-1.26.93v2.8Zm45,0h-2v-2.8a.93.93,0,0,1,.93-.93h.16a.93.93,0,0,1,.92.93v2.8Zm-6.66,0h-2v-2.8a.93.93,0,0,1,.92-.93h.16a.93.93,0,0,1,.93.93v2.8Zm3.69,0h-2.72v-2.8c0-.51.56-.93,1.25-.93h.21c.69,0,1.26.42,1.26.93v2.8Zm-53.07,25.2h0V96.9c0-1.7,1.23-2.49,2-3.15.73.66,2,1.45,2,3.15v4.89H64V77.25H56.44v24.54ZM73.79,91.17H67.2V85c0-1.71,2.07-2.5,3.3-3.16,1.22.66,3.29,1.45,3.29,3.16v6.17ZM62,91.17H58.11V85c0-1.71,1.23-2.5,2-3.16.73.66,2,1.45,2,3.16v6.17Zm5.17,10.62H65.12V77.25H75.67v-5H65.15a.7.7,0,1,1,0-1.4h.07c.32-3.06,2.41-4.36,4.68-6.07v-2a.61.61,0,0,1,1.21,0v2c2.08,1.57,4,2.79,4.56,5.34a.92.92,0,0,0,.91.73h27.16a.93.93,0,0,0,.91-.73c.55-2.55,2.48-3.77,4.56-5.34v-2a.61.61,0,0,1,1.21,0v2c2.27,1.71,4.36,3,4.68,6.07h.07a.7.7,0,0,1,0,1.4H104.71v5h10.54v24.54h-2.08V96.9c0-1.7-2.07-2.49-3.29-3.15-1.22.66-3.29,1.45-3.29,3.15v4.89h-4.37V74.13a.69.69,0,0,0-.7-.69H78.85a.69.69,0,0,0-.69.69v27.66H73.79V96.9c0-1.7-2.07-2.49-3.29-3.15-1.23.66-3.3,1.45-3.3,3.15v4.89Zm12.35,0H82V88.48c0-10,16.33-10,16.33,0v13.31h2.48v-27H79.55v27Zm27-10.62h6.58V85c0-1.71-2.07-2.5-3.29-3.16-1.22.66-3.29,1.45-3.29,3.16v6.17Zm11.75,0h3.92V85c0-1.71-1.23-2.5-2-3.16-.72.66-2,1.45-2,3.16v6.17Zm0,10.62h-1.91V77.25h7.5v24.54h-1.67V96.9c0-1.7-1.23-2.49-2-3.15-.72.66-2,1.45-2,3.15v4.89ZM83,46.17h0c-4.56,4.15-8.9,8.87-8.9,13.63a11.68,11.68,0,0,0,1.44,5.61,2.27,2.27,0,0,0,2,1.22h25.18a2.28,2.28,0,0,0,2-1.22,11.79,11.79,0,0,0,1.44-5.61c0-4.76-4.34-9.48-8.91-13.63a2.24,2.24,0,0,0-1.56-.6H84.58a2.26,2.26,0,0,0-1.56.6Zm-6.7,22h0v1.4a.46.46,0,0,0,.46.46H103.6a.47.47,0,0,0,.46-.46v-1.4a.47.47,0,0,0-.46-.47H76.78a.46.46,0,0,0-.46.47Zm-5.25,36.31h0a.78.78,0,0,0-.78.78h0a.78.78,0,0,0,.78.79h38.24a.78.78,0,0,0,.78-.79h0a.78.78,0,0,0-.78-.78Zm0,3.19h0a.78.78,0,0,0-.78.78h0a.78.78,0,0,0,.78.78h38.24a.78.78,0,0,0,.78-.78h0a.78.78,0,0,0-.78-.78Z"/><path class="c" d="M150.75,56.79h0c-.18,0-.33.21-.33.47v3h.68v-3C151.08,57,150.93,56.79,150.75,56.79Z"/><path class="c" d="M148,56.79h0c-.18,0-.33.21-.33.47v3h.69v-3C148.28,57,148.13,56.79,148,56.79Z"/><path class="c" d="M149.37,56.79h0a.48.48,0,0,0-.49.47v3h1v-3A.48.48,0,0,0,149.37,56.79Z"/><path class="c" d="M135.77,68.55h0c-.14,0-.25.16-.25.34v2.2H136v-2.2C136,68.71,135.91,68.55,135.77,68.55Z"/><path class="c" d="M133.7,68.55h0c-.14,0-.25.16-.25.34v2.2H134v-2.2C134,68.71,133.84,68.55,133.7,68.55Z"/><path class="c" d="M134.75,68.55h0a.36.36,0,0,0-.37.34v2.2h.76v-2.2A.36.36,0,0,0,134.75,68.55Z"/><path class="c" d="M29.63,56.79h0c.18,0,.33.21.33.47v3h-.69v-3C29.29,57,29.44,56.79,29.63,56.79Z"/><path class="c" d="M32.43,56.79h0c.19,0,.34.21.34.47v3H32.1v-3C32.1,57,32.25,56.79,32.43,56.79Z"/><path class="c" d="M31,56.79h0a.48.48,0,0,1,.5.47v3h-1v-3A.49.49,0,0,1,31,56.79Z"/><path class="c" d="M44.6,68.55h0c.13,0,.24.16.24.34v2.2h-.5v-2.2C44.36,68.71,44.47,68.55,44.6,68.55Z"/><path class="c" d="M46.67,68.55h0c.13,0,.25.16.25.34v2.2h-.51v-2.2C46.43,68.71,46.54,68.55,46.67,68.55Z"/><path class="c" d="M45.62,68.55h0a.36.36,0,0,1,.37.34v2.2h-.76v-2.2A.35.35,0,0,1,45.62,68.55Z"/></svg>