<svg xmlns="http://www.w3.org/2000/svg" viewBox="0 0 176.13 173.3"><defs><style>.a{fill:#088084;}.b,.c{fill:#fff;}.c{fill-rule:evenodd;}</style></defs><title>INDONESIA</title><rect class="a" width="176.13" height="173.3"/><path class="b" d="M25.45,163.14a8.21,8.21,0,0,1-1,.18,11.09,11.09,0,0,1-1.4.09,6.17,6.17,0,0,1-1.21-.11,2,2,0,0,1-.89-.37,1.62,1.62,0,0,1-.54-.75,3.66,3.66,0,0,1-.18-1.26V145.08l1.05-.17a9.54,9.54,0,0,1,1.38-.1,6.33,6.33,0,0,1,1.22.1,2.28,2.28,0,0,1,.88.38,1.62,1.62,0,0,1,.54.75,3.66,3.66,0,0,1,.18,1.26Z"/><path class="b" d="M44.62,162.63a2.72,2.72,0,0,1-1.21.64,7.08,7.08,0,0,1-1.91.23,6.6,6.6,0,0,1-2.1-.33,2.91,2.91,0,0,1-1.62-1.59l-3-6.06c-.3-.62-.57-1.2-.81-1.76s-.5-1.18-.78-1.9l-.18,0c.08,1.08.13,2.18.14,3.3s0,2.22,0,3.3v4.65a8.22,8.22,0,0,1-1,.18,10.17,10.17,0,0,1-1.34.09,6.79,6.79,0,0,1-1.17-.09,1.79,1.79,0,0,1-.84-.36,1.69,1.69,0,0,1-.51-.74,3.39,3.39,0,0,1-.18-1.21V146a2.51,2.51,0,0,1,1.29-.9,5.67,5.67,0,0,1,1.86-.3,6.5,6.5,0,0,1,2.12.34,2.87,2.87,0,0,1,1.6,1.58l3,6.06c.3.62.57,1.21.81,1.75s.5,1.19.78,1.91l.15,0q-.12-1.62-.15-3.24t0-3.24v-4.86a8.46,8.46,0,0,1,1-.18,10,10,0,0,1,1.33-.09,3.6,3.6,0,0,1,2,.46,2.21,2.21,0,0,1,.69,1.94Z"/><path class="b" d="M54.22,163.74l-1.17,0c-.44,0-.89-.06-1.36-.12s-.94-.13-1.41-.22A8,8,0,0,1,49,163a2.23,2.23,0,0,1-1.65-2.19v-14a1.33,1.33,0,0,1,.35-1,2.44,2.44,0,0,1,.94-.55,12,12,0,0,1,2.73-.55c1-.09,1.82-.14,2.58-.14a14.82,14.82,0,0,1,4.25.57,8.72,8.72,0,0,1,3.27,1.75,8,8,0,0,1,2.11,3,11,11,0,0,1,.75,4.26,11.21,11.21,0,0,1-.72,4.19,8.23,8.23,0,0,1-2,3,8.75,8.75,0,0,1-3.2,1.81A13.33,13.33,0,0,1,54.22,163.74Zm-1.68-4.38c.22,0,.49.07.81.1a7.18,7.18,0,0,0,.9,0,5.66,5.66,0,0,0,1.88-.3,3.77,3.77,0,0,0,1.47-.93,4.24,4.24,0,0,0,1-1.64,7.45,7.45,0,0,0,.34-2.41,5.84,5.84,0,0,0-1.26-4.07,4.35,4.35,0,0,0-3.36-1.36l-.85,0-.89.09Z"/><path class="b" d="M65.2,154.14a10.88,10.88,0,0,1,.74-4.14,8.31,8.31,0,0,1,5-4.86,11.39,11.39,0,0,1,7.47,0,8.66,8.66,0,0,1,3,1.84,8.51,8.51,0,0,1,2,3,10.89,10.89,0,0,1,.73,4.14,11.18,11.18,0,0,1-.72,4.15,8.5,8.5,0,0,1-2,3,8.67,8.67,0,0,1-3,1.84,11,11,0,0,1-3.78.63,10.79,10.79,0,0,1-3.78-.65,8.42,8.42,0,0,1-3-1.87,8.67,8.67,0,0,1-2-3A11,11,0,0,1,65.2,154.14Zm5.4,0a6.33,6.33,0,0,0,1.11,4.08,4,4,0,0,0,6,0,8.06,8.06,0,0,0,0-8.13,3.65,3.65,0,0,0-3-1.35,3.7,3.7,0,0,0-3,1.34A6.17,6.17,0,0,0,70.6,154.14Z"/><path class="b" d="M102.46,162.63a2.72,2.72,0,0,1-1.21.64,7.08,7.08,0,0,1-1.91.23,6.6,6.6,0,0,1-2.1-.33,2.91,2.91,0,0,1-1.62-1.59l-3-6.06c-.3-.62-.57-1.2-.81-1.76s-.5-1.18-.78-1.9l-.18,0c.08,1.08.13,2.18.14,3.3s0,2.22,0,3.3v4.65a8.22,8.22,0,0,1-1,.18,10.17,10.17,0,0,1-1.34.09,6.79,6.79,0,0,1-1.17-.09,1.79,1.79,0,0,1-.84-.36,1.69,1.69,0,0,1-.51-.74A3.39,3.39,0,0,1,86,161V146a2.51,2.51,0,0,1,1.29-.9,5.67,5.67,0,0,1,1.86-.3,6.5,6.5,0,0,1,2.12.34,2.87,2.87,0,0,1,1.6,1.58l3,6.06c.3.62.57,1.21.81,1.75s.5,1.19.78,1.91l.15,0q-.12-1.62-.15-3.24t0-3.24v-4.86a8.46,8.46,0,0,1,1-.18,10,10,0,0,1,1.33-.09,3.6,3.6,0,0,1,2,.46,2.21,2.21,0,0,1,.69,1.94Z"/><path class="b" d="M105.16,147.87a2.59,2.59,0,0,1,2.79-2.79h9.9a3.58,3.58,0,0,1,.38.87,3.88,3.88,0,0,1,.16,1.14,2.2,2.2,0,0,1-.49,1.62,1.81,1.81,0,0,1-1.31.48h-6.33V152H117a3.72,3.72,0,0,1,.54,2,2.24,2.24,0,0,1-.48,1.62,1.74,1.74,0,0,1-1.29.48h-5.52v3.15H118a3.58,3.58,0,0,1,.38.87,3.88,3.88,0,0,1,.16,1.14,2.24,2.24,0,0,1-.49,1.63,1.78,1.78,0,0,1-1.31.5H108a2.59,2.59,0,0,1-2.79-2.79Z"/><path class="b" d="M125.71,156c-.88-.3-1.68-.61-2.4-.91a7.68,7.68,0,0,1-1.86-1.13,4.58,4.58,0,0,1-1.21-1.58,5.15,5.15,0,0,1-.44-2.23,4.91,4.91,0,0,1,2-4.08,8.75,8.75,0,0,1,5.5-1.53,15,15,0,0,1,2.4.18,7.2,7.2,0,0,1,1.91.55,3.3,3.3,0,0,1,1.24,1,2.19,2.19,0,0,1,.45,1.37,2.38,2.38,0,0,1-.36,1.33,3.76,3.76,0,0,1-.87.95,6.77,6.77,0,0,0-1.77-.74,8.88,8.88,0,0,0-2.43-.31,4.13,4.13,0,0,0-2,.37,1.11,1.11,0,0,0-.63,1,.86.86,0,0,0,.39.73,3.79,3.79,0,0,0,1.17.53l1.59.51a11.4,11.4,0,0,1,4.34,2.3,4.88,4.88,0,0,1,1.51,3.79,5,5,0,0,1-2,4.12,9.44,9.44,0,0,1-5.91,1.58,13.69,13.69,0,0,1-2.56-.23,7.63,7.63,0,0,1-2.07-.66,3.62,3.62,0,0,1-1.38-1.08,2.36,2.36,0,0,1-.5-1.48,2.26,2.26,0,0,1,.51-1.49,4,4,0,0,1,1.11-.94,8.2,8.2,0,0,0,2.06,1.14,7.14,7.14,0,0,0,2.65.48,3.56,3.56,0,0,0,2.07-.45,1.3,1.3,0,0,0,.6-1.05,1,1,0,0,0-.48-.92,6.23,6.23,0,0,0-1.35-.61Z"/><path class="b" d="M141.13,163.14a8.21,8.21,0,0,1-1,.18,11.09,11.09,0,0,1-1.4.09,6.17,6.17,0,0,1-1.21-.11,2,2,0,0,1-.89-.37,1.62,1.62,0,0,1-.54-.75,3.66,3.66,0,0,1-.18-1.26V145.08l1.05-.17a9.54,9.54,0,0,1,1.38-.1,6.33,6.33,0,0,1,1.22.1,2.28,2.28,0,0,1,.88.38,1.62,1.62,0,0,1,.54.75,3.66,3.66,0,0,1,.18,1.26Z"/><path class="b" d="M147.7,145.62a6.4,6.4,0,0,1,1.55-.57,8.19,8.19,0,0,1,2.08-.27,7.53,7.53,0,0,1,2.66.43,2.31,2.31,0,0,1,1.48,1.37q.54,1.56,1.17,3.63c.42,1.38.84,2.8,1.26,4.27l1.23,4.35c.4,1.43.75,2.7,1.05,3.8a2.47,2.47,0,0,1-1.08.67,5.13,5.13,0,0,1-1.71.26,5.2,5.2,0,0,1-1.21-.12,2.16,2.16,0,0,1-.81-.36,1.77,1.77,0,0,1-.51-.63,5.45,5.45,0,0,1-.35-.9l-.54-2.07h-5.43q-.24.9-.48,1.86t-.48,1.86c-.28.1-.57.18-.88.26a6,6,0,0,1-1.13.1,4,4,0,0,1-2.26-.52,1.7,1.7,0,0,1-.74-1.46,3,3,0,0,1,.12-.84q.12-.42.27-1c.14-.54.34-1.21.59-2s.52-1.66.82-2.6.62-1.88,1-2.86l1-2.78c.3-.87.58-1.64.83-2.32S147.56,146,147.7,145.62Zm3.6,3.87c-.28.84-.6,1.77-.94,2.8s-.67,2.08-1,3.14h3.72c-.28-1.08-.56-2.14-.85-3.17s-.56-1.95-.8-2.77Z"/><path class="c" d="M99.77,82.6V81.43H105V87h3.68V99.5h42.5V65.72a1.17,1.17,0,0,1,.81-.33h.66v-.08l.3-11,.3-11,.29,11,.3,11v.08h.67a1.14,1.14,0,0,1,.8.33v41.55h1.85v5.65H40.5v-5.65H151.13V102H88v3.31H23.57v-19h10.1V82.57H82.15v3.79H88V87H99.77V82.6Zm.91-1.86a3.22,3.22,0,0,1,1.41-6,.41.41,0,0,1-.15-.32.42.42,0,0,1,.84,0,.45.45,0,0,1-.15.33,3.21,3.21,0,0,1,2.94,3.2A3.24,3.24,0,0,1,104,80.74Zm4.62-.14,0,0h0v0ZM54.55,58.25h0a.08.08,0,0,1,.08.07v7.41a.78.78,0,0,1,.7.78.79.79,0,0,1-.09.38A13.93,13.93,0,0,1,68.49,80.81c0,.36,0,.72,0,1.07H40.65c0-.35,0-.71,0-1.07A13.93,13.93,0,0,1,53.86,66.89a.8.8,0,0,1-.1-.38.78.78,0,0,1,.71-.78V58.32a.07.07,0,0,1,.08-.07Z"/></svg>