<svg xmlns="http://www.w3.org/2000/svg" viewBox="0 0 176.13 173.3"><rect width="176.13" height="173.3" fill="#273691"/><path d="M90.22,144.13l1-.16a9.6,9.6,0,0,1,1.38-.11,6.17,6.17,0,0,1,1.21.11,2.18,2.18,0,0,1,.89.37,1.62,1.62,0,0,1,.54.75,3.66,3.66,0,0,1,.18,1.26v11.1a5,5,0,0,1-1.53,4,6.66,6.66,0,0,1-4.5,1.33,5.66,5.66,0,0,1-2.52-.48,2.18,2.18,0,0,1-1-.9,2.62,2.62,0,0,1-.31-1.29,3.05,3.05,0,0,1,.16-1.05,2.23,2.23,0,0,1,.41-.72c.38.08.7.14,1,.17a8.2,8.2,0,0,0,.89,0,2.12,2.12,0,0,0,1.68-.58,2.57,2.57,0,0,0,.51-1.73Z" fill="#fff"/><path d="M102,144.67a6.3,6.3,0,0,1,1.54-.57,8.27,8.27,0,0,1,2.09-.27,7.47,7.47,0,0,1,2.65.44,2.31,2.31,0,0,1,1.49,1.36q.54,1.56,1.17,3.63c.42,1.38.84,2.81,1.26,4.28s.83,2.92,1.23,4.35.75,2.69,1.05,3.79a2.48,2.48,0,0,1-1.08.68,5.14,5.14,0,0,1-1.71.25,5.29,5.29,0,0,1-1.22-.12,2.16,2.16,0,0,1-.81-.36,1.77,1.77,0,0,1-.51-.63,5.47,5.47,0,0,1-.34-.9l-.54-2.07h-5.43q-.24.9-.48,1.86t-.48,1.86a7.71,7.71,0,0,1-.89.26,5.17,5.17,0,0,1-1.12.1,4,4,0,0,1-2.27-.52,1.69,1.69,0,0,1-.73-1.46,3,3,0,0,1,.12-.84q.12-.42.27-1c.14-.54.33-1.21.58-2s.53-1.66.83-2.59.62-1.89,1-2.87l1-2.77c.3-.87.57-1.65.82-2.33S101.81,145,102,144.67Zm3.6,3.87c-.28.84-.6,1.78-1,2.81s-.66,2.07-.94,3.13h3.72c-.28-1.08-.57-2.13-.86-3.16s-.55-2-.79-2.78Z" fill="#fff"/><path d="M120.94,162.19a8.45,8.45,0,0,1-1,.18,10.93,10.93,0,0,1-1.39.09,6.33,6.33,0,0,1-1.22-.1,2.14,2.14,0,0,1-.88-.38,1.62,1.62,0,0,1-.54-.75,3.66,3.66,0,0,1-.18-1.26V145.84a1.3,1.3,0,0,1,.34-1,2.49,2.49,0,0,1,1-.56,11.19,11.19,0,0,1,2.32-.52,21,21,0,0,1,2.63-.17q4.14,0,6.33,1.77a5.84,5.84,0,0,1,2.19,4.8,7.24,7.24,0,0,1-.47,2.66,5.51,5.51,0,0,1-1.38,2,6.2,6.2,0,0,1-2.31,1.32,10.17,10.17,0,0,1-3.22.46h-2.13Zm1.56-9.63a2.85,2.85,0,0,0,1.93-.58,2.25,2.25,0,0,0,.68-1.79,2.2,2.2,0,0,0-.71-1.75,3,3,0,0,0-2.05-.62l-.8,0a4.81,4.81,0,0,0-.64.07v4.65Z" fill="#fff"/><path d="M134.89,144.67a6.3,6.3,0,0,1,1.54-.57,8.27,8.27,0,0,1,2.09-.27,7.47,7.47,0,0,1,2.65.44,2.31,2.31,0,0,1,1.49,1.36q.54,1.56,1.17,3.63c.42,1.38.84,2.81,1.26,4.28s.83,2.92,1.23,4.35.75,2.69,1.05,3.79a2.48,2.48,0,0,1-1.08.68,5.14,5.14,0,0,1-1.71.25,5.29,5.29,0,0,1-1.22-.12,2.16,2.16,0,0,1-.81-.36,1.77,1.77,0,0,1-.51-.63,5.47,5.47,0,0,1-.34-.9l-.54-2.07h-5.43q-.24.9-.48,1.86t-.48,1.86a7.71,7.71,0,0,1-.89.26,5.17,5.17,0,0,1-1.12.1,4,4,0,0,1-2.27-.52,1.69,1.69,0,0,1-.73-1.46,3,3,0,0,1,.12-.84q.12-.42.27-1c.14-.54.33-1.21.58-2s.53-1.66.83-2.59.62-1.89,1-2.87l1-2.77c.3-.87.57-1.65.82-2.33S134.75,145,134.89,144.67Zm3.6,3.87c-.28.84-.6,1.78-1,2.81s-.66,2.07-.94,3.13h3.72c-.28-1.08-.57-2.13-.86-3.16s-.55-2-.79-2.78Z" fill="#fff"/><path d="M165.1,161.68a2.77,2.77,0,0,1-1.22.65,7,7,0,0,1-1.9.22,6.6,6.6,0,0,1-2.1-.33,2.91,2.91,0,0,1-1.62-1.59l-3-6.06c-.3-.62-.57-1.2-.81-1.75s-.5-1.19-.78-1.91l-.18,0c.08,1.08.12,2.18.13,3.3s0,2.22,0,3.3v4.65a8.46,8.46,0,0,1-1,.18,10,10,0,0,1-1.33.09,6.79,6.79,0,0,1-1.17-.09,1.79,1.79,0,0,1-.84-.36,1.72,1.72,0,0,1-.51-.73,3.45,3.45,0,0,1-.18-1.22v-15a2.51,2.51,0,0,1,1.29-.9,5.67,5.67,0,0,1,1.86-.3,6.44,6.44,0,0,1,2.11.35,2.86,2.86,0,0,1,1.61,1.57l3,6.06c.3.62.57,1.21.81,1.76s.5,1.18.78,1.9l.15,0q-.12-1.62-.15-3.24t0-3.24v-4.86a8.22,8.22,0,0,1,1-.18,10.17,10.17,0,0,1,1.34-.09,3.6,3.6,0,0,1,2,.47,2.19,2.19,0,0,1,.69,1.93Z" fill="#fff"/><rect x="112.49" y="36.42" width="11.95" height="90.71" rx="1.46" fill="#fff"/><rect x="126.26" y="52.09" width="15.38" height="7.24" rx="1.46" fill="#fff"/><path d="M88.07,65.05c7.69,0,16-.88,21.52-4.39v2.26a2.74,2.74,0,0,1-1.28,2.17s-9.5,5.22-20.24,5.22Z" fill="#fff"/><path d="M87.59,69.79c.26-.76.69-.76,1,0l1.91,5.51a1,1,0,0,1-1,1.38H86.66a1,1,0,0,1-1-1.38Z" fill="#fff"/><path d="M97.05,68.88c.26-.76.69-.76,1,0l1.91,5.51a1,1,0,0,1-1,1.38H96.12a1,1,0,0,1-1-1.38Z" fill="#fff"/><path d="M105.3,66.2c.26-.76.69-.76,1,0l1.91,5.5a1,1,0,0,1-1,1.39h-2.81a1,1,0,0,1-1-1.39Z" fill="#fff"/><rect x="51.69" y="36.42" width="11.95" height="90.71" rx="1.46" fill="#fff"/><rect x="34.5" y="52.09" width="15.38" height="7.24" rx="1.46" fill="#fff"/><path d="M88.07,65.05c-7.7,0-16-.88-21.53-4.39v2.26a2.73,2.73,0,0,0,1.29,2.17s9.49,5.22,20.24,5.22Z" fill="#fff"/><path d="M79.08,68.88c-.26-.76-.69-.76-1,0l-1.91,5.51a1,1,0,0,0,1,1.38H80a1,1,0,0,0,1-1.38Z" fill="#fff"/><path d="M70.83,66.2c-.26-.76-.69-.76-1,0L68,71.7a1,1,0,0,0,1,1.39h2.81a1,1,0,0,0,1-1.39Z" fill="#fff"/><path d="M141.48,18.54l-15,4.23a17.59,17.59,0,0,1-2.9.29h-71a17.59,17.59,0,0,1-2.9-.29l-15-4.23a.94.94,0,0,0-1.37.94v9.26a1.47,1.47,0,0,0,1.46,1.47H75.4c.81,0,1.47.37,1.47.82s-.66.82-1.47.82H34.75a1.47,1.47,0,0,0-1.46,1.46h0a1.47,1.47,0,0,0,1.46,1.46H75.4a1.47,1.47,0,0,1,1.47,1.46V50.63a1.46,1.46,0,0,1-1.47,1.46H67.13a1.46,1.46,0,0,0-1.46,1.47v4.32a1.46,1.46,0,0,0,1.46,1.46H109a1.47,1.47,0,0,0,1.47-1.46V53.56A1.47,1.47,0,0,0,109,52.09h-8.27a1.46,1.46,0,0,1-1.46-1.46V36.24a1.46,1.46,0,0,1,1.46-1.46h40.65a1.47,1.47,0,0,0,1.46-1.46h0a1.47,1.47,0,0,0-1.46-1.46H100.73c-.81,0-1.46-.37-1.46-.82s.65-.82,1.46-.82h40.65a1.47,1.47,0,0,0,1.46-1.47V19.48A.94.94,0,0,0,141.48,18.54ZM95.32,54.25a1.47,1.47,0,0,1-1.46,1.47H82.28a1.47,1.47,0,0,1-1.47-1.47V33.31a1.47,1.47,0,0,1,1.47-1.46H93.86a1.47,1.47,0,0,1,1.46,1.46Z" fill="#fff"/></svg>