<svg xmlns="http://www.w3.org/2000/svg" viewBox="0 0 176.13 178.03"><rect width="176.13" height="173.3" fill="#088084"/><text transform="translate(84.97 162.31)" font-size="30" fill="#fff" font-family="Baloo-Regular, Baloo" letter-spacing="-0.04em">JA<tspan x="28.77" y="0" letter-spacing="-0.07em">P</tspan><tspan x="44.1" y="0" letter-spacing="-0.04em">AN</tspan></text><rect x="112.49" y="36.42" width="11.95" height="90.71" rx="1.46" fill="#fff"/><rect x="126.26" y="52.09" width="15.38" height="7.24" rx="1.46" fill="#fff"/><path d="M88.07,65.05c7.69,0,16-.88,21.52-4.39v2.26a2.74,2.74,0,0,1-1.28,2.17s-9.5,5.22-20.24,5.22Z" fill="#fff"/><path d="M87.59,69.79c.26-.76.69-.76,1,0l1.91,5.51a1,1,0,0,1-1,1.38H86.66a1,1,0,0,1-1-1.38Z" fill="#fff"/><path d="M97.05,68.88c.26-.76.69-.76,1,0l1.91,5.51a1,1,0,0,1-1,1.38H96.12a1,1,0,0,1-1-1.38Z" fill="#fff"/><path d="M105.3,66.2c.26-.76.69-.76,1,0l1.91,5.5a1,1,0,0,1-1,1.39h-2.81a1,1,0,0,1-1-1.39Z" fill="#fff"/><rect x="51.69" y="36.42" width="11.95" height="90.71" rx="1.46" fill="#fff"/><rect x="34.5" y="52.09" width="15.38" height="7.24" rx="1.46" fill="#fff"/><path d="M88.07,65.05c-7.7,0-16-.88-21.53-4.39v2.26a2.73,2.73,0,0,0,1.29,2.17s9.49,5.22,20.24,5.22Z" fill="#fff"/><path d="M79.08,68.88c-.26-.76-.69-.76-1,0l-1.91,5.51a1,1,0,0,0,1,1.38H80a1,1,0,0,0,1-1.38Z" fill="#fff"/><path d="M70.83,66.2c-.26-.76-.69-.76-1,0L68,71.7a1,1,0,0,0,1,1.39h2.81a1,1,0,0,0,1-1.39Z" fill="#fff"/><path d="M141.48,18.54l-15,4.23a17.59,17.59,0,0,1-2.9.29h-71a17.59,17.59,0,0,1-2.9-.29l-15-4.23a.94.94,0,0,0-1.37.94v9.26a1.47,1.47,0,0,0,1.46,1.47H75.4c.81,0,1.47.37,1.47.82s-.66.82-1.47.82H34.75a1.47,1.47,0,0,0-1.46,1.46h0a1.47,1.47,0,0,0,1.46,1.46H75.4a1.47,1.47,0,0,1,1.47,1.46V50.63a1.46,1.46,0,0,1-1.47,1.46H67.13a1.46,1.46,0,0,0-1.46,1.47v4.32a1.46,1.46,0,0,0,1.46,1.46H109a1.47,1.47,0,0,0,1.47-1.46V53.56A1.47,1.47,0,0,0,109,52.09h-8.27a1.46,1.46,0,0,1-1.46-1.46V36.24a1.46,1.46,0,0,1,1.46-1.46h40.65a1.47,1.47,0,0,0,1.46-1.46h0a1.47,1.47,0,0,0-1.46-1.46H100.73c-.81,0-1.46-.37-1.46-.82s.65-.82,1.46-.82h40.65a1.47,1.47,0,0,0,1.46-1.47V19.48A.94.94,0,0,0,141.48,18.54ZM95.32,54.25a1.47,1.47,0,0,1-1.46,1.47H82.28a1.47,1.47,0,0,1-1.47-1.47V33.31a1.47,1.47,0,0,1,1.47-1.46H93.86a1.47,1.47,0,0,1,1.46,1.46Z" fill="#fff"/></svg>