<svg xmlns="http://www.w3.org/2000/svg" viewBox="0 0 176.13 178.98"><defs><style>.a{fill:#f7b524;}.b{font-size:30px;font-family:Baloo-Regular, Baloo;letter-spacing:-0.04em;}.b,.f{fill:#fff;}.c{letter-spacing:-0.05em;}.d{letter-spacing:-0.04em;}.e{letter-spacing:-0.04em;}</style></defs><title>JERUSALEM</title><rect class="a" width="176.13" height="173.3"/><text class="b" transform="translate(14.28 163.26)">JE<tspan class="c" x="26.4" y="0">R</tspan><tspan x="43.17" y="0">U</tspan><tspan class="d" x="61.89" y="0">S</tspan><tspan class="e" x="77.34" y="0">AL</tspan><tspan class="d" x="109.14" y="0">E</tspan><tspan x="124.5" y="0">M</tspan></text><polygon class="f" points="138.37 125.41 42.55 125.41 42.55 63.68 46.14 63.68 46.14 121.82 134.78 121.82 134.78 95.62 61.21 95.62 61.21 92.03 138.37 92.03 138.37 125.41"/><rect class="f" x="39.68" y="62.96" width="25.48" height="3.59"/><rect class="f" x="59.77" y="64.75" width="3.59" height="59.22"/><path class="f" d="M63.36,91.67H42.19a1.8,1.8,0,1,1,0-3.59H63.36a1.8,1.8,0,1,1,0,3.59Z"/><path class="f" d="M63,108.18H42.55a1.8,1.8,0,1,1,0-3.59H63a1.8,1.8,0,1,1,0,3.59Z"/><path class="f" d="M75.78,116.12a7.8,7.8,0,1,1,7.8-7.8A7.81,7.81,0,0,1,75.78,116.12Zm0-12A4.21,4.21,0,1,0,80,108.32,4.22,4.22,0,0,0,75.78,104.11Z"/><path class="f" d="M100.85,116.12a7.8,7.8,0,1,1,7.8-7.8A7.81,7.81,0,0,1,100.85,116.12Zm0-12a4.21,4.21,0,1,0,4.21,4.21A4.22,4.22,0,0,0,100.85,104.11Z"/><path class="f" d="M129,117.51a1.79,1.79,0,0,1-1.79-1.79v-9.21a4,4,0,0,0-4-4.07h-.13a4,4,0,0,0-4.09,4.07v8.85a1.8,1.8,0,0,1-3.59,0v-8.85a7.59,7.59,0,0,1,7.68-7.66h.13a7.56,7.56,0,0,1,7.63,7.66v9.21A1.8,1.8,0,0,1,129,117.51Z"/><path class="f" d="M128.33,117.51H118.28a1.8,1.8,0,1,1,0-3.59h10.05a1.8,1.8,0,0,1,0,3.59Z"/><path class="f" d="M125.45,88.8A1.79,1.79,0,0,1,123.66,87v-7.2A3.16,3.16,0,0,0,120.39,77h-.11a3,3,0,0,0-3.08,2.85v6.84a1.8,1.8,0,1,1-3.59,0V79.81a6.56,6.56,0,0,1,6.67-6.44h.11a6.75,6.75,0,0,1,6.86,6.44V87A1.79,1.79,0,0,1,125.45,88.8Z"/><path class="f" d="M124.38,88.8h-7.54a1.8,1.8,0,0,1,0-3.59h7.54a1.8,1.8,0,0,1,0,3.59Z"/><path class="f" d="M108.59,88.8a1.79,1.79,0,0,1-1.8-1.79v-7.2A3.13,3.13,0,0,0,103.54,77h-.1a3,3,0,0,0-3.11,2.85v6.84a1.8,1.8,0,1,1-3.59,0V79.81a6.58,6.58,0,0,1,6.7-6.44h.1a6.66,6.66,0,0,1,6.84,6.44V87A1.79,1.79,0,0,1,108.59,88.8Z"/><path class="f" d="M107.51,88.8H100a1.8,1.8,0,0,1,0-3.59h7.54a1.8,1.8,0,0,1,0,3.59Z"/><path class="f" d="M92.08,88.8A1.79,1.79,0,0,1,90.28,87v-7.2A3.08,3.08,0,0,0,87.09,77H87a2.74,2.74,0,0,0-2.81,2.85v6.84a1.8,1.8,0,1,1-3.59,0V79.81A6.35,6.35,0,0,1,87,73.37h.1a6.62,6.62,0,0,1,6.78,6.44V87A1.79,1.79,0,0,1,92.08,88.8Z"/><path class="f" d="M91.36,88.8h-7.9a1.8,1.8,0,0,1,0-3.59h7.9a1.8,1.8,0,0,1,0,3.59Z"/><path class="f" d="M77.36,94.18a1.79,1.79,0,0,1-1.79-1.79V67.63a1.8,1.8,0,1,1,3.59,0V92.39A1.8,1.8,0,0,1,77.36,94.18Z"/><path class="f" d="M130.84,94.18a1.8,1.8,0,0,1-1.8-1.79V67.63a1.8,1.8,0,1,1,3.59,0V92.39A1.79,1.79,0,0,1,130.84,94.18Z"/><path class="f" d="M133,69.42H74.49a1.8,1.8,0,0,1,0-3.59H133a1.8,1.8,0,1,1,0,3.59Z"/><path class="f" d="M75,65.72a1.8,1.8,0,0,1-1.78-1.62A30.31,30.31,0,0,1,76,49.93c3.09-6.78,10.21-15.58,26.6-19a1.8,1.8,0,1,1,.72,3.52c-11.9,2.46-20,8.11-24,16.79a27.34,27.34,0,0,0-2.53,12.49,1.79,1.79,0,0,1-1.62,1.95Z"/><path class="f" d="M132.28,65.72h-.17a1.79,1.79,0,0,1-1.62-1.95h0A27.09,27.09,0,0,0,128,51.27c-4-8.68-12.1-14.33-24-16.79A1.8,1.8,0,0,1,104.7,31c16.38,3.39,23.51,12.19,26.6,19a30.46,30.46,0,0,1,2.77,14.17A1.8,1.8,0,0,1,132.28,65.72Z"/><path class="f" d="M103.2,32.09a1.79,1.79,0,0,1-1.79-1.79v-5a1.8,1.8,0,0,1,3.59,0v5A1.8,1.8,0,0,1,103.2,32.09Z"/><path class="f" d="M103.59,27.33a4.15,4.15,0,1,1,4.15-4.14A4.15,4.15,0,0,1,103.59,27.33Zm0-4.7a.56.56,0,1,0,.56.56A.56.56,0,0,0,103.59,22.63Z"/><rect class="f" x="51.16" y="97.41" width="3.59" height="4.67"/><path class="f" d="M53,99.93a1.8,1.8,0,0,1-1.8-1.8V96.34a1.8,1.8,0,1,1,3.59,0v1.79A1.8,1.8,0,0,1,53,99.93Z"/><path class="f" d="M46.14,64.4a1.81,1.81,0,0,1-1.8-1.8V55.42a1.8,1.8,0,0,1,3.59,0V62.6A1.8,1.8,0,0,1,46.14,64.4Z"/><path class="f" d="M58.7,64.4a1.81,1.81,0,0,1-1.8-1.8V55.42a1.8,1.8,0,0,1,3.59,0V62.6A1.8,1.8,0,0,1,58.7,64.4Z"/><path class="f" d="M60.49,56.5H43.27a1.8,1.8,0,1,1,0-3.59H60.49a1.8,1.8,0,1,1,0,3.59Z"/><path class="f" d="M58.34,55.42a1.8,1.8,0,0,1-1.8-1.79V47.89H47.93v5.74a1.8,1.8,0,0,1-3.59,0V46.09a1.8,1.8,0,0,1,1.8-1.79h12.2a1.79,1.79,0,0,1,1.79,1.79v7.54A1.79,1.79,0,0,1,58.34,55.42Z"/><path class="f" d="M59.77,47.17H44.34a1.8,1.8,0,0,1,0-3.59H59.77a1.8,1.8,0,1,1,0,3.59Z"/><path class="f" d="M46.5,47.17a1.8,1.8,0,0,1-1.8-1.8v-7a7.5,7.5,0,0,1,4.85-7.11,5.67,5.67,0,0,0,1.25-1.23,1.8,1.8,0,0,1,1.52-.7,1.84,1.84,0,0,1,1.44.86,3.11,3.11,0,0,0,1,1,7.63,7.63,0,0,1,5,7.15v6.25a1.79,1.79,0,0,1-3.58,0V38.41a4.05,4.05,0,0,0-2.84-3.85,5.23,5.23,0,0,1-1.18-.74,5,5,0,0,1-1.26.8,3.92,3.92,0,0,0-2.62,3.79v7A1.8,1.8,0,0,1,46.5,47.17Z"/><path class="f" d="M51.88,32.45a1.8,1.8,0,0,1-1.8-1.79V26a1.8,1.8,0,0,1,3.59,0v4.67A1.79,1.79,0,0,1,51.88,32.45Z"/><path class="f" d="M123.83,60.76a1.8,1.8,0,0,1-1.77-1.5A22,22,0,0,0,112,45.47a1.8,1.8,0,0,1,1.84-3.09A25.25,25.25,0,0,1,125.6,58.67a1.79,1.79,0,0,1-1.47,2.07Z"/><path class="f" d="M108.22,43.53a1.76,1.76,0,0,1-.64-.11,1.78,1.78,0,0,1-1.11-2.28,1.73,1.73,0,0,1,.45-.7,1.75,1.75,0,0,1,.48-.42,1.9,1.9,0,0,1,1.63-.14,1.81,1.81,0,0,1,1.06,2.31,1.89,1.89,0,0,1-.43.66,1.8,1.8,0,0,1-.46.41A1.9,1.9,0,0,1,108.22,43.53Z"/></svg>