<svg xmlns="http://www.w3.org/2000/svg" width="176.13" height="173.3" viewBox="0 0 176.13 173.3"><defs><style>.a{fill:#f7b524;}.b{fill:#fff;}</style></defs><title>Asset 71</title><rect class="a" width="176.13" height="173.3"/><path class="b" d="M19.53,145.08l1-.17a9.54,9.54,0,0,1,1.38-.1,6.33,6.33,0,0,1,1.22.1,2.28,2.28,0,0,1,.88.38,1.62,1.62,0,0,1,.54.75,3.66,3.66,0,0,1,.18,1.26v11.1a5,5,0,0,1-1.53,4,6.66,6.66,0,0,1-4.5,1.34,5.66,5.66,0,0,1-2.52-.48,2.16,2.16,0,0,1-1-.9,2.62,2.62,0,0,1-.32-1.29,3,3,0,0,1,.17-1,2.22,2.22,0,0,1,.4-.72c.38.08.71.13,1,.16a6.05,6.05,0,0,0,.88,0,2.13,2.13,0,0,0,1.68-.59,2.52,2.52,0,0,0,.51-1.72Z"/><path class="b" d="M27.39,147.87a2.59,2.59,0,0,1,2.79-2.79h9.9a3.58,3.58,0,0,1,.38.87,3.88,3.88,0,0,1,.16,1.14,2.2,2.2,0,0,1-.49,1.62,1.81,1.81,0,0,1-1.31.48H32.49V152h6.75a3.72,3.72,0,0,1,.54,2,2.24,2.24,0,0,1-.48,1.62,1.74,1.74,0,0,1-1.29.48H32.49v3.15H40.2a3.58,3.58,0,0,1,.38.87,3.88,3.88,0,0,1,.16,1.14,2.24,2.24,0,0,1-.49,1.63,1.78,1.78,0,0,1-1.31.5H30.18a2.59,2.59,0,0,1-2.79-2.79Z"/><path class="b" d="M47.85,157.38v5.76a8.21,8.21,0,0,1-1,.18,11.09,11.09,0,0,1-1.4.09,6.17,6.17,0,0,1-1.21-.11,1.92,1.92,0,0,1-.87-.37,1.68,1.68,0,0,1-.53-.75,3.66,3.66,0,0,1-.18-1.26V146.79a1.33,1.33,0,0,1,.35-1,2.44,2.44,0,0,1,.94-.55,11.24,11.24,0,0,1,2.37-.53,23.81,23.81,0,0,1,2.88-.16q4.14,0,6.24,1.74a5.8,5.8,0,0,1,2.1,4.71,5.26,5.26,0,0,1-1,3.18,6.89,6.89,0,0,1-2.28,2q1.08,1.47,2.13,2.76a17.78,17.78,0,0,1,1.65,2.34,2.78,2.78,0,0,1-1.09,1.6,3.07,3.07,0,0,1-1.79.56,3.84,3.84,0,0,1-1.14-.15,2.76,2.76,0,0,1-.84-.42,3.44,3.44,0,0,1-.66-.66,8.81,8.81,0,0,1-.57-.84l-2.52-4.05Zm1.89-4a2.62,2.62,0,0,0,1.8-.59,2.17,2.17,0,0,0,.66-1.72,2.09,2.09,0,0,0-.73-1.73,3.75,3.75,0,0,0-2.33-.58,6.83,6.83,0,0,0-.72,0l-.6.09v4.5Z"/><path class="b" d="M75.51,156.54a7.65,7.65,0,0,1-.55,3,6.32,6.32,0,0,1-1.61,2.27,7.25,7.25,0,0,1-2.55,1.46,11.52,11.52,0,0,1-6.78,0,7.25,7.25,0,0,1-2.55-1.46,6.29,6.29,0,0,1-1.6-2.27,7.65,7.65,0,0,1-.56-3V145.08l1-.17a9.54,9.54,0,0,1,1.38-.1,6.33,6.33,0,0,1,1.22.1,2.28,2.28,0,0,1,.88.38,1.62,1.62,0,0,1,.54.75,3.66,3.66,0,0,1,.18,1.26v9.15a3.08,3.08,0,0,0,.8,2.25,3,3,0,0,0,4.12,0,3.11,3.11,0,0,0,.78-2.25V145.08l1-.17a9.54,9.54,0,0,1,1.38-.1,6.33,6.33,0,0,1,1.22.1,2.28,2.28,0,0,1,.88.38,1.62,1.62,0,0,1,.54.75,3.66,3.66,0,0,1,.18,1.26Z"/><path class="b" d="M83.28,156c-.88-.3-1.68-.61-2.4-.91A7.68,7.68,0,0,1,79,154a4.58,4.58,0,0,1-1.21-1.58,5.15,5.15,0,0,1-.44-2.23,4.91,4.91,0,0,1,2-4.08,8.75,8.75,0,0,1,5.5-1.53,15,15,0,0,1,2.4.18,7.2,7.2,0,0,1,1.91.55,3.3,3.3,0,0,1,1.24,1,2.19,2.19,0,0,1,.45,1.37,2.38,2.38,0,0,1-.36,1.33,3.76,3.76,0,0,1-.87.95,6.77,6.77,0,0,0-1.77-.74,8.88,8.88,0,0,0-2.43-.31,4.13,4.13,0,0,0-2,.37,1.11,1.11,0,0,0-.63,1,.86.86,0,0,0,.39.73,3.79,3.79,0,0,0,1.17.53L86,152a11.4,11.4,0,0,1,4.34,2.3A4.88,4.88,0,0,1,91.8,158a5,5,0,0,1-2,4.12,9.44,9.44,0,0,1-5.91,1.58,13.69,13.69,0,0,1-2.56-.23,7.74,7.74,0,0,1-2.07-.66,3.62,3.62,0,0,1-1.38-1.08,2.36,2.36,0,0,1-.5-1.48,2.26,2.26,0,0,1,.51-1.49,4,4,0,0,1,1.11-.94A8.2,8.2,0,0,0,81.05,159a7.14,7.14,0,0,0,2.65.48,3.56,3.56,0,0,0,2.07-.45,1.3,1.3,0,0,0,.6-1.05,1,1,0,0,0-.48-.92,6.23,6.23,0,0,0-1.35-.61Z"/><path class="b" d="M97.44,145.62a6.4,6.4,0,0,1,1.55-.57,8.19,8.19,0,0,1,2.08-.27,7.53,7.53,0,0,1,2.66.43,2.31,2.31,0,0,1,1.48,1.37q.54,1.56,1.17,3.63c.42,1.38.84,2.8,1.26,4.27l1.23,4.35c.4,1.43.75,2.7,1,3.8a2.47,2.47,0,0,1-1.08.67,5.13,5.13,0,0,1-1.71.26,5.2,5.2,0,0,1-1.21-.12,2.16,2.16,0,0,1-.81-.36,1.77,1.77,0,0,1-.51-.63,5.45,5.45,0,0,1-.35-.9l-.54-2.07H98.28q-.24.9-.48,1.86t-.48,1.86c-.28.1-.57.18-.88.26a6,6,0,0,1-1.13.1,4,4,0,0,1-2.26-.52,1.7,1.7,0,0,1-.74-1.46,3,3,0,0,1,.12-.84q.12-.42.27-1c.14-.54.34-1.21.59-2s.52-1.66.82-2.6.62-1.88,1-2.86l1-2.78c.3-.87.58-1.64.83-2.32S97.3,146,97.44,145.62Zm3.6,3.87c-.28.84-.59,1.77-.94,2.8s-.67,2.08-.95,3.14h3.72c-.28-1.08-.56-2.14-.85-3.17s-.56-1.95-.8-2.77Z"/><path class="b" d="M114,163.35a2.59,2.59,0,0,1-2.79-2.79V145.05l1-.17a9.54,9.54,0,0,1,1.38-.1,6.33,6.33,0,0,1,1.22.1,2.28,2.28,0,0,1,.88.38,1.62,1.62,0,0,1,.54.75,3.66,3.66,0,0,1,.18,1.26v11.85h6.87a3.88,3.88,0,0,1,.39.88,3.75,3.75,0,0,1,.18,1.16,2.29,2.29,0,0,1-.51,1.69,1.86,1.86,0,0,1-1.35.5Z"/><path class="b" d="M125.37,147.87a2.59,2.59,0,0,1,2.79-2.79h9.9a3.58,3.58,0,0,1,.38.87,3.88,3.88,0,0,1,.16,1.14,2.2,2.2,0,0,1-.49,1.62,1.81,1.81,0,0,1-1.31.48h-6.33V152h6.75a3.72,3.72,0,0,1,.54,2,2.24,2.24,0,0,1-.48,1.62,1.74,1.74,0,0,1-1.29.48h-5.52v3.15h7.71a3.58,3.58,0,0,1,.38.87,3.88,3.88,0,0,1,.16,1.14,2.24,2.24,0,0,1-.49,1.63,1.78,1.78,0,0,1-1.31.5h-8.76a2.59,2.59,0,0,1-2.79-2.79Z"/><path class="b" d="M153.3,158.79a2.91,2.91,0,0,1-1,.52,4.39,4.39,0,0,1-1.42.2,5,5,0,0,1-1.78-.27,1.44,1.44,0,0,1-.92-.93c-.56-1.76-1-3.19-1.38-4.27s-.64-2-.84-2.87h-.15c-.06,1.18-.1,2.25-.13,3.22s0,1.92-.06,2.84,0,1.85-.07,2.79-.07,2-.13,3.12a5.42,5.42,0,0,1-1,.25,7.66,7.66,0,0,1-1.26.11,4.15,4.15,0,0,1-2-.42,1.61,1.61,0,0,1-.74-1.53l.87-15.3a2.87,2.87,0,0,1,1-.84,4.75,4.75,0,0,1,2.28-.45,5.09,5.09,0,0,1,2.49.5,2.92,2.92,0,0,1,1.32,1.6c.18.48.38,1,.59,1.65s.42,1.26.63,1.92.41,1.32.61,2l.54,1.76h.15q.72-2.52,1.44-4.88c.48-1.56.92-2.88,1.32-3.94a5.32,5.32,0,0,1,1.16-.41,6.89,6.89,0,0,1,1.57-.16,5.86,5.86,0,0,1,2.4.43,1.73,1.73,0,0,1,1.08,1.25c.08.4.17,1,.26,1.84s.18,1.77.28,2.81.2,2.14.3,3.3.19,2.28.28,3.34.17,2.06.23,2.94.1,1.58.12,2.06a4.25,4.25,0,0,1-1.06.44,6.34,6.34,0,0,1-1.43.13,4.27,4.27,0,0,1-1.92-.39,1.65,1.65,0,0,1-.84-1.53q-.18-3.27-.22-5.88c0-1.74-.08-3.2-.14-4.38h-.15q-.3,1.17-.87,2.94T153.3,158.79Z"/><polygon class="b" points="138.37 125.41 42.55 125.41 42.55 63.68 46.14 63.68 46.14 121.82 134.78 121.82 134.78 95.62 61.21 95.62 61.21 92.03 138.37 92.03 138.37 125.41"/><rect class="b" x="39.68" y="62.96" width="25.48" height="3.59"/><rect class="b" x="59.77" y="64.75" width="3.59" height="59.22"/><path class="b" d="M63.36,91.67H42.19a1.8,1.8,0,1,1,0-3.59H63.36a1.8,1.8,0,1,1,0,3.59Z"/><path class="b" d="M63,108.18H42.55a1.8,1.8,0,1,1,0-3.59H63a1.8,1.8,0,1,1,0,3.59Z"/><path class="b" d="M75.78,116.12a7.8,7.8,0,1,1,7.8-7.8A7.81,7.81,0,0,1,75.78,116.12Zm0-12A4.21,4.21,0,1,0,80,108.32,4.22,4.22,0,0,0,75.78,104.11Z"/><path class="b" d="M100.85,116.12a7.8,7.8,0,1,1,7.8-7.8A7.81,7.81,0,0,1,100.85,116.12Zm0-12a4.21,4.21,0,1,0,4.21,4.21A4.22,4.22,0,0,0,100.85,104.11Z"/><path class="b" d="M129,117.51a1.79,1.79,0,0,1-1.79-1.79v-9.21a4,4,0,0,0-4-4.07h-.13a4,4,0,0,0-4.09,4.07v8.85a1.8,1.8,0,0,1-3.59,0v-8.85a7.59,7.59,0,0,1,7.68-7.66h.13a7.56,7.56,0,0,1,7.63,7.66v9.21A1.8,1.8,0,0,1,129,117.51Z"/><path class="b" d="M128.33,117.51H118.28a1.8,1.8,0,1,1,0-3.59h10.05a1.8,1.8,0,0,1,0,3.59Z"/><path class="b" d="M125.45,88.8A1.79,1.79,0,0,1,123.66,87v-7.2A3.16,3.16,0,0,0,120.39,77h-.11a3,3,0,0,0-3.08,2.85v6.84a1.8,1.8,0,1,1-3.59,0V79.81a6.56,6.56,0,0,1,6.67-6.44h.11a6.75,6.75,0,0,1,6.86,6.44V87A1.79,1.79,0,0,1,125.45,88.8Z"/><path class="b" d="M124.38,88.8h-7.54a1.8,1.8,0,0,1,0-3.59h7.54a1.8,1.8,0,0,1,0,3.59Z"/><path class="b" d="M108.59,88.8a1.79,1.79,0,0,1-1.8-1.79v-7.2A3.13,3.13,0,0,0,103.54,77h-.1a3,3,0,0,0-3.11,2.85v6.84a1.8,1.8,0,1,1-3.59,0V79.81a6.58,6.58,0,0,1,6.7-6.44h.1a6.66,6.66,0,0,1,6.84,6.44V87A1.79,1.79,0,0,1,108.59,88.8Z"/><path class="b" d="M107.51,88.8H100a1.8,1.8,0,0,1,0-3.59h7.54a1.8,1.8,0,0,1,0,3.59Z"/><path class="b" d="M92.08,88.8A1.79,1.79,0,0,1,90.28,87v-7.2A3.08,3.08,0,0,0,87.09,77H87a2.74,2.74,0,0,0-2.81,2.85v6.84a1.8,1.8,0,1,1-3.59,0V79.81A6.35,6.35,0,0,1,87,73.37h.1a6.62,6.62,0,0,1,6.78,6.44V87A1.79,1.79,0,0,1,92.08,88.8Z"/><path class="b" d="M91.36,88.8h-7.9a1.8,1.8,0,0,1,0-3.59h7.9a1.8,1.8,0,0,1,0,3.59Z"/><path class="b" d="M77.36,94.18a1.79,1.79,0,0,1-1.79-1.79V67.63a1.8,1.8,0,1,1,3.59,0V92.39A1.8,1.8,0,0,1,77.36,94.18Z"/><path class="b" d="M130.84,94.18a1.8,1.8,0,0,1-1.8-1.79V67.63a1.8,1.8,0,1,1,3.59,0V92.39A1.79,1.79,0,0,1,130.84,94.18Z"/><path class="b" d="M133,69.42H74.49a1.8,1.8,0,0,1,0-3.59H133a1.8,1.8,0,1,1,0,3.59Z"/><path class="b" d="M75,65.72a1.8,1.8,0,0,1-1.78-1.62A30.31,30.31,0,0,1,76,49.93c3.09-6.78,10.21-15.58,26.6-19a1.8,1.8,0,1,1,.72,3.52c-11.9,2.46-20,8.11-24,16.79a27.34,27.34,0,0,0-2.53,12.49,1.79,1.79,0,0,1-1.62,1.95Z"/><path class="b" d="M132.28,65.72h-.17a1.79,1.79,0,0,1-1.62-1.95h0A27.09,27.09,0,0,0,128,51.27c-4-8.68-12.1-14.33-24-16.79A1.8,1.8,0,0,1,104.7,31c16.38,3.39,23.51,12.19,26.6,19a30.46,30.46,0,0,1,2.77,14.17A1.8,1.8,0,0,1,132.28,65.72Z"/><path class="b" d="M103.2,32.09a1.79,1.79,0,0,1-1.79-1.79v-5a1.8,1.8,0,0,1,3.59,0v5A1.8,1.8,0,0,1,103.2,32.09Z"/><path class="b" d="M103.59,27.33a4.15,4.15,0,1,1,4.15-4.14A4.15,4.15,0,0,1,103.59,27.33Zm0-4.7a.56.56,0,1,0,.56.56A.56.56,0,0,0,103.59,22.63Z"/><rect class="b" x="51.16" y="97.41" width="3.59" height="4.67"/><path class="b" d="M53,99.93a1.8,1.8,0,0,1-1.8-1.8V96.34a1.8,1.8,0,1,1,3.59,0v1.79A1.8,1.8,0,0,1,53,99.93Z"/><path class="b" d="M46.14,64.4a1.81,1.81,0,0,1-1.8-1.8V55.42a1.8,1.8,0,0,1,3.59,0V62.6A1.8,1.8,0,0,1,46.14,64.4Z"/><path class="b" d="M58.7,64.4a1.81,1.81,0,0,1-1.8-1.8V55.42a1.8,1.8,0,0,1,3.59,0V62.6A1.8,1.8,0,0,1,58.7,64.4Z"/><path class="b" d="M60.49,56.5H43.27a1.8,1.8,0,1,1,0-3.59H60.49a1.8,1.8,0,1,1,0,3.59Z"/><path class="b" d="M58.34,55.42a1.8,1.8,0,0,1-1.8-1.79V47.89H47.93v5.74a1.8,1.8,0,0,1-3.59,0V46.09a1.8,1.8,0,0,1,1.8-1.79h12.2a1.79,1.79,0,0,1,1.79,1.79v7.54A1.79,1.79,0,0,1,58.34,55.42Z"/><path class="b" d="M59.77,47.17H44.34a1.8,1.8,0,0,1,0-3.59H59.77a1.8,1.8,0,1,1,0,3.59Z"/><path class="b" d="M46.5,47.17a1.8,1.8,0,0,1-1.8-1.8v-7a7.5,7.5,0,0,1,4.85-7.11,5.67,5.67,0,0,0,1.25-1.23,1.8,1.8,0,0,1,1.52-.7,1.84,1.84,0,0,1,1.44.86,3.11,3.11,0,0,0,1,1,7.63,7.63,0,0,1,5,7.15v6.25a1.79,1.79,0,0,1-3.58,0V38.41a4.05,4.05,0,0,0-2.84-3.85,5.23,5.23,0,0,1-1.18-.74,5,5,0,0,1-1.26.8,3.92,3.92,0,0,0-2.62,3.79v7A1.8,1.8,0,0,1,46.5,47.17Z"/><path class="b" d="M51.88,32.45a1.8,1.8,0,0,1-1.8-1.79V26a1.8,1.8,0,0,1,3.59,0v4.67A1.79,1.79,0,0,1,51.88,32.45Z"/><path class="b" d="M123.83,60.76a1.8,1.8,0,0,1-1.77-1.5A22,22,0,0,0,112,45.47a1.8,1.8,0,0,1,1.84-3.09A25.25,25.25,0,0,1,125.6,58.67a1.79,1.79,0,0,1-1.47,2.07Z"/><path class="b" d="M108.22,43.53a1.76,1.76,0,0,1-.64-.11,1.78,1.78,0,0,1-1.11-2.28,1.73,1.73,0,0,1,.45-.7,1.75,1.75,0,0,1,.48-.42,1.9,1.9,0,0,1,1.63-.14,1.81,1.81,0,0,1,1.06,2.31,1.89,1.89,0,0,1-.43.66,1.8,1.8,0,0,1-.46.41A1.9,1.9,0,0,1,108.22,43.53Z"/></svg>