<svg xmlns="http://www.w3.org/2000/svg" viewBox="0 0 176.13 173.3"><defs><style>.a{fill:#863376;}.b,.c{fill:#fff;}.c{fill-rule:evenodd;}</style></defs><title>JORDAN</title><rect class="a" width="176.13" height="173.3"/><path class="b" d="M63.27,145.08l1-.17a9.54,9.54,0,0,1,1.38-.1,6.33,6.33,0,0,1,1.22.1,2.28,2.28,0,0,1,.88.38,1.62,1.62,0,0,1,.54.75,3.66,3.66,0,0,1,.18,1.26v11.1a5,5,0,0,1-1.53,4,6.66,6.66,0,0,1-4.5,1.34,5.66,5.66,0,0,1-2.52-.48,2.16,2.16,0,0,1-1-.9,2.62,2.62,0,0,1-.32-1.29,3,3,0,0,1,.17-1,2.22,2.22,0,0,1,.4-.72c.38.08.71.13,1,.16a6.05,6.05,0,0,0,.88,0,2.13,2.13,0,0,0,1.68-.59,2.52,2.52,0,0,0,.51-1.72Z"/><path class="b" d="M70.23,154.14A10.88,10.88,0,0,1,71,150a8.31,8.31,0,0,1,5-4.86,11.39,11.39,0,0,1,7.47,0,8.66,8.66,0,0,1,3,1.84,8.51,8.51,0,0,1,2,3,10.89,10.89,0,0,1,.73,4.14,11.18,11.18,0,0,1-.72,4.15,8.5,8.5,0,0,1-2,3,8.67,8.67,0,0,1-3,1.84,11,11,0,0,1-3.78.63,10.79,10.79,0,0,1-3.78-.65,8.42,8.42,0,0,1-3-1.87,8.67,8.67,0,0,1-2-3A11,11,0,0,1,70.23,154.14Zm5.4,0a6.33,6.33,0,0,0,1.11,4.08,4,4,0,0,0,6,0,8.06,8.06,0,0,0,0-8.13,3.65,3.65,0,0,0-3-1.35,3.7,3.7,0,0,0-3,1.34A6.17,6.17,0,0,0,75.63,154.14Z"/><path class="b" d="M96.24,157.38v5.76a8.21,8.21,0,0,1-1,.18,11.09,11.09,0,0,1-1.4.09,6.17,6.17,0,0,1-1.21-.11,1.92,1.92,0,0,1-.87-.37,1.68,1.68,0,0,1-.53-.75,3.66,3.66,0,0,1-.18-1.26V146.79a1.33,1.33,0,0,1,.35-1,2.44,2.44,0,0,1,.94-.55,11.24,11.24,0,0,1,2.37-.53,23.81,23.81,0,0,1,2.88-.16q4.14,0,6.24,1.74a5.8,5.8,0,0,1,2.1,4.71,5.26,5.26,0,0,1-1,3.18,6.89,6.89,0,0,1-2.28,2q1.08,1.47,2.13,2.76a17.78,17.78,0,0,1,1.65,2.34,2.78,2.78,0,0,1-1.09,1.6,3.07,3.07,0,0,1-1.79.56,3.84,3.84,0,0,1-1.14-.15,2.76,2.76,0,0,1-.84-.42,3.44,3.44,0,0,1-.66-.66,8.81,8.81,0,0,1-.57-.84l-2.52-4.05Zm1.89-4a2.62,2.62,0,0,0,1.8-.59,2.17,2.17,0,0,0,.66-1.72,2.09,2.09,0,0,0-.73-1.73,3.75,3.75,0,0,0-2.33-.58,6.83,6.83,0,0,0-.72,0l-.6.09v4.5Z"/><path class="b" d="M115,163.74l-1.17,0c-.44,0-.89-.06-1.36-.12s-.94-.13-1.41-.22a8,8,0,0,1-1.31-.38,2.23,2.23,0,0,1-1.65-2.19v-14a1.33,1.33,0,0,1,.35-1,2.44,2.44,0,0,1,.94-.55,12,12,0,0,1,2.73-.55c1-.09,1.82-.14,2.58-.14a14.82,14.82,0,0,1,4.25.57,8.72,8.72,0,0,1,3.27,1.75,8,8,0,0,1,2.11,3,11,11,0,0,1,.75,4.26,11.21,11.21,0,0,1-.72,4.19,8.23,8.23,0,0,1-2,3,8.75,8.75,0,0,1-3.2,1.81A13.33,13.33,0,0,1,115,163.74Zm-1.68-4.38c.22,0,.49.07.81.1a7.18,7.18,0,0,0,.9,0,5.66,5.66,0,0,0,1.88-.3,3.77,3.77,0,0,0,1.47-.93,4.24,4.24,0,0,0,1-1.64,7.45,7.45,0,0,0,.34-2.41,5.84,5.84,0,0,0-1.26-4.07,4.35,4.35,0,0,0-3.36-1.36l-.85,0-.89.09Z"/><path class="b" d="M130.53,145.62a6.4,6.4,0,0,1,1.55-.57,8.19,8.19,0,0,1,2.08-.27,7.53,7.53,0,0,1,2.66.43,2.31,2.31,0,0,1,1.48,1.37q.54,1.56,1.17,3.63c.42,1.38.84,2.8,1.26,4.27l1.23,4.35c.4,1.43.75,2.7,1,3.8a2.47,2.47,0,0,1-1.08.67,5.13,5.13,0,0,1-1.71.26,5.2,5.2,0,0,1-1.21-.12,2.16,2.16,0,0,1-.81-.36,1.77,1.77,0,0,1-.51-.63,5.45,5.45,0,0,1-.35-.9l-.54-2.07h-5.43q-.24.9-.48,1.86t-.48,1.86c-.28.1-.57.18-.88.26a6,6,0,0,1-1.13.1,4,4,0,0,1-2.26-.52,1.7,1.7,0,0,1-.74-1.46,3,3,0,0,1,.12-.84q.12-.42.27-1c.14-.54.34-1.21.59-2s.52-1.66.82-2.6.62-1.88,1-2.86l1-2.78c.3-.87.58-1.64.83-2.32S130.39,146,130.53,145.62Zm3.6,3.87c-.28.84-.59,1.77-.94,2.8s-.67,2.08-.95,3.14H136c-.28-1.08-.56-2.14-.85-3.17s-.56-1.95-.8-2.77Z"/><path class="b" d="M160.74,162.63a2.72,2.72,0,0,1-1.21.64,7.08,7.08,0,0,1-1.91.23,6.6,6.6,0,0,1-2.1-.33,2.91,2.91,0,0,1-1.62-1.59l-3-6.06c-.3-.62-.57-1.2-.81-1.76s-.5-1.18-.78-1.9l-.18,0c.08,1.08.13,2.18.14,3.3s0,2.22,0,3.3v4.65a8.22,8.22,0,0,1-1,.18,10.17,10.17,0,0,1-1.34.09,6.79,6.79,0,0,1-1.17-.09A1.79,1.79,0,0,1,145,163a1.69,1.69,0,0,1-.51-.74,3.39,3.39,0,0,1-.18-1.21V146a2.51,2.51,0,0,1,1.29-.9,5.67,5.67,0,0,1,1.86-.3,6.5,6.5,0,0,1,2.12.34,2.87,2.87,0,0,1,1.6,1.58l3,6.06c.3.62.57,1.21.81,1.75s.5,1.19.78,1.91l.15,0q-.12-1.62-.15-3.24t0-3.24v-4.86a8.46,8.46,0,0,1,1-.18,10,10,0,0,1,1.33-.09,3.6,3.6,0,0,1,2,.46,2.21,2.21,0,0,1,.69,1.94Z"/><path class="c" d="M87.89,82.76h-44V78.05l-1.49-1.84h91l-1.48,1.84v4.71h-44Zm0-54.39h.43l1.77,2.85h0a2.68,2.68,0,0,1,.5,1.58,2.72,2.72,0,0,1-1.45,2.41L91,36.67h0l-.92,3.91h10l-2.74,7.79H78.46l-2.73-7.79h9.94l-.92-3.91h0l1.87-1.46a2.74,2.74,0,0,1-1.45-2.41,2.69,2.69,0,0,1,.51-1.58h0l1.76-2.85h.43Zm0,29h2.84v12H85.06v-12Zm0,18.33h4.24V48.89H83.65V75.67Zm0,7.66h7.23l0,29.07H91.36V94.28H84.42V112.4H80.69l0-29.07Zm37.37-45.88h4.6l-.55,2.06H132l-1.13,2.85h-.56v1.4H130v4.61h-4.94V43.76h-.3v-1.4h-.56l-1.13-2.85h2.71l-.55-2.06Zm-22.89-5.54,3.76,1.91v0l5.34,2.69.86.44H120l-3.29,4.57v5.39h0l-.55,1.44H102.92l-.54-1.44h0v-15Zm9.28,27.21h-4.22V71.83h4.22V59.12Zm4.71-10.23V75.67h9.79V48.89Zm-10.8,0V75.67h8V48.89Zm-10.62,0V75.67h7.78V48.89Zm35.39,26.78V48.89H129V75.67ZM97.9,83.33l0,29.07h4.72l0-29.07Zm8.46,0V112.4H113l0-29.07Zm10.36,0,0,29.07h10V83.33Zm13.7,0,0,29.07h1.47V83.33Zm-6.18,9.5H119.1v12.08h5.14V92.83ZM50.52,37.45h-4.6l.55,2.06H43.76l1.14,2.85h.55v1.4h.3v4.61h5V43.76H51v-1.4h.56l1.13-2.85H50l.55-2.06Zm22.9-5.54-3.76,1.91v0l-5.35,2.69-.86.44H55.8l3.28,4.57v5.39h0l.55,1.44H72.86l.55-1.44h0v-15ZM64.14,59.12h4.21V71.83H64.14V59.12ZM59.43,48.89V75.67H49.64V48.89Zm10.79,0V75.67H62.27V48.89Zm10.63,0V75.67H73.06V48.89ZM45.45,75.67V48.89h1.36V75.67Zm32.44,7.66,0,29.07H73.15l0-29.07Zm-8.46,0,0,29.07H62.78l0-29.07Zm-10.37,0,0,29.07h-10l0-29.07Zm-13.7,0,0,29.07H43.88V83.33Zm6.18,9.5h5.14v12.08H51.54V92.83Z"/></svg>