<svg xmlns="http://www.w3.org/2000/svg" viewBox="0 0 176.13 173.3"><rect width="176.13" height="173.3" fill="#273691"/><path d="M87.4,158.79a2.86,2.86,0,0,1-1,.52,4.45,4.45,0,0,1-1.43.2,5,5,0,0,1-1.78-.27,1.44,1.44,0,0,1-.92-.93c-.56-1.76-1-3.19-1.38-4.27s-.64-2-.84-2.87H79.9c-.06,1.18-.1,2.25-.13,3.22s0,1.92-.06,2.84,0,1.85-.06,2.79-.08,2-.14,3.12a5.42,5.42,0,0,1-1,.25,7.66,7.66,0,0,1-1.26.11,4.15,4.15,0,0,1-2-.42,1.61,1.61,0,0,1-.74-1.53l.87-15.3a2.87,2.87,0,0,1,1-.84,4.75,4.75,0,0,1,2.28-.45,5.09,5.09,0,0,1,2.49.5,2.92,2.92,0,0,1,1.32,1.6c.18.48.38,1,.59,1.65s.42,1.26.63,1.92.41,1.32.61,2l.54,1.76H85q.72-2.52,1.44-4.88c.48-1.56.92-2.88,1.32-3.94a5.32,5.32,0,0,1,1.16-.41,6.89,6.89,0,0,1,1.57-.16,5.86,5.86,0,0,1,2.4.43,1.73,1.73,0,0,1,1.08,1.25c.08.4.17,1,.26,1.84s.18,1.77.28,2.81.2,2.14.3,3.3.2,2.28.29,3.34.16,2.06.22,2.94.1,1.58.12,2.06a4.25,4.25,0,0,1-1.06.44,6.28,6.28,0,0,1-1.43.13,4.27,4.27,0,0,1-1.92-.39,1.65,1.65,0,0,1-.84-1.53q-.18-3.27-.22-5.88c0-1.74-.08-3.2-.14-4.38h-.15q-.3,1.17-.87,2.94T87.4,158.79Z" fill="#fff"/><path d="M101.56,145.62a6.4,6.4,0,0,1,1.55-.57,8.19,8.19,0,0,1,2.08-.27,7.53,7.53,0,0,1,2.66.43,2.31,2.31,0,0,1,1.48,1.37q.54,1.56,1.17,3.63c.42,1.38.84,2.8,1.26,4.27l1.23,4.35c.4,1.43.75,2.7,1.05,3.8a2.47,2.47,0,0,1-1.08.67,5.13,5.13,0,0,1-1.71.26,5.2,5.2,0,0,1-1.21-.12,2.09,2.09,0,0,1-.81-.36,1.77,1.77,0,0,1-.51-.63,5.45,5.45,0,0,1-.35-.9l-.54-2.07H102.4q-.24.9-.48,1.86t-.48,1.86c-.28.1-.57.18-.88.26a6,6,0,0,1-1.13.1,4,4,0,0,1-2.26-.52,1.7,1.7,0,0,1-.74-1.46,3,3,0,0,1,.12-.84q.12-.42.27-1c.14-.54.34-1.21.59-2s.52-1.66.82-2.6.62-1.88,1-2.86l1-2.78c.3-.87.58-1.64.83-2.32S101.42,146,101.56,145.62Zm3.6,3.87c-.28.84-.59,1.77-.94,2.8s-.67,2.08-1,3.14H107c-.28-1.08-.56-2.14-.85-3.17s-.56-1.95-.8-2.77Z" fill="#fff"/><path d="M124.27,148.74a4.45,4.45,0,0,0-3.54,1.41,5.88,5.88,0,0,0-1.23,4,5.55,5.55,0,0,0,1.37,4,4.87,4.87,0,0,0,3.67,1.41,5.84,5.84,0,0,0,2.09-.33,14.24,14.24,0,0,0,1.63-.75,2.92,2.92,0,0,1,.8,1,3,3,0,0,1,.28,1.36,2.44,2.44,0,0,1-1.36,2.08,8,8,0,0,1-4.16.86,12.26,12.26,0,0,1-3.78-.57,8.44,8.44,0,0,1-3.09-1.76,8.19,8.19,0,0,1-2.08-3,11.1,11.1,0,0,1-.77-4.33,10.83,10.83,0,0,1,.74-4.13,8.84,8.84,0,0,1,2-3,8.44,8.44,0,0,1,3-1.86,10.5,10.5,0,0,1,3.66-.63,8.44,8.44,0,0,1,4.28.9,2.64,2.64,0,0,1,1.51,2.31,2.33,2.33,0,0,1-.39,1.35,3.21,3.21,0,0,1-.9.9,9.69,9.69,0,0,0-1.66-.87A5.45,5.45,0,0,0,124.27,148.74Z" fill="#fff"/><path d="M135.25,145.62a6.4,6.4,0,0,1,1.55-.57,8.19,8.19,0,0,1,2.08-.27,7.53,7.53,0,0,1,2.66.43,2.33,2.33,0,0,1,1.48,1.37q.54,1.56,1.17,3.63c.42,1.38.84,2.8,1.26,4.27l1.23,4.35c.4,1.43.75,2.7,1,3.8a2.47,2.47,0,0,1-1.08.67,5.13,5.13,0,0,1-1.71.26,5.2,5.2,0,0,1-1.21-.12,2.09,2.09,0,0,1-.81-.36,1.67,1.67,0,0,1-.51-.63,5.45,5.45,0,0,1-.35-.9l-.54-2.07h-5.43q-.24.9-.48,1.86t-.48,1.86c-.28.1-.57.18-.88.26a6,6,0,0,1-1.13.1,4,4,0,0,1-2.26-.52,1.7,1.7,0,0,1-.74-1.46,3,3,0,0,1,.12-.84q.12-.42.27-1c.14-.54.34-1.21.59-2s.52-1.66.82-2.6.62-1.88,1-2.86l1-2.78c.3-.87.58-1.64.83-2.32S135.11,146,135.25,145.62Zm3.6,3.87c-.28.84-.59,1.77-.94,2.8s-.67,2.08-.95,3.14h3.72c-.28-1.08-.56-2.14-.85-3.17s-.56-1.95-.8-2.77Z" fill="#fff"/><path d="M164.83,156.54a7.65,7.65,0,0,1-.55,3,6.32,6.32,0,0,1-1.61,2.27,7.25,7.25,0,0,1-2.55,1.46,11.52,11.52,0,0,1-6.78,0,7.25,7.25,0,0,1-2.55-1.46,6.29,6.29,0,0,1-1.6-2.27,7.65,7.65,0,0,1-.56-3V145.08l1.05-.17a9.54,9.54,0,0,1,1.38-.1,6.33,6.33,0,0,1,1.22.1,2.28,2.28,0,0,1,.88.38,1.62,1.62,0,0,1,.54.75,3.66,3.66,0,0,1,.18,1.26v9.15a3.08,3.08,0,0,0,.8,2.25,3,3,0,0,0,4.12,0,3.11,3.11,0,0,0,.78-2.25V145.08l1-.17a9.54,9.54,0,0,1,1.38-.1,6.33,6.33,0,0,1,1.22.1,2.28,2.28,0,0,1,.88.38,1.62,1.62,0,0,1,.54.75,3.66,3.66,0,0,1,.18,1.26Z" fill="#fff"/><path d="M99.78,78.33c.85-.73,1.69-1.48,2.57-2.18a37.93,37.93,0,0,1,18.13-7.9,40.14,40.14,0,0,1,6.66-.43l.74,0c-.25.28-.41.44-.55.62-.58.77-1.2,1.51-1.71,2.33a1.26,1.26,0,0,1-1.21.67,37.61,37.61,0,0,0-20,6.16,36.91,36.91,0,0,0-5,3.89,3.44,3.44,0,0,0-1.11,1.34c0,.06-.15.09-.3.16,0-.16,0-.26,0-.29,7-5.11,14.65-8.25,23.42-8.37a38.36,38.36,0,0,1,15.47,2.93,32.8,32.8,0,0,1-18.79,18.92,35.12,35.12,0,0,1-13.31,2.22,32.37,32.37,0,0,0,24.7-6.51c.8-.62,1.55-1.31,2.32-2,.19-.16.34-.32.63-.23.56.18,1.13.35,1.7.48s1.15.2,1.87.33a32.52,32.52,0,0,1-14.94,9.57,32.64,32.64,0,0,1-33-8.59c-7.77,7.63-17,11-27.78,9.7A31.92,31.92,0,0,1,40.16,90.54l.76-.15c.86-.19,1.74-.35,2.58-.59a.79.79,0,0,1,.92.21,31.08,31.08,0,0,0,5.44,4.11,32.09,32.09,0,0,0,18.43,4.61c.83,0,1.66-.13,2.49-.21.24,0,.48-.1.87-.19a1.89,1.89,0,0,1-.24.25A2.2,2.2,0,0,0,70,98.39a32,32,0,0,1-16.72-4.48,32.57,32.57,0,0,1-13.73-15.8c-.1-.24-.17-.5-.28-.79.25-.11.45-.23.67-.31A38.45,38.45,0,0,1,76.9,81.93a10.43,10.43,0,0,0,1.22.7s.06.13.1.23-.21,0-.24,0c-.43-.47-.81-1-1.28-1.41a37.81,37.81,0,0,0-20.09-9.57c-1.63-.25-3.3-.3-5-.4a1.13,1.13,0,0,1-1-.57c-.66-1-1.42-2-2.13-3,2.14-.72,10.7.64,15.43,2.5A39.66,39.66,0,0,1,77.11,79,32.82,32.82,0,0,1,71.43,58,31.9,31.9,0,0,1,75.56,44.3a13.68,13.68,0,0,0,3,5.19,32.59,32.59,0,0,0-2.76,18.77,31.07,31.07,0,0,0,5.29,13.41,32.81,32.81,0,0,1,6.93-41.08,2.5,2.5,0,0,1,.34.24A33,33,0,0,1,98.3,56.89a32.31,32.31,0,0,1-2.68,23.63c-.32.63-.6,1.29-.9,1.93a2.9,2.9,0,0,1-.25.34c-.27-.24-.15-.45,0-.55a4,4,0,0,0,1.26-1.52,32,32,0,0,0,4.8-14.09,32.46,32.46,0,0,0-2.8-16.77c0-.1-.08-.2-.15-.35a13.8,13.8,0,0,0,3-5.17c.17.27.3.47.41.67A32.67,32.67,0,0,1,99.8,77.74c-.08.13-.15.28-.22.42l-.71,1,0,0,.87-.86Z" fill="#fff"/><path d="M88.09,95l.6.52a32.16,32.16,0,0,0,15.92,7.91A31,31,0,0,0,110,104c8.34.06,16.68,0,25,0h1c-.45.63-.8,1.15-1.18,1.65s-.7,1.19-1.22,1.46a4.19,4.19,0,0,1-1.82.1c-7.45,0-14.9,0-22.36,0A32.48,32.48,0,0,1,88.61,100l-.53-.39-.65.51A32.51,32.51,0,0,1,70.81,107a27.79,27.79,0,0,1-3.29.19q-12.27,0-24.54,0H42.5L40.14,104h1c7.91,0,15.82,0,23.73,0a32.68,32.68,0,0,0,22.92-8.77c.08-.08.16-.14.28-.24Z" fill="#fff"/><path d="M57.43,120.57h61.21l0,.1c-.33.2-.65.42-1,.6-1.34.74-2.67,1.48-4,2.18a2.53,2.53,0,0,1-1.14.28H63.69a2.09,2.09,0,0,1-1-.2c-1.66-.88-3.29-1.79-4.93-2.7a2.66,2.66,0,0,1-.33-.26Z" fill="#fff"/><path d="M125.56,115.68l-2.77,2.17a.85.85,0,0,1-.44.14,4.7,4.7,0,0,1-.65,0H54.47a2.3,2.3,0,0,1-1.61-.54c-.72-.63-1.49-1.21-2.22-1.79,0-.09,0-.12,0-.14s0-.05,0-.05l74.31,0h.45a1.72,1.72,0,0,1,.07.21Z" fill="#fff"/><path d="M45.41,110.62h85.37c-.51.54-.92,1-1.36,1.41a.76.76,0,0,1-.43.14,5.77,5.77,0,0,1-.72,0q-40.14,0-80.28,0a2.1,2.1,0,0,1-1.92-.86c-.17-.23-.39-.42-.66-.72Z" fill="#fff"/><path d="M88.09,29.86l-6,4.36-.14-.08c.76-2.35,1.51-4.69,2.29-7.09l-6-4.36,0-.16c2.45-.05,4.89,0,7.43,0Q86.87,19,88,15.42l.13,0c.77,2.33,1.53,4.66,2.33,7.1,1.23,0,2.48,0,3.73,0h3.65a.53.53,0,0,1,.06.13.14.14,0,0,1,0,.07L92.06,27s0,.05-.08.15c.74,2.3,1.51,4.65,2.27,7l-.12.08-6-4.37Z" fill="#fff"/><path d="M109,125.41a56.83,56.83,0,0,1-41.78,0Z" fill="#fff"/><path d="M127.59,50.12c.34-1.69.66-3.33,1-5l.14,0c.72,1.51,1.43,3,2.17,4.59l5-.58.09.14-3.69,3.45,2.12,4.59-.11.11L129.85,55l-3.7,3.44-.14-.06c.31-1.64.62-3.27.95-5l-4.45-2.48,0-.13,5-.64Z" fill="#fff"/><path d="M66.2,28.44c-.54,1.59-1.08,3.17-1.63,4.8l4.08,3.08a5.31,5.31,0,0,1-1.71.1c-.56,0-1.12,0-1.68,0H63.48q-.81,2.35-1.64,4.73l-.16,0c-.49-1.59-1-3.18-1.51-4.87h-5a1.18,1.18,0,0,0-.07-.2c.65-.52,1.36-1,2-1.45s1.35-1,2.09-1.48l-1.47-4.88.11-.08,4.08,3.06,4.14-2.89a.57.57,0,0,1,.13.08Z" fill="#fff"/><path d="M46.33,55,41.9,57.42l-.12-.11,2.13-4.59L40.1,49.15c1.84.07,3.47.44,5.22.54L47.53,45c.46,1.78.67,3.43,1.07,5.14l5,.65a.83.83,0,0,1,0,.15l-4.42,2.46c.33,1.69.64,3.33,1,5l-.13.07L46.33,55Z" fill="#fff"/><path d="M107.43,36.41l4.18-3.17L110,28.46l.12-.11,4.16,2.89,4.2-3.14c-.44,1.79-1,3.35-1.48,5l4.14,2.91-.05.18h-5c-.53,1.7-1,3.32-1.54,4.94h-.13l-1.66-4.77Z" fill="#fff"/></svg>