<svg xmlns="http://www.w3.org/2000/svg" viewBox="0 0 176.13 173.3"><defs><style>.a{fill:#273691;}.b,.c{fill:#fff;}.c{fill-rule:evenodd;}</style></defs><title>MALAYSIA</title><rect class="a" width="176.13" height="173.3"/><path class="b" d="M40.55,158.79a2.91,2.91,0,0,1-1,.52,4.39,4.39,0,0,1-1.42.2,5.07,5.07,0,0,1-1.79-.27,1.43,1.43,0,0,1-.91-.93c-.56-1.76-1-3.19-1.38-4.27s-.64-2-.84-2.87h-.15c-.06,1.18-.11,2.25-.14,3.22s0,1.92-.06,2.84,0,1.85-.06,2.79-.07,2-.13,3.12a5.42,5.42,0,0,1-1,.25,7.66,7.66,0,0,1-1.26.11,4.19,4.19,0,0,1-2.06-.42,1.61,1.61,0,0,1-.73-1.53l.87-15.3a2.87,2.87,0,0,1,1.05-.84,4.75,4.75,0,0,1,2.28-.45,5.09,5.09,0,0,1,2.49.5,2.92,2.92,0,0,1,1.32,1.6c.18.48.37,1,.58,1.65s.42,1.26.63,1.92l.62,2,.54,1.76h.15q.72-2.52,1.44-4.88c.48-1.56.92-2.88,1.32-3.94a5.22,5.22,0,0,1,1.15-.41,7,7,0,0,1,1.58-.16,5.86,5.86,0,0,1,2.4.43,1.73,1.73,0,0,1,1.08,1.25c.08.4.16,1,.25,1.84s.19,1.77.29,2.81.2,2.14.3,3.3.19,2.28.28,3.34.17,2.06.23,2.94.1,1.58.12,2.06a4.31,4.31,0,0,1-1.07.44,6.18,6.18,0,0,1-1.42.13,4.27,4.27,0,0,1-1.92-.39,1.65,1.65,0,0,1-.84-1.53q-.18-3.27-.23-5.88c0-1.74-.07-3.2-.13-4.38H42.8q-.3,1.17-.87,2.94T40.55,158.79Z"/><path class="b" d="M54.71,145.62a6.3,6.3,0,0,1,1.54-.57,8.27,8.27,0,0,1,2.09-.27,7.48,7.48,0,0,1,2.65.43,2.33,2.33,0,0,1,1.49,1.37q.54,1.56,1.17,3.63c.42,1.38.84,2.8,1.26,4.27l1.23,4.35c.4,1.43.75,2.7,1,3.8a2.47,2.47,0,0,1-1.08.67,5.13,5.13,0,0,1-1.71.26,5.29,5.29,0,0,1-1.22-.12,2.16,2.16,0,0,1-.81-.36,1.77,1.77,0,0,1-.51-.63,5.47,5.47,0,0,1-.34-.9L61,159.48H55.55q-.24.9-.48,1.86t-.48,1.86c-.28.1-.58.18-.89.26a5.88,5.88,0,0,1-1.12.1,4,4,0,0,1-2.27-.52,1.69,1.69,0,0,1-.73-1.46,3,3,0,0,1,.12-.84q.12-.42.27-1c.14-.54.33-1.21.58-2s.53-1.66.83-2.6.62-1.88,1-2.86l1-2.78c.3-.87.57-1.64.82-2.32S54.57,146,54.71,145.62Zm3.6,3.87c-.28.84-.6,1.77-1,2.8s-.66,2.08-.94,3.14h3.72c-.28-1.08-.57-2.14-.86-3.17s-.55-1.95-.79-2.77Z"/><path class="b" d="M71.24,163.35a2.59,2.59,0,0,1-2.79-2.79V145.05l1-.17a9.54,9.54,0,0,1,1.38-.1,6.22,6.22,0,0,1,1.21.1,2.33,2.33,0,0,1,.89.38,1.62,1.62,0,0,1,.54.75,3.66,3.66,0,0,1,.18,1.26v11.85h6.87A3.88,3.88,0,0,1,81,160a3.75,3.75,0,0,1,.18,1.16,2.29,2.29,0,0,1-.51,1.69,1.86,1.86,0,0,1-1.35.5Z"/><path class="b" d="M86.81,145.62a6.3,6.3,0,0,1,1.54-.57,8.27,8.27,0,0,1,2.09-.27,7.48,7.48,0,0,1,2.65.43,2.33,2.33,0,0,1,1.49,1.37c.36,1,.75,2.25,1.16,3.63s.84,2.8,1.26,4.27.83,2.93,1.24,4.35.75,2.7,1.05,3.8a2.51,2.51,0,0,1-1.09.67,5,5,0,0,1-1.71.26,5.26,5.26,0,0,1-1.21-.12,2.16,2.16,0,0,1-.81-.36,1.77,1.77,0,0,1-.51-.63,4.7,4.7,0,0,1-.34-.9l-.54-2.07H87.65l-.49,1.86-.47,1.86c-.28.1-.58.18-.89.26a5.88,5.88,0,0,1-1.12.1,4,4,0,0,1-2.27-.52,1.69,1.69,0,0,1-.73-1.46,3,3,0,0,1,.11-.84l.28-1c.13-.54.33-1.21.58-2s.53-1.66.83-2.6.61-1.88,1-2.86l1-2.78c.3-.87.57-1.64.82-2.32S86.66,146,86.81,145.62Zm3.6,3.87c-.29.84-.6,1.77-1,2.8s-.67,2.08-.94,3.14h3.72c-.29-1.08-.57-2.14-.86-3.17s-.55-1.95-.8-2.77Z"/><path class="b" d="M108.74,163.14a9,9,0,0,1-1,.18,10.4,10.4,0,0,1-1.34.09,3.77,3.77,0,0,1-2.08-.47c-.46-.31-.68-1-.68-2v-4c-.51-.74-1-1.56-1.62-2.46s-1.16-1.82-1.71-2.76-1.08-1.87-1.57-2.78a26.78,26.78,0,0,1-1.17-2.5,4.11,4.11,0,0,1,1.07-1,3,3,0,0,1,1.67-.45,3.43,3.43,0,0,1,1.9.48,4.6,4.6,0,0,1,1.4,1.8l2.49,5h.17c.29-.62.53-1.19.74-1.7s.41-1,.61-1.53.41-1,.64-1.59.46-1.18.75-1.9a5.22,5.22,0,0,1,1.19-.42,5.84,5.84,0,0,1,1.27-.15,2.88,2.88,0,0,1,1.78.55,2,2,0,0,1,.73,1.67,2.83,2.83,0,0,1-.15.87,9.46,9.46,0,0,1-.68,1.54c-.37.69-.89,1.63-1.58,2.81s-1.63,2.72-2.8,4.62Z"/><path class="b" d="M120.37,156c-.88-.3-1.68-.61-2.4-.91a7.68,7.68,0,0,1-1.86-1.13,4.58,4.58,0,0,1-1.21-1.58,5.15,5.15,0,0,1-.44-2.23,4.91,4.91,0,0,1,2-4.08,8.75,8.75,0,0,1,5.5-1.53,15,15,0,0,1,2.4.18,7.2,7.2,0,0,1,1.91.55,3.3,3.3,0,0,1,1.24,1,2.19,2.19,0,0,1,.45,1.37,2.38,2.38,0,0,1-.36,1.33,3.76,3.76,0,0,1-.87.95,6.77,6.77,0,0,0-1.77-.74,8.88,8.88,0,0,0-2.43-.31,4.13,4.13,0,0,0-2,.37,1.11,1.11,0,0,0-.63,1,.86.86,0,0,0,.39.73,3.79,3.79,0,0,0,1.17.53L123,152a11.4,11.4,0,0,1,4.34,2.3,4.88,4.88,0,0,1,1.51,3.79,5,5,0,0,1-2,4.12,9.44,9.44,0,0,1-5.91,1.58,13.69,13.69,0,0,1-2.56-.23,7.74,7.74,0,0,1-2.07-.66,3.62,3.62,0,0,1-1.38-1.08,2.36,2.36,0,0,1-.5-1.48,2.26,2.26,0,0,1,.51-1.49,4,4,0,0,1,1.11-.94,8.2,8.2,0,0,0,2.06,1.14,7.14,7.14,0,0,0,2.65.48,3.56,3.56,0,0,0,2.07-.45,1.3,1.3,0,0,0,.6-1.05,1,1,0,0,0-.48-.92,6.23,6.23,0,0,0-1.35-.61Z"/><path class="b" d="M135.79,163.14a8.21,8.21,0,0,1-1,.18,11.09,11.09,0,0,1-1.4.09,6.17,6.17,0,0,1-1.21-.11,2,2,0,0,1-.89-.37,1.62,1.62,0,0,1-.54-.75,3.66,3.66,0,0,1-.18-1.26V145.08l1.05-.17a9.64,9.64,0,0,1,1.38-.1,6.33,6.33,0,0,1,1.22.1,2.4,2.4,0,0,1,.89.38,1.68,1.68,0,0,1,.53.75,3.66,3.66,0,0,1,.18,1.26Z"/><path class="b" d="M142.36,145.62a6.4,6.4,0,0,1,1.55-.57,8.19,8.19,0,0,1,2.08-.27,7.53,7.53,0,0,1,2.66.43,2.31,2.31,0,0,1,1.48,1.37q.54,1.56,1.17,3.63c.42,1.38.84,2.8,1.26,4.27l1.23,4.35c.4,1.43.75,2.7,1.05,3.8a2.47,2.47,0,0,1-1.08.67,5.13,5.13,0,0,1-1.71.26,5.2,5.2,0,0,1-1.21-.12,2.16,2.16,0,0,1-.81-.36,1.77,1.77,0,0,1-.51-.63,5.45,5.45,0,0,1-.35-.9l-.54-2.07H143.2q-.24.9-.48,1.86t-.48,1.86c-.28.1-.57.18-.88.26a6,6,0,0,1-1.13.1A4,4,0,0,1,138,163a1.7,1.7,0,0,1-.74-1.46,3,3,0,0,1,.12-.84q.12-.42.27-1c.14-.54.34-1.21.59-2s.52-1.66.82-2.6.62-1.88,1-2.86l1-2.78c.3-.87.58-1.64.83-2.32S142.22,146,142.36,145.62Zm3.6,3.87c-.28.84-.59,1.77-.94,2.8s-.67,2.08-1,3.14h3.72c-.28-1.08-.56-2.14-.85-3.17s-.56-1.95-.8-2.77Z"/><polygon class="c" points="112.17 50.94 114.82 63.83 122.83 53.4 119.63 66.15 131.37 60.2 122.96 70.3 136.11 70.04 124.14 75.5 136.11 80.96 122.96 80.7 131.37 90.81 119.63 84.86 122.83 97.61 114.82 87.18 112.17 100.06 109.49 87.18 101.51 97.61 104.72 84.86 92.98 90.81 101.38 80.7 88.23 80.96 100.2 75.5 88.23 70.04 101.38 70.3 92.98 60.2 104.72 66.15 101.51 53.4 109.49 63.83 112.17 50.94"/><path class="c" d="M110.05,33.91a41.73,41.73,0,1,0,0,83.19,45.49,45.49,0,1,1,0-83.19Z"/></svg>