<svg xmlns="http://www.w3.org/2000/svg" viewBox="0 0 176.13 173.3"><rect width="176.13" height="173.3" fill="#088084"/><path d="M77.34,158.79a2.91,2.91,0,0,1-1,.52,4.39,4.39,0,0,1-1.42.2,5.07,5.07,0,0,1-1.79-.27,1.43,1.43,0,0,1-.91-.93c-.56-1.76-1-3.19-1.38-4.27s-.64-2-.84-2.87h-.15c-.06,1.18-.11,2.25-.14,3.22s0,1.92-.06,2.84,0,1.85-.06,2.79-.07,2-.13,3.12a5.42,5.42,0,0,1-1,.25,7.66,7.66,0,0,1-1.26.11,4.19,4.19,0,0,1-2.06-.42,1.61,1.61,0,0,1-.73-1.53l.87-15.3a2.87,2.87,0,0,1,1-.84,4.75,4.75,0,0,1,2.28-.45,5.09,5.09,0,0,1,2.49.5,2.92,2.92,0,0,1,1.32,1.6c.18.48.37,1,.58,1.65s.42,1.26.63,1.92l.62,2,.54,1.76h.15q.72-2.52,1.44-4.88c.48-1.56.92-2.88,1.32-3.94a5.22,5.22,0,0,1,1.15-.41A7,7,0,0,1,80.4,145a5.86,5.86,0,0,1,2.4.43,1.73,1.73,0,0,1,1.08,1.25c.08.4.16,1,.25,1.84s.19,1.77.29,2.81.2,2.14.3,3.3.19,2.28.28,3.34.17,2.06.23,2.94.1,1.58.12,2.06a4.31,4.31,0,0,1-1.07.44,6.18,6.18,0,0,1-1.42.13,4.27,4.27,0,0,1-1.92-.39,1.65,1.65,0,0,1-.84-1.53q-.18-3.27-.23-5.88c0-1.74-.07-3.2-.13-4.38h-.15q-.3,1.17-.87,2.94T77.34,158.79Z" fill="#fff"/><path d="M87.48,147.87a2.59,2.59,0,0,1,2.79-2.79h9.89a3.58,3.58,0,0,1,.38.87,3.88,3.88,0,0,1,.16,1.14,2.2,2.2,0,0,1-.49,1.62,1.78,1.78,0,0,1-1.3.48H92.58V152h6.75a4.31,4.31,0,0,1,.37.85,3.77,3.77,0,0,1,.17,1.13,2.29,2.29,0,0,1-.48,1.62,1.74,1.74,0,0,1-1.29.48H92.58v3.15h7.71a4,4,0,0,1,.37.87,3.88,3.88,0,0,1,.17,1.14,2.24,2.24,0,0,1-.5,1.63,1.76,1.76,0,0,1-1.3.5H90.27a2.59,2.59,0,0,1-2.79-2.79Z" fill="#fff"/><path d="M101.75,147.3a4.12,4.12,0,0,1,.42-.84,3.53,3.53,0,0,1,1.62-1.34,3.09,3.09,0,0,1,1.2-.22,2.71,2.71,0,0,1,1.53.43,5.15,5.15,0,0,1,1.35,1.49l2.34,3.57,3.45-5.1a3.32,3.32,0,0,1,.68-.23,4.19,4.19,0,0,1,.85-.1,3.24,3.24,0,0,1,2.16.66,2,2,0,0,1,.78,1.62,2.66,2.66,0,0,1-.43,1.5c-.29.44-.69,1-1.19,1.59l-3.09,3.78,4.89,7a3,3,0,0,1-1,1.75,3.32,3.32,0,0,1-2.15.65,2.58,2.58,0,0,1-1.5-.44,4.9,4.9,0,0,1-1.29-1.48l-2.43-3.84-3.78,5.7-.45,0-.42,0a3.83,3.83,0,0,1-2.52-.69,2.16,2.16,0,0,1-.81-1.71,3,3,0,0,1,.38-1.52,14.06,14.06,0,0,1,1.06-1.51l3.15-4Z" fill="#fff"/><path d="M125.1,163.14a8.82,8.82,0,0,1-1,.18,11.09,11.09,0,0,1-1.4.09,6.17,6.17,0,0,1-1.21-.11,2,2,0,0,1-.88-.37,1.62,1.62,0,0,1-.54-.75,3.66,3.66,0,0,1-.18-1.26V145.08l1.05-.17a9.44,9.44,0,0,1,1.38-.1,6.22,6.22,0,0,1,1.21.1,2.33,2.33,0,0,1,.89.38,1.54,1.54,0,0,1,.53.75,3.41,3.41,0,0,1,.19,1.26Z" fill="#fff"/><path d="M137.06,148.74a4.45,4.45,0,0,0-3.54,1.41,5.88,5.88,0,0,0-1.23,4,5.55,5.55,0,0,0,1.37,4,4.87,4.87,0,0,0,3.67,1.41,5.84,5.84,0,0,0,2.09-.33,14.24,14.24,0,0,0,1.63-.75,2.92,2.92,0,0,1,.8,1,3,3,0,0,1,.28,1.36,2.44,2.44,0,0,1-1.36,2.08,8,8,0,0,1-4.16.86,12.26,12.26,0,0,1-3.78-.57,8.44,8.44,0,0,1-3.09-1.76,8.19,8.19,0,0,1-2.08-3,11.1,11.1,0,0,1-.77-4.33,10.83,10.83,0,0,1,.74-4.13,8.84,8.84,0,0,1,2-3,8.44,8.44,0,0,1,3-1.86,10.52,10.52,0,0,1,3.67-.63,8.43,8.43,0,0,1,4.27.9,2.65,2.65,0,0,1,1.52,2.31,2.34,2.34,0,0,1-.4,1.35,3.32,3.32,0,0,1-.89.9,10.18,10.18,0,0,0-1.67-.87A5.45,5.45,0,0,0,137.06,148.74Z" fill="#fff"/><path d="M142.52,154.14a10.88,10.88,0,0,1,.74-4.14,8.31,8.31,0,0,1,5-4.86,11.39,11.39,0,0,1,7.47,0,8.66,8.66,0,0,1,3,1.84,8.51,8.51,0,0,1,2,3,10.89,10.89,0,0,1,.73,4.14,11.18,11.18,0,0,1-.72,4.15,8.5,8.5,0,0,1-2,3,8.67,8.67,0,0,1-3,1.84,11,11,0,0,1-3.78.63,10.79,10.79,0,0,1-3.78-.65,8.42,8.42,0,0,1-3-1.87,8.67,8.67,0,0,1-2-3A11,11,0,0,1,142.52,154.14Zm5.4,0a6.33,6.33,0,0,0,1.11,4.08,4,4,0,0,0,6,0,8.06,8.06,0,0,0,0-8.13,3.65,3.65,0,0,0-3-1.35,3.7,3.7,0,0,0-3,1.34A6.17,6.17,0,0,0,147.92,154.14Z" fill="#fff"/><rect x="68.36" y="42" width="40.75" height="4.46" fill="#fff"/><path d="M76.79,63.06V58a4,4,0,1,1,8,0v5h7.81V58a4,4,0,0,1,8,0v5h8.56V49.69h-41V63.06Z" fill="#fff"/><path d="M101.29,115.8,96,66.7H81.47l-5.29,49.1ZM84.53,72.54h8v2.87h-8ZM83.25,83.83H94V86.7H83.25ZM82,95.13h13.4V98H82Zm14.82,11.29v2.86H80.68v-2.86Z" fill="#fff"/><polygon points="101.94 89.25 125.23 89.25 125.23 80.1 100.95 80.1 101.94 89.25" fill="#fff"/><polygon points="77.94 66.85 61.2 66.85 61.2 76.1 76.95 76.1 77.94 66.85" fill="#fff"/><polygon points="100.52 76.1 116.27 76.1 116.27 66.85 99.53 66.85 100.52 76.1" fill="#fff"/><polygon points="103.35 102.4 134.29 102.4 134.29 93.24 102.37 93.25 103.35 102.4" fill="#fff"/><polygon points="73.69 106.39 36.37 106.36 36.37 115.58 72.7 115.58 73.69 106.39" fill="#fff"/><polygon points="76.52 80.1 52.25 80.1 52.25 89.25 75.53 89.25 76.52 80.1" fill="#fff"/><polygon points="103.78 106.39 104.77 115.58 141.11 115.58 141.11 106.36 103.78 106.39" fill="#fff"/><polygon points="75.1 93.25 43.19 93.24 43.19 102.4 74.12 102.4 75.1 93.25" fill="#fff"/></svg>