<svg xmlns="http://www.w3.org/2000/svg" viewBox="0 0 176.13 173.3"><defs><style>.a{fill:#f7b524;}.b{fill:#fff;}.c{fill:#f4f4f4;}</style></defs><title>PAKISTAN</title><rect class="a" width="176.13" height="173.3"/><path class="b" d="M48.55,163.14a8.21,8.21,0,0,1-1,.18,11.09,11.09,0,0,1-1.4.09,6.17,6.17,0,0,1-1.21-.11,2,2,0,0,1-.89-.37,1.62,1.62,0,0,1-.54-.75,3.66,3.66,0,0,1-.18-1.26V146.79a1.33,1.33,0,0,1,.35-1,2.44,2.44,0,0,1,.94-.55,11.27,11.27,0,0,1,2.33-.53,20.82,20.82,0,0,1,2.62-.16q4.14,0,6.33,1.77a5.84,5.84,0,0,1,2.19,4.8,7.19,7.19,0,0,1-.46,2.65,5.51,5.51,0,0,1-1.38,2,6.2,6.2,0,0,1-2.31,1.32,10.22,10.22,0,0,1-3.23.47H48.55Zm1.56-9.63a2.88,2.88,0,0,0,1.94-.59,2.63,2.63,0,0,0,0-3.54,3.05,3.05,0,0,0-2.06-.61l-.79,0a3.69,3.69,0,0,0-.65.07v4.65Z"/><path class="b" d="M62.5,145.62a6.4,6.4,0,0,1,1.55-.57,8.19,8.19,0,0,1,2.08-.27,7.53,7.53,0,0,1,2.66.43,2.31,2.31,0,0,1,1.48,1.37q.54,1.56,1.17,3.63c.42,1.38.84,2.8,1.26,4.27l1.23,4.35c.4,1.43.75,2.7,1,3.8a2.47,2.47,0,0,1-1.08.67,5.13,5.13,0,0,1-1.71.26,5.2,5.2,0,0,1-1.21-.12,2.16,2.16,0,0,1-.81-.36,1.77,1.77,0,0,1-.51-.63,5.45,5.45,0,0,1-.35-.9l-.54-2.07H63.34q-.24.9-.48,1.86t-.48,1.86c-.28.1-.57.18-.88.26a6,6,0,0,1-1.13.1,4,4,0,0,1-2.26-.52,1.7,1.7,0,0,1-.74-1.46,3,3,0,0,1,.12-.84q.12-.42.27-1c.14-.54.34-1.21.59-2s.52-1.66.82-2.6.62-1.88,1-2.86l1-2.78c.3-.87.58-1.64.83-2.32S62.36,146,62.5,145.62Zm3.6,3.87c-.28.84-.59,1.77-.94,2.8s-.67,2.08-1,3.14h3.72c-.28-1.08-.56-2.14-.85-3.17s-.56-1.95-.8-2.77Z"/><path class="b" d="M81.52,156.51v6.63a8.34,8.34,0,0,1-1,.18,11.36,11.36,0,0,1-1.41.09,6.17,6.17,0,0,1-1.21-.11,2,2,0,0,1-.89-.37,1.62,1.62,0,0,1-.54-.75,3.66,3.66,0,0,1-.18-1.26V145.08l1.05-.17a9.54,9.54,0,0,1,1.38-.1,6.33,6.33,0,0,1,1.22.1,2.28,2.28,0,0,1,.88.38,1.62,1.62,0,0,1,.54.75,3.66,3.66,0,0,1,.18,1.26v4.77l6.24-7.17a4.48,4.48,0,0,1,2.93.76,2.33,2.33,0,0,1,.88,1.82,2.94,2.94,0,0,1-.39,1.47,7.66,7.66,0,0,1-1.26,1.56l-3.75,3.75L87.72,156l1.62,1.75c.53.58,1,1.12,1.53,1.64l1.27,1.35a2.72,2.72,0,0,1-.24,1.17,2.66,2.66,0,0,1-.64.87,2.76,2.76,0,0,1-.92.54,3.22,3.22,0,0,1-1.08.18,3.15,3.15,0,0,1-2-.62,10.71,10.71,0,0,1-1.5-1.45Z"/><path class="b" d="M98.74,163.14a8.11,8.11,0,0,1-1,.18,10.81,10.81,0,0,1-1.39.09,6.17,6.17,0,0,1-1.21-.11,2,2,0,0,1-.89-.37,1.62,1.62,0,0,1-.54-.75,3.66,3.66,0,0,1-.18-1.26V145.08l1.05-.17a9.54,9.54,0,0,1,1.38-.1,6.33,6.33,0,0,1,1.22.1,2.28,2.28,0,0,1,.88.38,1.62,1.62,0,0,1,.54.75,3.66,3.66,0,0,1,.18,1.26Z"/><path class="b" d="M106.6,156c-.88-.3-1.68-.61-2.4-.91a7.68,7.68,0,0,1-1.86-1.13,4.73,4.73,0,0,1-1.22-1.58,5.31,5.31,0,0,1-.43-2.23,4.91,4.91,0,0,1,2-4.08,8.74,8.74,0,0,1,5.5-1.53,15,15,0,0,1,2.4.18,7.2,7.2,0,0,1,1.91.55,3.3,3.3,0,0,1,1.24,1,2.19,2.19,0,0,1,.45,1.37,2.38,2.38,0,0,1-.36,1.33,3.76,3.76,0,0,1-.87.95,6.77,6.77,0,0,0-1.77-.74,8.88,8.88,0,0,0-2.43-.31,4.13,4.13,0,0,0-2,.37,1.11,1.11,0,0,0-.63,1,.86.86,0,0,0,.39.73,3.79,3.79,0,0,0,1.17.53l1.59.51a11.4,11.4,0,0,1,4.34,2.3,4.88,4.88,0,0,1,1.51,3.79,5,5,0,0,1-2,4.12,9.44,9.44,0,0,1-5.91,1.58,13.69,13.69,0,0,1-2.56-.23,7.74,7.74,0,0,1-2.07-.66,3.62,3.62,0,0,1-1.38-1.08,2.36,2.36,0,0,1-.5-1.48,2.26,2.26,0,0,1,.51-1.49,4,4,0,0,1,1.11-.94,8.2,8.2,0,0,0,2.06,1.14,7.14,7.14,0,0,0,2.65.48,3.56,3.56,0,0,0,2.07-.45,1.3,1.3,0,0,0,.6-1.05,1,1,0,0,0-.48-.92,6.23,6.23,0,0,0-1.35-.61Z"/><path class="b" d="M115.54,149.28a3.88,3.88,0,0,1-.39-.9,4,4,0,0,1-.18-1.2,2.27,2.27,0,0,1,.53-1.68,1.86,1.86,0,0,1,1.36-.51h13.08a3.88,3.88,0,0,1,.39.9,4,4,0,0,1,.18,1.2,2.27,2.27,0,0,1-.52,1.68,1.89,1.89,0,0,1-1.37.51h-3.33v13.86a8.21,8.21,0,0,1-1,.18,11.09,11.09,0,0,1-1.4.09,6.09,6.09,0,0,1-1.21-.11,2,2,0,0,1-.89-.37,1.62,1.62,0,0,1-.54-.75,3.66,3.66,0,0,1-.18-1.26V149.28Z"/><path class="b" d="M134.53,145.62a6.4,6.4,0,0,1,1.55-.57,8.19,8.19,0,0,1,2.08-.27,7.53,7.53,0,0,1,2.66.43,2.31,2.31,0,0,1,1.48,1.37q.54,1.56,1.17,3.63c.42,1.38.84,2.8,1.26,4.27l1.23,4.35c.4,1.43.75,2.7,1,3.8a2.47,2.47,0,0,1-1.08.67,5.13,5.13,0,0,1-1.71.26,5.2,5.2,0,0,1-1.21-.12,2.16,2.16,0,0,1-.81-.36,1.77,1.77,0,0,1-.51-.63,5.45,5.45,0,0,1-.35-.9l-.54-2.07h-5.43q-.24.9-.48,1.86t-.48,1.86c-.28.1-.57.18-.88.26a6,6,0,0,1-1.13.1,4,4,0,0,1-2.26-.52,1.7,1.7,0,0,1-.74-1.46,3,3,0,0,1,.12-.84q.12-.42.27-1c.14-.54.33-1.21.59-2s.52-1.66.82-2.6.62-1.88,1-2.86l1-2.78c.3-.87.58-1.64.83-2.32S134.39,146,134.53,145.62Zm3.6,3.87c-.28.84-.59,1.77-.94,2.8s-.67,2.08-.95,3.14H140c-.28-1.08-.56-2.14-.85-3.17s-.56-1.95-.8-2.77Z"/><path class="b" d="M164.74,162.63a2.77,2.77,0,0,1-1.21.64,7.14,7.14,0,0,1-1.91.23,6.6,6.6,0,0,1-2.1-.33,2.91,2.91,0,0,1-1.62-1.59l-3-6.06c-.3-.62-.57-1.2-.81-1.76s-.5-1.18-.78-1.9l-.18,0c.08,1.08.13,2.18.13,3.3s0,2.22,0,3.3v4.65a8.61,8.61,0,0,1-1,.18,10.17,10.17,0,0,1-1.34.09,6.79,6.79,0,0,1-1.17-.09A1.79,1.79,0,0,1,149,163a1.69,1.69,0,0,1-.51-.74,3.39,3.39,0,0,1-.18-1.21V146a2.51,2.51,0,0,1,1.29-.9,5.67,5.67,0,0,1,1.86-.3,6.5,6.5,0,0,1,2.12.34,2.9,2.9,0,0,1,1.6,1.58l3,6.06c.3.62.57,1.21.81,1.75s.5,1.19.78,1.91l.15,0q-.12-1.62-.15-3.24t0-3.24v-4.86a8.22,8.22,0,0,1,1-.18,10.28,10.28,0,0,1,1.34-.09,3.6,3.6,0,0,1,2,.46,2.21,2.21,0,0,1,.69,1.94Z"/><path class="b" d="M122.37,96.86A40.33,40.33,0,0,1,68.79,36.58c.71-.62,1.43-1.2,2.16-1.77a44,44,0,1,0,53.42,60.13C123.73,95.59,123.07,96.24,122.37,96.86Z"/><polygon class="c" points="100.38 43.8 118.91 64.64 91.66 58.67 117.21 47.49 103.11 71.56 100.38 43.8"/></svg>