<svg xmlns="http://www.w3.org/2000/svg" viewBox="0 0 176.13 173.3"><defs><style>.a{fill:#863376;}.b,.c{fill:#fff;}.c{fill-rule:evenodd;}</style></defs><title>PALESTINE</title><rect class="a" width="176.13" height="173.3"/><path class="b" d="M37.39,163.14a8.21,8.21,0,0,1-1,.18,11.09,11.09,0,0,1-1.4.09,6.17,6.17,0,0,1-1.21-.11,2,2,0,0,1-.89-.37,1.62,1.62,0,0,1-.54-.75,3.66,3.66,0,0,1-.18-1.26V146.79a1.33,1.33,0,0,1,.35-1,2.44,2.44,0,0,1,.94-.55,11.27,11.27,0,0,1,2.33-.53,20.82,20.82,0,0,1,2.62-.16q4.14,0,6.33,1.77a5.84,5.84,0,0,1,2.19,4.8,7.19,7.19,0,0,1-.46,2.65,5.51,5.51,0,0,1-1.38,2,6.2,6.2,0,0,1-2.31,1.32,10.22,10.22,0,0,1-3.23.47H37.39ZM39,153.51a2.88,2.88,0,0,0,1.94-.59,2.63,2.63,0,0,0,0-3.54,3.05,3.05,0,0,0-2.06-.61l-.79,0a3.69,3.69,0,0,0-.65.07v4.65Z"/><path class="b" d="M51.34,145.62a6.4,6.4,0,0,1,1.55-.57,8.19,8.19,0,0,1,2.08-.27,7.53,7.53,0,0,1,2.66.43,2.31,2.31,0,0,1,1.48,1.37q.54,1.56,1.17,3.63c.42,1.38.84,2.8,1.26,4.27l1.23,4.35c.4,1.43.75,2.7,1,3.8a2.47,2.47,0,0,1-1.08.67,5.13,5.13,0,0,1-1.71.26,5.2,5.2,0,0,1-1.21-.12,2.16,2.16,0,0,1-.81-.36,1.77,1.77,0,0,1-.51-.63,5.45,5.45,0,0,1-.35-.9l-.54-2.07H52.18q-.24.9-.48,1.86t-.48,1.86c-.28.1-.57.18-.88.26a6,6,0,0,1-1.13.1A4,4,0,0,1,47,163a1.7,1.7,0,0,1-.74-1.46,3,3,0,0,1,.12-.84q.12-.42.27-1c.14-.54.34-1.21.59-2s.52-1.66.82-2.6.62-1.88,1-2.86l1-2.78c.3-.87.58-1.64.83-2.32S51.2,146,51.34,145.62Zm3.6,3.87c-.28.84-.59,1.77-.94,2.8s-.67,2.08-1,3.14h3.72c-.28-1.08-.56-2.14-.85-3.17s-.56-1.95-.8-2.77Z"/><path class="b" d="M67.87,163.35a2.59,2.59,0,0,1-2.79-2.79V145.05l1-.17a9.54,9.54,0,0,1,1.38-.1,6.33,6.33,0,0,1,1.22.1,2.28,2.28,0,0,1,.88.38,1.62,1.62,0,0,1,.54.75,3.66,3.66,0,0,1,.18,1.26v11.85H77.2a3.88,3.88,0,0,1,.39.88,3.75,3.75,0,0,1,.18,1.16,2.29,2.29,0,0,1-.51,1.69,1.86,1.86,0,0,1-1.35.5Z"/><path class="b" d="M79.27,147.87a2.59,2.59,0,0,1,2.79-2.79H92a3.58,3.58,0,0,1,.38.87,3.88,3.88,0,0,1,.16,1.14,2.2,2.2,0,0,1-.49,1.62,1.81,1.81,0,0,1-1.31.48H84.37V152h6.75a3.72,3.72,0,0,1,.54,2,2.24,2.24,0,0,1-.48,1.62,1.74,1.74,0,0,1-1.29.48H84.37v3.15h7.71a3.58,3.58,0,0,1,.38.87,3.88,3.88,0,0,1,.16,1.14,2.24,2.24,0,0,1-.49,1.63,1.78,1.78,0,0,1-1.31.5H82.06a2.59,2.59,0,0,1-2.79-2.79Z"/><path class="b" d="M99.82,156c-.88-.3-1.68-.61-2.4-.91A7.68,7.68,0,0,1,95.56,154a4.58,4.58,0,0,1-1.21-1.58,5.15,5.15,0,0,1-.44-2.23,4.91,4.91,0,0,1,2-4.08,8.75,8.75,0,0,1,5.5-1.53,15,15,0,0,1,2.4.18,7.2,7.2,0,0,1,1.91.55,3.3,3.3,0,0,1,1.24,1,2.19,2.19,0,0,1,.45,1.37A2.38,2.38,0,0,1,107,149a3.76,3.76,0,0,1-.87.95,6.77,6.77,0,0,0-1.77-.74,8.88,8.88,0,0,0-2.43-.31,4.13,4.13,0,0,0-2,.37,1.11,1.11,0,0,0-.63,1,.86.86,0,0,0,.39.73,3.79,3.79,0,0,0,1.17.53l1.59.51a11.4,11.4,0,0,1,4.34,2.3,4.88,4.88,0,0,1,1.51,3.79,5,5,0,0,1-2,4.12,9.44,9.44,0,0,1-5.91,1.58,13.69,13.69,0,0,1-2.56-.23,7.63,7.63,0,0,1-2.07-.66,3.62,3.62,0,0,1-1.38-1.08,2.36,2.36,0,0,1-.5-1.48,2.26,2.26,0,0,1,.51-1.49,4,4,0,0,1,1.11-.94A8.2,8.2,0,0,0,97.59,159a7.14,7.14,0,0,0,2.65.48,3.56,3.56,0,0,0,2.07-.45,1.3,1.3,0,0,0,.6-1.05,1,1,0,0,0-.48-.92,6.23,6.23,0,0,0-1.35-.61Z"/><path class="b" d="M108.76,149.28a3.88,3.88,0,0,1-.39-.9,4,4,0,0,1-.18-1.2,2.27,2.27,0,0,1,.53-1.68,1.86,1.86,0,0,1,1.36-.51h13.08a3.88,3.88,0,0,1,.39.9,4,4,0,0,1,.18,1.2,2.27,2.27,0,0,1-.52,1.68,1.89,1.89,0,0,1-1.37.51h-3.33v13.86a8.21,8.21,0,0,1-1,.18,11.09,11.09,0,0,1-1.4.09,6.17,6.17,0,0,1-1.21-.11,2,2,0,0,1-.89-.37,1.62,1.62,0,0,1-.54-.75,3.66,3.66,0,0,1-.18-1.26V149.28Z"/><path class="b" d="M130.33,163.14a8.21,8.21,0,0,1-1,.18,11.09,11.09,0,0,1-1.4.09,6.17,6.17,0,0,1-1.21-.11,2,2,0,0,1-.89-.37,1.62,1.62,0,0,1-.54-.75,3.66,3.66,0,0,1-.18-1.26V145.08l1-.17a9.54,9.54,0,0,1,1.38-.1,6.33,6.33,0,0,1,1.22.1,2.28,2.28,0,0,1,.88.38,1.62,1.62,0,0,1,.54.75,3.66,3.66,0,0,1,.18,1.26Z"/><path class="b" d="M149.5,162.63a2.72,2.72,0,0,1-1.21.64,7.08,7.08,0,0,1-1.91.23,6.6,6.6,0,0,1-2.1-.33,2.91,2.91,0,0,1-1.62-1.59l-3-6.06c-.3-.62-.57-1.2-.81-1.76s-.5-1.18-.78-1.9l-.18,0c.08,1.08.13,2.18.14,3.3s0,2.22,0,3.3v4.65a8.22,8.22,0,0,1-1,.18,10.17,10.17,0,0,1-1.34.09,6.79,6.79,0,0,1-1.17-.09,1.79,1.79,0,0,1-.84-.36,1.69,1.69,0,0,1-.51-.74A3.39,3.39,0,0,1,133,161V146a2.51,2.51,0,0,1,1.29-.9,5.67,5.67,0,0,1,1.86-.3,6.5,6.5,0,0,1,2.12.34,2.87,2.87,0,0,1,1.6,1.58l3,6.06c.3.62.57,1.21.81,1.75s.5,1.19.78,1.91l.15,0q-.12-1.62-.15-3.24t0-3.24v-4.86a8.46,8.46,0,0,1,1-.18,10,10,0,0,1,1.33-.09,3.6,3.6,0,0,1,2,.46,2.21,2.21,0,0,1,.69,1.94Z"/><path class="b" d="M152.2,147.87a2.59,2.59,0,0,1,2.79-2.79h9.9a3.58,3.58,0,0,1,.38.87,3.88,3.88,0,0,1,.16,1.14,2.2,2.2,0,0,1-.49,1.62,1.81,1.81,0,0,1-1.31.48H157.3V152h6.75a3.72,3.72,0,0,1,.54,2,2.24,2.24,0,0,1-.48,1.62,1.74,1.74,0,0,1-1.29.48H157.3v3.15H165a3.58,3.58,0,0,1,.38.87,3.88,3.88,0,0,1,.16,1.14,2.24,2.24,0,0,1-.49,1.63,1.78,1.78,0,0,1-1.31.5H155a2.59,2.59,0,0,1-2.79-2.79Z"/><path class="c" d="M89,32.18A.92.92,0,0,0,88.94,34v.86a.45.45,0,0,0-.25.41.46.46,0,0,0,.25.41v.68a.84.84,0,0,0,0,1.63v.44a.58.58,0,0,0-.38.55.6.6,0,0,0,.38.55v.32a.72.72,0,0,0-.51.68.68.68,0,0,0,0,.14,2.24,2.24,0,0,0-.66.32h0a2.59,2.59,0,0,0-1,1.26,19,19,0,0,0-10.11,4.28c-7.15,5.37-9.25,13.72-8.75,22.6a2.72,2.72,0,0,1,0,.28h-.24a.81.81,0,0,0-.81.81h0v0h44.44v0h0a.81.81,0,0,0-.81-.81h-.24a2.72,2.72,0,0,1,0-.28c.5-8.88-1.6-17.23-8.75-22.6a19,19,0,0,0-10.1-4.28,2.67,2.67,0,0,0-1-1.26h0a2.31,2.31,0,0,0-.65-.32s0-.09,0-.14a.72.72,0,0,0-.51-.68v-.32a.6.6,0,0,0,.38-.55.58.58,0,0,0-.38-.55V38a.84.84,0,0,0,0-1.63v-.68a.46.46,0,0,0,.25-.41.45.45,0,0,0-.25-.41V34a.92.92,0,0,0-.08-1.81H89Zm.1,1.5a.67.67,0,0,1-.63-.66.63.63,0,1,1,1.26,0,.67.67,0,0,1-.63.66Zm29.1,79.1v.07h.32l1.16-.06h0V97.39h0V87.76A1.28,1.28,0,0,1,121,86.49h0a1.28,1.28,0,0,1,1.27,1.27v24.9l1.21-.06V88.77a1.27,1.27,0,0,1,1.27-1.27h0A1.27,1.27,0,0,1,126,88.77v23.71l1.16,0V89.75a1.28,1.28,0,0,1,1.27-1.27h0a1.27,1.27,0,0,1,1.27,1.27v22.56l1.24-.06V90.75a1.27,1.27,0,0,1,1.27-1.27h0a1.27,1.27,0,0,1,1.27,1.27v21.38l1.2-.06V91.72a1.27,1.27,0,0,1,1.27-1.27h0a1.27,1.27,0,0,1,1.27,1.27V112l1.22,0V92.7a1.27,1.27,0,0,1,1.27-1.27h0A1.27,1.27,0,0,1,141,92.7v19.08l1.09-.06.05-26.65L118.54,76.6v0h-7.7V70.91H67.4v5.67H59.7v0L36.13,85.07l0,26.65,1.09.06V92.7a1.28,1.28,0,0,1,1.27-1.27h0a1.27,1.27,0,0,1,1.27,1.27v19.2L41,112V91.72a1.27,1.27,0,0,1,1.27-1.27h0a1.27,1.27,0,0,1,1.27,1.27v20.35l1.2.06V90.75A1.27,1.27,0,0,1,46,89.48h0a1.27,1.27,0,0,1,1.27,1.27v21.5l1.24.06V89.75a1.27,1.27,0,0,1,1.27-1.27h0a1.28,1.28,0,0,1,1.27,1.27v22.68l1.16,0V88.77a1.28,1.28,0,0,1,1.27-1.27h0a1.27,1.27,0,0,1,1.27,1.27V112.6l1.21.06V87.76a1.28,1.28,0,0,1,1.27-1.27h0a1.28,1.28,0,0,1,1.27,1.27v9.63h0v15.39h0l1.16.06H60V98h5.32v14.85h1.48V98h3.31v14.85h1.48V98h6.47v14.85h1.48V98h5.2V94.75a4.36,4.36,0,1,1,8.72,0V98h5.2v14.85h1.48V98h6.47v14.85h1.48V98h3.31v14.85h1.48V98h5.32v14.77ZM89.12,85.16h1.46v1.67H87.66V85.16Zm2.7,18.31h-5.4v9.39h5.4v-9.39Zm-.28-18.31h1.78v1.67H91.54V85.16Zm7.15,3.35a1.18,1.18,0,0,1,.5-.1,1.22,1.22,0,0,1,.51.1,1.35,1.35,0,0,1,.73.72,1.39,1.39,0,0,1,.1.5h0v5.55H97.86V89.74a1.45,1.45,0,0,1,.1-.51,1.35,1.35,0,0,1,.73-.72Zm7.31,0a1.35,1.35,0,0,1,1,0,1.34,1.34,0,0,1,.72.72,1.21,1.21,0,0,1,.1.5h0v5.55h-2.66V89.74h0a1.39,1.39,0,0,1,.1-.5,1.34,1.34,0,0,1,.72-.72Zm7.88-.1a1.25,1.25,0,0,1,.51.1,1.34,1.34,0,0,1,.72.72,1.4,1.4,0,0,1,.11.5h0v5.55h-2.67V89.74h0a1.39,1.39,0,0,1,.1-.5,1.34,1.34,0,0,1,1.23-.82ZM86.7,85.16H84.92v1.67H86.7V85.16Zm-7.15,3.35a1.18,1.18,0,0,0-.5-.1,1.22,1.22,0,0,0-.51.1,1.35,1.35,0,0,0-.73.72,1.39,1.39,0,0,0-.1.5h0v5.55h2.67V89.74a1.45,1.45,0,0,0-.1-.51,1.35,1.35,0,0,0-.73-.72Zm-7.31,0a1.35,1.35,0,0,0-1,0,1.34,1.34,0,0,0-.72.72,1.21,1.21,0,0,0-.1.5h0v5.55h2.66V89.74h0a1.21,1.21,0,0,0-.1-.5,1.34,1.34,0,0,0-.72-.72Zm-7.88-.1a1.25,1.25,0,0,0-.51.1,1.34,1.34,0,0,0-.72.72,1.21,1.21,0,0,0-.1.5h0v5.55h2.66V89.74h0a1.39,1.39,0,0,0-.1-.5,1.34,1.34,0,0,0-1.23-.82Z"/></svg>