<svg xmlns="http://www.w3.org/2000/svg" width="1.71in" height="1.62in" viewBox="0 0 123.2 116.39"><defs><style>.a{opacity:0.45;}.b{fill:#195a57;}</style></defs><title>passport-stamp-final-3</title><g class="a"><path class="b" d="M123.11,90.3A11.23,11.23,0,0,0,120.87,85l-4.24-5.51a5.7,5.7,0,0,0,.3,1.76c-.23-.09-.17-.63-.29-1l-.79.79c-.38-.72.24-.7.39-1.12.12-1.07-.67-.27-.7-.53l.51-.36.42,1a1.12,1.12,0,0,0,0-.73L58.86,4.37A11.19,11.19,0,0,0,39.64,6.93l-38.78,94a11.27,11.27,0,0,0-.77,5.72h0A11.39,11.39,0,0,0,4.24,114a11.05,11.05,0,0,0,8.43,2.33l-.18-1.39.19,1.39,100.79-13.42A11.22,11.22,0,0,0,123.11,90.3ZM92.92,51.17c.42-.49,1,.88,1.56,1.57l-.26-.12c-.15.61-.93-.59-1.32-.78C93.13,51.82,93,51.46,92.92,51.17Zm-6.14-8c1.47,1,1.42,3.15,3.09,4.64.11-.08.07-.38.35-.11.51,1.9,2,1.92,2.55,4.25a5.12,5.12,0,0,1-.64-.24l-.06.45c-.26-.49-.15-.53.06-.45l.05-.45a6.87,6.87,0,0,1-1.9-3.11c-.34.1.35.71.13.88l-1-1.18c-.09.23-.33.26-.15.62-.18-.36,0-.68-.41-1.16,0,.14-.11.08-.09.23.07-1.2-2.15-2.27-1.51-2.92-.41-.34-.63-.17-.33.25-1-.88-.76-1.05-1.14-2.06C86.27,43.85,86.41,43.09,86.78,43.14ZM82,37.54l.24.43a.7.7,0,0,1-.24-.43l-.41-.71C81.92,37,81.93,37.27,82,37.54Zm-.62-2.18c-.65-.31-.45-.63-.82-1.49C80.82,34,81.56,34.9,81.38,35.36Zm-66,33.39c.34-.18.3.21.56.28-1.12.65-.08,2.51-1.25,3.55l0-.67c-.83-.35-.43,2.69-1.39,2.32l.39.63-.91,1.64C12,74.17,14.63,71.24,15.36,68.75ZM121,91.6l-.2-.88-.49.2a8.38,8.38,0,0,1-7.21,9.14L34.76,110.48a11.13,11.13,0,0,1,1.26.33h-.26c0,.14-.23.43.3.54.78,0,1.15-.25,1-.59,1.22.56,2.21,0,2.66.71a9.71,9.71,0,0,0-4.66.2c.1-.35-1.31-.21-.71-.73-.36.37-1.82,0-1.25.61-.67-.92-1.86-.19-3.09-.45l-7.79,1a.32.32,0,0,0,.1.5h.36a.54.54,0,0,1-.36,0c-2.22,0-4.6.47-5,.43l.24-.1a.85.85,0,0,1,0-.2l-1,.13c-.26.21-.31.41-.14.58-1.34-.1-2.05.81-2.73.28A9.12,9.12,0,0,0,16.2,113l-3.89.52.18,1.39,0-.14-.17-1.25A8.26,8.26,0,0,1,6,111.74a8.53,8.53,0,0,1-3.1-5.46h0A8.24,8.24,0,0,1,3.49,102l.75-1.83c-.18-.18-.32-.7-.57-.45a6.29,6.29,0,0,1-.31-2.62l-.21.22c.08-.25,1-1.36.13-1.17l.78-.47c-.63,1.18,0,1.06-.11,1.84.24-.07.28-.46.39-.57.33,0-.11,1.6.46,1.87l35.49-86a11,11,0,0,1,.3-3.75c-.41,0-.38,1-.67,1.25,0-1.17.26-1.28.88-2.67-.35.11-.32.5-.68.61a8.14,8.14,0,0,1,1-2.4c-.16.25-.32,1.15-.51,1l.38.29c0,1.37-.1,2.89-.18,4.41L42.27,8A8.35,8.35,0,0,1,56.6,6.1L97.28,59a7.65,7.65,0,0,1,2.38-.82c.65.17-.9,1.13.59.64l-1,.53c-.66.22-.69.71-.39.84h.36a.62.62,0,0,1-.36,0H98.2l20.42,26.53a8.64,8.64,0,0,1,1.16,2l-.12-.57c1.12.46-.46-1.23.34-2,.54,1.35.44,3.07,1.18,4.26C120.89,90.83,121.71,92.14,121,91.6Z" transform="translate(0 0)"/><path class="b" d="M40.92,48.18l9.22-6.71c.59,3.64,1.45,7.69,2.33,11.1.66,0,1.17-.13,1.13-1l1.82,1c-3.13.48-.45,2.68-1.78,4.06.2.62.39,1.17.58,1.65l-3.92,3a1.84,1.84,0,0,0-.17,2.81,2.1,2.1,0,0,0,2.2.4l4-1.61.21-.07.62,2.31V62.79h.22l4.32.5a2.07,2.07,0,0,0,2-1h0a1.82,1.82,0,0,0-.9-2.66l-4.51-1.89a85.83,85.83,0,0,0-.08-12.38,7.31,7.31,0,0,1-2.33.58l1.86-1.59c-.93.15-2.64,1.16-2.88-.3L58,42.2c0-.59-.11-1.18-.17-1.75L61.1,41.7l0,0c.52-.07.67.06.68.31l6.69,2.56a2.64,2.64,0,0,0,3-1.73A3.07,3.07,0,0,0,70,38.94L68,38l-.34-2.62c0-.14-.28-.23-.58-.19s-.52.19-.5.33l.25,1.94-2.24-1-.36-2.72c0-.14-.27-.22-.57-.18s-.53.18-.51.32l.27,2-2.64-1.22-.38-2.91c0-.14-.28-.22-.57-.18s-.53.18-.51.33l.29,2.21L56.72,32.8C55.2,24.26,51.9,18.87,51.08,19c-.55.08-1.55,2.89-1.9,7.39l.11,0c.67-.29.09-.95.28-1.16,1.38-.21.19,1.09.57,2,.12-.14.28-.14.49-.24a1.86,1.86,0,0,1,.37-.27,1.1,1.1,0,0,1-.37.27c-.83.82,0,2.11-1.57,1.83a47.31,47.31,0,0,0,.17,5.07l-1.9,1.59-.24-1.86c0-.14-.28-.22-.58-.18s-.52.18-.5.32l.33,2.54-2.23,1.87-.22-1.67c0-.14-.27-.22-.57-.18s-.53.18-.51.32l.31,2.36-1.89,1.58L41,38.92c0-.14-.27-.22-.57-.18s-.53.18-.51.32l.3,2.26L38,43.16a3.09,3.09,0,0,0-.44,4.12A2.63,2.63,0,0,0,40.92,48.18Zm29-7.16L70,43.41l-.92.14ZM53.18,42.51l1.06-.72L54.68,43C54.16,42.73,53.84,42.23,53.18,42.51Zm2.13-4.11.32,2.18C55.21,39.72,55,37.7,55.31,38.4ZM56.1,33c.16,2.39-2.24,3.68-3.26,6.07C49.68,35.61,55,34.62,56.1,33Zm-7.62,3.95.15,2.39-.92.14Z" transform="translate(0 0)"/><path class="b" d="M53,54.49c.21.76.42,1.46.63,2.11A1.55,1.55,0,0,0,53,54.49Z" transform="translate(0 0)"/><path class="b" d="M72.47,91.71,71,92c-.57.07-1.12.13-1.66.17l-.06.08.06.48.08.06a5.15,5.15,0,0,1,1,0c.11,0,.17.1.2.26a10.47,10.47,0,0,1-.28,1.59c-.14.63-.23,1-.27,1.19l-1,4.13-1-1.81c-.12.27-.57-.57-.75-.08a4.34,4.34,0,0,0-.07,1.61,1.83,1.83,0,0,0,.13.22c-.06,0-.1-.06-.13-.22s-.28-.56-.37-.45a.71.71,0,0,1-.07.29.73.73,0,0,1,.07-.29.48.48,0,0,0,0-.12c-.16-.21-.16,0-.22.2-.05-.07-.18-.37-.24-.2l0-.8c-.1-.38-.33.06-.29-.27l.28-.37c-.1-.38-.13-.93-.35-1l-.12.34c-.43-1,.11-.7.16-1.28l0-.41a1.62,1.62,0,0,1,0,.41v.14c.45-.4,0-.09.52.06a1.13,1.13,0,0,0-.11,1c.16,0,.09-.5.23-.68a2.84,2.84,0,0,0,.43,1.2l.15-.43a1.72,1.72,0,0,1-.22.84c.47.15.43-.23.63-.2L66.58,95.7l-.44-.79a7.72,7.72,0,0,1-.64-1.28.26.26,0,0,1,.09-.25,2.44,2.44,0,0,1,.92-.26l0-.07-.06-.48-.08-.06c-.77.13-1.62.25-2.56.38-.75.1-1.37.16-1.87.2l-.07.09.07.46.08.07a1.62,1.62,0,0,1,.88.05,5.93,5.93,0,0,1,.9,1.31l4.27,7.41,1.07-.14c.18-.84.54-2.3,1.09-4.38l.64-2.42.34-1.25a12.78,12.78,0,0,1,.43-1.41.92.92,0,0,1,.25-.36,2.91,2.91,0,0,1,.62-.2l.06-.08-.06-.47Z" transform="translate(0 0)"/><path class="b" d="M61,99.1l-.43-.73a.27.27,0,0,0-.22.13Z" transform="translate(0 0)"/><path class="b" d="M63.77,102.4a1.9,1.9,0,0,1-.68,0c-.12,0-.28-.19-.47-.51L61,99.17c-.46.63.49.72.08,1.43l.41-.07c-.36.22,0,1.27-.17,1.12l-.17-.84c-.44-.41-.7.6-1,0a1.46,1.46,0,0,1,.41-1.29l-.38-.77c0,.14-.2.19-.26.33a.89.89,0,0,0,.12.52c-.16-.27-.17-.42-.12-.52a3.12,3.12,0,0,0-.1-1.91l-.49,0a.53.53,0,0,0,.28-.36l-.4-.68,0,.07,0-.17-1.42-2.41-1,.13c-.19.75-.32,1.32-.41,1.69l-1.23,4.84c-.48,1.89-.77,2.93-.85,3.1s-.38.32-.86.41l-.06.08.06.46.07.05,1.43-.23,1.68-.18.06-.08-.06-.45-.08-.06c-.36,0-.6,0-.72,0s-.35-.09-.38-.27a5.51,5.51,0,0,1,.19-1.28l.2-.89,1.63-.24,2-.24.77,1.41a2.57,2.57,0,0,1,.28.63c0,.17-.09.28-.35.33l-.61.11-.06.09.06.44.07.07q1.11-.19,2.4-.36l1.9-.21,0-.08-.06-.45Zm-6.28-2.46c-.62.08-1.12.14-1.5.17l.95-3.88,2,3.49C58.57,99.79,58.08,99.86,57.49,99.94Z" transform="translate(0 0)"/><path class="b" d="M81.9,98.1l-.43.06-.06.09-.06.89a1.45,1.45,0,0,1-.07.44.2.2,0,0,1-.11.09,10.62,10.62,0,0,1-2.49.5l-1,.13c-.1-.58-.19-1.17-.27-1.79l-.29-2.15c.29-.06.61-.11,1-.16s.64-.07.92-.08.63,0,.71.11a2.16,2.16,0,0,1,.24.94l.08.06.48-.06.06-.07c-.1-.56-.17-1.08-.24-1.55s-.11-.92-.16-1.45L80.12,94l-.44.06-.06.08a2.34,2.34,0,0,1,0,1c0,.07-.29.14-.72.2l-.92.13c-.23,0-.53.06-.9.08l-.2-1.46c-.11-.87-.18-1.55-.19-2,.41-.09.82-.16,1.23-.22s.74-.08,1.2-.1a1.61,1.61,0,0,1,.78.06,2.87,2.87,0,0,1,.26,1.07l.08.06.41,0,.06-.09,0-.66c0-.17,0-.39,0-.64v-.79l-.09,0-4.41.62.16.12.27.56a.2.2,0,0,1,.08-.1l-.06.14,0,0c-.18.34,0,1.41-.26,1.94l-.55-1c1,.14.19-1.37.26-1.64l-.5.07c-1,.13-1.72.21-2.2.25l-.06.07.06.48.08.06a6.57,6.57,0,0,1,.83,0,.31.31,0,0,1,.28.23,17.28,17.28,0,0,1,.38,2.17l.47,3.57.19,1.58a3.72,3.72,0,0,1,0,1,2.65,2.65,0,0,1-.5.49l0,.08,0,.2.08.06c.35-.07.95-.17,1.8-.28l5.13-.63.06-.08A15.62,15.62,0,0,1,82,98.16ZM75.54,94c-.13,0-.35-.07-.36.33-.17-1.18.53,0,.81-.5l-.28.8Zm.8,6.43c-.75-.39-.4-1.37-.7-2,.11-.68-.3-2.06.42-1.92.12.37.48.44.47.83a5.73,5.73,0,0,1-.38.73.9.9,0,0,0,.41,1Z" transform="translate(0 0)"/><path class="b" d="M90.64,97l-.43,0-.06.09-.06.9a1.17,1.17,0,0,1-.08.44.22.22,0,0,1-.1.09,11,11,0,0,1-2.5.49l-1,.13c-.1-.57-.2-1.17-.28-1.78l0-.29c-.24.14-.65-.26-1-.39a.42.42,0,0,1,0,.1,3,3,0,0,0,.12.54l-.29-.24a1.19,1.19,0,0,0,.17-.3.5.5,0,0,0,0-.12l.06,0c.2-.51.39-1.32.7-1.94l-.21-1.59a15.2,15.2,0,0,1-.2-2.2.29.29,0,0,1,.2-.29,6.93,6.93,0,0,1,.82-.18l.06-.07-.06-.49-.08,0c-.5.09-1.23.2-2.2.33s-1.65.2-2.13.24l-.06.07L82,91l.08.06c.48,0,.76,0,.83,0a.33.33,0,0,1,.28.23,17.66,17.66,0,0,1,.38,2.17L84.08,97l.19,1.58a3.72,3.72,0,0,1,0,1,2.53,2.53,0,0,1-.51.49l0,.09,0,.2.08.06c.34-.08,1-.17,1.8-.28l5.12-.64.07-.08A15.42,15.42,0,0,1,90.72,97Zm-5.83-4.17,0,0c-.19.35,0,1.41-.26,1.94l-.56-1c1.21.17-.33-2.31.54-1.55l.28.56s0-.08.07-.09Z" transform="translate(0 0)"/><path class="b" d="M52.69,103.87a.86.86,0,0,1-.47,0,8,8,0,0,1-1.5-1.52l-1.3-1.52c-.32-.37-.62-.74-.9-1.1a2.85,2.85,0,0,0,1.79-3,2.44,2.44,0,0,0-.23-.8,1.68,1.68,0,0,0-.72-.7l.26.3c-.57.59.41.78-.09,1.46l.41,0c-.38.18-.15,1.26-.29,1.1l-.07-.86c-.39-.45-.76.52-1-.08a1.48,1.48,0,0,1,.55-1.24l-.3-.81c0,.14-.21.17-.29.3a.88.88,0,0,0,.07.53c-.14-.28-.13-.43-.07-.53s0-.23.08-.35A6.83,6.83,0,0,0,47.1,95l-1.59.25c-.35.07-.82.13-1.39.21-1,.13-1.71.21-2.17.24l-.07.08.07.48.08.06a6.57,6.57,0,0,1,.83,0,.3.3,0,0,1,.27.23,14.1,14.1,0,0,1,.38,2.17l.5,3.72a14.67,14.67,0,0,1,.19,2.2.3.3,0,0,1-.2.29,7.06,7.06,0,0,1-.81.18l-.07.08.07.48.08,0q.65-.12,2.16-.33c1-.13,1.7-.21,2.17-.24l.06-.08-.06-.47-.08-.06a8,8,0,0,1-.84,0,.3.3,0,0,1-.27-.22,15.78,15.78,0,0,1-.38-2.18l-.49-3.68c-.15-1.11-.23-1.89-.24-2.36A4.4,4.4,0,0,1,46,96a3,3,0,0,1,1.26,0,1.62,1.62,0,0,1,1.1,1.49,2.19,2.19,0,0,1-.15,1.21,1.88,1.88,0,0,1-.57.78,2.27,2.27,0,0,1-1.06.36l-.24,0,0,.25a2,2,0,0,1,.47.37l.94,1.09,2.13,2.68a2,2,0,0,1,.34.53c.52-.1.9-.16,1.14-.19l1.21-.13.26,0,.07-.08-.06-.45Zm-8.49-2.59-.11-.77.47.84Zm1.33.55.11,1c0,.05.07.15,0,.37l0-.37c-.1-.1-.3,0-.35-.35Z" transform="translate(0 0)"/><path class="b" d="M41.14,95.89l-.08-.06c-.4.1-1.41.26-3,.47l-.9.12c.06.27.26.55-.12.9l.41.05c-.41.11-.4,1.2-.5,1l.1-.86c-.3-.51-.85.37-1-.26a1.43,1.43,0,0,1,.33-.75l-1.19.16q-2.61.34-3,.33l-.06.08a8.11,8.11,0,0,1,.23,1l.17,1.2.09.06.44-.06.06-.08a6.74,6.74,0,0,1,0-.77A1.55,1.55,0,0,1,33.1,98a.29.29,0,0,1,.14-.12,6.2,6.2,0,0,1,1.46-.28l1-.13c0,.14.12.8.28,2l.53,4a16.24,16.24,0,0,1,.19,2.2.3.3,0,0,1-.2.29,6.93,6.93,0,0,1-.82.18l-.06.08.07.48.07,0q.66-.12,2.16-.33c1-.13,1.71-.21,2.18-.24l.06-.08-.07-.47-.08-.06-.83,0a.31.31,0,0,1-.27-.23,14.36,14.36,0,0,1-.38-2.17l-.53-4c-.15-1.14-.24-1.8-.25-2l1-.13c.78-.1,1.23-.15,1.32-.15a.49.49,0,0,1,.5.27,8.55,8.55,0,0,1,.21,1l.09,0,.44-.06.06-.08L41.19,97A8,8,0,0,1,41.14,95.89Zm-4.64,4.67-.11-.77.47.84Zm1.87,3.66.11,1s.07.14,0,.37l0-.37c-.1-.1-.3,0-.35-.36Z" transform="translate(0 0)"/><path class="b" d="M70.81,82.09l0,.37.06,0,.63,0a.27.27,0,0,1,.21.18A12,12,0,0,1,72,84.29l.38,2.81a10.75,10.75,0,0,1,.14,1.66.24.24,0,0,1-.15.23l-.62.13,0,.06,0,.36.06,0c.35-.07.9-.16,1.64-.25s1.29-.16,1.65-.19l0-.06-.05-.36-.06,0-.63,0a.25.25,0,0,1-.21-.18,13.19,13.19,0,0,1-.29-1.64l-.37-2.81a13,13,0,0,1-.15-1.66.26.26,0,0,1,.16-.23l.61-.13,0-.06,0-.36-.06,0c-.34.06-.88.14-1.63.24s-1.3.16-1.64.19Z" transform="translate(0 0)"/><path class="b" d="M108.17,82.88l-.33.05,0,.06,0,.68a.86.86,0,0,1-.06.33.19.19,0,0,1-.08.07,7.89,7.89,0,0,1-1.89.38l-.72.09c-.07-.39-.13-.8-.19-1.22-.26.37-.27,1.21-.37,1l.11-1c-.35-.6-1,.43-1.14-.31a1.74,1.74,0,0,1,.9-1.29l-.15-1c-.08.15-.28.14-.4.27a1.09,1.09,0,0,0,0,.62c-.09-.36,0-.52,0-.62a7.59,7.59,0,0,0,.55-1.46c0-.28,0-.52-.07-.72l-.46-.19a.6.6,0,0,0,.44-.3h0a.22.22,0,0,1,.14-.21,2.74,2.74,0,0,0,.21-.55c-.34.06-.78.12-1.3.19-.71.09-1.25.16-1.62.18l0,.06,0,.36.07.05a4.5,4.5,0,0,1,.63,0,.22.22,0,0,1,.2.17,11.77,11.77,0,0,1,.29,1.64l.36,2.7.14,1.2a2.25,2.25,0,0,1,0,.71c0,.05-.14.17-.38.37l0,.07,0,.15.06,0c.27-.06.72-.13,1.37-.22l3.87-.48,0-.06a11.43,11.43,0,0,1-.12-1.77Z" transform="translate(0 0)"/><path class="b" d="M104.79,83.13l0-.29a.76.76,0,0,1-.2.26Z" transform="translate(0 0)"/><path class="b" d="M104.45,80.54v-.05h0Z" transform="translate(0 0)"/><path class="b" d="M66.19,90.33l.44-.07a2.37,2.37,0,0,0-.08-.48l-.33.07A3.53,3.53,0,0,0,66.19,90.33Z" transform="translate(0 0)"/><path class="b" d="M66.66,87.87c0,.06,0,.11,0,.16a.21.21,0,0,0,.16-.07l-.21-.28Z" transform="translate(0 0)"/><path class="b" d="M66.43,86.12v.11a.76.76,0,0,1,.08-.11Z" transform="translate(0 0)"/><polygon class="b" points="65.99 89.94 65.99 89.94 65.99 89.94 65.99 89.94"/><path class="b" d="M69.32,83a.37.37,0,0,1,.37.2,6.63,6.63,0,0,1,.17.79l.06,0,.34,0,0-.06L70.2,83a4.66,4.66,0,0,1,0-.83l-.06,0c-.31.07-1.07.19-2.29.35l-2.15.29c-1.32.17-2.08.26-2.3.25l0,.06a6.1,6.1,0,0,1,.17.78l.13.91.07,0,.33,0,0-.06a5.78,5.78,0,0,1,0-.58,1.28,1.28,0,0,1,0-.35.27.27,0,0,1,.11-.1,6.09,6.09,0,0,1,1.11-.21l.76-.1c0,.11.09.6.21,1.48l.12.94c.07-.3,0-.65.1-.56v.72c.3.4.66-.39.84.12a1.23,1.23,0,0,1-.53,1l.2.69c0-.11.19-.13.26-.23a.77.77,0,0,0,0-.45c.09.25.08.37,0,.45a2.58,2.58,0,0,0-.2,1.58l.4.1c-.27,0-.46.52-.48,1l.38,0,.07-.13a.49.49,0,0,1,0,.12l.29,0c.74-.1,1.29-.16,1.64-.19l0-.06,0-.35-.06,0a4.5,4.5,0,0,1-.63,0,.26.26,0,0,1-.21-.17,14.23,14.23,0,0,1-.28-1.65l-.4-3c-.12-.86-.18-1.36-.19-1.48l.72-.1C68.91,83,69.25,83,69.32,83Z" transform="translate(0 0)"/><path class="b" d="M64.6,90.55l0-.06,0-.35,0,0a1.85,1.85,0,0,1-.52,0c-.09,0-.21-.15-.35-.39l-1.08-1.83a16.35,16.35,0,0,0,1,2.78Z" transform="translate(0 0)"/><path class="b" d="M61.75,90.44l-.46.09,0,.06,0,.34.06,0L63,90.73a3.93,3.93,0,0,1-.47-1.85c-.14-.23-.24-.09-.34,0-.95-1.35-.14-1.61-.58-2.76l-.22-.37,0,0a2.85,2.85,0,0,1-.26-.53L60,83.44l-.76.1-.31,1.28L58,88.48c-.36,1.43-.58,2.21-.64,2.35s-.28.24-.65.31l0,.06,0,.34.06,0,1.07-.18,1.27-.14.05-.06,0-.34-.06,0-.55,0c-.17,0-.27-.08-.29-.21a4.88,4.88,0,0,1,.15-1l.15-.68,1.23-.18,1.5-.18.58,1.06a2,2,0,0,1,.22.48C62,90.32,62,90.4,61.75,90.44Zm-2-2.21-1.14.13.72-2.93,1.51,2.64Z" transform="translate(0 0)"/><path class="b" d="M49.43,87.05l-.29.19L50,88C50,87.52,49.36,87.7,49.43,87.05Z" transform="translate(0 0)"/><path class="b" d="M50.58,88.59a.24.24,0,0,0,.14-.18l-.54-.19Z" transform="translate(0 0)"/><path class="b" d="M54.23,91.92l.93,0,.06-.06c-.11-.47-.27-1.51-.48-3.1l-.29-2.17A12.67,12.67,0,0,1,54.3,85a.26.26,0,0,1,.16-.22l.62-.13.05-.06-.05-.36L55,84.13c-.36.07-.77.14-1.23.2s-.74.09-1.14.12l0,0,0,.36.06,0a4.58,4.58,0,0,1,.63,0,.24.24,0,0,1,.21.17,13.49,13.49,0,0,1,.29,1.65l.41,3.11q-3-2.58-5.23-4.88l-1.19.19c-.31,0-.63.07-1,.09l0,.06,0,.36.06.05a4.58,4.58,0,0,1,.63,0,.22.22,0,0,1,.21.17,11.77,11.77,0,0,1,.29,1.64l.37,2.82a12.81,12.81,0,0,1,.15,1.66.24.24,0,0,1-.16.22,5.45,5.45,0,0,1-.61.14l0,.06,0,.36.06,0c.41-.08.82-.14,1.22-.19s.74-.09,1.15-.12l.05-.06L50.23,92l-.06,0a4.58,4.58,0,0,1-.63,0,.22.22,0,0,1-.21-.17A11.77,11.77,0,0,1,49,90.2l-.46-3.49.56.53c.2-.29-.4-1-.24-.92l.41.6c.47.16.33-.7.76-.36a1.25,1.25,0,0,1,.12,1.12l.54.46c0-.11.09-.2.09-.33a.72.72,0,0,0-.26-.36c.21.15.27.26.26.36.17.4.14,1,.71,1.42l.39-.13c-.14.13-.13.41,0,.71l.48.44,0-.45a4.19,4.19,0,0,1,.47.86Z" transform="translate(0 0)"/><path class="b" d="M43.27,93.31,43.22,93l-.06,0a4.58,4.58,0,0,1-.63,0,.24.24,0,0,1-.21-.17A13.49,13.49,0,0,1,42,91.12l-.36-2.78c-.11-.84-.18-1.43-.19-1.79a3.82,3.82,0,0,1,.51-.11,2.38,2.38,0,0,1,.95,0,1.21,1.21,0,0,1,.83,1.12,1.62,1.62,0,0,1-.11.92,1.39,1.39,0,0,1-.43.59,1.7,1.7,0,0,1-.8.28h-.18l0,.19a1.74,1.74,0,0,1,.35.29l.71.82,1.61,2a1.21,1.21,0,0,1,.26.4c.39-.08.68-.12.86-.15l.92-.09.2,0,0-.06,0-.34-.06,0a.55.55,0,0,1-.35,0,5.85,5.85,0,0,1-1.13-1.14l-1-1.15c-.24-.28-.47-.56-.68-.84A2.13,2.13,0,0,0,45.27,87a1.93,1.93,0,0,0-.17-.6,1.29,1.29,0,0,0-.66-.58v0l.26.58-.21.43.18-.07c0-.1.25-.12,0,0,0,0,0,0,0,.06l-.42,1-.36-.51c.05-.6.39-.8.28-1.56v0a4.09,4.09,0,0,0-1.35,0c-.26,0-.66.1-1.2.19-.26,0-.62.1-1,.16-.74.09-1.29.16-1.64.18l-.05.06.05.36.06,0,.63,0a.26.26,0,0,1,.21.18,12,12,0,0,1,.28,1.64l.38,2.82A12.81,12.81,0,0,1,40.66,93a.25.25,0,0,1-.16.22l-.62.13,0,.06,0,.37.06,0c.29-.06.77-.14,1.42-.22a1.7,1.7,0,0,0,0-.38l.28-.43c-.62.74-.07-.12-.35.08l.15-.43c-.16-.05-.25.14-.34.2-.05-.41.2-.55.32-.91l-.27-.7c0-1,.56-.62.57-1.51l-.38,0,0-.71c0,1,.38.1.53,1-.37.14-.07.77-.1,1.19.07,0,.16,0,.19-.25,0,.42-.22,1.56-.32,2.51l.1.23c.67-.09,1.18-.14,1.52-.17Z" transform="translate(0 0)"/><path class="b" d="M16,96.5a4.58,4.58,0,0,1-.63,0,.23.23,0,0,1-.21-.18,11.18,11.18,0,0,1-.29-1.64l-.37-2.81a13,13,0,0,1-.15-1.66.22.22,0,0,1,.16-.22,3.71,3.71,0,0,1,.61-.14l.05-.06-.05-.36-.06,0c-.34.06-.88.15-1.63.24s-1.3.17-1.64.19l-.05.05.05.37.06,0,.63,0a.25.25,0,0,1,.2.18A11.47,11.47,0,0,1,13,92.1l.37,2.82a9.81,9.81,0,0,1,.15,1.66.23.23,0,0,1-.15.22l-.62.13,0,.06,0,.36.06.05c.35-.07.9-.16,1.63-.25h0a1.49,1.49,0,0,0-.09-.68l.19-.47c-.47.84-.08-.1-.32.14l.07-.45c-.17,0-.23.18-.31.26-.11-.4.11-.57.16-1l-.39-.64c-.23-1,.44-.71.29-1.59l-.37.09-.14-.7c.19.93.39,0,.7.93-.34.2.07.78.12,1.19.06,0,.16,0,.14-.28.05.41.06,1.57.13,2.53L15,97v0L16.1,97l0-.06,0-.35Z" transform="translate(0 0)"/><path class="b" d="M23.7,90.68A12.67,12.67,0,0,1,23.55,89a.24.24,0,0,1,.16-.22l.61-.13.05-.06-.05-.37-.05,0c-.37.07-.78.14-1.24.2s-.73.09-1.13.12l0,0,0,.36L22,89a4.5,4.5,0,0,1,.63,0,.24.24,0,0,1,.2.17,11.71,11.71,0,0,1,.29,1.65l.41,3.11q-2.62-2.28-4.69-4.35a3.6,3.6,0,0,0-.4,1c0,.07,0,.14,0,.18s-.05-.07,0-.18-.06-.47-.15-.41a.8.8,0,0,1-.12.18.43.43,0,0,1,.12-.18,1,1,0,0,0,0-.1c-.06-.19-.13,0-.22.09,0-.07,0-.31-.11-.21l.25-.55c0-.3-.25-.05-.14-.27l.16-.1c-.31.07-.69.13-1.16.19q-.45.06-1,.09l-.05.06.05.36.06,0a4.5,4.5,0,0,1,.63,0,.23.23,0,0,1,.21.17,12.32,12.32,0,0,1,.28,1.64l.38,2.82A10.66,10.66,0,0,1,17.81,96a.22.22,0,0,1-.15.22,6,6,0,0,1-.62.14l0,.06.05.36.06,0c.4-.08.81-.14,1.22-.2l1.14-.11.05-.06-.05-.36-.06,0a4.5,4.5,0,0,1-.63,0,.22.22,0,0,1-.2-.17,11.77,11.77,0,0,1-.29-1.64l-.46-3.49,2.24,2.11c0-.2.05-.39,0-.45l-.17.21c0-.82.26-.47.45-.86l.09-.3a1.2,1.2,0,0,1-.09.3l0,.09c.43-.16,0,0,.35.19a.86.86,0,0,0-.34.66c.13,0,.2-.33.35-.42a2.08,2.08,0,0,0,0,1l.22-.26a.88.88,0,0,1-.24.38,2.09,2.09,0,0,0,.22.2c.09,0,.15-.09.3.2a.14.14,0,0,0,0,.06c1,.93,1.79,1.64,2.36,2.14l.93,0,.07-.06c-.11-.47-.27-1.51-.48-3.1Z" transform="translate(0 0)"/><path class="b" d="M31.73,87.25l-.06,0q-.47.12-2.28.36l-2.16.28a22.17,22.17,0,0,1-2.3.25l0,.06a5.89,5.89,0,0,1,.17.79l.13.91.07,0,.33,0,.05-.06c0-.2,0-.4,0-.59a.94.94,0,0,1,0-.35.24.24,0,0,1,.1-.1,5.6,5.6,0,0,1,1.11-.2l.76-.1c0,.11.09.6.21,1.48l.4,3a13,13,0,0,1,.15,1.66.23.23,0,0,1-.15.22c-.06,0-.26.07-.62.14l-.05.06.05.36.06,0,.38-.07c.2-.86.67-.41.89-1.25l-.38-.06.15-.7c-.2.93.35.18.27,1.13-.29,0-.29.43-.32.79l.64-.09.92-.11c0-.09,0-.16-.06-.19l-.17.21c0-.4,0-.52.13-.59a.21.21,0,0,1-.07-.11,11.77,11.77,0,0,1-.29-1.64l-.12-.91c-.08,0-.13-.06-.09-.3-.66.36-.07.76-.67,1.32L29,92.7c0-.36-.18-.21-.35-.36.12-.4.5-.93.61-.55l.1-.47a.35.35,0,0,1,.19-.11l-.2-1.49c-.11-.86-.18-1.35-.19-1.48l.72-.09,1-.12a.36.36,0,0,1,.37.21,4.68,4.68,0,0,1,.17.79l.06,0,.34,0,.05-.06-.11-.89A5.7,5.7,0,0,1,31.73,87.25Zm-3.06,3.14,0-.2c-.27-.24-.28,0-.49,0-.24-.34-.41-1-.05-.82L27.8,89c0-.51.38-.08.54-.38.31.13.24.35.37.47-.38-.23-.28.31-.63-.09C27.94,89.77,28.63,89.57,28.67,90.39Z" transform="translate(0 0)"/><path class="b" d="M30.88,94.53l-.17,0a.87.87,0,0,0-.28.5l.14,0a.88.88,0,0,1,.2-.28c0,.11,0,.2-.05.27L31,95l0-.06,0-.36Z" transform="translate(0 0)"/><path class="b" d="M32.4,87.6a4.5,4.5,0,0,1,.63,0,.22.22,0,0,1,.21.17,12.13,12.13,0,0,1,.28,1.62.52.52,0,0,0,.26-.24l.09-.31a2,2,0,0,1-.09.31l0,.09c.42-.16,0,0,.35.19a.82.82,0,0,0-.34.66c.12,0,.2-.33.35-.42a2.09,2.09,0,0,0,0,1l.22-.26a1.34,1.34,0,0,1-.37.53c.38.31.38-.29.66.24-.22.69-.3-.41-.61,0a2.36,2.36,0,0,0-.2.34l.09.68.14,1.2a3,3,0,0,1,0,.72,2.33,2.33,0,0,1-.39.37v.06l0,.15.06,0,.66-.12.14-.31c0-.3-.25,0-.14-.27l.3-.19c0-.29.15-.69,0-.78l-.18.21c0-.82.27-.46.46-.86l.09-.3a1.86,1.86,0,0,1-.09.3l0,.1c.42-.17,0-.06.35.18a.85.85,0,0,0-.34.66c.13,0,.2-.33.35-.42a2.09,2.09,0,0,0,0,1l.22-.26a1.37,1.37,0,0,1-.37.54c.38.31.38-.29.66.24v0L39,93.94l0-.07a12.7,12.7,0,0,1-.11-1.77l-.07,0-.32,0-.05.06,0,.68a1,1,0,0,1-.06.34.13.13,0,0,1-.08.06,7.89,7.89,0,0,1-1.89.38l-.72.1c-.08-.44-.14-.89-.21-1.35l-.21-1.63a6.75,6.75,0,0,1,.72-.12l.7-.07c.29,0,.47,0,.53.09a1.62,1.62,0,0,1,.18.71l.06.05.36-.05,0,0c-.07-.43-.13-.82-.18-1.18s-.08-.69-.12-1.09l-.06,0-.33,0-.05.06a1.6,1.6,0,0,1,0,.73q0,.09-.54.15l-.7.1-.68.07L35,89c-.08-.66-.13-1.18-.14-1.55.31-.07.62-.13.93-.17s.56-.06.91-.07.54,0,.59,0a2.33,2.33,0,0,1,.19.81l.06,0,.31,0,0-.07,0-.5c0-.13,0-.29,0-.48v-.6l-.06,0L34,87c-.74.1-1.3.16-1.66.19l-.05,0,.05.36Zm2.5,2.54-.15.69c0,.07.08.08.12,0l-.16.46c.23-.62-.16-.15-.15-.51Zm-.38-2.88-.15.7a.07.07,0,0,0,.12,0l-.16.45c.23-.62-.16-.15-.15-.51Z" transform="translate(0 0)"/><path class="b" d="M35.2,94.26a.74.74,0,0,0-.1.16h0l.42-.06C35.44,94.23,35.34,94.09,35.2,94.26Z" transform="translate(0 0)"/><path class="b" d="M101.9,85.15a1.43,1.43,0,0,1-.51,0c-.1,0-.22-.15-.36-.38l-3.7-6.27-.76.1c-.13.57-.24,1-.3,1.28l-.93,3.66,0,.13v.47l.34.54-.16.45.16-.08c0-.1,0-.19.06-.31l.15-.68,1.23-.17,1.51-.19.58,1.07a1.85,1.85,0,0,1,.21.48c0,.13-.07.21-.26.25l-.46.08,0,.07,0,.33,0,0c.56-.09,1.16-.19,1.82-.27L102,85.6l0-.06,0-.34Zm-4-3.71a3.12,3.12,0,0,0-.07,1l.36.64c-.27,0-.64.11-1.09.16s-.84.11-1.14.14l.73-2.94.45.8.11-.14c-.08-.29-.1-.71-.27-.74l-.09.26c-.32-.76.08-.53.12-1v.1c.34-.3,0-.06.39,0a.85.85,0,0,0-.08.74c.12,0,.07-.38.18-.52.08.59.13.46.32.91l.11-.32a1.23,1.23,0,0,1-.16.63c.47.16.26-.41.7,0C98.57,82,98.11,81,98,81.44Z" transform="translate(0 0)"/><path class="b" d="M96.39,85.88a4.72,4.72,0,0,1-.55,0c-.17,0-.26-.07-.28-.2a1.25,1.25,0,0,1,0-.31l-.21.72L95,85.65c0-.48.18-.73.15-1.2-.22.85-.36,1.33-.41,1.44s-.28.23-.64.3l-.06.06.05.35.06,0c.57-.1.93-.15,1.08-.17s.61-.07,1.27-.14l0-.06,0-.34Z" transform="translate(0 0)"/><path class="b" d="M76,83.37l-.06-.44a3.61,3.61,0,0,0-.16.42C75.82,83.27,75.9,83.26,76,83.37Z" transform="translate(0 0)"/><path class="b" d="M82.83,87.34l.11-.12.12-.17C82.82,86.9,82.81,87.12,82.83,87.34Z" transform="translate(0 0)"/><path class="b" d="M77,88.06a4,4,0,0,0,3,.65,4.34,4.34,0,0,0,2.64-1.2,3.06,3.06,0,0,0-.53-.71c0,.14-.07.18-.24,0a.26.26,0,0,1,.24,0,5.08,5.08,0,0,1,0-.78c0,1.39.74.08.89,1A4.17,4.17,0,0,0,83.67,84a3.56,3.56,0,0,0-1.41-2.58,4.09,4.09,0,0,0-3-.6,5,5,0,0,0-2.13.74A3.48,3.48,0,0,0,76,82.78c.18-.2.33.22.59.07.19.26,0,.41.08.58-.21-.38-.4.13-.5-.39-.49.57.2.75-.17,1.48l.07-.19c-.12-.35-.25-.14-.45-.23v0a5.11,5.11,0,0,0,0,1.29A3.86,3.86,0,0,0,77,88.06Zm.24-4.92a2,2,0,0,1,1.91-1.7,2.08,2.08,0,0,1,1.94.67,4.37,4.37,0,0,1,.94,2.37,5.49,5.49,0,0,1,0,1.82,2,2,0,0,1-1.84,1.76,2.07,2.07,0,0,1-2-.73,4.78,4.78,0,0,1-1-2.52A4.62,4.62,0,0,1,77.28,83.14Z" transform="translate(0 0)"/><path class="b" d="M87.72,81.31l0,.06a.27.27,0,0,0,.12,0Z" transform="translate(0 0)"/><path class="b" d="M91.82,81.67A9.89,9.89,0,0,1,91.67,80a.22.22,0,0,1,.15-.22,6,6,0,0,1,.62-.14l0-.06,0-.36-.06,0c-.36.07-.77.14-1.23.2L90,79.5l0,.06,0,.36.06,0a4.58,4.58,0,0,1,.63,0,.22.22,0,0,1,.21.17,11.77,11.77,0,0,1,.29,1.64l.41,3.12c-1.37-1.19-2.61-2.33-3.75-3.42a.28.28,0,0,0,0,.08,3.56,3.56,0,0,0,0,1.22,1.46,1.46,0,0,1,.09.16s-.07,0-.09-.16-.21-.43-.28-.34a.69.69,0,0,1,0,.21.43.43,0,0,1,0-.21.33.33,0,0,0,0-.1c-.12-.16-.12,0-.17.16,0-.06-.13-.28-.18-.15l0-.61c-.08-.29-.25,0-.22-.2l.21-.28a4.34,4.34,0,0,0-.15-.62l-.12-.11-.08.25a1.24,1.24,0,0,1-.13-.46l-.3-.31c-.31.07-.71.13-1.19.19-.3,0-.63.08-1,.1l0,.06,0,.36.06,0,.63,0a.25.25,0,0,1,.21.18,11.47,11.47,0,0,1,.29,1.64l.37,2.82A12.67,12.67,0,0,1,85.93,87a.23.23,0,0,1-.15.22l-.62.13,0,.06,0,.37.06,0c.41-.08.82-.14,1.23-.2s.73-.08,1.14-.12l0,0,0-.36-.06,0a4.5,4.5,0,0,1-.63,0,.24.24,0,0,1-.21-.17,12.26,12.26,0,0,1-.28-1.65l-.47-3.48c1,1,1.9,1.79,2.68,2.51.15-.06.29.25.52.12a.45.45,0,0,1,.08.43c1,.93,1.8,1.65,2.37,2.14l.93,0,.06-.06c-.11-.48-.27-1.51-.48-3.11Zm-2.33,3.21h.23l0,.24Zm.82.15.09-.74.1.7c0,.06.1.05.12,0v.48C90.63,84.79,90.43,85.37,90.31,85Z" transform="translate(0 0)"/></g></svg>