<svg xmlns="http://www.w3.org/2000/svg" width="2.35in" height="1.38in" viewBox="0 0 169.33 99.7"><defs><style>.a{opacity:0.45;}.b{fill:#195a57;}</style></defs><title>passport-stamp-final-2</title><g class="a"><path class="b" d="M64.16,29.15A6.05,6.05,0,0,0,62,28.22c-.34-.1-.69-.18-1-.27-.7-.16-1.47-.36-2.33-.6-.35-.09-.72-.21-1.1-.34l-.07,0-.11.37,0,.07a6.38,6.38,0,0,1,.63.24.24.24,0,0,1,.14.25,13.66,13.66,0,0,1-.4,1.73l-.76,2.8-.36,1.23a3,3,0,0,1-.26.72,2,2,0,0,1-.53.2l0,.06,0,.16,0,.07a12.84,12.84,0,0,1,1.32.32l1.94.57a5.71,5.71,0,0,0,2.22.24,4.3,4.3,0,0,0,.81-.16c.24-.77.92-.73,1.3-1.71,0-.42-.43.39-.28-.06.19,0,.23-.63.4-1,.34,0,.43.64.73.5l-.15-.58c.49-.17,0-.55.46-.79l-.24-.1c.27,0,.45-.67.48-.54l-.2.51c.08.34.51,0,.54.27a3.79,3.79,0,0,0,0-1.78A2.91,2.91,0,0,0,64.16,29.15Zm-.83,3.43a4.78,4.78,0,0,1-1,1.88,2.54,2.54,0,0,1-1.41.89,4.17,4.17,0,0,1-1.82-.16,6.21,6.21,0,0,1-1-.35,8.42,8.42,0,0,1,.25-1.08l.64-2.41c.44-1.58.73-2.58.88-3a7.69,7.69,0,0,1,1,.2,5.32,5.32,0,0,1,1.49.59,2.09,2.09,0,0,1,.8.87A3.47,3.47,0,0,1,63.33,32.58Z" transform="translate(0 0)"/><path class="b" d="M64.19,34.57a4.89,4.89,0,0,0,.91-1.79c0-.09,0-.17.05-.25a1,1,0,0,1-.63.48l-.06.54c.06-.07.17,0,.25-.09a.56.56,0,0,0,.11-.32c0,.2,0,.28-.11.32-.19.27-.55.49-.61,1Z" transform="translate(0 0)"/><path class="b" d="M63.41,34.62a3.43,3.43,0,0,0-.45,1l.07,0a3.42,3.42,0,0,0,.4-.26C63.55,34.94,63.64,34.64,63.41,34.62Z" transform="translate(0 0)"/><path class="b" d="M75.47,31.94q-1.12-.3-1.65-.48l-.08,0-.1.36,0,.08a5.14,5.14,0,0,1,.63.23.24.24,0,0,1,.13.25,11.51,11.51,0,0,1-.39,1.73l-.8,2.92a12.58,12.58,0,0,1-.54,1.69.25.25,0,0,1-.24.15l-.66-.11-.08,0-.1.37,0,.06,1,.26a2.33,2.33,0,0,0,.22-.56c.29.06.31.35.26.68l.19.06.16,0a2.48,2.48,0,0,1,.1-.38.87.87,0,0,0-.22-.34l-.15.11c0-.14.09-.15.15-.11a4,4,0,0,0,.72-1.71h-.07a17.4,17.4,0,0,0,.51-3.26l.41.17a5.71,5.71,0,0,1-.4,2.12c0,.21.12.15.24.09.19,1.37-.61,1.1-.58,2.38h.07A1.38,1.38,0,0,1,74,39.89l1.14.34.07,0,.1-.36,0-.08-.74-.26a.25.25,0,0,1-.13-.26,12.08,12.08,0,0,1,.39-1.73l.8-2.91q.47-1.68.54-1.8a6.73,6.73,0,0,1,.68.12c.93.25,1.25.89,1,1.92a1.7,1.7,0,0,1-.64,1,1.17,1.17,0,0,1-1,.15,1.36,1.36,0,0,1-.41-.19l-.15.09a2.07,2.07,0,0,1,.09.45,3.27,3.27,0,0,0,.65.26,2.78,2.78,0,0,0,1.92-.16,2.22,2.22,0,0,0,1.26-1.56,1.88,1.88,0,0,0,0-1c-.16-.6-.74-1-1.75-1.31l-1-.26Z" transform="translate(0 0)"/><path class="b" d="M66.87,33.48l-.18.66a2,2,0,0,0,.46-.71C67.12,33.15,67,33.4,66.87,33.48Z" transform="translate(0 0)"/><path class="b" d="M66.67,37.87l4,1.13.07,0a13.24,13.24,0,0,1,.62-1.79l0-.07L71,37l-.07,0-.32.65a1,1,0,0,1-.2.3.15.15,0,0,1-.1,0,8.85,8.85,0,0,1-2-.41l-.75-.21c.1-.46.22-.93.35-1.41l.46-1.68a6.35,6.35,0,0,1,.76.18c.25.07.49.14.71.22s.45.21.49.3a1.72,1.72,0,0,1-.12.78l0,.07.37.1.07,0c.11-.45.21-.86.31-1.23s.21-.71.34-1.12l0-.07-.35-.1-.07,0a1.7,1.7,0,0,1-.32.72s-.25,0-.59-.08l-.73-.19-.7-.22.32-1.14a13.48,13.48,0,0,1,.5-1.59c.33.06.66.14,1,.23a9.63,9.63,0,0,1,.92.3c.35.12.53.22.56.28a2.26,2.26,0,0,1-.14.88l0,.07.32.09.07,0,.18-.5c0-.13.11-.3.18-.48l.24-.6-.05-.06-3.95-1c-.78-.22-1.35-.38-1.71-.51l-.07,0-.11.37,0,.07.64.23a.27.27,0,0,1,.13.26,14.07,14.07,0,0,1-.4,1.73l-.29,1.07c.16-.11.21-.65.37-1,.33,0,.42.64.72.5l-.15-.58c.49-.17,0-.56.46-.8l-.24-.1c.27,0,.45-.66.48-.53l-.2.5c.09.37.57-.08.54.33a.89.89,0,0,1-.65.54l-.07.54c.06-.07.17,0,.25-.08a.54.54,0,0,0,.11-.32c0,.2,0,.28-.11.32-.19.27-.55.49-.6,1l.24.2c-.28-.07-.67.47-.76.93l.51-.37c-.16.45-.57.91-.64,1.17-.71-.23.49-1.75,0-1.81a7.56,7.56,0,0,0-.6,1.32.76.76,0,0,0,.18.37.65.65,0,0,1,.16-.09c0,.13-.11.14-.16.09a3,3,0,0,0-.67.94,2.57,2.57,0,0,1-.21.57l0,0a.25.25,0,0,1,0,.07h.07a3.35,3.35,0,0,0-.21.47Z" transform="translate(0 0)"/><path class="b" d="M118.72,47.44a4.58,4.58,0,0,0,.17-1c-.24-.3-.42-.7-.74-.55l.24,1c-.82.28,0,.93-.78,1.34l.4.16c-.45,0-.76,1.13-.81.91l.35-.85c-.13-.53-.74-.07-.89-.34a4.19,4.19,0,0,1-.67,1.08,2.52,2.52,0,0,1-1.41.88,4,4,0,0,1-1.82-.15,6.21,6.21,0,0,1-1-.35,10.73,10.73,0,0,1,.25-1.08l.65-2.42c0-.13.07-.26.11-.39-.28,0-.5,0-.74,1.18-.18-.76-.37-1.53.41-2.07,0,.54.18.59.42.54.32-1.15.55-1.9.67-2.23a7.32,7.32,0,0,1,1,.19,5.89,5.89,0,0,1,1.5.59,2.16,2.16,0,0,1,.8.87,3.53,3.53,0,0,1,.09,2.55,1.09,1.09,0,0,1,0,.17,1.56,1.56,0,0,1,.84-.49l.11-.92c-.1.12-.27.06-.41.14a.94.94,0,0,0-.2.54c0-.34.09-.48.2-.54.3-.43.85-.78,1-1.6a3,3,0,0,0-.3-.4l-.09-.07h0a3.45,3.45,0,0,0-.28-.26,6.18,6.18,0,0,0-2.11-.93l-1-.26L112.3,42c-.35-.1-.72-.21-1.1-.34l-.07,0-.1.38,0,.07a5.14,5.14,0,0,1,.63.23.26.26,0,0,1,.13.26,14.07,14.07,0,0,1-.4,1.73l-.76,2.79-.36,1.24a2.69,2.69,0,0,1-.26.71,1.82,1.82,0,0,1-.53.21l0,.06,0,.15,0,.07c.36.07.8.18,1.33.33l1.94.56a5.66,5.66,0,0,0,2.21.25,4.31,4.31,0,0,0,3.77-3.31Z" transform="translate(0 0)"/><path class="b" d="M78.63,40.43c-.12.11-.37.12-.76,0l-.08,0-.09.36,0,.06,1.13.27,1.3.4.07,0,.1-.36,0-.07-.55-.19c-.17-.08-.23-.18-.19-.32a4,4,0,0,1,.53-.89l.43-.6,1.28.33,1.56.44.13,1.29a2.09,2.09,0,0,1,0,.56c0,.13-.16.17-.36.13l-.49-.1-.07,0-.1.35,0,.07,1.89.48,1.47.44.07,0,.09-.36,0-.07a1.56,1.56,0,0,1-.51-.21c-.08-.06-.14-.23-.18-.53L85,39.63l-.26.87c-.09-.1,0-.38-.15-.34.18-.19.22-.74.36-.87l-.12-.91a2.31,2.31,0,0,0-.4,1.09c-.17-.71-.34-1.43.28-2l-.44-3.23-.78-.21-.83,1.13L80.23,38.4C79.29,39.65,78.75,40.33,78.63,40.43Zm6.3,1.1.07.32c0,1.14-.64.61-.81.8Zm-1.27-6.29,0,.08-.22.56Zm.18.72c0,.61-.29,0-.38.52C83.25,36.21,83.73,36.09,83.84,36Zm-1,0,.39,3.21c-.29-.07-.67-.16-1.14-.29L81,38.56Z" transform="translate(0 0)"/><path class="b" d="M100.36,41.12c.24-.9.39-1.41.43-1.53l.74.2c.62.17,1,.27,1,.3a.38.38,0,0,1,.28.35,6.09,6.09,0,0,1-.16.85l0,.06.35.1.07,0,.27-.92a5.32,5.32,0,0,1,.3-.82l0-.07c-.34-.06-1.13-.25-2.39-.6l-.79-.21c-.33,0-.59-.19-.86,1.17a2.62,2.62,0,0,1-.09-1.43l-.49-.14c-1.37-.37-2.15-.61-2.36-.7l-.07,0a7.35,7.35,0,0,1-.15.84l-.25,1,0,.07.35.09.07,0c.07-.2.14-.4.22-.58a1.09,1.09,0,0,1,.18-.34.23.23,0,0,1,.14,0,5.05,5.05,0,0,1,1.17.25l.79.22c0,.11-.16.63-.4,1.53l-.86,3.14a13.13,13.13,0,0,1-.54,1.69.25.25,0,0,1-.24.15,6.47,6.47,0,0,1-.67-.12l-.07,0-.1.38,0,.06c.35.07.92.21,1.71.43l.23.07a1.12,1.12,0,0,1,.2-.17,1.52,1.52,0,0,0,0,.23l.81.23h.2l0,0,.26.08.07,0,.1-.37,0-.07c-.37-.13-.58-.2-.63-.23a.24.24,0,0,1-.13-.26,11.79,11.79,0,0,1,.39-1.73Z" transform="translate(0 0)"/><path class="b" d="M88.32,43.79c.76.21,1.33.38,1.69.5l.06,0,.1-.37,0-.07-.64-.24a.25.25,0,0,1-.13-.25,13.66,13.66,0,0,1,.4-1.73l.79-2.89c.24-.86.42-1.47.56-1.82a2.82,2.82,0,0,1,.54.1,2.26,2.26,0,0,1,.92.42,1.28,1.28,0,0,1,.35,1.44,1.7,1.7,0,0,1-.49.86,1.52,1.52,0,0,1-.66.4,1.8,1.8,0,0,1-.9-.06L90.69,40l-.11.17a1.7,1.7,0,0,1,.24.43l.35,1.1.75,2.66a1.52,1.52,0,0,1,.09.49c.41.09.71.16.9.22s.44.12.94.28l.2.06.07,0,.1-.35,0-.07a.65.65,0,0,1-.33-.18,6.05,6.05,0,0,1-.64-1.59l-.49-1.54c-.12-.37-.23-.74-.33-1.1a2.28,2.28,0,0,0,2.27-1.67,2,2,0,0,0,.08-.66,1.38,1.38,0,0,0-.59-1,4.46,4.46,0,0,0-1.36-.55c-.27-.08-.69-.18-1.25-.31L90.44,36c-.77-.21-1.34-.38-1.69-.5l-.07,0-.1.38,0,.07a5.14,5.14,0,0,1,.63.23.26.26,0,0,1,.13.26,14.07,14.07,0,0,1-.4,1.73l-.79,2.92a13.13,13.13,0,0,1-.54,1.69.26.26,0,0,1-.25.15,6,6,0,0,1-.66-.12l-.07,0-.1.37,0,.07C87,43.43,87.53,43.57,88.32,43.79ZM93.89,38l0,.08-.22.56Zm-3.9,1c0,.6-.29,0-.38.52C89.4,39.29,89.88,39.17,90,39.05Zm-.46-.41-.36,1.21c-.1-.1,0-.39-.16-.34C89.24,39.26,89.25,38.43,89.53,38.64Zm-.18,2.23.08.33c0,1.13-.65.61-.82.8Z" transform="translate(0 0)"/><path class="b" d="M104.35,39.81l-.07,0-.1.38,0,.07a5.14,5.14,0,0,1,.63.23.24.24,0,0,1,.13.25,11.51,11.51,0,0,1-.39,1.73l-.77,2.8-.35,1.23a3.63,3.63,0,0,1-.26.72,2.17,2.17,0,0,1-.53.21l-.05,0,0,.16,0,.07.16,0c.1-.12.2-.22.29-.1s0,0-.12.14l1.09.28,4,1.13.07,0a11.85,11.85,0,0,1,.62-1.78l0-.08-.34-.09-.07.05-.32.65a1,1,0,0,1-.19.3.18.18,0,0,1-.11,0,9.06,9.06,0,0,1-2-.41l-.75-.2q.16-.69.36-1.41l.46-1.69.76.18c.25.07.49.15.71.23s.45.2.49.3a1.92,1.92,0,0,1-.12.78l0,.07.37.1.07,0c.1-.44.21-.85.31-1.22s.2-.72.33-1.13l0-.07-.34-.09-.07,0a1.85,1.85,0,0,1-.32.71c-.06,0-.26,0-.6-.07l-.72-.19-.7-.22.31-1.15c.19-.68.36-1.21.5-1.59.34.07.66.14,1,.23a9.74,9.74,0,0,1,.93.3,1.5,1.5,0,0,1,.56.28,2.62,2.62,0,0,1-.15.88l0,.07.32.09.07,0,.18-.51c0-.13.11-.29.19-.48l.24-.59,0-.06-4-1C105.29,40.1,104.72,39.93,104.35,39.81Zm.42,6c-.07-.26-.13-.51-.31-.32l-.16.22a.89.89,0,0,1,.16-.22l.17-.24C104.57,45.65,105.13,45.25,104.77,45.85Zm3.32-1.2-.06.07.27-.4c.29.6-.23.25-.15.88l-.25.17Zm-2.53-1.85h0l0,.06c0,.09,0,.14,0,.08l0-.08s0,0,0-.06l-.49,0a1.3,1.3,0,0,1,.46-.38l0-.08v-.06l-.49,0a1.7,1.7,0,0,1,.75-.52.6.6,0,0,0-.26.48h0v.06a.2.2,0,0,0,0,.07,2,2,0,0,1,.27-.12C105.63,42.4,105.58,42.64,105.56,42.8Z" transform="translate(0 0)"/><path class="b" d="M66.2,46.64c1.52.42,2.61-.64,3.11-2.48.45-1.63.21-3.22-1.38-3.66s-2.65.74-3.12,2.47S64.66,46.22,66.2,46.64Zm0-3.29c.36-1.39.89-1.94,1.4-1.8s.66.93.29,2.24-.84,2-1.39,1.81S65.83,44.71,66.22,43.35Z" transform="translate(0 0)"/><path class="b" d="M92.56,52c1.07-.53,2-1.13,2.28-2.13a1.92,1.92,0,0,0-1.58-2.44,3.37,3.37,0,0,0-2.11.08l.12,1.11a2.18,2.18,0,0,1,1.41-.15.88.88,0,0,1,.74,1.14c-.21.69-1,1.18-2.65,2l-1,.49-.24.84,4.23,1.15.31-1.14-2.24-.61v0Z" transform="translate(0 0)"/><path class="b" d="M98.5,48.86c-1.54-.42-2.64.75-3.11,2.47s-.16,3.25,1.38,3.67,2.61-.64,3.11-2.48C100.33,50.89,100.1,49.3,98.5,48.86Zm0,3.3c-.37,1.35-.85,2-1.39,1.8s-.69-.89-.31-2.25.89-1.94,1.41-1.8S98.85,50.84,98.49,52.16Z" transform="translate(0 0)"/><polygon class="b" points="102.87 56.56 104.5 50.61 103.35 50.3 101.57 50.6 101.51 51.7 102.8 51.47 102.82 51.48 101.53 56.2 102.87 56.56"/><path class="b" d="M110.12,53.38l.31-1.15-3.28-.89L106.07,54c.28,0,.49-.2.55-1.19.27.06.4-.25.51-.56a.86.86,0,0,1,.2-.43,1.33,1.33,0,0,0-.2.43,9.39,9.39,0,0,1-.21,1.78h-.7c0,.31.18.32.26.48l.25.07c1.19.32,1.57.83,1.4,1.44s-.86.74-1.44.59a3.56,3.56,0,0,1-1.26-.66l-.53,1a3.74,3.74,0,0,0,1.56.79c1.6.44,2.82-.28,3.13-1.39a2.36,2.36,0,0,0,.07-.58l-1,.57a2.15,2.15,0,0,0,.73-1c0,.34.12.35.26.36a1.61,1.61,0,0,0-.39-1,2.91,2.91,0,0,0-1.45-.86,1.8,1.8,0,0,0-.39-.08l.38-.88Zm-1.49,1.56.22.34-.29.51Z" transform="translate(0 0)"/><path class="b" d="M63.25,41.33l.51-1.86-1.15-.32-1.78.31,0,1.1,1.28-.23h0l-1.29,4.71,1.35.37.1-.39c0-.36-.05-.73-.18-.76.32-.42.46-.54.54-.54l.26-1c-.28-.48-.21-1.71-1-.4C62.34,41.09,62.88,41.47,63.25,41.33ZM62.31,43l-.83,1.11,0-.15C61.76,43.63,62,42.39,62.31,43Z" transform="translate(0 0)"/><path class="b" d="M77.59,46.17a4.14,4.14,0,0,0,.09-.46,3.16,3.16,0,0,0-.48,1.41A3.77,3.77,0,0,0,77.59,46.17Z" transform="translate(0 0)"/><path class="b" d="M77.61,44.4a2.57,2.57,0,0,0-.43-.84,4.13,4.13,0,0,0-2.35-1.35,13.34,13.34,0,0,0-1.92-.39l-1.66,6.07a13.84,13.84,0,0,0,1.56.52,4.56,4.56,0,0,0,3.07,0,2.79,2.79,0,0,0,1.09-.9h-.48l.55-.6-.38-1c.33.22.73-.41.83-1.11l-.76.26A1.93,1.93,0,0,1,77.61,44.4Zm-1.52,1.41a2,2,0,0,1-2.68,1.59,2.45,2.45,0,0,1-.48-.16l1.11-4a2.92,2.92,0,0,1,.65.11A1.83,1.83,0,0,1,76.09,45.81Z" transform="translate(0 0)"/><path class="b" d="M80,43.68l-.73-.2-1.69,6.18,3.94,1.07.31-1.14-2.54-.69.4-1.47,2.27.62.32-1.13L80,46.29,80.39,45l2.41.66.32-1.14-2.61-.72a2.86,2.86,0,0,0-.34,1.53l-.7,0,.54-.6-.37-.95C79.77,43.86,79.91,43.81,80,43.68Z" transform="translate(0 0)"/><path class="b" d="M83,47.92a3,3,0,0,0,2.39,4,4,4,0,0,0,1.66.17l.09-1.15A3.59,3.59,0,0,1,86,50.8a1.9,1.9,0,0,1-1.47-1.4,2.68,2.68,0,0,0-.14,1h-.7l.55-.6-.38-1c.25.17.54-.15.71-.62h0s0,0,0,0a2.18,2.18,0,0,0,.11-.44l-.76.25a2.3,2.3,0,0,1,1.17-.79,2.19,2.19,0,0,1,.23-.21l-.18-.74c.4-.63.44.1.73.17l-.47.32a1.24,1.24,0,0,1,0,.16,2,2,0,0,1,1.65-.19,3,3,0,0,1,1.11.55l.59-1a3.85,3.85,0,0,0-1.45-.7A3.27,3.27,0,0,0,83,47.92Z" transform="translate(0 0)"/><path class="b" d="M103.06,69.32c.89-3.24-.34-6.47-4-7.46-3.46-1-6.43,1.07-7.39,4.59-.92,3.34.4,6.53,3.89,7.48S102,73.17,103.06,69.32Zm-8.52-2.16c.62-2.28,2.13-3.7,3.93-3.21s2.34,2.59,1.76,4.69c-.62,2.28-2.11,3.71-3.91,3.22S93.91,69.46,94.54,67.16Z" transform="translate(0 0)"/><path class="b" d="M81.54,70l.51.12A5.55,5.55,0,0,0,82.41,69l-1.25.93Z" transform="translate(0 0)"/><path class="b" d="M83.06,70.34a11.44,11.44,0,0,0,1.38.13c.36-.91.67-1.81.93-2.39a3.89,3.89,0,0,1-1.65.2A21.34,21.34,0,0,1,83.06,70.34Z" transform="translate(0 0)"/><path class="b" d="M87.64,62.21A23.4,23.4,0,0,0,88.58,60l-.29-.06c.07-.12.12-.25.18-.37a10.43,10.43,0,0,0-3.09-1.3,24.33,24.33,0,0,0-3.65-.74L78.57,69a21.34,21.34,0,0,0,2.12.75,17.14,17.14,0,0,1,1.14-2l-.06,0,2.1-7.68a5.77,5.77,0,0,1,1.23.22A3.83,3.83,0,0,1,87.64,62.21Z" transform="translate(0 0)"/><path class="b" d="M90.62,65.75a5.58,5.58,0,0,0-.35-4.31,6.88,6.88,0,0,0-2.06,4.45l.28.06a5.56,5.56,0,0,1-1.92,4.3,4.2,4.2,0,0,0,.8-.28A6.16,6.16,0,0,0,90.62,65.75Z" transform="translate(0 0)"/><path class="b" d="M114.54,72.38a.72.72,0,0,0-.3.07l.14.53Z" transform="translate(0 0)"/><path class="b" d="M113,77.88l-.06,0,0,0Z" transform="translate(0 0)"/><path class="b" d="M116.05,66.87l0-.16L113.65,66l-.94,3.43a45.43,45.43,0,0,0-1.11,5l0,0a34.83,34.83,0,0,0-.82-4.54l-1.26-5-3.1-.85-3.21,11.74,2.44.67,1-3.54c.52-1.92.94-3.58,1.29-5.15h.06a46.5,46.5,0,0,0,.9,4.7l1.27,5.22,2.75.75h0c-.37-1.45-2.29.31-2.17-1.31A3.66,3.66,0,0,1,113.3,75l.26-2.15c-.24.27-.67.14-1,.34a2.37,2.37,0,0,0-.45,1.26c0-.8.22-1.11.45-1.26.75-1.08,2.18-1.94,2.42-4.12l-1-.76C114.64,68.43,115.43,67.78,116.05,66.87Z" transform="translate(0 0)"/><path class="b" d="M60.78,64.14A5.77,5.77,0,0,0,62.11,64C61.9,63.27,61.63,62.84,60.78,64.14Z" transform="translate(0 0)"/><path class="b" d="M59,63.92a7.07,7.07,0,0,0,1.73.22c1.41-3.31,3.09.32,3.33-3.9.52.12.76-.48,1-1.05a2,2,0,0,1,.26-.63,6.74,6.74,0,0,0-.26.63,17.61,17.61,0,0,1-.4,3.38l-1.32,0a1,1,0,0,0,.4.8,6.7,6.7,0,0,0,2.75-4c.88-3.24-.35-6.48-4-7.46s-6.44,1.06-7.4,4.58C54.19,59.78,55.51,63,59,63.92Zm-1.07-6.77c.62-2.29,2.14-3.71,3.93-3.22s2.34,2.59,1.77,4.7c-.63,2.28-2.12,3.71-3.91,3.22S57.29,59.44,57.92,57.15Z" transform="translate(0 0)"/><path class="b" d="M69,66.44l1-3.53c.52-1.92.94-3.58,1.3-5.15h0a44.07,44.07,0,0,0,.91,4.71l1.27,5.21,2.78.76,3.21-11.74L77,56l-.94,3.43A45.8,45.8,0,0,0,75,64.41h-.06a34.8,34.8,0,0,0-.81-4.54,6.31,6.31,0,0,0-.82,2.72c-1.17.55-.64-2.61-1.2-2.74,1.56-2.05.82-.41,1.91-.42l-1.15-4.54L69.76,54,66.55,65.78ZM71.19,55c0,1.09.63.41,1.18.54-.74,1.2-1.18-.54-1.65,1.82C70.51,56.48,70.29,55.61,71.19,55Z" transform="translate(0 0)"/><path class="b" d="M53.77,59.88l-.22-.05a.5.5,0,0,0,.21.09Z" transform="translate(0 0)"/><path class="b" d="M53.68,60.2,52,61.14a5.4,5.4,0,0,0,1.17-1.41L49.1,58.61l2.6-9.51L49,48.37,45.83,60.11l7.33,2Zm-6.45-1.51-.07-.29c.62-.68,1.08-3,1.65-1.82Z" transform="translate(0 0)"/><path class="b" d="M71.78,10.41c-.41,1-.85,2.19-1.2,3.23h0c-.13-1.1-.35-2.27-.58-3.36s-.51-2.1-.78-3.15c-1-.07-2-.12-3.06-.16q-.51,4.6-1,9.22,1,0,2,.09c.11-1.17.23-2.34.35-3.5s.26-2.57.39-3.82h0c.17,1.22.43,2.56.68,3.66s.53,2.43.79,3.64l1.66.13c.49-1.16,1-2.33,1.49-3.49s1-2.31,1.45-3.46h0c-.14,1.34-.23,2.68-.31,3.79s-.15,2.36-.22,3.54l2.07.23q.31-4.62.58-9.25c-1-.12-2-.22-3-.32Q72.44,8.92,71.78,10.41Z" transform="translate(0 0)"/><path class="b" d="M77.16,17.22l2.12.31c.47-3.05,1-6.09,1.42-9.14q-1.14-.18-2.28-.33Z" transform="translate(0 0)"/><path class="b" d="M95.67,11.54a18.08,18.08,0,0,0-3-.59q-1.12,4.43-2.24,8.85l2,.53c.32-1.17.64-2.34,1-3.51l.64.17c.86.26,1.17.68,1.1,1.86a10.92,10.92,0,0,0,0,2.25l2.08.64c-.06-.4,0-1.64,0-2.72a2.29,2.29,0,0,0-.74-2v0a2.52,2.52,0,0,0,2.33-1.67,2.24,2.24,0,0,0-.31-2.13A5.36,5.36,0,0,0,95.67,11.54Zm1.06,3.26c-.23.78-1,1.09-2.07.79l-.84-.23c.22-.82.44-1.64.67-2.46a5.81,5.81,0,0,1,1,.2C96.49,13.4,97,14,96.73,14.8Z" transform="translate(0 0)"/><path class="b" d="M109.68,26.42l3-6.85c.83.37,1.67.74,2.49,1.13l.75-1.59C113.59,18,111.19,17,108.78,16c-.22.54-.44,1.09-.65,1.63q1.25.5,2.49,1l-2.91,6.91C108.37,25.85,109,26.14,109.68,26.42Z" transform="translate(0 0)"/><path class="b" d="M115,28.92l4.15-8.27c-.69-.35-1.39-.69-2.08-1l-4,8.35Z" transform="translate(0 0)"/><path class="b" d="M130.08,37.9l1.85,1.32q2.72-3.73,5.44-7.48c-.58-.42-1.16-.84-1.75-1.25l-1.55,2.22A31.12,31.12,0,0,0,132,36l0,0a22,22,0,0,0,.49-3.53c.06-1.32.11-2.65.14-4L130.32,27l-4.93,7.83,1.66,1.07,1.53-2.33c.82-1.27,1.51-2.37,2.13-3.43h0c-.18,1.18-.3,2.53-.37,3.68C130.3,35.17,130.2,36.54,130.08,37.9Z" transform="translate(0 0)"/><path class="b" d="M55.21,12.72c0-1.15,0-2.58,0-3.83h0c.29,1.19.69,2.5,1,3.57s.78,2.36,1.15,3.55l1.68,0c.37-1.21.75-2.41,1.15-3.62s.78-2.4,1.1-3.58h.05c0,1.34,0,2.69.07,3.8l.12,3.54,2.1,0q-.1-3.15-.23-6.31c-.26-.2-.5-.38-.75-.19.19.32.38.64.56,1-.84.51.27,1-.49,1.6l.49.07a.44.44,0,0,1,.27,0l-.27,0c-.49.11-.51,1.36-.63,1.15.05-.32.09-.65.14-1-.35-.6-1,.41-1.17-.32a1.67,1.67,0,0,1,1-1.25c0-.33-.09-.65-.14-1-.08.15-.3.14-.43.26a1,1,0,0,0-.05.61c-.09-.35,0-.51.05-.61.22-.56.8-1.1.64-2.09l-.57-.23c.35,0,.68-.44.86-1-.87,0-1.73,0-2.6,0-.36,1-.71,2.05-1.06,3.08s-.63,2.26-.88,3.34h0c-.23-1.08-.57-2.23-.91-3.29s-.71-2-1.08-3.06q-1.54.06-3.09.15-.06,4.64-.07,9.27l2-.11C55.2,15.07,55.21,13.89,55.21,12.72Z" transform="translate(0 0)"/><path class="b" d="M85.73,18.81a10.69,10.69,0,0,0,2.18.21A3.71,3.71,0,0,0,89,17.21c-.17-.76-.71.78-.53-.06.35-.08.3-1.2.53-1.9.28,0,.5.19.71.41L90,14.25c-1.18-.29-2.37-.55-3.57-.8l-.33,1.6,1.46.31c-.14.63-.27,1.26-.41,1.89a2.74,2.74,0,0,1-1.07-.09,2.89,2.89,0,0,1-2.36-2.09,1.73,1.73,0,0,1-.92.81c0,.33,0,.66,0,1,.09-.14.29-.11.43-.23a1,1,0,0,0,.11-.6c0,.37,0,.52-.11.6-.13.28-.35.54-.52.86A6.38,6.38,0,0,0,85.73,18.81Z" transform="translate(0 0)"/><path class="b" d="M81.42,13.3a4.49,4.49,0,0,0,.77,3.55l.25.3a.35.35,0,0,0,.16-.06l-.45-1c.85-.45-.19-1,.6-1.56l-.48-.1a.45.45,0,0,1-.26-.06l.26.06c.5-.08.61-1.32.72-1.1-.08.32-.15.64-.22,1,.2.44.63.12.9.14a3.42,3.42,0,0,1,.06-.83c.35-2,1.94-2.69,3.79-2.3a5.75,5.75,0,0,1,2.19.89l.85-1.52a7.35,7.35,0,0,0-2.65-1.06C84.64,8.92,81.92,10.27,81.42,13.3Z" transform="translate(0 0)"/><path class="b" d="M88.92,19l.24-1L89,18A3.29,3.29,0,0,0,88.61,19Z" transform="translate(0 0)"/><path class="b" d="M49,12.46a.35.35,0,0,0,.31-.12c-.12-.13-.24-.27-.35-.41C49,12.11,49,12.28,49,12.46Z" transform="translate(0 0)"/><path class="b" d="M48.52,7.44c0,.39.07.77.11,1.16l0,0,0,.41.06.59c.45.45,1-.58,1.22.1a1.67,1.67,0,0,1-.74,1.39c.11.32.21.63.32.94,0-.16.27-.19.37-.33a1,1,0,0,0,0-.61c.15.33.13.5,0,.61-.11.59-.57,1.22-.23,2.17l.58.12c-.54.12-.81,1.3-.58,2.12l.57-1a5.82,5.82,0,0,1-.1,1.44l1.42-.12c-.24-3.07-.48-6.15-.71-9.22C50.07,7.3,49.3,7.36,48.52,7.44Z" transform="translate(0 0)"/><path class="b" d="M97.85,21.93l.26.08a2.85,2.85,0,0,0,.69-1.42C98.48,21,98.17,21.48,97.85,21.93Z" transform="translate(0 0)"/><path class="b" d="M100,22.62c.47-.68.94-1.35,1.42-2,.86.3,1.73.61,2.58.93,0,.83-.09,1.66-.15,2.48.72.27,1.43.55,2.14.84q.38-4.84.52-9.73c-.94-.35-1.89-.69-2.83-1l-.5.64v.15c.11-.12.32-.05.48-.14a.93.93,0,0,0,.2-.58c0,.37-.08.51-.2.58-.35.48-1,.87-1.11,1.87L103,17c-.54-.12-1.27.85-1.4,1.69l.94-.67c-.27.81-1,1.65-1.15,2.12-1.18-.36.29-2.47,0-3.1-.32.42-.64.86-1,1.29a8.93,8.93,0,0,1-.36.92,1.57,1.57,0,0,0,.36.68,1.28,1.28,0,0,1,.29-.17c-.09.24-.19.26-.29.17A6,6,0,0,0,99,22.29Zm3.43-5.05c.34-.45.71-1.06,1-1.53h0c0,.57-.11,1.27-.13,1.85s-.07,1.37-.11,2.05l-2-.73Z" transform="translate(0 0)"/><path class="b" d="M125,31.19l-.24.75a5.12,5.12,0,0,0,1.37-1.13A1.74,1.74,0,0,1,125,31.19Z" transform="translate(0 0)"/><path class="b" d="M125.36,29.9l-.42-.28a.34.34,0,0,1-.22-.15l.22.15c.5.11,1-1,1.07-.77l-.55.83c.05.65,1,.17.92.73.09-.13.2-.25.28-.39a4.38,4.38,0,0,0-1.73-6.45,4.54,4.54,0,0,0-6.6,1.94,4.5,4.5,0,0,0,1.77,6.3,5.07,5.07,0,0,0,2.27.68c.24-.34.47-1,.78-1.44.53.12.57,1,1,1.17l.2-.07c0-.34,0-.68-.07-1C125.2,31,124.41,30.14,125.36,29.9Zm-4.35.52c-1.26-.71-1.44-2.25-.58-3.85s2.28-2.35,3.63-1.59,1.4,2.46.55,3.88S122.28,31.14,121,30.42Z" transform="translate(0 0)"/><path class="b" d="M74.06,88.24,80.84,84c4.49.56,8.34.92,9.47.93,2.93,0,5.39-1.46,5.28-2.46S93.91,80.57,91,79.87a87.86,87.86,0,0,0-10-.75c-.16.81-.74.71-.87,1.83l.07,0c-.08,1.35-1,1.07-1.44,2.26,0,.44.46-.4.3.07-.2,0-.25.66-.43,1-.31,0-.42-.54-.67-.54,0,.19.17,0,.12.23-.07-.11-.09.16-.1.11s0-.19-.07-.25v0l.13.51c-.51.18,0,.58-.48.83l.24.1c-.27,0-.46.69-.49.56l.21-.53c-.1-.38-.6.09-.57-.34a1,1,0,0,1,.69-.56l.07-.56c-.06.07-.17,0-.26.08a.55.55,0,0,0-.12.33c0-.21.06-.29.12-.33.2-.28.57-.51.63-1.08l-.26-.2c.29.07.71-.49.8-1l-.53.39a2.44,2.44,0,0,1,.21-.43c0-.06,0-.1.07-.13a3,3,0,0,0,.38-.66c.75.24-.51,1.82.06,1.88a7.4,7.4,0,0,0,.62-1.37.88.88,0,0,0-.18-.39.5.5,0,0,1-.17.1c.06-.14.12-.15.17-.1a4,4,0,0,0,1-1.66h-.07a2.59,2.59,0,0,0,.14-.29L77.7,79l-14-6.94-2.43.2,8,6.31.18-.19-.19-.47c.16.11.36-.2.41-.55l-.38.13a1,1,0,0,1,.73-.41l-.12-.46c.2-.32.22,0,.37.08l-.24.16c.06.23.1.38.28.28a2.21,2.21,0,0,0-.79,1.55h-.11l.08.06h-.31l-4-.44-4.28-3.5L58,74.51a36.06,36.06,0,0,0,3.46,4.3L59.9,78l1.45,1.7,2.24.82c2.07,1,7.17,2,12.39,2.78l-4.47,4.75ZM91.38,81H92c.08.59-.32.36-.33,1.15l-.15-.32c-.12.62-.52,1-.61.87C91,82,91.45,81.77,91.38,81Zm-1,.78s0-.12.08-.16c-.13.29.15.08.09.3-.07-.11-.09.16-.1.11s0-.18-.07-.25,0,0,0,0A.05.05,0,0,1,90.42,81.75Zm-.6.26-.07.26s0,0,0,0l-.07.16c.09-.22-.06,0,0-.19Zm-.36-.58,0,.18v-.08Zm0,.69,0,.09,0-.13Zm-.08.41a.36.36,0,0,0-.13.25s.08-.12.14-.15a.61.61,0,0,0,0,.35l.08-.09c0,.09-.1.14-.15.19.14.13.15-.1.25.1-.09.26-.11-.16-.23,0a1.11,1.11,0,0,0-.19.41c0-.08,0-.18,0-.16s0,0,0,0,0,0-.08,0,0-.12,0-.08l.1-.21c0-.11-.09,0,0-.1l.11-.06c0-.11.07-.26,0-.29l-.07.07c0-.31.1-.17.18-.31v0C89.46,82.41,89.31,82.44,89.42,82.53ZM89.09,82h0l0-.17c.14-.13.11.09.24.07s-.05.15-.06.22c0-.16-.15,0-.12-.21a.3.3,0,0,0-.1.09h0c-.06.09,0,.21-.12.33,0-.12-.06-.08-.12-.13S89.05,81.82,89.09,82Zm-.33.54c-.15,0-.1.27-.15.42,0,0,0,0,.09-.07,0,.15-.24.54-.37.87l0,.23-.12.14h.07s.1,0,0,0v0l-.25.31L88,84.19c.08-.21.23-.25.26-.53l.15-.13c-.3.2,0,0-.14,0l.1-.14s-.1,0-.14,0c0-.15.13-.18.21-.29l0-.28c.09-.37.26-.17.36-.49l-.14,0,.07-.26C88.59,82.42,88.81,82.15,88.76,82.5ZM87.67,81c.17.1.36-.21.42-.56l-.38.13a1.05,1.05,0,0,1,.72-.41l-.11-.46c.19-.31.22,0,.36.08l-.23.17c0,.22.09.38.27.27a2.16,2.16,0,0,0-.78,1.55h-.35l.27-.3Zm-3.11,1c.14,0,.21-.13.26-.28a4.75,4.75,0,0,1-.11.89h-.34c0,.29.29.07,0,.73-.47.33-.21-1.13-.75-.24C84,82.13,84.5,83.16,84.56,82Zm-5.48-2.11c0,.29.16.11.3.14-.19.32-.3-.14-.43.48C78.9,80.31,78.84,80.08,79.08,79.92Zm-.89,1.89s0-.12,0-.1.07-.33.15-.27Zm.57-2.61a1.38,1.38,0,0,0-.34.86c-.31.15-.17-.68-.31-.72C78.57,78.73,78.25,79.38,78.76,79.2Zm-.52,2.91,0,.1c0,.34-.2.18-.25.24Zm-.91,1.41h0s-.06.06-.09,0h.09a.43.43,0,0,0,0-.07Zm-.24-.44a2,2,0,0,1,.66-.58c0,.16,0,.24-.07.49-.14.08,0-.22-.1-.14s-.1.05-.14.06,0,.15,0,.18l-.19.21,0-.09a1.66,1.66,0,0,0-.29.3l.18-.48S77.11,83.06,77.09,83.08Zm-5.43-6.26c.07-.07,0-.13.13-.16,0,.16-.11.27-.14.4l.07-.23a.07.07,0,0,1-.06,0,.29.29,0,0,1-.1.06C71.6,76.81,71.62,76.82,71.66,76.82Zm-.14,0c0,.09,0,.21-.08.23s0-.15,0-.21Zm-.47,1.55,0,.18,0-.07Zm0,.69,0,.09L71,79Zm-.73.39c-.15,0-.11.27-.16.41s0,0,.09-.07c-.05.15-.23.54-.37.87l0,.24-.12.13h.07s.1,0,0,0,0,0,0,0l-.25.3-.08-.22c.08-.21.22-.24.26-.53l.14-.13c-.29.21,0,0-.13,0l.1-.14s-.11,0-.15,0c0-.16.13-.18.21-.3l0-.28c.08-.36.26-.16.36-.48l-.14,0,.06-.26C70.19,79.32,70.4,79.05,70.36,79.41Zm.32-.55h0l0-.17c.14-.12.11.1.23.08s0,.15,0,.21c0-.16-.16,0-.12-.2a.2.2,0,0,0-.11.08h0c-.06.1,0,.21-.11.34,0-.13-.06-.08-.12-.14S70.65,78.72,70.68,78.86Zm.28,1.2a1.2,1.2,0,0,0-.2.41c0-.08,0-.17,0-.16s0,0,0,0,0,0-.08,0,0-.11,0-.08l.1-.2c0-.11-.09,0,0-.1l.12-.07c0-.11.06-.26,0-.29l-.07.08c0-.31.11-.17.19-.32l0,0c.16-.06,0,0,.13.07a.29.29,0,0,0-.13.24s.07-.12.13-.15a.91.91,0,0,0,0,.36l.09-.09c0,.08-.1.13-.15.19.14.12.15-.1.24.1C71.09,80.34,71.08,79.93,71,80.06Zm.43-.88-.07.17c.1-.23,0-.06,0-.19l.13-.24-.06.25S71.38,79.2,71.39,79.18Zm-.11-.89h.09l0-.06v.06h0S71.31,78.34,71.28,78.29Zm.47-.55c-.13.09,0-.22-.1-.13s-.09,0-.13.06,0,.15,0,.18l-.19.21,0-.09a1.39,1.39,0,0,0-.29.3l.18-.48s-.06,0-.07,0a1.87,1.87,0,0,1,.66-.58C71.8,77.41,71.87,77.5,71.75,77.74Zm.35-.53.22-.34,0,.1C72.34,77.31,72.15,77.15,72.1,77.21Zm1.07,2L73,78.88c-.12.61-.52,1-.61.86.1-.69.54-.88.48-1.68h.61C73.58,78.64,73.18,78.41,73.17,79.19Z" transform="translate(0 0)"/><path class="b" d="M77.91,83.83v0l0,0,0-.09A.1.1,0,0,0,77.91,83.83Z" transform="translate(0 0)"/><path class="b" d="M47.84.62c.21-.12.28-.23.28-.31-.74,0-1.47.11-2.2.18A6.34,6.34,0,0,0,47.84.62Z" transform="translate(0 0)"/><path class="b" d="M47.92,3l2.31-.14a3.8,3.8,0,0,0-2.3.07Z" transform="translate(0 0)"/><path class="b" d="M44.08,3l.55.29,2.16-.2A4.79,4.79,0,0,0,44.08,3Z" transform="translate(0 0)"/><path class="b" d="M52,1c1.13,1.15,1.54-.75,2.85.24l0-.81a.61.61,0,0,1,0-.43l0,.43c.36.76,2.48.36,2.16.62l-1.7.11c-.61.51.07,1,.2,1.45A149.9,149.9,0,0,1,96.06,8.18C130.79,17.67,157.42,37,164.71,56a3.61,3.61,0,0,0,.35-1.25l-.76-.6c.58.13,1.33-.57,1.84-1.48-.12-.26-.24-.51-.37-.76l-.67.49a6.93,6.93,0,0,1,.44-1A61.37,61.37,0,0,0,152.2,34.47C138.69,22,119,11.71,96.76,5.63A149.56,149.56,0,0,0,51.07.13c-.19.79-1.11,1.6-.48,2.11Z" transform="translate(0 0)"/><path class="b" d="M52.7,2.05l-1.6.55a.45.45,0,0,1,.21.15l2.06-.07A2.42,2.42,0,0,1,52.7,2.05Z" transform="translate(0 0)"/><path class="b" d="M167.61,56.25c-.3.65-.49,1.88-.87,2.72-.66,0-1-.82-1.43-1.3a24.9,24.9,0,0,1,.59,14.39c-3,10.86-13.83,18.54-29.18,22.32v.8c-2.67.62-4.73,1.76-6.62,1.35-.57.28-.27.54,0,.81-3.72,2.17-3.88-.45-7.56,1.14l.07.21c-3.61,1.8-4.24-.93-8-.36-1.09.76,1.72.58.27.86-.37-.48-2.1.34-3.38.46-.46-.84.85-2,.4-2.59h-.3l-1.21,1.15c-1.21-1.06-1.48.87-2.86,0l.1.8a.59.59,0,0,1,.06.43l-.06-.43c-.4-.73-2.49-.18-2.19-.46l1.69-.23c.54-.53-.08-1-.28-1.37a154.76,154.76,0,0,1-33.59-5.41C36,81.33,8.1,59.8,3.35,39.63l-.26-.11c-.83,0-1.4,2.07-1.5,1.67l.65-1.58c-.29-1.13-1.8.25-1.71-1A3,3,0,0,1,2.59,36.9l.14-1.15c0-.15,0-.3,0-.45-.19.09-.45,0-.66.17a1.77,1.77,0,0,0-.37,1c0-.64.17-.89.37-1a6.15,6.15,0,0,1,.64-.76,22.82,22.82,0,0,1,.77-7.08,25.36,25.36,0,0,1,8.88-13c.23-1,.46-2,.73-3l1.2.71c-.1.32-.18.65-.26,1,6.83-4.91,16.39-8.23,27.66-9.77-.24-2.25,5.58-.94,5-2.53-1.16-.34-3.63.15-4.51.09a2.74,2.74,0,0,0-.82,1,2,2,0,0,1,.48.33c-.44,0-.55-.11-.48-.33a9.06,9.06,0,0,0-3.51-.6c-1.17.21-2.33.43-3.46.68C16.05,6.2,4.17,15,.9,26.94S3.39,52.5,17.13,65.22C30.65,77.74,50.34,88,72.57,94.06S117,101.35,135,97.45c18.3-4,30.19-12.72,33.46-24.69A27.61,27.61,0,0,0,167.61,56.25Z" transform="translate(0 0)"/></g></svg>