<?xml version="1.0" encoding="utf-8"?>
<!-- Generator: Adobe Illustrator 23.0.3, SVG Export Plug-In . SVG Version: 6.00 Build 0)  -->
<svg version="1.1" id="Layer_1" xmlns="http://www.w3.org/2000/svg" xmlns:xlink="http://www.w3.org/1999/xlink" x="0px" y="0px"
	 viewBox="0 0 1161.4 217.4" style="enable-background:new 0 0 1161.4 217.4;" xml:space="preserve">
<style type="text/css">
	.st0{opacity:0.45;}
	.st1{fill:#195A57;}
</style>
<g>
	<title>passport-stamp-final-1</title>
	<g class="st0">
		<path class="st1" d="M556.2,131.8c-15.4-13.3-30-15.7-39.9-15.2c-7,0.3-13.8,2.1-20,5.5l1.4,2.2c0.3-0.2,27.7-16.5,57.7,10.3
			c0.3-1.1,0.4-2.2,0.7-2.2L556.2,131.8z"/>
		<path class="st1" d="M609.6,155.1c-0.1,0.9-0.4,1.8-0.7,2.7c6-0.6,11.9-2.2,17.4-4.9l-1.3-2.3C620.2,153,615,154.5,609.6,155.1z"
			/>
		<path class="st1" d="M604.9,155.5c-11,0.4-27.5-2.6-43.9-19.2c-1.5-1.5-3-2.9-4.4-4.2c-0.3,0.2-0.4,0.5-0.5,0.8l0.7,0.3
			c-0.5,0.5-0.8,1.2-0.8,1.9c1,0.9,2.1,1.9,3.1,3c1.7,1.7,3.4,3.3,5.1,4.7l0.1-0.9c0.2-0.4,0.9-1.3,0.8-0.5c-0.4,0.5-0.6,1-0.6,1.6
			c1.7,1.4,3.4,2.7,5.1,3.9c0.1-0.1,0.1-0.2,0.2-0.2c0.3,0,0.4,0.2,0.3,0.6c6.4,4.5,13.6,7.7,21.3,9.5c4.5,1,9.1,1.4,13.8,1.3
			l1.8-0.1c0.4-0.7,0.6-1.5,0.6-2.2l0,0l-0.5,0.9c-0.1,0.3-0.2,0.6-0.3,0.5l0.3-0.5c0.1-0.4,0.2-0.9,0.5-0.9l0.2-0.4
			C606.7,155.4,605.8,155.5,604.9,155.5z M563.4,141.5l-0.4-0.4l0.9-0.3L563.4,141.5z"/>
		<path class="st1" d="M579.4,113.7l-0.3-0.2C579.2,113.7,579.2,113.8,579.4,113.7z"/>
		<path class="st1" d="M587.9,118.5c-0.3,1.5,1.1,0.2,1,2.1l-1.4,0.1c-0.3,0.3-0.5,0.4-0.8,0h0.8c0.1-0.1,0.3-0.3,0.4-0.4
			c0.2-0.4-0.2-0.7-0.5-0.6l-0.1,0.3c-0.4-0.3,0.2-1.5,0.1-1.8l-0.1-0.1c-0.1,0-0.3,0.1-0.4,0.1l0.3-0.2c-2.7-1.3-5.2-2.7-7.7-4.4
			l-0.4,0.7c0.5,0.1-0.4,0.2,0.1-0.3c-0.4,0.2-0.4-0.2-0.7-0.3c0.1-0.2,0.1-0.4,0.3-0.6c-3.8-2.7-7.4-5.7-10.6-9c-1-1-2-1.9-2.9-2.8
			c-0.3,0.8-0.8,1.5-1.5,1.9c0.6-1.2,0.2-2.1,0.4-2.9c-1.8-1.6-3.6-3.1-5.4-4.4l-0.3,1.2c-0.3-0.2-0.3-0.9,0-1.5
			c-1.4-1-2.7-1.9-4.1-2.8c-0.2,0.1-0.4,0.2-0.6,0.2c0.2,0,0.2-0.2,0.3-0.4c-2.2-1.4-4.6-2.6-7-3.7c-0.2,0.6-0.4,1.2-0.8,1.8
			c-0.1-0.3-0.2-0.5-0.3-0.8l-0.4,0.3c0.2-0.6,0.3-0.6,0.4-0.3l0.5-0.3c0-0.3,0-0.7,0-1c-7.2-3.2-15.1-4.7-23-4.3
			c-7,0.3-13.8,2.1-20,5.5l1.4,2.2c0.3-0.1,30.1-17.7,61.5,13.9c11.2,11.3,22.5,16.5,32.2,18.7c4.5,1,9.1,1.4,13.8,1.3
			c7.4-0.2,14.6-1.9,21.2-5.2l-1.2-2.3C618.1,125.1,601.9,125.1,587.9,118.5z M596.2,123.2c-0.1,0-0.2,0-0.2-0.1
			S596.1,123.1,596.2,123.2c0.4-0.1,0.8-0.2,1.1-0.5C597.1,124.5,596.6,123.6,596.2,123.2z"/>
		<path class="st1" d="M519.8,100.6c-7,0.3-13.8,2.1-20,5.5l1.4,2.2c0.3-0.2,30-17.8,61.4,13.8c3.2,3.2,6.6,6.1,10.3,8.8v-1.2
			l-0.6,0.7c0.3-0.8,0.6-1.7,0.8-2.6c-3.1-2.3-6-4.8-8.7-7.5C547.4,103,530.8,100.1,519.8,100.6z"/>
		<path class="st1" d="M573.4,128c-0.1,1-0.2,2-0.4,3c0.8,0.5,1.5,1.1,2.3,1.6c0-0.9-0.2-2,0.4-2.9C575,129.1,574.2,128.6,573.4,128
			z"/>
		<path class="st1" d="M576,129.8v0.5c0.2,0.1,0.4,0,0.4-0.2c0,0,0,0,0,0L576,129.8z"/>
		<path class="st1" d="M617.6,138.4c0.5,0.7,0,1.6-0.3,2.8c4.4-0.8,8.6-2.2,12.6-4.2l-1.3-2.3C625.1,136.3,621.4,137.6,617.6,138.4z
			"/>
		<path class="st1" d="M615.7,139.5L615.7,139.5c-0.2,0.3-0.3,0.6-0.5,0.9c-0.1,0.3-0.2,0.6-0.3,0.5l0.3-0.5
			C615.3,140.1,615.4,139.6,615.7,139.5l0.4-0.9c-2.5,0.5-5.1,0.7-7.6,0.8c-8.2,0.3-19.5-1.3-31.6-9.1c-0.4,0.8-0.7,1.7-1,2.5
			l0.6,0.4c0.1-0.2,0.3-0.5,0.4-0.7c0,0.3,0,0.6-0.1,0.9c5.6,3.5,11.7,6,18.1,7.4c4.5,1,9.1,1.4,13.8,1.3c2.2-0.1,4.4-0.3,6.6-0.6
			C615.6,140.9,615.7,140.2,615.7,139.5z"/>
		<path class="st1" d="M569.8,90.1c0.8,0.8,1.6,1.6,2.5,2.4c0-0.1,0-0.1,0-0.2l0.6-1c-0.3,2,0.9-0.8,1.2,0.7
			c-0.4,0.4-0.6,0.9-0.8,1.4l0.6,0.5c0.4-0.8,0.8-1.6,1.2-2.5c-1.1-1-2.2-2-3.3-3.2c-9.7-9.8-19.2-15-27.7-17.5
			c-0.1,0.5-0.4,1-0.7,1.4l-0.1-1.5l-0.8,1.2c0.1-0.4,0.4-0.9,0.6-1.4c-5.2-1.5-10.7-2.1-16.1-1.9c-7,0.3-13.8,2.1-20,5.5l1.3,2.2
			C508.7,76.2,538.4,58.5,569.8,90.1z"/>
		<path class="st1" d="M572.7,92.9L572.7,92.9l0.2,0.2C572.9,92.9,572.9,92.8,572.7,92.9z"/>
		<path class="st1" d="M615.5,107.5c-8.5,0.3-20.2-1.4-32.6-9.8l-0.6,0.4c0.1-0.2,0.2-0.4,0.2-0.6c-2.4-1.6-4.6-3.4-6.8-5.3
			c0,0.2,0,0.5-0.1,0.7c-0.1-0.3-0.1-0.8-0.4-0.7c-0.4,0.6-0.6,1.2-0.7,1.8c0.4,0.2,0.6,0.6,0.6,1.1c1.9,1.6,4,3.2,6.1,4.6h0.1v0.1
			l0.4,0.3c0.1-0.5,0.1-1.1,0.5-1c-0.1,0.4-0.2,0.8-0.3,1.1c6.1,4.1,12.8,7,20,8.6c4.5,1,9.1,1.4,13.8,1.3
			c7.4-0.2,14.6-1.9,21.2-5.2l-1.3-2.3C629.4,105.7,622.5,107.3,615.5,107.5z"/>
		<path class="st1" d="M596.5,90l0.1-0.7l-0.5,0.5L596.5,90z"/>
		<path class="st1" d="M597.2,89.9l0.2-0.3C597.4,89.7,597.3,89.8,597.2,89.9l-0.2,0.3c0.8,0.3,1.6,0.6,2.4,0.9
			c0.2-0.8,0.5-1.7,0.8-2.5c-1-0.3-1.9-0.7-2.9-1.1c-0.2,0.8-0.4,1.6-0.5,2.3C596.9,89.8,597.1,89.9,597.2,89.9z"/>
		<path class="st1" d="M605.5,92.8c4.5,1,9.1,1.4,13.8,1.3c7.4-0.2,14.6-1.9,21.2-5.2l-1.3-2.3c-6.3,3-13.2,4.7-20.2,4.9
			c-6.3,0.2-12.5-0.7-18.5-2.7c0,0.9-0.2,1.8-0.6,2.6C601.9,91.9,603.8,92.4,605.5,92.8z"/>
		<path class="st1" d="M573.3,74.1c5.8,6,12.6,10.9,20.1,14.5l0,0l1,0.2c0,0.1-0.1,0.2-0.1,0.3l0.4,0.2l0.2-1l0.4,0.4
			c0.3-0.5,0.6-1,0.8-1.6c-7.8-3.5-14.9-8.6-20.9-14.8c-4.2-4.3-8.8-8-13.9-11.2c-0.1,0.2-0.2,0.5-0.3,0.7l0.1-0.8l-0.2-0.1
			c-0.4,0.6-0.7,1.2-0.8,1.9c-1.2,0.1,0.3-1.5-0.4-2.3c0.1,0,0.2-0.1,0.3-0.1c-11.4-6.7-21.9-8.1-29.5-7.7c-7,0.3-13.8,2.1-20,5.5
			l1.4,2.2C512.2,60.2,542,42.5,573.3,74.1z"/>
	</g>
</g>
</svg>
