<svg xmlns="http://www.w3.org/2000/svg" width="1.85in" height="1.84in" viewBox="0 0 133.44 132.82"><defs><style>.a{opacity:0.45;}.b{fill:#195a57;}</style></defs><title>passport-stamp-final-4</title><g class="a"><path class="b" d="M61.69,11.81a55.45,55.45,0,1,0,61.2,49A55.52,55.52,0,0,0,61.69,11.81ZM73.78,121.46A54.87,54.87,0,1,1,122.3,60.91,54.93,54.93,0,0,1,73.78,121.46Z" transform="translate(0 0)"/><path class="b" d="M62.07,15.31a51.93,51.93,0,1,0,57.32,45.92A52,52,0,0,0,62.07,15.31ZM73.4,118A51.34,51.34,0,1,1,118.8,61.3,51.4,51.4,0,0,1,73.4,118Z" transform="translate(0 0)"/><path class="b" d="M71.49,100.9a34.35,34.35,0,0,0,30.25-30.4l-.58-.06a33.6,33.6,0,0,1-65.08,7.71l-.56.2A34,34,0,0,0,71.49,100.9Z" transform="translate(0 0)"/><path class="b" d="M64.06,33.54A33.44,33.44,0,0,1,99.41,55.71l.56-.2a34.18,34.18,0,0,0-66.26,8.33c-.9.16-1.85.33-2.84.49-1.63.28-3,.48-4.06.62l-.14.15.13.78L27,66a4.09,4.09,0,0,1,1.91,0A8.77,8.77,0,0,1,30.83,68L40,79.89l2.32-.39c.39-1.44,1.18-4,2.39-7.53l1.4-4.17.75-2.16a18.88,18.88,0,0,1,1-2.43,1.55,1.55,0,0,1,.54-.64,6.26,6.26,0,0,1,1.33-.42l.14-.15-.14-.78-.19-.1c-1.27.26-2.35.47-3.24.62-1.24.21-2.44.38-3.6.53l-.15.15.14.79.17.09a14.86,14.86,0,0,1,2.07-.21.43.43,0,0,1,.41.41,11.32,11.32,0,0,1-.61,2.72c-.3,1.09-.5,1.77-.59,2l-.44,1.35a.64.64,0,0,1,.34-.16l-.41.82.46.47c-.16.13-.47.4-.68.11-.33,1.46.52,1.43.28,3.2-.69-1-.1,2-.7,1.3a.92.92,0,0,1-.07.77c.45-1.48-.76-.53-.69-1.84l0-.19-.41,1.28-5.1-6.68-1-1.28a9.91,9.91,0,0,1-1.37-2.06.41.41,0,0,1,.19-.44,6.65,6.65,0,0,1,2-.55l.11-.14-.13-.79-.17-.1-.41.08a31.93,31.93,0,0,1,61.82-7.19l.56-.2a32.52,32.52,0,0,0-63,7.5l-1.1.21A33.57,33.57,0,0,1,64.06,33.54ZM39.56,74.59c.16-.13.87-.89.77.2-.26-.71-.34.06-.47.4.12,0,.31.61.47.47,0,.33.66,2.17.1,2.26l-.54-.24c-1.25,1.06.13-1.21-.63-2.28C39.76,75.75,39.79,74.56,39.56,74.59ZM34.37,65c-.26-.71-.34.06-.47.4.12,0,.31.61.47.47,0,.33.66,2.17.1,2.26l-.54-.24c-1.25,1.06.13-1.21-.63-2.28.5.35.53-.84.3-.81C33.76,64.7,34.47,63.94,34.37,65Z" transform="translate(0 0)"/><path class="b" d="M37.77,78l-.55.2a32.53,32.53,0,0,0,62.83-7.44l-.59-.06A31.94,31.94,0,0,1,37.77,78Z" transform="translate(0 0)"/><path class="b" d="M30.4,48.67l.05,0a2,2,0,0,1,.27-.56,2.42,2.42,0,0,1,.78-.25,39.28,39.28,0,0,1,4.09-.62l.27-.61a20.12,20.12,0,0,1-1.26-1.76q-.33-.5-.66-1c-.11-.18-.22-.36-.32-.55a5.36,5.36,0,0,1-.35-.64.56.56,0,0,1,0-.24,1.63,1.63,0,0,1,.16-.4v-.06l-.18-.11-.06,0c-.18.36-.34.67-.47.91s-.35.69-.53,1v.06l.2.1,0,0a4.67,4.67,0,0,1,.31-.56.12.12,0,0,1,.16,0,3.26,3.26,0,0,1,.48.61l.33.48c.38.58.78,1.14,1.18,1.69-.77.07-1.53.15-2.3.26l-.44.06a3.39,3.39,0,0,1-.68.06.11.11,0,0,1-.07-.12,2.54,2.54,0,0,1,.2-.63v-.05l-.2-.09-.05,0-.66,1.69c-.19.5-.35.92-.47,1.25v.07Z" transform="translate(0 0)"/><path class="b" d="M33.66,41.46l.05,0L34,41a.2.2,0,0,1,.19-.08,6.35,6.35,0,0,1,.88.47l1.44.88a5.41,5.41,0,0,1,.82.57.14.14,0,0,1,0,.18,4.67,4.67,0,0,1-.22.45v.05l.19.11h0c.13-.26.35-.63.65-1.13s.56-.85.72-1.07v0l-.18-.12,0,0-.3.39a.16.16,0,0,1-.18,0,5.75,5.75,0,0,1-.86-.5l-1.41-.93a4.86,4.86,0,0,1-.8-.6.16.16,0,0,1,0-.19q0-.08.27-.48v0l-.18-.13,0,0-.77,1.22c-.35.56-.6,1-.76,1.24v.06Z" transform="translate(0 0)"/><path class="b" d="M36.72,38.79a1,1,0,0,0,1.08.1,5.84,5.84,0,0,0,1.18-1,3.27,3.27,0,0,1,.58-.47.6.6,0,0,1,.74,0,.88.88,0,0,1,.25.43A1.33,1.33,0,0,1,40.17,39a2.4,2.4,0,0,1-.63.56,1.14,1.14,0,0,1-.6.22,2.62,2.62,0,0,1-.41-.24l-.06,0h0c-.06.07-.11.15-.16.22v.06a3.51,3.51,0,0,1,.78.71h.09a5.86,5.86,0,0,0,1.26-1.17,4.42,4.42,0,0,0,.62-1,2.07,2.07,0,0,0,.18-1,1.35,1.35,0,0,0-.43-.92,1,1,0,0,0-.66-.28,1.19,1.19,0,0,0-.71.24,2.49,2.49,0,0,0-.38.3l-.38.35a5.64,5.64,0,0,1-.86.75.59.59,0,0,1-.66,0,.65.65,0,0,1-.24-.6,1.69,1.69,0,0,1,.43-.9,2.59,2.59,0,0,1,.57-.53,1.1,1.1,0,0,1,.52-.21,4.31,4.31,0,0,1,.4.3h.06l.18-.21a.13.13,0,0,1,0-.06,3.65,3.65,0,0,1-.6-.71l-.08,0a4.45,4.45,0,0,0-1.3,1.16,3.39,3.39,0,0,0-.82,1.73A1.17,1.17,0,0,0,36.72,38.79Z" transform="translate(0 0)"/><path class="b" d="M42,34.82c.27.89.42,1.37.43,1.46s-.08.25-.26.47v0l.15.14h0l.56-.6c.1-.1.32-.32.69-.65v0l-.15-.15h0l-.31.26q-.15.12-.24,0a2.05,2.05,0,0,1-.24-.54c-.05-.13-.1-.27-.14-.41l.69-.66c.29-.27.59-.52.88-.77l.69.3a1.06,1.06,0,0,1,.28.16q.07.09-.09.24l-.25.24a.09.09,0,0,0,0,0l.13.15h0c.31-.28.65-.57,1-.88.09-.07.37-.29.85-.63V33l-.13-.16h0a1.41,1.41,0,0,1-.32.2c-.07,0-.18,0-.34-.07a45.62,45.62,0,0,0-4.28-1.64l-.48.43c.09.36.16.62.21.8C41.52,33.3,41.73,34.07,42,34.82Zm1.66-1.56-.63.57-.66.61q-.27-.91-.51-1.83C42.43,32.81,43,33,43.62,33.26Z" transform="translate(0 0)"/><path class="b" d="M57.38,23.11l.5-.11a.19.19,0,0,1,.17.08,6,6,0,0,1,.31,1l.43,1.63a6.49,6.49,0,0,1,.21,1,.15.15,0,0,1-.1.14l-.43.15,0,.05.06.21h0c.23-.07.61-.18,1.15-.32s.89-.2,1.24-.26l0,0,0-.2-.05,0-.53.08a.14.14,0,0,1-.15-.09,6,6,0,0,1-.28-.95c-.13-.55-.25-1.1-.38-1.65a5.19,5.19,0,0,1-.2-1l.49-.15c.71-.15,1.12.08,1.23.67a.8.8,0,0,1-.13.67.94.94,0,0,1-.61.36,1.08,1.08,0,0,1-.32,0l-.07.09a.67.67,0,0,1,.19.2,4,4,0,0,0,.5-.06,2.53,2.53,0,0,0,1.21-.61,1.17,1.17,0,0,0,.41-1.11.86.86,0,0,0-.26-.52c-.28-.26-.81-.32-1.6-.17l-.77.18-1,.24-1.27.32,0,0,.06.2Z" transform="translate(0 0)"/><path class="b" d="M62.66,22l.5,0c.09,0,.14,0,.16.1a4.74,4.74,0,0,1,.18,1l.21,1.61c0,.24,0,.47.07.71a1.2,1.2,0,0,1,0,.43,1.2,1.2,0,0,1-.28.23v.13l0,0c.19,0,.52-.09,1-.14.93-.09,1.87-.15,2.8-.17l0,0a5.77,5.77,0,0,1,.06-1.06l0,0h-.25l0,0c0,.14,0,.27-.08.4a.68.68,0,0,1-.06.2l-.07,0a11,11,0,0,1-1.39.15l-.52.05c0-.26-.07-.53-.1-.81l-.18-1.9a5.56,5.56,0,0,1,0-1c0-.06.06-.1.14-.13a4.93,4.93,0,0,1,.5-.07l0,0c0-.08,0-.15,0-.22l0,0-1.35.15-1.31.14,0,0,0,.21Z" transform="translate(0 0)"/><path class="b" d="M68.07,21.59l.51,0c.08,0,.13.05.14.12a5.24,5.24,0,0,1,0,1c0,.56,0,1.13,0,1.69a7.63,7.63,0,0,1-.06,1,.14.14,0,0,1-.14.11l-.45,0,0,0v.21l0,0c.26,0,.65,0,1.19,0s.93,0,1.19.07l0,0c0-.07,0-.14,0-.21l0,0L70,25.57a.15.15,0,0,1-.13-.13,5.65,5.65,0,0,1,0-1c0-.56,0-1.13.07-1.69a5.47,5.47,0,0,1,.1-1,.19.19,0,0,1,.15-.12h.51l0,0c0-.07,0-.15,0-.22l0,0-1.34,0-1.34,0,0,0v.22Z" transform="translate(0 0)"/><path class="b" d="M74.25,26.43a5.13,5.13,0,0,0,1.88,0c.08-.09.16-.19.25-.28L76.3,26a4.67,4.67,0,0,1-1.58,0,2.68,2.68,0,0,1-1.31-.54,2,2,0,0,1-.76-1.86,1.62,1.62,0,0,1,.73-1.26,2.33,2.33,0,0,1,1.7-.25,2.18,2.18,0,0,1,1.44.72,2.92,2.92,0,0,1-.06.54l0,0,.25.05,0,0a4,4,0,0,1,.4-1l0-.06a6.38,6.38,0,0,0-2-.67,4.22,4.22,0,0,0-2.7.29,1.88,1.88,0,0,0-1.07,1.59,2.3,2.3,0,0,0,.26,1.23A3.27,3.27,0,0,0,74.25,26.43Z" transform="translate(0 0)"/><path class="b" d="M84.31,29.49c.5.24.86.44,1.08.57h0l.1-.18,0-.05-.4-.25a.15.15,0,0,1-.06-.17,6.25,6.25,0,0,1,.41-.9c.28-.54.56-1.08.83-1.62s.38-.73.42-.79l.53.27.72.41c.13.09.18.18.17.27a1.94,1.94,0,0,1-.19.44l0,.05.24.14h.06l.27-.45a2.46,2.46,0,0,1,.3-.4l0,0c-.24-.11-.8-.43-1.7-.9-.53-.28-1.07-.55-1.62-.8-1-.46-1.58-.7-1.73-.79h0a2.32,2.32,0,0,1-.13.47c-.07.17-.14.34-.2.51l0,0,.25.11,0,0a2.91,2.91,0,0,1,.17-.3.53.53,0,0,1,.15-.17.17.17,0,0,1,.1,0,5.27,5.27,0,0,1,.86.33l.57.27c0,.06-.15.33-.37.81s-.53,1.1-.79,1.64a7.57,7.57,0,0,1-.47.88.16.16,0,0,1-.18,0l-.43-.17,0,0-.09.2,0,0C83.44,29.08,83.81,29.24,84.31,29.49Z" transform="translate(0 0)"/><path class="b" d="M89.64,27.64a.16.16,0,0,1,.07.18,5.35,5.35,0,0,1-.48.87c-.31.48-.61,1-.91,1.44a5.48,5.48,0,0,1-.58.81.14.14,0,0,1-.18,0l-.42-.22h0a1.18,1.18,0,0,1-.11.19l0,0c.23.13.58.34,1,.65s.8.55,1,.72h0l.13-.17,0-.05-.37-.3a.18.18,0,0,1,0-.18,5.58,5.58,0,0,1,.52-.85l1-1.41a5.64,5.64,0,0,1,.61-.79.18.18,0,0,1,.19,0,3.78,3.78,0,0,1,.45.28h.06l.12-.18,0-.05-1.16-.77-1.16-.76h0l-.12.19,0,.05Z" transform="translate(0 0)"/><path class="b" d="M97.69,36l-1.28,1.12a6.22,6.22,0,0,1-.78.61.14.14,0,0,1-.18,0,2.94,2.94,0,0,1-.36-.35h0l-.16.15v.05c.23.23.45.48.66.73a7.54,7.54,0,0,1,.57.72h0l.17-.13v-.06l-.3-.41a.16.16,0,0,1,0-.19,4.89,4.89,0,0,1,.72-.69l1.6-1.35c0,2.65-.21,4.44-.29,5.46l.34.69.06,0A17.24,17.24,0,0,1,100,41.31l1.09-.7a4.91,4.91,0,0,1,.87-.49.18.18,0,0,1,.19.08,5.33,5.33,0,0,1,.34.49l.06,0,.18-.12v-.06c-.19-.29-.41-.61-.64-1l-.58-.89-.05,0-.18.13v.06a5.24,5.24,0,0,1,.3.5c0,.09,0,.15,0,.2a5.1,5.1,0,0,1-.79.6l-1.56,1c.15-1.89.22-3.63.28-5.18-.2-.22-.43-.49-.71-.82l-.56-.67h0l-.16.14v.06c.2.25.32.4.34.44a.19.19,0,0,1,0,.2A5.06,5.06,0,0,1,97.69,36Z" transform="translate(0 0)"/><path class="b" d="M40.12,95.32c.34-.11.56-.18.66-.2a.4.4,0,0,1,.22,0,2.07,2.07,0,0,1,.3.2h.05l.15-.16v0c-.26-.21-.47-.4-.64-.56s-.46-.44-.67-.66h-.06L40,94v0l.37.4a.11.11,0,0,1,0,.15,2.79,2.79,0,0,1-.68.32l-.53.2c-.64.21-1.28.41-1.93.6.21-.74.44-1.46.69-2.18,0-.13.09-.27.14-.4a2.46,2.46,0,0,1,.26-.61.11.11,0,0,1,.13,0,1.73,1.73,0,0,1,.41.36h0l.16-.15v-.05c-.32-.32-.66-.68-1-1.09s-.52-.61-.69-.84l-.06,0-.16.14v0a1.3,1.3,0,0,1,.27.44,2.47,2.47,0,0,1-.21.74c-.47,1.27-.9,2.56-1.28,3.89l.48.49c.39-.13,1.08-.32,2.06-.62l1.12-.37Z" transform="translate(0 0)"/><path class="b" d="M41.34,99.05l1-1.34A6.72,6.72,0,0,1,43,97a.17.17,0,0,1,.18,0,3.82,3.82,0,0,1,.39.26h0l.13-.17,0,0c-.2-.14-.52-.38-.95-.73s-.74-.61-.92-.79h0l-.14.16v0A4.37,4.37,0,0,1,42,96a.16.16,0,0,1,0,.18,5.46,5.46,0,0,1-.6.79l-1.08,1.31a6.26,6.26,0,0,1-.67.73.19.19,0,0,1-.19,0,3.62,3.62,0,0,1-.41-.31h-.06l-.14.16v.05l1,.86c.48.38.83.66,1.05.85h0l.13-.18v-.05a4.23,4.23,0,0,1-.38-.33c-.06-.07-.08-.13,0-.19A6.53,6.53,0,0,1,41.34,99.05Z" transform="translate(0 0)"/><path class="b" d="M46.35,101.56a1.2,1.2,0,0,0-.33-.64c-.1-.1-.21-.21-.33-.31l-.36-.3a3.17,3.17,0,0,1-.74-.75.56.56,0,0,1,0-.63.66.66,0,0,1,.55-.3,1.4,1.4,0,0,1,.81.27,2,2,0,0,1,.5.45.88.88,0,0,1,.22.43,2.77,2.77,0,0,1-.22.45l0,0,.21.13h0a4.76,4.76,0,0,1,.57-.73v-.08a4.08,4.08,0,0,0-1.11-1,2.77,2.77,0,0,0-1.53-.53,1.25,1.25,0,0,0-1.05.53,1,1,0,0,0-.12,1.06,4,4,0,0,0,1,1.09,3,3,0,0,1,.51.5.61.61,0,0,1,.07.73.79.79,0,0,1-.39.32,1.33,1.33,0,0,1-1.21-.26,2.32,2.32,0,0,1-.64-.61,1.22,1.22,0,0,1-.25-.6,2.81,2.81,0,0,1,.24-.42l0-.06v-.05l-.22-.16h-.06a3.52,3.52,0,0,1-.7.78V101a4.69,4.69,0,0,0,1.28,1.27,3.87,3.87,0,0,0,1.14.54,1.92,1.92,0,0,0,1.06,0,1.28,1.28,0,0,0,.81-.6A1.06,1.06,0,0,0,46.35,101.56Z" transform="translate(0 0)"/><path class="b" d="M51.45,106.1a.49.49,0,0,1-.12-.33c-.19-1.5-.31-3-.36-4.49l-.48-.23c-.28.23-.49.4-.62.52-.61.48-1.23,1-1.86,1.4a10.51,10.51,0,0,1-1.27.84c-.1,0-.27,0-.54-.14h-.05a1.62,1.62,0,0,0-.1.18l0,0,.77.39.88.48h.06l.09-.18,0,0-.37-.22c-.11-.07-.14-.14-.11-.22a3.17,3.17,0,0,1,.45-.4l.33-.26.86.41,1,.49,0,.75a1.39,1.39,0,0,1,0,.33c0,.07-.12.07-.26,0l-.34-.13h-.05l-.09.18,0,0,1.33.55,1,.43,0,0c0-.06,0-.13.08-.19l0,0A1.76,1.76,0,0,1,51.45,106.1Zm-2.2-2.52c-.32-.15-.58-.28-.77-.39.5-.37,1-.76,1.47-1.15,0,.63,0,1.26.06,1.88C49.81,103.84,49.56,103.73,49.25,103.58Z" transform="translate(0 0)"/><path class="b" d="M59.5,108.35a.49.49,0,0,1-.17-.29c-.47-1.44-.87-2.88-1.2-4.33l-.51-.12-.5.63c-.49.59-1,1.17-1.53,1.75a11.28,11.28,0,0,1-1.07,1.07q-.12.09-.54,0l0,0a1.59,1.59,0,0,1-.07.2l0,0,.81.23.94.29.05,0,.06-.2,0,0-.39-.14c-.13,0-.17-.11-.15-.19a2.23,2.23,0,0,1,.35-.48l.28-.33.9.23,1.1.27c0,.25.11.49.17.73A1.08,1.08,0,0,1,58,108c0,.08-.1.1-.25.08l-.35-.07,0,0c0,.06,0,.13-.05.2l0,0,1.39.28,1.09.21,0,0,0-.2,0,0A1.61,1.61,0,0,1,59.5,108.35Zm-2.6-2-.82-.22c.41-.47.82-1,1.21-1.42.12.6.26,1.21.41,1.82Z" transform="translate(0 0)"/><path class="b" d="M68.33,104.76l-.66,0h-.89c-.5,0-.87,0-1.11,0l0,0V105l0,0,.44,0a.15.15,0,0,1,.12.13,6,6,0,0,1,0,1c0,.56,0,1.13,0,1.69a6.72,6.72,0,0,1-.07,1A.19.19,0,0,1,66,109l-.47,0-.05,0a1.48,1.48,0,0,1,0,.21l0,0h2.61l0,0c0-.07,0-.15,0-.22l0,0-.56,0c-.08,0-.13-.06-.14-.12a4.94,4.94,0,0,1-.06-1c0-.57,0-1.13,0-1.69a8.1,8.1,0,0,1,0-1l.44,0a.83.83,0,0,1,1,.87.87.87,0,0,1-.21.65.86.86,0,0,1-.62.25,1.77,1.77,0,0,1-.3,0l-.08.07a.88.88,0,0,1,.14.23,2.58,2.58,0,0,0,.48,0,2,2,0,0,0,1.21-.42,1.15,1.15,0,0,0,.47-1.06,1,1,0,0,0-.19-.55A1.6,1.6,0,0,0,68.33,104.76Z" transform="translate(0 0)"/><path class="b" d="M92.89,100.51a2.72,2.72,0,0,1-.41.26.15.15,0,0,1-.18,0,4.76,4.76,0,0,1-.63-.77L90.6,98.51l-.51-.72.41-.3.57-.43a.26.26,0,0,1,.29,0,3.13,3.13,0,0,1,.33.35h0l.19-.15v0c-.11-.14-.22-.28-.32-.43a2.07,2.07,0,0,1-.27-.41h0c-.16.15-.58.5-1.27,1-.41.3-.83.59-1.25.87a11.91,11.91,0,0,1-1.37.84v0a3.2,3.2,0,0,1,.29.38L88,100H88l.2-.13,0,0a2.39,2.39,0,0,1-.16-.32.58.58,0,0,1-.06-.2.18.18,0,0,1,0-.09,6.24,6.24,0,0,1,.65-.46l.45-.3.51.73c.34.5.68,1,1,1.51a6.15,6.15,0,0,1,.51.85.15.15,0,0,1,0,.17l-.39.3v0l.12.18h0c.21-.16.57-.4,1.06-.74l1.06-.75v0l-.12-.17Z" transform="translate(0 0)"/><path class="b" d="M96.38,97.59c-.22.19-.35.29-.38.31a.15.15,0,0,1-.19,0,5.37,5.37,0,0,1-.7-.7L94,96a6.61,6.61,0,0,1-.62-.77.15.15,0,0,1,0-.18l.31-.33v0l-.15-.16h0c-.17.18-.45.45-.85.8s-.71.6-.91.74v0c.05,0,.09.11.14.17h.05l.36-.27a.17.17,0,0,1,.18,0,6,6,0,0,1,.68.73L94.22,98a5.46,5.46,0,0,1,.6.79.16.16,0,0,1,0,.18,4.92,4.92,0,0,1-.36.34v0l.13.17h0l1-.86,1-.87v-.05l-.14-.15Z" transform="translate(0 0)"/><path class="b" d="M99.62,90.88a2,2,0,0,0-1.79-.38A3.84,3.84,0,0,0,96,91.76a4.71,4.71,0,0,0-.89,1.36,2.23,2.23,0,0,0,.48,2.54,2,2,0,0,0,1.78.66,3.5,3.5,0,0,0,2-1.26,3.85,3.85,0,0,0,1.1-2.32A2.12,2.12,0,0,0,99.62,90.88Zm-.35,3.8a1.81,1.81,0,0,1-1.45.71,2.4,2.4,0,0,1-1.46-.75,2.35,2.35,0,0,1-.56-.83,1.57,1.57,0,0,1,.43-1.72,1.71,1.71,0,0,1,1.29-.67A2.21,2.21,0,0,1,99,92a2.52,2.52,0,0,1,.69.85A1.6,1.6,0,0,1,99.27,94.68Z" transform="translate(0 0)"/><path class="b" d="M102.53,85a6.85,6.85,0,0,1-.85-.51.16.16,0,0,1,0-.18s.08-.19.2-.45v0l-.19-.1,0,0c-.11.26-.26.55-.42.86s-.28.49-.44.75v0l.19.11,0,0,.26-.41a.15.15,0,0,1,.17-.06,5.12,5.12,0,0,1,.9.43l1.64.9a22,22,0,0,1-4.66,1.35c-.12.2-.28.45-.49.75s-.27.38-.43.57V89l.17.13h0c.17-.22.27-.34.3-.37a.18.18,0,0,1,.18,0,6.76,6.76,0,0,1,.84.53l1.38,1a5.78,5.78,0,0,1,.78.62.18.18,0,0,1,0,.19s-.11.19-.28.44v0l.18.13,0,0,.58-.84c.16-.25.35-.51.55-.79V90l-.18-.12-.06,0a3.59,3.59,0,0,1-.31.41q-.09.11-.18.06a4.83,4.83,0,0,1-.85-.51l-1.73-1.19a28.28,28.28,0,0,0,5.07-1.52l.45-.65v-.07a15.47,15.47,0,0,1-1.68-.83Z" transform="translate(0 0)"/><polygon class="b" points="107.98 77.36 106.41 73.87 105.63 77.62 101.83 78.04 105.15 79.93 104.38 83.68 107.21 81.1 110.53 83 108.95 79.51 111.78 76.94 107.98 77.36"/><path class="b" d="M51.6,60.77l-.14.13.14.8.17.09c1-.13,1.65-.19,1.8-.18a.61.61,0,0,1,.6.34A22.2,22.2,0,0,1,55,65.56l0,.25,0,0v.07l.16,1c.41-.24.12-1.08.87-1.2l-.42.82.46.47c-.15.13-.47.4-.68.1a2.93,2.93,0,0,0-.07.78l.06.34A4,4,0,0,1,55.73,70L56,71.76a20.85,20.85,0,0,1,.42,3.67A.62.62,0,0,1,56,76c-.15.06-.74.19-1.77.42l-.13.14.13.79.16.09c1-.22,2.57-.51,4.69-.86s3.7-.6,4.73-.73l.12-.14-.13-.78-.18-.1c-1,.13-1.64.19-1.8.19a.58.58,0,0,1-.59-.35A20.61,20.61,0,0,1,60.4,71l-1-6.2A20.57,20.57,0,0,1,59,61.15a.58.58,0,0,1,.44-.52q.22-.09,1.77-.42l.13-.14-.13-.8L61,59.19c-1,.21-2.53.5-4.68.86S52.58,60.65,51.6,60.77Zm7.54,9.33c.29.07,0-1.07.48-.72l-.17.46c.09.31.25.18.36.16-.18,1.32.4,2.32-.12,3.69.19.09.54-.29.59.13h-.63c.21-1.11-1.07-2.21-.41-2.85.12.51.38.69.57.45C59.78,70.65,59.44,70.71,59.14,70.1Z" transform="translate(0 0)"/><path class="b" d="M107.72,68.4l.12-.14-.13-.75-.16-.1a5.89,5.89,0,0,1-1.47.1c-.27,0-.61-.29-1-.79l-5.88-7.39a2.17,2.17,0,0,0,.59,1.32c-.68.11,0,1.62-.71,1.3S98.41,60.87,98,60.4c.64,0-.6-2.07.3-2.21l0,.75.31-.27c-.21.58.29.93.43,1.13a3.79,3.79,0,0,0,.1-.54l-4.62-5.8-2.17.36c-.4,1.3-.7,2.27-.89,2.92l-2.7,8.32c-1,3.25-1.68,5-1.87,5.35s-.81.58-1.85.8l-.15.15.13.76.17.08c1.64-.32,2.67-.52,3.09-.59s1.75-.27,3.64-.54l.14-.15-.13-.75-.17-.09c-.78.1-1.31.16-1.58.17-.48,0-.75-.11-.8-.41a7.31,7.31,0,0,1,.42-2.17l.43-1.54c1.56-.28,2.74-.49,3.54-.62,1.46-.25,2.9-.48,4.31-.7l1.4,1.92c.08-.61-.09-1.19.38-1.17a3.67,3.67,0,0,0-.34-1.35c.44.8.24-.36.51-.51l-.32-.28a5.18,5.18,0,0,1,.54-1.16l-.2,1.11c.93.07.32-1.13,1.22-1.27l-.42.82.46.46c-.15.13-.47.4-.67.11-.34,1.46.52,1.43.28,3.2-.64-.89-.19,1.53-.59,1.39a0,0,0,0,1,0,0,.35.35,0,0,1-.08.27.56.56,0,0,1-.12.38c0-.13.06-.24.08-.33a1.33,1.33,0,0,1-.64.27L98.25,69l-.13.15.13.74.15.09q2.4-.47,5.21-1ZM88.1,70.74a7.53,7.53,0,0,1-.39-1.24c.24.5.44-.62.51.35ZM94,64.15c-1.33.23-2.42.4-3.26.51L92.79,58l4.3,5.6C96.29,63.75,95.24,63.93,94,64.15Z" transform="translate(0 0)"/><path class="b" d="M67.94,70.47l0-.27-.13-.07c.32.75.15.91.46,1.47A10,10,0,0,1,67.94,70.47Z" transform="translate(0 0)"/><path class="b" d="M80.46,64.8a4.61,4.61,0,0,0-2.55-1,9.62,9.62,0,0,0-1.72-.06l-1.83.06c-.75,0-1.41.05-2,.05a2,2,0,0,0,.55,1.62c-.67.1,0,1.62-.7,1.3s-.65-1.09-1.11-1.56c.39,0,.08-.77,0-1.41a3.79,3.79,0,0,1-.77-.13,2.35,2.35,0,0,1-.89-.46h0c-.16,0-.25-.16-.31-.34a2.17,2.17,0,0,1-.4-1,2.41,2.41,0,0,1,.77-2.22,5.62,5.62,0,0,1,3.1-1.38,8.55,8.55,0,0,1,2.67,0,3.81,3.81,0,0,1,1.81.66,11.21,11.21,0,0,1,.46,1.8l.17.1,1-.17.14-.14a16.47,16.47,0,0,1-.12-3.43l-.15-.26a16,16,0,0,0-5.92.09,11.13,11.13,0,0,0-6,2.54,4.5,4.5,0,0,0-1.46,4.19A4.56,4.56,0,0,0,65.68,65c.26-.39.24-1.21.63-1.36-.08.23-.24.36-.14.67l.22,0c-.15,0-.34.69-.6.93a3.58,3.58,0,0,0,1.65,1.41l-.06-.14.28.23.08,0a17,17,0,0,0,5.57.3,11.76,11.76,0,0,1,2.7.09A2.25,2.25,0,0,1,78,69a3,3,0,0,1-.3,1.83c-.59,1.21-1.9,2-3.91,2.32a8.71,8.71,0,0,1-3.18,0,4.3,4.3,0,0,1-2.19-1l0-.15-.48.54c.51.35.13.52.14,1.06-1.31-.44-.15-2.44-.27-3.51h0l-1,.16-.13.15a13.57,13.57,0,0,1,.22,3.9l.23.23a18.33,18.33,0,0,0,6.48.07,15,15,0,0,0,4.34-1.34,7.72,7.72,0,0,0,3-2.49,4.8,4.8,0,0,0,.86-3.65A3.8,3.8,0,0,0,80.46,64.8ZM66.21,64c.26-.69.29-.48.75-.88C66.8,64.1,66.84,64,66.21,64Zm2.1,2.59a.59.59,0,0,1-.68-.43l.17-.46C68,66.18,68.46,65.89,68.31,66.57Zm.57-2.36c.1-.56.4-.5.63,0Zm10.25,7.48c-1.31-.44-.13-2.47-.26-3.53.4.91.06,1,.69,1.84l-.56.63C79.51,71,79.13,71.15,79.13,71.69Z" transform="translate(0 0)"/><path class="b" d="M72.33,63.88h-.6c0,.37.37.62.48.77A4.5,4.5,0,0,0,72.33,63.88Z" transform="translate(0 0)"/><path class="b" d="M128.89,66.72v-.41l3.51-6.51,1-3.09L132,54l-.83-.83c.08,1-.24,2.16-.11,3.21,0-.11.16-.13.2-.25l0,1.53-.07-.1c-.11,1.42-1.49,0-1-1.25.24-.9-.43-1.66-.66-2.17.56-.08.52-.84.82-1.64,0-.06,0-.11,0-.16l-3.74-3.73,2.49-8-6-4.52L121,29.62l-5.36-4.21-3.15-6.18-.43-.1a2.54,2.54,0,0,0,.58,1.11c-.68.11,0,1.62-.7,1.3s-.65-1.09-1.11-1.55c.33,0,.14-.59,0-1.16l-5.5-1.33-3.42-6.68.51-.84-7.64.08-5-5.32-7.18.76L76.73,0,69.65,4.12,62.91.75,56.85,5.69l-7.8-4L44.17,8.36l-8-1.19-3.64,7.09L26,16.61,24.3,23.82A60.72,60.72,0,0,1,53.44,7.52,61.21,61.21,0,0,0,12.8,40.25s.06.13.08.4l-.12.88a2.29,2.29,0,0,1-.24-.69,61.05,61.05,0,0,0,35.25,83.84,2.36,2.36,0,0,0-.1-.58c-.05-.1-.12-.14-.22-.07.1-.11.17-.06.22.07a2.27,2.27,0,0,1,.1.58,60.73,60.73,0,0,0,26.62,3h-.08a60.91,60.91,0,0,1-26.53-2.92c0,.38.07.82.13,1.12a6.65,6.65,0,0,1-.13-1.12,61.14,61.14,0,0,1-35.32-84.2,1.67,1.67,0,0,0-.08-.29c0,.12.1.15.15.14A61.39,61.39,0,0,1,23.76,24.36L16.4,26.1l-1.86,6.83L8,36.2a4.16,4.16,0,0,1,.27,1.5c-.42-.09-.39-.81-.37-1.45l-.62.31.51,1.82c.14-.23.36-.11.54.28H7.87l.78,2.76.09.1c.13-.34.16-1.54.19-.79a1.92,1.92,0,0,0,.55,1.64c-.33.06-.33.45-.33.8l.5,1.76L4.54,50.2l-2.35-.62,2.89,7.53L0,63.4l4.33,6.77L3.21,77l4.65,5.74L4.48,90.8l7.92,3.84-1.57,8.57,1.43-.91,5.9,4,3,6.23,7.15,1.9,2.06,8.37,8.74-1.7,3.79,7.46.45-.15.24-.16a6.09,6.09,0,0,1,.06-3.26,6.14,6.14,0,0,1,.87,3l6.31-2.18,5.16,7,7.13-2.9,6.59,2.78.44-.56,5.42-4.59.72-.09,6.89,3.61,5.13-5.92,7.83,1.68,3.89-6.75,3.48-.21a.94.94,0,0,0-.12-.22c.5.35.53-.84.3-.81.16-.13.87-.89.77.2-.26-.71-.33.06-.46.4.07,0,.17.24.28.39l2.83-.17c-.13-.44-.81-.14-.76-1.13.15-.67-.11-1.39.41-1.36a3.67,3.67,0,0,0-.34-1.35c.44.8.24-.37.51-.52l-.32-.27a4.85,4.85,0,0,1,.54-1.17L106.9,115c.93.08.33-1.12,1.22-1.26l-.41.82.46.46c-.16.13-.47.4-.68.11-.33,1.46.53,1.43.28,3.2-.56-.79-.27,1-.47,1.35l.39,0,2.88-6.89,6.65-2.78,1.83-7,6.44-3.8L125,91.57l6-4.86-2.29-7.44,4-6.06Zm-117-26.45c-1.32-.44-.14-2.47-.27-3.53.4.91.07,1,.69,1.84l-.55.63C12.23,39.56,11.85,39.73,11.86,40.27Zm-.23-5.05c-.08.23-.24.36-.14.67l.22,0c-.22,0-.51,1.39-1,.92C11.3,36.68,11.14,35.4,11.63,35.22ZM3.78,64.15c.26-.69.29-.48.75-.88C4.37,64.27,4.41,64.16,3.78,64.15ZM5,66.67l.32.27a.8.8,0,0,0-.06.37Zm.93.07a.61.61,0,0,1-.69-.43l.18-.46C5.6,66.35,6,66.06,5.88,66.74ZM77.23,2.42s0,0,0-.07v0a4.2,4.2,0,0,0,0-1.11c1-.05.46,1.87.55,3.05.22,0,.36.16.47.14-.26.15-.25.69,0,1.08-.44-.79-.35.38-.5,1.06l.31-.27c0,.27-.26.43-.25.82a.32.32,0,0,1,.05.29.8.8,0,0,1-.05-.29c-.15-.14-.52,0-.7.3.08-.77.57-.08.37-1.25-.47.41-.32-.27-.73-.31a5.92,5.92,0,0,1,.94-3.07c0-.74-.39.46-.46-.44a.06.06,0,0,1,0,0c-.13,2.69-1.74-.74-1.56,2.12C75.38,1.77,77,3.75,77.23,2.42ZM60.91,6.19H61l-.3,0ZM47.5,123.05c0-.33-.17-1,.19-.79C47.79,122.57,47.59,122.82,47.5,123.05Zm41.31,1c-1.87.44-4,.59-5.81,1.47-.44.4.72.59-.09.9-1.42-.37-1.9-.09-4.34-.1.18-.16.66-.45.42-.51.75-.12,1.93.19,2.32-.42.58-.51-.12-.42-.73-.45a.68.68,0,0,1-.4,0,2.43,2.43,0,0,0,.4,0c.32,0,.62-.26.49-.43l1,.87c.29-.12.86-.08.68-.33l-1-.36a16.69,16.69,0,0,1,2.85-.49c-.29-.36-.84-.27-1.23-.4.31.06,1.09-.06,1.06-.25,0,0-.09,0-.12,0l.12,0h0a6.64,6.64,0,0,0,1.45.07l-.29-.28.59.15c.07,0,.22-.19.22-.28l-.1-.09a.11.11,0,0,1,.1.09c.51.37,1.28-.94,2.29-.3l-.42-.31c.57-.36,1.63-.09,1.58-.72a5.88,5.88,0,0,0,2.59-.25c.41.32-.66.45-.34.84.57,0,1.64-.5,2.21-.45-2.27.23-3.22,2-5.78,2ZM121,101.13c.21-1.12-1.07-2.21-.41-2.86.12.52.38.7.57.45,0-.75-.37-.7-.67-1.3.29.06,0-1.08.48-.73l-.17.46c.1.31.25.18.36.17-.18,1.32.41,2.31-.11,3.69.18.08.53-.3.58.12ZM74.15,124.77a58.19,58.19,0,1,1,51.46-64.22A58.26,58.26,0,0,1,74.15,124.77Z" transform="translate(0 0)"/><path class="b" d="M48.48,31.78c.35-.25.57-.39.66-.45l.8-.47,0,0-.11-.18H49.8a3.45,3.45,0,0,1-.36.19c-.11.05-.19,0-.23,0a2,2,0,0,1-.12-.58c0-.14,0-.28-.05-.42q.52-.33.81-.48l1-.54.61.45a1.31,1.31,0,0,1,.23.21c0,.07,0,.14-.13.21l-.3.18,0,.05.1.17,0,0c.35-.21.75-.41,1.18-.62.1-.05.42-.2,1-.42l0-.05-.09-.18-.05,0a1.11,1.11,0,0,1-.35.12c-.07,0-.17,0-.31-.14l-.46-.33a1.31,1.31,0,0,1,.12.11c-.63-.23,0,.41-.06.61-.63-.73-1.72-.86-1.39-1.68-.65-.44-1.31-.87-2-1.28l-.54.3c0,.37,0,.64,0,.83,0,.79.07,1.57.13,2.35s.12,1.41.11,1.51-.13.22-.35.38l0,.05.12.17Zm2-3.24-.73.41-.76.42c0-.62-.08-1.25-.11-1.88C49.45,27.83,50,28.18,50.5,28.54Z" transform="translate(0 0)"/><path class="b" d="M52,28.2c-.33-.24-.66-.49-1-.72C51,27.73,51.51,27.93,52,28.2Z" transform="translate(0 0)"/><path class="b" d="M52.28,24.91c.28-.11.44-.16.48-.17a.16.16,0,0,1,.18.05,4.74,4.74,0,0,1,.43.9L54,27.25a6.4,6.4,0,0,1,.33.94.15.15,0,0,1-.08.16l-.4.2,0,.05.09.2H54c.21-.1.58-.27,1.09-.47s.86-.32,1.2-.42l0-.05-.07-.2h-.06l-.51.15a.16.16,0,0,1-.17-.07,5.82,5.82,0,0,1-.34-.76,1.86,1.86,0,0,1-.09.47l-.41-.91-.23.9c0-.42.3-1.35-.18-1.49l.45-.17c-.06-.18-.13-.35-.2-.53a7.52,7.52,0,0,1-.34-1l.48-.21.07,0c0-.12.06-.25.1-.39l-.43.16-1,.38-1.22.48,0,.05.09.19Z" transform="translate(0 0)"/><path class="b" d="M56,24.54a.83.83,0,0,1,0,.68,1,1,0,0,1-.56.44H55.3a.87.87,0,0,0-.1.31,2.81,2.81,0,0,0,1.6-.89A1.14,1.14,0,0,0,57.06,24a.84.84,0,0,0-.33-.48,1.89,1.89,0,0,0-1.61,0l-.3.11a2.17,2.17,0,0,0,0,.36A.83.83,0,0,1,56,24.54Z" transform="translate(0 0)"/><path class="b" d="M91,31a2.14,2.14,0,0,0-.38,1.87,3.9,3.9,0,0,0,1.31,1.89,4.33,4.33,0,0,0,2.17,1.17,2.2,2.2,0,0,0,2-.62,1.82,1.82,0,0,0,.56-1.79,3.15,3.15,0,0,0-.34-.85c-.06,1-.07,2.25-.62,2.72a3.36,3.36,0,0,0-.26-1.51,2.36,2.36,0,0,1-.41.56,2.47,2.47,0,0,1-.91.61,1.67,1.67,0,0,1-1.8-.44,1.91,1.91,0,0,1-.73-1.42,2.44,2.44,0,0,1,.6-1.52,2,2,0,0,1,.79-.63,1.71,1.71,0,0,1,1.91.5,2,2,0,0,1,.77,1.38.86.86,0,0,0,.46.24l.06-.74a5.75,5.75,0,0,0-1-1.08,5.36,5.36,0,0,0-1.62-1A2.08,2.08,0,0,0,91,31Z" transform="translate(0 0)"/><path class="b" d="M104.67,45.35l-.2,0a.67.67,0,0,1,.16.23Z" transform="translate(0 0)"/><path class="b" d="M98.3,46.05l3.32,1.89-.77,3.75,2.83-2.57L107,51l-1.57-3.49L108.26,45l-3,.33a11.12,11.12,0,0,0-.34,2.54l-.22-.83a3.07,3.07,0,0,0-.19,1.65c-.76.34-.13-1.06-.75-1.4.62-.53-.36-1,.34-.92.31-.8-.28-.93-.56-1.32a1.6,1.6,0,0,1,.85.33l-1.55-3.45-.78,3.75Z" transform="translate(0 0)"/><path class="b" d="M58.06,40.19l3.33,1.89-.78,3.75,2.83-2.58,3.32,1.9L65.21,41.7a5.09,5.09,0,0,0-.11,1c-.26.69-.1-.85-.41-.58,0,.11-.28.15-.44-.26l.19-.78c.23,1.37.37-.71.88.18,0,.11-.06.22-.09.32L68,39.09l-3.81.42L62.64,36l-.78,3.75-.46,0,.07,1.34c-.35-.1-.4-.83-.28-1.32Z" transform="translate(0 0)"/><path class="b" d="M27.86,57.48l3.32,1.89-1.57-3.48,2.83-2.58-3.12.35A8.47,8.47,0,0,0,29.56,56c-.18-.08-.12-.52-.22-.83l-.66.65c-.31-.61.21-.58.34-.92.12-.89-.55-.24-.57-.46l.43-.28.32.81c.2-.29-.15-1,0-1.3l-.54.06-1.57-3.48L26.28,54l-3.8.42,3.32,1.9L25,60.05Z" transform="translate(0 0)"/><path class="b" d="M76.78,26.53l0,0c0,.07,0,.14,0,.2l0,0c.41.08.67.14.77.17s.44.12.89.26l0,0,.06-.2,0,0-.38-.13c-.11,0-.16-.11-.14-.19a2,2,0,0,1,.34-.48l.28-.33c.4.1.7.19.9.25l1.09.36c0,.25,0,.5.08.75a.78.78,0,0,1,0,.32c0,.07-.1.08-.24,0l-.33-.09,0,0a1.46,1.46,0,0,1-.07.19l0,0c.39.12.81.26,1.26.43.12.05.44.17,1,.41l0,0,.08-.19,0,0a1.57,1.57,0,0,1-.33-.18c-.06,0-.1-.15-.12-.32,0-.48-.12-1-.19-1.46-.26.26-.51.56,0,.59l-.72.2c.76-.8.25-.85.5-1.45-.21,0-.33.31-.44.37-.3-.05.61-1.5-.1-1.66l.43-.33c0-.25-.09-.51-.14-.77l-.6-.19-.58.59c-.57.56-1.11,1.13-1.64,1.71s-.95,1.06-1,1.12S77,26.58,76.78,26.53Zm3.36-2.37c.12.62.23,1.25.33,1.87l-.81-.25-.83-.26C79.25,25.06,79.69,24.61,80.14,24.16Z" transform="translate(0 0)"/><path class="b" d="M63.74,104.65l-.67-.06-.89-.09c-.49-.06-.86-.12-1.1-.17l0,0,0,.21,0,0a2.44,2.44,0,0,1,.42.1c.07,0,.11.07.11.13a4.9,4.9,0,0,1-.07.86,4.83,4.83,0,0,0,.41,1.25c-.24.36,0,1.2-.24,1.77l-.4-.91-.23.9a.74.74,0,0,1,0-.21.15.15,0,0,1-.14.08,4.3,4.3,0,0,1-.48,0l-.05,0,0,.22,0,0,1.26.16,1.34.16.05,0c0-.07,0-.14,0-.21l0,0c-.35,0-.53-.08-.56-.08s-.12-.07-.12-.14a5.23,5.23,0,0,1,.06-1c.06-.56.13-1.12.19-1.68a6.8,6.8,0,0,1,.15-1h.45c.62.06.91.38.86,1a.86.86,0,0,1-.28.62.88.88,0,0,1-.65.18,1.15,1.15,0,0,1-.29-.08l-.09.06c.05.11.09.19.11.25a3.89,3.89,0,0,0,.47.09,2,2,0,0,0,1.26-.28,1.14,1.14,0,0,0,.59-1,1,1,0,0,0-.13-.56C64.84,104.87,64.41,104.7,63.74,104.65Z" transform="translate(0 0)"/><path class="b" d="M33.18,83.39l.06,1.12c-.3-.09-.38-.63-.33-1.09l-1,.11L30.35,80l-.78,3.75-3.8.42,3.32,1.89-.78,3.75,2.75-2.5c.12-.31-.41-1.12-.38-1.69.3.6.31-.27.47-.4,0,.87.52,1.63.05,2l3.27,1.86-1.58-3.49,2.83-2.57Z" transform="translate(0 0)"/><path class="b" d="M74.81,107.49l-.24,0,0,0,0,.4a.48.48,0,0,1,0,.21l-.06,0a6.42,6.42,0,0,1-1.42.3l-.55.07a2.7,2.7,0,0,1,0-.28c-.2.4-.09-.94-.38-.69,0,.12-.27.15-.43-.26l.19-.78c.13.81.24.42.4.14,0-.28-.07-.56-.1-.84a7.24,7.24,0,0,1-.08-1,.17.17,0,0,1,.12-.13l.42-.09,0,0,0-.22,0,0c-.26,0-.64.1-1.14.16s-.85.08-1.1.08l0,0c0,.07,0,.14,0,.21l0,0a2.67,2.67,0,0,1,.43,0,.15.15,0,0,1,.14.1,6.15,6.15,0,0,1,.14,1c.06.53.11,1.07.16,1.61l.06.72a1.49,1.49,0,0,1,0,.42,1.15,1.15,0,0,1-.3.22l0,0v.09l0,0,1-.13c1-.1,2-.24,3-.41l0,0a5.23,5.23,0,0,1-.11-1.06Z" transform="translate(0 0)"/><path class="b" d="M73.59,89.64,70.82,90A10.61,10.61,0,0,0,71,92Z" transform="translate(0 0)"/><path class="b" d="M69.79,90.06l-1.57-3.49-.78,3.75-3.8.42L67,92.63l-.77,3.75L69,93.81l3.33,1.89-1.58-3.49.18-.16c0-.17,0-.4-.09-.59l-.67.65c-.3-.61.21-.58.34-.93.12-.88-.54-.23-.57-.45l.43-.28.33.81c.2-.3-.15-1,0-1.3Z" transform="translate(0 0)"/><path class="b" d="M89.81,102.61a1.32,1.32,0,0,1-.36.18.55.55,0,0,1-.33-.1l-.8-.5a4.21,4.21,0,0,0,.16.69c-.16-.06-.14-.42-.2-.71l-.08,0-.61.58c-.26-.52.09-.57.27-.79-.86-.54-1.7-1.1-2.51-1.68l-.47.24c0,.36,0,.63,0,.81,0,.77,0,1.54,0,2.32a14.93,14.93,0,0,1-.08,1.51q0,.14-.42.33l0,0,.08.2h0l.76-.37.9-.4,0,0-.09-.18h-.05l-.39.16c-.12,0-.2,0-.24,0a2,2,0,0,1,0-.59c0-.14,0-.29,0-.43l.83-.42c.34-.17.68-.34,1-.52l.62.44a1.44,1.44,0,0,1,.25.2c0,.07,0,.14-.14.22l-.31.19,0,.05.1.18h.05L89,103.4l1-.55,0,0c0-.06-.07-.12-.11-.17Zm-3.67.38-.76.37c0-.62,0-1.24,0-1.86.5.38,1,.74,1.53,1.1C86.68,102.71,86.44,102.84,86.14,103Z" transform="translate(0 0)"/><path class="b" d="M78.12,107.61l-.47.09a.15.15,0,0,1-.16-.08,5.64,5.64,0,0,1-.29-1L77,106c-.14-.21-.31-.34-.53-.23l.19-.79-.23,0c0-.51.07-.55.22-.47a3.15,3.15,0,0,1-.07-.45.18.18,0,0,1,.09-.15l.41-.13,0,0,0-.21,0,0c-.22.07-.59.17-1.09.29l-1.11.22,0,0,0,.22,0,0,.43-.06a.2.2,0,0,1,.15.09,7.59,7.59,0,0,1,.26,1l.36,1.66a5.55,5.55,0,0,1,.16,1,.16.16,0,0,1-.11.14l-.46.13,0,0c0,.07,0,.14,0,.21l0,0,1.23-.28,1.24-.29,0,0-.06-.21Z" transform="translate(0 0)"/><path class="b" d="M78.3,105.48a2.11,2.11,0,0,0,.44.82,20.34,20.34,0,0,1-.3-2.33A2.06,2.06,0,0,0,78.3,105.48Z" transform="translate(0 0)"/><path class="b" d="M82.35,106.22a2.49,2.49,0,0,1-1.45.17A1.89,1.89,0,0,1,79.42,105a1.78,1.78,0,0,1,.09-1.44,2.1,2.1,0,0,1,1.18-.93,2,2,0,0,1,1.43-.07,4.49,4.49,0,0,1,.24.49h0l.21-.08,0,0a4.63,4.63,0,0,1-.26-1l-.06,0a6.59,6.59,0,0,0-1.76.38,4.5,4.5,0,0,0-1.63,1,10.11,10.11,0,0,0,.17,3.2l0-.12c0,.11,0,.21,0,.3a3.18,3.18,0,0,0,3,.11,4.5,4.5,0,0,0,1.67-1c0-.13,0-.25,0-.38l-.13,0A3.52,3.52,0,0,1,82.35,106.22Z" transform="translate(0 0)"/></g></svg>