<svg xmlns="http://www.w3.org/2000/svg" width="16.13in" height="3.02in" viewBox="0 0 1161.37 217.69"><defs><style>.a{isolation:isolate;}.b,.d{opacity:0.45;}.b{mix-blend-mode:multiply;}.c{fill:#195a57;}</style></defs><title>passport-stamp-final-1</title><g class="a"><g class="b"><path class="c" d="M1076.83,192l.09-.65c-15.4-13.3-30-15.69-39.93-15.18a45.2,45.2,0,0,0-20,5.48l1.37,2.23c.29-.17,27.76-16.47,57.76,10.28C1076.41,193.08,1076.53,191.93,1076.83,192Z" transform="translate(0 0)"/><path class="c" d="M1129.75,217.37a50.14,50.14,0,0,0,17.4-4.87l-1.26-2.31a47.86,47.86,0,0,1-15.46,4.46A13.9,13.9,0,0,1,1129.75,217.37Z" transform="translate(0 0)"/><path class="c" d="M1128.23,215.31h0l-.48.92c-.09.31-.17.57-.3.54l.3-.54c.1-.42.22-.9.48-.92l.23-.45c-.89.07-1.8.14-2.74.17-11,.37-27.52-2.65-43.94-19.2-1.48-1.5-3-2.88-4.43-4.17a1.38,1.38,0,0,0-.5.8l.72.28a2.39,2.39,0,0,0-.79,1.93q1.56,1.42,3.14,3c1.7,1.72,3.4,3.27,5.1,4.72l.1-.91c.18-.45.87-1.29.79-.5a3,3,0,0,0-.63,1.63c1.7,1.43,3.39,2.75,5.07,3.94a2.27,2.27,0,0,1,.18-.25c.3,0,.37.23.33.59a60.47,60.47,0,0,0,21.29,9.49,55.11,55.11,0,0,0,13.79,1.27l1.76-.1A4.11,4.11,0,0,0,1128.23,215.31Zm-44.1-14.3-.44-.4.86-.33Z" transform="translate(0 0)"/><path class="c" d="M1100.17,173.21l-.29-.2C1100,173.16,1100,173.27,1100.17,173.21Z" transform="translate(0 0)"/><path class="c" d="M1153,178.15a52.61,52.61,0,0,1-44.31-.15c-.3,1.52,1.13.19,1,2.14l-1.42.07c-.27.26-.55.4-.77,0l.77,0a4.83,4.83,0,0,0,.37-.42c.17-.45-.21-.67-.49-.56l-.07.31c-.44-.31.22-1.46.07-1.78l-.17-.08a1.31,1.31,0,0,0-.41.16l.34-.19a61.48,61.48,0,0,1-7.66-4.37l-.36.7c.51.09-.4.25.07-.31-.4.25-.39-.23-.72-.29a2.79,2.79,0,0,1,.26-.61,74.66,74.66,0,0,1-10.66-9c-1-1-1.95-1.91-2.92-2.8a3.55,3.55,0,0,1-1.51,1.93c.56-1.17.23-2.08.44-2.89q-2.73-2.43-5.42-4.41l-.33,1.2c-.33-.23-.26-.89,0-1.46-1.37-1-2.74-1.92-4.09-2.76a1.1,1.1,0,0,1-.57.18c.16,0,.24-.16.28-.36a59,59,0,0,0-7-3.71,5.62,5.62,0,0,1-.8,1.78,5.2,5.2,0,0,1-.32-.79l-.45.32c.22-.64.35-.57.45-.32l.46-.32a3.54,3.54,0,0,1,0-1,51,51,0,0,0-23-4.32,45.47,45.47,0,0,0-20,5.48l1.37,2.24c.3-.18,30.09-17.86,61.51,13.82,11.22,11.3,22.52,16.55,32.23,18.7a54.22,54.22,0,0,0,13.8,1.27,51.29,51.29,0,0,0,21.24-5.16Zm-36,4.58c-.14,0-.23,0-.21-.12s.13,0,.21.12a1.88,1.88,0,0,0,1.09-.54C1117.86,184,1117.34,183.08,1117,182.73Z" transform="translate(0 0)"/><path class="c" d="M1093.77,189.27l-.58.7a18.15,18.15,0,0,0,.77-2.62,75.44,75.44,0,0,1-8.66-7.54c-17.14-17.28-33.8-20.24-44.75-19.68a45.42,45.42,0,0,0-20,5.47l1.37,2.24c.3-.18,30.09-17.86,61.51,13.82a78.35,78.35,0,0,0,10.3,8.78Z" transform="translate(0 0)"/><path class="c" d="M1094.18,187.52a22.15,22.15,0,0,1-.39,3c.78.54,1.55,1.07,2.31,1.56,0-.92-.2-2,.43-2.87C1095.75,188.65,1095,188.1,1094.18,187.52Z" transform="translate(0 0)"/><path class="c" d="M1096.73,189.31l0,.48a.32.32,0,0,0,.42-.17Z" transform="translate(0 0)"/><path class="c" d="M1138.12,200.64a46.19,46.19,0,0,0,12.58-4.17l-1.26-2.3a45,45,0,0,1-11,3.71C1139,198.54,1138.44,199.49,1138.12,200.64Z" transform="translate(0 0)"/><path class="c" d="M1136.48,199.07s0,0,0,0c-.16.32-.33.62-.48.91s-.17.58-.3.55l.3-.55c.1-.41.22-.89.48-.91l.45-.89a53.49,53.49,0,0,1-7.65.83c-8.22.28-19.54-1.35-31.6-9.11-.36.83-.73,1.66-1,2.46l.61.37a6,6,0,0,0,.39-.71,2.62,2.62,0,0,1-.06.92,59.06,59.06,0,0,0,18.11,7.41,55,55,0,0,0,20.41.64A4.62,4.62,0,0,0,1136.48,199.07Z" transform="translate(0 0)"/><path class="c" d="M1093,151.79l.65-1c-.34,2,.86-.82,1.16.69a5,5,0,0,0-.81,1.42l.57.52c.39-.8.78-1.64,1.17-2.47q-1.65-1.49-3.32-3.16c-9.69-9.77-19.23-15-27.68-17.53a4.73,4.73,0,0,1-.66,1.44l-.14-1.47-.76,1.16c.08-.38.45-.94.6-1.42a50,50,0,0,0-16.11-1.87,45.41,45.41,0,0,0-20,5.48l1.37,2.24c.3-.18,30.09-17.86,61.51,13.82.82.83,1.64,1.61,2.47,2.38A.71.71,0,0,1,1093,151.79Z" transform="translate(0 0)"/><path class="c" d="M1093.48,152.36l0,0,.22.2C1093.68,152.41,1093.64,152.3,1093.48,152.36Z" transform="translate(0 0)"/><path class="c" d="M1156.56,162.13a49.75,49.75,0,0,1-20.2,4.84c-8.46.29-20.2-1.44-32.64-9.79l-.58.41a3.31,3.31,0,0,0,.22-.65,70.15,70.15,0,0,1-6.79-5.27,7,7,0,0,1-.07.74c-.09-.35-.08-.83-.37-.72a4.79,4.79,0,0,0-.72,1.82,1.06,1.06,0,0,1,.58,1.11,73,73,0,0,0,6.09,4.62l.12,0v.11l.39.27c.07-.55.12-1.1.51-1-.12.43-.23.79-.34,1.14a59.74,59.74,0,0,0,20,8.62,54.18,54.18,0,0,0,13.79,1.27,51.55,51.55,0,0,0,21.25-5.16Z" transform="translate(0 0)"/><path class="c" d="M1117.29,149.47l.14-.68-.52.53Z" transform="translate(0 0)"/><path class="c" d="M1120.17,150.55a20.23,20.23,0,0,1,.81-2.5c-1-.33-1.93-.7-2.91-1.1a20.57,20.57,0,0,0-.49,2.35c.12,0,.26.11.39,0l.18-.26a.57.57,0,0,1-.18.26l-.22.32C1118.56,150,1119.37,150.27,1120.17,150.55Z" transform="translate(0 0)"/><path class="c" d="M1160.11,146.11a49.94,49.94,0,0,1-20.2,4.84,52.16,52.16,0,0,1-18.48-2.74,5.91,5.91,0,0,1-.59,2.57c1.88.62,3.72,1.12,5.5,1.52a54.6,54.6,0,0,0,13.79,1.27,51.47,51.47,0,0,0,21.24-5.16Z" transform="translate(0 0)"/><path class="c" d="M1114.2,148.06l1,.17c0,.11-.1.2-.15.29l.4.17.21-1,.43.4a12.63,12.63,0,0,0,.83-1.6,67.39,67.39,0,0,1-21-14.72,76.35,76.35,0,0,0-13.88-11.2,5.73,5.73,0,0,0-.26.71l.06-.84-.19-.12a4.31,4.31,0,0,0-.85,1.92c-1.23.11.33-1.55-.38-2.33a1.21,1.21,0,0,0,.28-.15c-11.44-6.73-21.88-8.07-29.53-7.68a45.35,45.35,0,0,0-20,5.48l1.37,2.24c.3-.19,30.09-17.86,61.51,13.82a71.16,71.16,0,0,0,20.09,14.51Z" transform="translate(0 0)"/></g><g class="d"><path class="c" d="M59.92,79.33C44.52,66,29.91,63.64,20,64.15A45.2,45.2,0,0,0,0,69.63l1.37,2.23c.29-.17,27.76-16.47,57.76,10.28.28-1.06.4-2.21.7-2.16Z" transform="translate(0 0)"/><path class="c" d="M113.43,102.65a13.9,13.9,0,0,1-.68,2.72,50.14,50.14,0,0,0,17.4-4.87l-1.26-2.31A47.86,47.86,0,0,1,113.43,102.65Z" transform="translate(0 0)"/><path class="c" d="M108.68,103c-11,.37-27.52-2.65-43.94-19.21-1.48-1.49-3-2.87-4.43-4.16a1.38,1.38,0,0,0-.5.8l.72.28a2.39,2.39,0,0,0-.79,1.93q1.56,1.42,3.14,3c1.7,1.72,3.4,3.27,5.1,4.72l.1-.91c.18-.45.87-1.29.79-.5a3,3,0,0,0-.63,1.63c1.7,1.43,3.39,2.75,5.07,3.94a2.27,2.27,0,0,1,.18-.25c.3,0,.37.23.33.59a60.47,60.47,0,0,0,21.29,9.49,55.11,55.11,0,0,0,13.79,1.27l1.76-.1a4.11,4.11,0,0,0,.57-2.25h0l-.48.92c-.09.31-.17.57-.3.54l.3-.54c.1-.42.22-.9.48-.92l.23-.45C110.53,102.94,109.62,103,108.68,103ZM67.13,89l-.44-.4.86-.34Z" transform="translate(0 0)"/><path class="c" d="M83.17,61.21l-.29-.2C83,61.16,83,61.27,83.17,61.21Z" transform="translate(0 0)"/><path class="c" d="M91.69,66c-.3,1.51,1.13.19,1,2.14l-1.42.07c-.27.26-.55.4-.77,0l.77,0a4.83,4.83,0,0,0,.37-.42c.17-.45-.21-.67-.49-.56l-.07.31c-.44-.31.22-1.46.07-1.78L91,65.68a1.5,1.5,0,0,0-.41.15l.34-.18a61.48,61.48,0,0,1-7.66-4.37l-.36.7c.51.09-.4.25.07-.31-.4.25-.39-.23-.72-.29a2.79,2.79,0,0,1,.26-.61,74.66,74.66,0,0,1-10.66-9c-1-1-2-1.91-2.92-2.8a3.55,3.55,0,0,1-1.51,1.93c.56-1.17.23-2.08.44-2.89q-2.73-2.43-5.42-4.41l-.33,1.2c-.33-.23-.26-.89,0-1.46-1.37-1-2.74-1.92-4.09-2.76a1.1,1.1,0,0,1-.57.18c.16,0,.24-.16.28-.36a59,59,0,0,0-7-3.71,5.62,5.62,0,0,1-.8,1.78,5.2,5.2,0,0,1-.32-.79l-.45.32c.22-.64.35-.57.45-.32l.46-.32a3.54,3.54,0,0,1,0-1,51,51,0,0,0-23-4.32,45.47,45.47,0,0,0-20,5.48l1.37,2.24C8.78,39.64,38.57,22,70,53.64c11.22,11.3,22.52,16.55,32.23,18.7A54.22,54.22,0,0,0,116,73.61a51.29,51.29,0,0,0,21.24-5.16L136,66.15A52.61,52.61,0,0,1,91.69,66ZM100,70.73c-.14,0-.23,0-.21-.12s.13,0,.21.12a1.88,1.88,0,0,0,1.09-.54C100.86,72,100.34,71.08,100,70.73Z" transform="translate(0 0)"/><path class="c" d="M23.55,48.13a45.42,45.42,0,0,0-20,5.47l1.37,2.24C5.23,55.66,35,38,66.44,69.66a78.35,78.35,0,0,0,10.3,8.78l0-1.17-.58.7A18.15,18.15,0,0,0,77,75.35a75.44,75.44,0,0,1-8.66-7.54C51.16,50.53,34.5,47.57,23.55,48.13Z" transform="translate(0 0)"/><path class="c" d="M77.18,75.52a22.15,22.15,0,0,1-.39,3c.78.54,1.55,1.07,2.31,1.56,0-.92-.2-2,.43-2.87C78.75,76.65,78,76.1,77.18,75.52Z" transform="translate(0 0)"/><path class="c" d="M79.73,77.31l0,.48a.32.32,0,0,0,.42-.17Z" transform="translate(0 0)"/><path class="c" d="M121.46,85.88c.53.66,0,1.61-.34,2.76a46.19,46.19,0,0,0,12.58-4.17l-1.26-2.3A45,45,0,0,1,121.46,85.88Z" transform="translate(0 0)"/><path class="c" d="M119.48,87.07s0,0,0,0c-.16.32-.33.62-.48.91s-.17.58-.3.55L119,88c.1-.41.22-.89.48-.91l.45-.89a53.49,53.49,0,0,1-7.65.83c-8.22.28-19.54-1.35-31.6-9.11-.36.83-.73,1.66-1,2.46l.61.37a6,6,0,0,0,.39-.71,2.62,2.62,0,0,1-.06.92,59.06,59.06,0,0,0,18.11,7.41,54.11,54.11,0,0,0,13.79,1.27,54.54,54.54,0,0,0,6.62-.63A4.62,4.62,0,0,0,119.48,87.07Z" transform="translate(0 0)"/><path class="c" d="M73.55,37.62c.82.83,1.64,1.61,2.47,2.38a.71.71,0,0,1,0-.21l.65-1c-.34,2,.86-.82,1.16.69A5,5,0,0,0,77,40.88l.57.52c.39-.8.78-1.64,1.17-2.47q-1.65-1.49-3.32-3.16C65.72,26,56.18,20.8,47.73,18.24a4.73,4.73,0,0,1-.66,1.44l-.14-1.47-.76,1.16c.08-.38.45-.94.6-1.42a50,50,0,0,0-16.11-1.87,45.41,45.41,0,0,0-20,5.48L12,23.8C12.34,23.62,42.13,5.94,73.55,37.62Z" transform="translate(0 0)"/><path class="c" d="M76.48,40.36l0,0,.22.2C76.68,40.41,76.64,40.3,76.48,40.36Z" transform="translate(0 0)"/><path class="c" d="M119.36,55c-8.46.29-20.2-1.44-32.64-9.79l-.58.41a3.31,3.31,0,0,0,.22-.65,70.15,70.15,0,0,1-6.79-5.27,7,7,0,0,1-.07.74c-.09-.35-.08-.83-.37-.72a4.79,4.79,0,0,0-.72,1.82A1.06,1.06,0,0,1,79,42.62a74.72,74.72,0,0,0,6.09,4.62l.12,0v.11l.39.27c.07-.55.12-1.1.51-1-.12.43-.23.79-.34,1.14a59.74,59.74,0,0,0,20,8.62,54.18,54.18,0,0,0,13.79,1.27,51.55,51.55,0,0,0,21.25-5.16l-1.26-2.3A49.75,49.75,0,0,1,119.36,55Z" transform="translate(0 0)"/><path class="c" d="M100.29,37.47l.14-.68-.52.53Z" transform="translate(0 0)"/><path class="c" d="M101,37.33l.18-.26a.57.57,0,0,1-.18.26l-.22.32c.81.32,1.62.62,2.42.9a20.23,20.23,0,0,1,.81-2.5c-1-.33-1.93-.7-2.91-1.1a20.57,20.57,0,0,0-.49,2.35C100.7,37.32,100.84,37.41,101,37.33Z" transform="translate(0 0)"/><path class="c" d="M109.34,40.3a54.6,54.6,0,0,0,13.79,1.27,51.47,51.47,0,0,0,21.24-5.16l-1.26-2.3A49.94,49.94,0,0,1,122.91,39a52.16,52.16,0,0,1-18.48-2.74,5.91,5.91,0,0,1-.59,2.57C105.72,39.4,107.56,39.9,109.34,40.3Z" transform="translate(0 0)"/><path class="c" d="M77.11,21.6A71.16,71.16,0,0,0,97.2,36.11v0l1,.17c0,.11-.1.2-.15.29l.4.17.21-1,.43.4a12.63,12.63,0,0,0,.83-1.6A67.39,67.39,0,0,1,79,19.75,76.35,76.35,0,0,0,65.09,8.55a5.73,5.73,0,0,0-.26.71l.06-.84L64.7,8.3a4.31,4.31,0,0,0-.85,1.92c-1.23.11.33-1.55-.38-2.33a1.21,1.21,0,0,0,.28-.15C52.31,1,41.87-.33,34.22.06a45.35,45.35,0,0,0-20,5.48L15.6,7.78C15.9,7.59,45.69-10.08,77.11,21.6Z" transform="translate(0 0)"/></g></g></svg>