<svg xmlns="http://www.w3.org/2000/svg" viewBox="0 0 176.13 173.3"><rect width="176.13" height="173.3" fill="#863376"/><path d="M66.88,162.19a8.45,8.45,0,0,1-1,.18,10.93,10.93,0,0,1-1.39.09,6.33,6.33,0,0,1-1.22-.1,2.14,2.14,0,0,1-.88-.38,1.62,1.62,0,0,1-.54-.75,3.66,3.66,0,0,1-.18-1.26V145.84a1.3,1.3,0,0,1,.34-1,2.49,2.49,0,0,1,1-.56,11.19,11.19,0,0,1,2.32-.52,21,21,0,0,1,2.63-.17q4.14,0,6.33,1.77a5.84,5.84,0,0,1,2.19,4.8,7.24,7.24,0,0,1-.47,2.66,5.51,5.51,0,0,1-1.38,2,6.2,6.2,0,0,1-2.31,1.32,10.17,10.17,0,0,1-3.22.46H66.88Zm1.56-9.63a2.85,2.85,0,0,0,1.93-.58,2.25,2.25,0,0,0,.68-1.79,2.2,2.2,0,0,0-.71-1.75,3,3,0,0,0-2-.62l-.8,0a4.81,4.81,0,0,0-.64.07v4.65Z" fill="#fff"/><path d="M77,153.19a10.89,10.89,0,0,1,.73-4.14,8.38,8.38,0,0,1,5-4.86,11.39,11.39,0,0,1,7.47,0,8.73,8.73,0,0,1,3,1.85,8.44,8.44,0,0,1,2,3,10.88,10.88,0,0,1,.74,4.14,11.23,11.23,0,0,1-.72,4.16,8.4,8.4,0,0,1-2,3,8.48,8.48,0,0,1-3,1.84,11,11,0,0,1-3.78.63,10.79,10.79,0,0,1-3.78-.64,8.44,8.44,0,0,1-3-1.88,8.67,8.67,0,0,1-2-3A11,11,0,0,1,77,153.19Zm5.4,0a6.33,6.33,0,0,0,1.11,4.08,4,4,0,0,0,6,0,8,8,0,0,0,0-8.13,3.63,3.63,0,0,0-3-1.35,3.72,3.72,0,0,0-3,1.34A6.19,6.19,0,0,0,82.36,153.19Z" fill="#fff"/><path d="M100.54,162.4a2.59,2.59,0,0,1-2.79-2.79V144.1l1-.16a9.6,9.6,0,0,1,1.38-.11,6.17,6.17,0,0,1,1.21.11,2.18,2.18,0,0,1,.89.37,1.62,1.62,0,0,1,.54.75,3.66,3.66,0,0,1,.18,1.26v11.85h6.87a4,4,0,0,1,.39.89,3.69,3.69,0,0,1,.18,1.15,2.32,2.32,0,0,1-.51,1.7,1.85,1.85,0,0,1-1.35.49Z" fill="#fff"/><path d="M116.11,144.67a6.3,6.3,0,0,1,1.54-.57,8.27,8.27,0,0,1,2.09-.27,7.47,7.47,0,0,1,2.65.44,2.31,2.31,0,0,1,1.49,1.36q.54,1.56,1.17,3.63c.42,1.38.84,2.81,1.26,4.28s.83,2.92,1.23,4.35.75,2.69,1,3.79a2.48,2.48,0,0,1-1.08.68,5.14,5.14,0,0,1-1.71.25,5.29,5.29,0,0,1-1.22-.12,2.16,2.16,0,0,1-.81-.36,1.77,1.77,0,0,1-.51-.63,5.47,5.47,0,0,1-.34-.9l-.54-2.07H117q-.24.9-.48,1.86t-.48,1.86a7.71,7.71,0,0,1-.89.26,5.17,5.17,0,0,1-1.12.1,4,4,0,0,1-2.27-.52,1.69,1.69,0,0,1-.73-1.46,3,3,0,0,1,.12-.84q.12-.42.27-1c.14-.54.33-1.21.58-2s.53-1.66.83-2.59.62-1.89,1-2.87l1-2.77c.3-.87.57-1.65.82-2.33S116,145,116.11,144.67Zm3.6,3.87c-.28.84-.6,1.78-.95,2.81s-.66,2.07-.94,3.13h3.72c-.28-1.08-.57-2.13-.86-3.16s-.55-2-.79-2.78Z" fill="#fff"/><path d="M146.32,161.68a2.77,2.77,0,0,1-1.22.65,7,7,0,0,1-1.9.22,6.6,6.6,0,0,1-2.1-.33,2.91,2.91,0,0,1-1.62-1.59l-3-6.06c-.3-.62-.57-1.2-.81-1.75s-.5-1.19-.78-1.91l-.18,0c.08,1.08.12,2.18.13,3.3s0,2.22,0,3.3v4.65a8.46,8.46,0,0,1-1,.18,10,10,0,0,1-1.33.09,6.79,6.79,0,0,1-1.17-.09,1.79,1.79,0,0,1-.84-.36,1.72,1.72,0,0,1-.51-.73,3.45,3.45,0,0,1-.18-1.22v-15a2.51,2.51,0,0,1,1.29-.9,5.67,5.67,0,0,1,1.86-.3,6.44,6.44,0,0,1,2.11.35,2.86,2.86,0,0,1,1.61,1.57l3,6.06c.3.62.57,1.21.81,1.76s.5,1.18.78,1.9l.15,0q-.12-1.62-.15-3.24t0-3.24v-4.86a8.22,8.22,0,0,1,1-.18,10.17,10.17,0,0,1,1.34-.09,3.6,3.6,0,0,1,2,.47,2.19,2.19,0,0,1,.69,1.93Z" fill="#fff"/><path d="M155.92,162.79l-1.17,0c-.44,0-.9-.06-1.37-.12s-.94-.13-1.41-.22a7.05,7.05,0,0,1-1.3-.38,2.23,2.23,0,0,1-1.65-2.19v-14a1.3,1.3,0,0,1,.34-1,2.49,2.49,0,0,1,.95-.56,12.58,12.58,0,0,1,2.73-.55c1-.09,1.82-.14,2.58-.14a14.74,14.74,0,0,1,4.24.57,8.74,8.74,0,0,1,3.27,1.76,7.9,7.9,0,0,1,2.12,3,11,11,0,0,1,.75,4.26,11.17,11.17,0,0,1-.72,4.19,8.08,8.08,0,0,1-2.06,3,8.57,8.57,0,0,1-3.19,1.81A13.33,13.33,0,0,1,155.92,162.79Zm-1.68-4.38c.22,0,.49.08.81.11s.62,0,.9,0a5.6,5.6,0,0,0,1.87-.3,3.77,3.77,0,0,0,1.47-.93,4.27,4.27,0,0,0,1-1.63,7.5,7.5,0,0,0,.35-2.42,5.79,5.79,0,0,0-1.26-4.06,4.36,4.36,0,0,0-3.36-1.37l-.86,0-.88.09Z" fill="#fff"/><path d="M113.13,71.62c-3.26,10-17.82,7.59-16.13,12.25.72,2,5.75.64,5.75.64s-1.69,3.51-.14,4.35S107.9,86,107.9,86s-.67,4.31,1.79,4.69,4-4.74,4-4.74,1.68,4.39,3.71,3.16.85-6.18.85-6.18S120.13,85,121.43,84C123.19,82.67,121.8,74.67,113.13,71.62Zm5.81,8.21c-.65.66-1.9-.37-1.9-.37s1,2.71,0,3.57-2.34-1.5-2.34-1.5-.45,3-1.86,3S111.46,82,111.46,82s-1.83,2.4-2.77,2-.26-2.48-.26-2.48-2.73,1.16-3.3.09c-1.32-2.51,7.09-2.26,8.15-8.18C118.41,74.52,119.83,78.94,118.94,79.83Z" fill="#fff"/><path d="M124.22,64.27a2.92,2.92,0,0,1-1.24.35c-1.37.07-4.55-1.43-4.67-3.93.12,2.5-1.27,4.6-3.11,4.69s-3.44-1.86-3.56-4.36c.12,2.5-1.27,4.6-3.11,4.69s-3.43-1.86-3.56-4.36c.13,2.5-2.67,4.87-4.53,4.76a2.38,2.38,0,0,1-2.1-1.19,95.8,95.8,0,0,1-3,10c2.29-59.51-71.08-41.15-64.91,6.77C59.52,53,81.21,59.73,90.9,80.6c-27.65-38.16-62,9-34.94,34.85C58.82,85.12,73.78,78.06,89,84.69c-23.78-4.25-26.4,26.14-4.9,30.46-7.23-14.87-2-23.29,7.7-25.91.28.49.57,1,.86,1.4,3.43,7.27,2.75,16.4-.67,25.24a3.58,3.58,0,0,0-2.74.54c.49.16,1,.33,1.4.51,4,3.67,4.32,6.71,2.1,10.25,4.09-2.49,4.42-5.44,2.28-7.73,1.93,1.72,3,4.09,3.18,7.62,3.75-5.58-.1-9.29-3.92-10.65,1.78-3.22,8-14.38,8-14.48s3.49,13.77,4.32,17.12a3.14,3.14,0,0,0-2,1.24c.54,0,1,0,1.55.06,5.15,2.4,6.36,5.33,5.24,9.52,3.29-3.72,2.71-6.74-.11-8.36,2.44,1.12,4.24,3.13,5.48,6.57,2-6.65-2.9-9.15-7.09-9.34-1-1.77-5.77-11.67,9.09-20.23,4.26-2.51,7.58-5.23,9.83-9.65C133.18,80,129,72.89,124.22,64.27ZM91.94,68.4l-2.68,1.19-.11-.1.55-.62c-.43-1.31-.68-1.86-1.2-3.18L86,65.38l2-1.14-.36-.83,3.65.28A32.42,32.42,0,0,1,91.94,68.4ZM78.66,62.78c-6.51-3.56-13.9-4.13-22-1.72-7.38,2.21-15.15,6.92-23.14,14A36.45,36.45,0,0,1,34,69.56L37.74,68l-2.86-2.35c.34-1.11,1-2.93,1.43-4l4.25.37a23.85,23.85,0,0,1-2.8-3.34,33.55,33.55,0,0,1,2.29-3.62l4.31,1.82L42,52.66a25.45,25.45,0,0,1,3.43-3.38l4.21,2.51L48,47.22a34.35,34.35,0,0,1,3.15-2l2.79,4s.28-2.9.52-5.69a24.07,24.07,0,0,1,3.34-1.31l.65-.2L61,46.07l.55-4.68c1-.17,2.35-.43,3.34-.49l1.7,5L68,40.69a17.11,17.11,0,0,1,3.6.36l.21,0,.2,5.47,3.3-4.37c.45.19,1.67.51,2.17.75l-.94,5.25,3.76-3.7a18.65,18.65,0,0,1,2.82,2.24L81,52.12,86,49.78c1.24,1.49.5.68,1.4,2.52l-3.08,4.1,4.58-1.18a25.59,25.59,0,0,1,1.7,5.05,31.89,31.89,0,0,1-3.33,2.39c-.17-.37-.31-.69-.38-.83l-2.56.07,1.76-1.8c-.44-.88-.91-1.75-1.29-2.47l-2.94.67,1.88-2.64a24.61,24.61,0,0,0-1.93-2.73l-3.31,1.62.91-3.81a17.67,17.67,0,0,0-3-1.81l-2.59,2.76.36-3.64a19.63,19.63,0,0,0-2.79-.7l-2.57,3.74L68.36,47a23.75,23.75,0,0,0-2.91.07L63.74,50.8l-1.29-3.26c-.91.18-1.82.41-2.75.68-.32.1-.07,0-.39.14L58.24,52l-1.88-2.59A33,33,0,0,0,53.21,51l.26,2.59L51.61,52c-.9.59-1.78,1.22-2.64,1.9l.46,2.54L47,55.55a32.26,32.26,0,0,0-2.88,3.07l1.2,2.65-2.54-.9a30.8,30.8,0,0,0-1.94,3.12l1.78.68L40.11,65c-.56,1.18-2,3.62-2.42,4.91,5.78-4.09,12.4-8.19,17.91-9.84,9.18-2.74,18-2,25.51,2.07,1.86,1,4.82,4.21,7.4,7.8l-.1,0,.16.05c1,1.33,1.84,2.7,2.61,4-.26-1.12-.59-2.32-1-3.57l1.67.48c0,1.85,0,3.77-.16,5.75C88.39,70.41,84,65.67,78.66,62.78Zm6.6,14.94-.92,1.89h-.21l0-.64c-.89-.57-1.29-.78-2.24-1.32l-1.58,1L80.91,77l-.46-.24,2.16-1.54A26.52,26.52,0,0,1,85.26,77.72ZM74.87,80.8c-5.47,1-10,4.27-13.51,9.61C58.17,95.3,56,101.86,54.77,110a28.75,28.75,0,0,1-2.39-3.52l1.4-2.71H51c-.33-.83-.83-2.23-1.08-3.06l2.63-1.84a17.66,17.66,0,0,1-3.23-.63,26.12,26.12,0,0,1-.42-3.27l3.36-1-3.42-1.41a20.23,20.23,0,0,1,.35-3.68l3.64-.54-3.17-1.92c.24-.93.52-1.85.84-2.73l3.55,1S52.8,82.81,51.59,81a17.11,17.11,0,0,1,1.3-2.39c.13-.2.14-.24.28-.43l3.43,1.18-1.94-3c.5-.58,1.15-1.39,1.69-1.91l3.42,2.17-1.72-3.8a12.77,12.77,0,0,1,2.25-1.53l.14-.07,2.76,3.16-.2-4.2c.35-.1,1.2-.51,1.61-.61l2,3.59.39-4a14.44,14.44,0,0,1,2.7,0l1.38,4.24,1.79-3.84c1.43.29.61.16,2,.83l.2,3.93,2.07-2.92a19.28,19.28,0,0,1,3.42,2.19,25.12,25.12,0,0,1-.74,2.94l-.71-.36-1.46,1.29.15-1.94c-.68-.31-1.38-.6-1.94-.85l-1.39,1.83-.18-2.49a17.92,17.92,0,0,0-2.45-.69l-1.13,2.57L69.4,73.08a13,13,0,0,0-2.62.39l-.16,2.91L65.06,74a15.29,15.29,0,0,0-2,.94l.33,3.49-2.26-2.18a17.25,17.25,0,0,0-1.65,1.46l.8,3L58,79.44c-.44.55-.86,1.13-1.27,1.74l-.16.28,1.16,2.72-2.34-.64A24.85,24.85,0,0,0,54.31,86l1.41,1.42-1.87-.06c-.24.79-.44,1.6-.61,2.43l1.5,1.29-1.81.64A24.94,24.94,0,0,0,52.75,95l2,1-1.91.7a25,25,0,0,0,.39,2.81L54.58,99l-1.09,1.73c.25,1,.6,3.14,1,4.11,1.37-5.26,3.22-10.93,5.62-14.6,4-6.11,9.45-10,15.8-11.17,1.58-.29,4.9.19,8.17,1.1l-.08.17.27-.12c1.12.33,2.24.7,3.27,1.1-.66-.51-1.39-1-2.17-1.58l1.11-.49c.91,1.09,1.81,2.26,2.68,3.51A24.4,24.4,0,0,0,74.87,80.8Zm13.52,6.41,0,1-.21.1-.16-.29c-.64,0-.93,0-1.59.09l-.57.93-.15-.91-.18,0,.69-1.29A14.84,14.84,0,0,1,88.39,87.21Zm-4.72,4.51a12,12,0,0,0-4.56,8.38,22.24,22.24,0,0,0,2,10.75,15.65,15.65,0,0,1-2.28-.86v-1.63l-1.51.83c-.41-.27-1.08-.74-1.44-1l.89-1.62a12.57,12.57,0,0,1-1.91.69,12,12,0,0,1-1.16-1.33l1.53-1.46-2.24.39a9.41,9.41,0,0,1-.85-1.75l1.81-1.34-2.25.1c-.13-.49-.24-1-.32-1.48l2.21-.61-2.35-.89a8.88,8.88,0,0,1,0-1.46,2.66,2.66,0,0,1,0-.28l2.18-.5-1.91-.78c.11-.42.23-1,.38-1.37l2.45-.06-2-1.18a7.7,7.7,0,0,1,.78-1.37l0-.07,2.38.58-1.29-1.82c.16-.15.5-.59.7-.76l2.08,1-.93-1.92A8.35,8.35,0,0,1,77.58,88l1.94,1.48-.12-2.26c.85-.3.37-.11,1.32-.24l1.22,1.7.29-1.94a14.27,14.27,0,0,1,2.46,0,10.07,10.07,0,0,1,.41,1.49l-.58.06-.42,1-.46-.92-1.3.21-.23,1.24-.81-1.06a11.67,11.67,0,0,0-1.52.43l.12,1.5-1.49-.83a9.06,9.06,0,0,0-1.31,1l.74,1.36-1.51-.59a8.68,8.68,0,0,0-.79,1l1.16,1.47-1.84-.3A10.86,10.86,0,0,0,74.38,95l1.3,1.13L74,96.21a11,11,0,0,0-.19,1.17c0,.13,0,0,0,.17l1.4.87-1.45.42a10,10,0,0,0,.13,1.44l1.16.21-1,.54c.1.43.22.86.36,1.28l1.18.13-.8.84a12.42,12.42,0,0,0,.83,1.51l1.35-.15-.83.89a11.93,11.93,0,0,0,1,1.15l.61-.62-.09,1.1a21,21,0,0,0,1.69,1.56,24.64,24.64,0,0,1-1.1-8.28,14.18,14.18,0,0,1,5.38-9.82,16.7,16.7,0,0,1,4.81-2v.17l.18-.22c.65-.18,1.3-.34,1.93-.46-.47,0-1,0-1.51,0l.43-.51c.79.21,1.61.46,2.43.76A17.65,17.65,0,0,0,83.67,91.72ZM124,86.65c-1.81,1.19-4.18-1.73-4.18-1.73s1.13,6.67-1.67,8.12-4.65-4.51-4.65-4.51-2.44,6.67-5.66,6-2-6.36-2-6.36-5.29,4.61-7.26,3.35.56-5.76.56-5.76-6.79,1.36-7.58-1.35C89.71,78,108.81,82.51,114,69.5,125.25,74.29,126.4,85,124,86.65Z" fill="#fff"/><path d="M99.69,62.08c1.87.11,4.68-2.12,4.55-4.48.13,2.36,1.73,4.2,3.58,4.11s3.25-2.06,3.12-4.42c.13,2.36,1.73,4.2,3.58,4.11s3.25-2.06,3.12-4.42c.13,2.36,3.32,3.77,4.7,3.7a3.11,3.11,0,0,0,2.25-1.14c.6-.8.73-2-.46-3.9a67.53,67.53,0,0,1-4.88-7.93c.22-.1.44-.2.67-.33,4.62-2.5-.79-7.33-3.23-13.42a14.14,14.14,0,0,1-1-3.84,3.38,3.38,0,0,1,.08-.82c.61-3.08,3.59-10.92-10.8-11.85-1.09.93-.1,3.67-.1,3.67-1.46-.41-2.18-.91-5.23,0a8.24,8.24,0,0,0,4.09,4.68h0a9.76,9.76,0,0,0-8.87,1.55l4,2.91L91.32,34s4.13,4.35,9.16,3.63c0,.5-.07,1-.09,1.57-.37,7.41-2.83,18.43-2.83,18.43-.66,2.13-.26,3.4.7,4A2.93,2.93,0,0,0,99.69,62.08Zm8.87-18.87a1.26,1.26,0,0,1-1,1.43c-.57,0-1.06-.56-1.1-1.32a1.56,1.56,0,0,1-1.42,1.45c-.58,0-.64-.51-.65-1.42s.23-2.85.21-4.6a11,11,0,0,1,.54-3.34A14,14,0,0,0,106.54,34a4.54,4.54,0,0,0,4.63,3.41,3,3,0,0,0,.42,0,34.43,34.43,0,0,0,1,5.31c.47,1.24-.06,1.55-.49,1.57s-1.42-.42-1.45-1.18a1.26,1.26,0,0,1-1,1.43C109.09,44.55,108.59,44,108.56,43.21Zm2.56-6.77a3.56,3.56,0,1,1,3.37-3.73A3.57,3.57,0,0,1,111.12,36.44Zm-10.8,16.75s1.66-7,1.6-11.14a43.68,43.68,0,0,1,.19-4.79,9,9,0,0,0,1-.43c-.14,1.35-.21,2.8-.27,4.25-.12,2.82-.55,6.3-.61,7.84s0,2.41,1,2.5A2.77,2.77,0,0,0,105.79,49c0,1.31.84,2.36,1.85,2.33A2.14,2.14,0,0,0,109.4,49v.23a1.89,1.89,0,0,0,1.89,2A2.12,2.12,0,0,0,113,48.78c.06,1.31,1.78,2.13,2.54,2.11s1.68-.53.83-2.69v0a3.4,3.4,0,0,0,.46.06c.67,1.24,1.38,2.42,2.13,3.56,1.64,2.73-.13,3.64-1.11,3.69s-3.23-1-3.32-2.8c.09,1.78-.9,3.28-2.21,3.34s-2.45-1.33-2.53-3.11c.08,1.78-.91,3.28-2.22,3.35s-2.44-1.33-2.53-3.11a3.58,3.58,0,0,1-3.22,3.39C100.5,56.46,99.65,55.47,100.32,53.19Z" fill="#fff"/><path d="M115.68,30.12a14.14,14.14,0,0,0,1,3.84c2-1.47,6.27-.57,6.27-.57a6.76,6.76,0,0,0-7.2-4.09A3.38,3.38,0,0,0,115.68,30.12Z" fill="#fff"/><path d="M112.3,31.59a1.38,1.38,0,1,0,1.45,1.31A1.38,1.38,0,0,0,112.3,31.59Z" fill="#fff"/></svg>