<svg xmlns="http://www.w3.org/2000/svg" viewBox="0 0 176.13 178.03"><rect width="176.13" height="173.3" fill="#273691"/><text transform="translate(18.34 162.31)" font-size="30" fill="#fff" font-family="Baloo-Regular, Baloo" letter-spacing="-0.04em">SIN<tspan x="42.45" y="0" letter-spacing="-0.03em">G</tspan><tspan x="61.47" y="0" letter-spacing="-0.04em">APORE</tspan></text><path d="M56.59,36.22c7.71,19.74,7.6,51.36,7.51,77.4V124.8h3.65l0-6.61c.06-26.19.14-60.93,8.49-82Z" fill="#fff"/><path d="M63.05,113.61c.09-25.47.2-56.32-7-75.92V124.8h7Z" fill="#fff"/><path d="M69.16,97.67c0,.69,0,1.39,0,2.08h8.19V97.67Z" fill="#fff"/><path d="M69.21,95.23c0,.7,0,1.4,0,2.09h8.15V95.23Z" fill="#fff"/><path d="M69.11,100.1l0,2.09h8.23V100.1Z" fill="#fff"/><path d="M69.27,92.8c0,.69,0,1.39,0,2.08h8.09V92.8Z" fill="#fff"/><path d="M69.43,87.93c0,.69-.05,1.39-.07,2.09h8V87.93Z" fill="#fff"/><path d="M69.65,83.06c0,.69-.07,1.39-.1,2.09h7.76V83.06Z" fill="#fff"/><path d="M69.35,90.36c0,.7,0,1.4-.07,2.09h8V90.36Z" fill="#fff"/><path d="M69.08,102.54l0,2.08h8.26v-2.08Z" fill="#fff"/><path d="M69.53,85.49c0,.7-.06,1.39-.08,2.09h7.86V85.49Z" fill="#fff"/><path d="M69,117.14c0,.36,0,.71,0,1v1h8.33v-2.09Z" fill="#fff"/><rect x="68.98" y="119.58" width="8.33" height="2.09" fill="#fff"/><path d="M77.31,41.32V36.86q-.84,2.13-1.57,4.46Z" fill="#fff"/><path d="M69,114.71v2.09h8.32v-2.09Z" fill="#fff"/><path d="M69.05,105c0,.7,0,1.4,0,2.09h8.28V105Z" fill="#fff"/><path d="M69,112.28v2.08h8.31v-2.08Z" fill="#fff"/><path d="M69,107.41c0,.69,0,1.39,0,2.08h8.29v-2.08Z" fill="#fff"/><path d="M69,109.84c0,.7,0,1.4,0,2.09h8.31v-2.09Z" fill="#fff"/><path d="M73.71,49c-.16.69-.31,1.39-.45,2.09h4V49Z" fill="#fff"/><path d="M73.19,51.41c-.14.69-.28,1.38-.41,2.08h4.53V51.41Z" fill="#fff"/><path d="M72.72,53.84c-.12.69-.25,1.39-.37,2.09h5V53.84Z" fill="#fff"/><path d="M71.91,58.71c-.1.69-.2,1.39-.29,2.09h5.69V58.71Z" fill="#fff"/><path d="M72.3,56.28c-.12.69-.23,1.38-.33,2.08h5.34V56.28Z" fill="#fff"/><path d="M74.28,46.54c-.17.69-.34,1.38-.5,2.09h3.53V46.54Z" fill="#fff"/><polygon points="68.97 122.01 68.96 124.8 77.31 124.8 77.31 122.01 68.97 122.01" fill="#fff"/><path d="M75.63,41.67c-.21.68-.41,1.38-.61,2.09h2.29V41.67Z" fill="#fff"/><path d="M74.92,44.1c-.19.69-.37,1.39-.55,2.09h2.94V44.1Z" fill="#fff"/><path d="M71.25,63.58,71,65.67h6.3V63.58Z" fill="#fff"/><path d="M70.48,70.89c-.06.69-.12,1.38-.17,2.08h7V70.89Z" fill="#fff"/><path d="M70.28,73.32c-.06.69-.11,1.39-.16,2.09h7.19V73.32Z" fill="#fff"/><path d="M70.09,75.75c0,.7-.1,1.39-.14,2.09h7.36V75.75Z" fill="#fff"/><path d="M71.57,61.15c-.1.69-.19,1.38-.27,2.08h6V61.15Z" fill="#fff"/><path d="M69.93,78.19c-.05.69-.09,1.39-.13,2.09h7.51V78.19Z" fill="#fff"/><path d="M69.78,80.62c0,.7-.08,1.39-.11,2.09h7.64V80.62Z" fill="#fff"/><path d="M71,66c-.08.69-.15,1.38-.22,2.08h6.56V66Z" fill="#fff"/><path d="M70.72,68.45c-.07.69-.14,1.39-.2,2.09h6.79V68.45Z" fill="#fff"/><polygon points="94.52 124.82 94.52 70.56 92.09 69.52 81.13 69.52 78.52 70.56 78.52 124.82 94.52 124.82" fill="#fff"/><polygon points="48.96 64.45 39.05 64.45 33.66 67.06 33.66 124.8 54.47 124.8 54.47 67.06 48.96 64.45" fill="#fff"/><polygon points="91.91 52.8 81.13 52.8 79.67 54.1 79.66 68.63 81.09 68.06 92.05 68.06 93.38 68.63 93.32 54.1 91.91 52.8" fill="#fff"/><rect x="81.13" y="43.41" width="10.78" height="8.17" fill="#fff"/><polygon points="80.35 51.76 80.35 42.55 81.65 42.55 81.65 28.63 71.05 24.45 71.05 34.85 78.52 34.71 78.52 53.35 80.35 51.76" fill="#fff"/><polygon points="104.61 103.75 104.61 124.8 95.22 124.8 95.22 101.67 104.61 103.75" fill="#fff"/><rect x="105.3" y="111.23" width="3.48" height="13.56" fill="#fff"/><polygon points="127.08 63.76 127.08 49.14 126.29 49.14 126.29 35.77 124.93 35.77 124.93 28.49 116.96 26.54 112.98 28.49 112.98 35.77 111.62 35.77 111.62 49.14 110.83 49.14 110.83 63.76 109.48 63.76 109.48 124.8 128.44 124.8 128.44 63.76 127.08 63.76" fill="#fff"/><polygon points="37.13 63.06 47.05 63.06 47.05 52.45 42.52 52.45 42.52 49.84 41.83 49.84 41.83 52.45 33.48 52.45 33.48 49.84 32.79 49.84 32.79 52.45 30.18 52.45 27.57 55.23 27.57 124.8 31.24 124.8 47.05 124.8 47.05 123.41 31.74 123.41 31.74 65.67 37.13 63.06" fill="#fff"/><polygon points="30.99 122.54 31.68 122.54 31.68 64.46 30.99 64.8 30.99 122.54" fill="#fff"/><path d="M153.75,100.42c-.36-.06-.73.26-1,.77l-.09,0a22.4,22.4,0,0,0,.22-2.48H153c.14.54.45.92.81.92s.89-.69.89-1.55-.4-1.54-.89-1.54-.67.38-.8.92h-.1a20.56,20.56,0,0,0-.21-2.49h.09c.23.51.6.83,1,.77s.75-.84.6-1.68-.66-1.45-1.14-1.37-.6.49-.64,1h-.08a22.52,22.52,0,0,0-.64-2.41l.08,0c.31.47.73.71,1.07.59s.59-1,.3-1.75S152.41,88.8,152,89s-.5.58-.44,1.14l-.08,0a23.34,23.34,0,0,0-1.05-2.27l.07,0c.39.4.85.58,1.16.4s.42-1,0-1.79-1.12-1.14-1.54-.89-.39.66-.24,1.2l-.08,0a21.42,21.42,0,0,0-1.43-2l.07-.06c.46.33.94.42,1.21.19s.24-1.1-.31-1.76-1.3-.93-1.67-.61-.28.72,0,1.22l-.07.06c-.29-.31-.57-.62-.88-.92s-.58-.57-.89-.84l.07-.07c.5.24,1,.25,1.22,0s0-1.12-.62-1.67-1.43-.69-1.75-.32-.14.76.19,1.21l-.06.07a20.22,20.22,0,0,0-2-1.43l.05-.08c.53.15,1,.07,1.2-.24s-.16-1.11-.9-1.54-1.54-.43-1.78,0,0,.77.39,1.16l0,.08a21.11,21.11,0,0,0-2.26-1.06l0-.08c.56.06,1-.11,1.14-.44s-.35-1.07-1.15-1.36-1.59-.16-1.75.3.12.76.59,1.07l0,.08a20.38,20.38,0,0,0-2.41-.64v-.09c.56,0,1-.28,1.05-.64s-.53-1-1.37-1.14-1.59.13-1.68.61.26.72.77,1v.09a22.8,22.8,0,0,0-2.49-.22v-.1c.54-.13.92-.44.92-.8s-.69-.89-1.55-.89-1.54.4-1.54.89.38.67.92.8v.1c-.48,0-1,0-1.43.09V77c.37,0,.73-.07,1.1-.08h0l.07.1-1.18.08v.28c.46,0,.92-.08,1.38-.09l.51.68c-.64,0-1.27,0-1.89.11v.27a19.57,19.57,0,0,1,2-.11V96.3h-.12l-1.91-10.79v1l1.73,9.77-.12,0L129.44,92v.54l1.44,3.93-.11.06-1.33-2.3v.37l1.17,2-.1.07-1.07-1.27v.28l.93,1.11-.09.08-.84-.7v.24l.72.6-.06.1-.66-.38v.21l.56.33a.54.54,0,0,1-.05.11l-.51-.19v.2l.45.16,0,.12-.42-.08v.19l.39.07a.49.49,0,0,0,0,.12h-.38v.18h.38a.49.49,0,0,0,0,.12l-.39.07v.19l.42-.08,0,.12-.45.16v.2l.51-.19.05.11-.56.33v.21l.66-.38.06.1-.72.61v.23l.84-.7.09.09-.93,1.1v.28l1.07-1.27.1.07-1.17,2v.37l1.33-2.3.09,0v0l-1.42,3.89v.54l1.33-3.64-.52,4.47-.81,4.56v1l.44-2.5-.44,3.78v8.67l.13-1.1c.42,0,.83.06,1.25.08v.09c-.54.14-.92.45-.92.81s.69.89,1.55.89,1.54-.4,1.54-.89-.37-.67-.92-.81v-.09c.57,0,1.13,0,1.69-.11l.07.66a.57.57,0,0,0,0,.29.5.5,0,0,0,.08.2l.18,1.49h-4.63v2.78H141L138.59,122h-3.51l-.13-1a3.23,3.23,0,0,0,.53,0c.84-.15,1.46-.66,1.37-1.14s-.49-.6-1-.64v-.08a21.91,21.91,0,0,0,2.41-.64l0,.08c-.46.31-.71.73-.59,1.07s1,.59,1.76.3,1.31-.9,1.15-1.36-.59-.5-1.15-.44l0-.08a24.31,24.31,0,0,0,2.26-1l0,.07c-.4.39-.57.85-.39,1.16s1,.42,1.78,0,1.14-1.11.9-1.53-.67-.39-1.21-.24l0-.08a20.22,20.22,0,0,0,2-1.43l.06.07c-.32.45-.42.94-.18,1.21s1.09.23,1.75-.31.93-1.3.62-1.68a1,1,0,0,0-1.23,0l-.06-.08c.31-.28.62-.57.92-.87s.57-.58.84-.89l.08.07c-.25.5-.25,1,0,1.22s1.13,0,1.68-.62.69-1.43.31-1.75-.75-.14-1.21.19l-.07-.06a23.52,23.52,0,0,0,1.44-2l.07,0c-.15.54-.07,1,.24,1.21s1.11-.16,1.54-.9.43-1.54,0-1.78-.77,0-1.16.39l-.07,0a21,21,0,0,0,1-2.26l.08,0c-.05.56.11,1,.45,1.14s1.07-.35,1.36-1.15.15-1.59-.3-1.76-.76.13-1.08.59l-.08,0a22.57,22.57,0,0,0,.65-2.41h.09c0,.56.28,1,.63,1s1-.53,1.14-1.37S154.23,100.51,153.75,100.42ZM130.87,77h0l-.08-.11h.11Zm21.76,20.13h0l-.1.07c0-.65-.08-1.29-.16-1.93l.12,0Q152.6,96.21,152.63,97.11ZM152.44,95s0,.07,0,.1l-.12,0v0ZM151,101.38l-17.73-3.13a.49.49,0,0,1,0-.12h18A20.46,20.46,0,0,1,151,101.38Zm.24.23.76-.38c0,.31-.1.62-.16.92l-.6-.54Zm-19.49-5.3h-.12V78.22a19.66,19.66,0,0,1,3.26.29Zm3.32-17.77a20.21,20.21,0,0,1,3.16.86l-6.18,17-.12,0Zm-3.42,22.91,1.9,16.31c-.63.06-1.27.1-1.92.1V101.6Zm.57-5,6.18-17a19.5,19.5,0,0,1,3,1.4l-9,15.63Zm.92.93a.54.54,0,0,0,0-.11l15.61-9a19.34,19.34,0,0,1,1.37,3Zm17-6a19,19,0,0,1,.84,3.15l-17.73,3.13,0-.12ZM133,97.09,133,97l13.8-11.58a18.59,18.59,0,0,1,1.87,2.67Zm-.19-.24-.08-.08L144.34,83c.39.34.78.7,1.15,1.07s.78.82,1.15,1.25Zm-.22-.2-.1-.07,9-15.63a19,19,0,0,1,2.67,1.89Zm0,2.78,11.58,13.81a18.57,18.57,0,0,1-2.67,1.88l-9-15.62Zm.14-.11.08-.09,13.8,11.58a20.07,20.07,0,0,1-2.3,2.31Zm.2-.23L133,99l15.59,9a20,20,0,0,1-1.86,2.68Zm.16-.26a.37.37,0,0,0,0-.11l16.92,6.16a19.46,19.46,0,0,1-1.38,3Zm.12-.28,0-.12L151,101.56a18.74,18.74,0,0,1-.84,3.15Zm.07-.6a.49.49,0,0,1,0-.12L151,94.7A20.66,20.66,0,0,1,151.3,98Zm18-3.32h0l.6-.62c.06.31.11.62.16.94Zm.78.52c.1.73.16,1.48.19,2.24l-.69.5a20.57,20.57,0,0,0-.25-3Zm.16-1.38-.12,0v0l.09-.1Zm-.07-.32h0l-.08.08c-.13-.63-.3-1.25-.49-1.86l.13,0C151.87,92.28,152,92.86,152.16,93.45Zm-.56-2,0,.1-.13,0v0Zm.23,2.37-.59.62a19.67,19.67,0,0,0-.77-3l.79.16A20.36,20.36,0,0,1,151.83,93.78Zm-1.43-2.54h0l.48-.72c.11.3.22.6.32.9Zm.73-1.12s0,.07,0,.11l-.1,0,0,0Zm-.08-.2,0,0L151,90q-.36-.89-.81-1.74h.13C150.56,88.82,150.82,89.37,151.05,89.92ZM150.14,88l.05.09h-.13l0,0Zm-.3.27a20.85,20.85,0,0,1,.95,2l-.47.71A19.92,19.92,0,0,0,149,88.25Zm-.91-.22h0l.35-.79c.16.28.32.55.47.83Zm.52-1.23a.61.61,0,0,0,.07.1l-.1.06,0,0Zm-.11-.18h0l-.05.11a18.75,18.75,0,0,0-1.11-1.58l.13,0C148.67,85.65,149,86.14,149.34,86.65Zm-1.23-1.72.06.08L148,85l0,0Zm1,2.15-.34.78a19.77,19.77,0,0,0-1.75-2.51l.8-.11A21.64,21.64,0,0,1,149.15,87.08Zm-1.92-3.19.08.08-.09.07,0,0Zm.5,1.18-.81.11h0l.2-.83C147.33,84.58,147.53,84.82,147.73,85.07Zm-1.92-2.62.64.61c.22.22.43.44.64.67h0l0,.12c-.22-.25-.45-.48-.68-.72s-.45-.44-.69-.65Zm-.23-.21.07.07-.12,0,0,0Zm.6,1.1c.27.27.54.55.79.84l-.2.83a15.08,15.08,0,0,0-1.09-1.18c-.34-.35-.7-.68-1.06-1l.76-.25C145.65,82.83,145.92,83.08,146.18,83.34Zm-1.64-2,.08.07-.07.09,0,0Zm0,.48c.24.19.48.4.72.6l-.78.26h0Zm-1.62-1.65c.5.32,1,.67,1.47,1h0v.12c-.51-.39-1-.76-1.57-1.11Zm-.27-.17.09.06-.11.06,0,0Zm1.71,1.68-.05.85a20.14,20.14,0,0,0-2.49-1.77l.71-.38A21,21,0,0,1,144.33,81.7Zm-2-1.41-.72.38h0l-.1-.85C141.77,80,142.05,80.12,142.32,80.29Zm-.78-.89,0,.09h0l0-.14Zm-1.92-.92c.55.23,1.1.48,1.63.76v.13q-.85-.45-1.74-.81Zm-.29-.12.1,0-.11.08,0,0Zm2,1.34.09.85a18.77,18.77,0,0,0-2.76-1.3l.64-.5A22,22,0,0,1,141.3,79.7Zm-2.23-1-.64.5h0l-.25-.82C138.48,78.45,138.78,78.56,139.07,78.67Zm-.92-.74,0,.1h0l0-.13Zm0,1.16a19.6,19.6,0,0,0-2.94-.79l.54-.61c.73.16,1.45.35,2.16.58Zm-2.1-1.73c.58.13,1.16.29,1.74.47v0l0,.11c-.61-.2-1.23-.36-1.86-.5Zm-.31-.06.1,0-.09.09h0Zm-.2.35-.54.61h0l-.38-.76Zm-1-.57,0,.11h0l-.06-.13Zm.25,1.14a20.58,20.58,0,0,0-3.05-.28l.43-.68a20.89,20.89,0,0,1,2.25.19Zm-2.38-1.34c.6,0,1.21.08,1.8.16h0l0,.11c-.64-.09-1.28-.14-1.93-.17Zm-.31,0h.1l-.07.11h0Zm-1.08.38H132l-.43.69Zm.43,25.91v14.71c-.58,0-1.15,0-1.71-.08Zm-1.74,14.91c.48,0,1,.06,1.45.07l-.43.68c-.37,0-.74,0-1.1-.06Zm.78,1.13-.91-.06,0-.11q.48,0,1,.06Zm.31,0h-.1l.07-.11h0Zm.65-.37H131l.43-.69.51.69Zm.15-.7c.66,0,1.33,0,2-.11l.08.69c-.51,0-1,.09-1.56.1Zm.45,1.07v-.11h0l.08.11Zm.33,0h0l-.08-.1c.47,0,.93,0,1.39-.1v.11C133.29,119.15,132.85,119.18,132.4,119.2Zm1.11-10.59-.84-7.25,5.57,15.32a19.51,19.51,0,0,1-3.15.86Zm.36,3.11,1,5.85-.35.06Zm.73,6.18h.07l-.06.14Zm.08.69,0-.18.22-.56h0l.62.59C135.23,118.5,135,118.55,134.68,118.59Zm1.06.2,0-.11h0l.1.09Zm2.07-.54a17.35,17.35,0,0,1-1.75.47h0l-.09-.08c.63-.14,1.25-.3,1.86-.49Zm-2.08.15-.62-.59a19.8,19.8,0,0,0,3-.77l-.17.78A22.33,22.33,0,0,1,135.73,118.4Zm2.28-.21,0-.12h0l0,.1Zm.09-.44.17-.78h0l.71.47Zm1.18,0,0-.09,0,0,.1.07Zm1.94-.89c-.53.28-1.08.54-1.64.77h0l-.09-.06c.6-.24,1.18-.52,1.75-.81Zm0-.45a19.12,19.12,0,0,1-2.05,1l-.7-.47a18.89,18.89,0,0,0,2.78-1.28Zm-2.83.22-5.83-16-.09-.73,8.88,15.38A19.5,19.5,0,0,1,138.41,116.61Zm3,.13v-.11l0,0,.05.09Zm0-.45,0-.79h0l.77.34C142,116,141.7,116.15,141.42,116.29Zm1.16-.22-.05-.09h0l.12,0Zm-.16-.36-.76-.33a21.3,21.3,0,0,0,2.51-1.75l.11.79Q143.38,115.11,142.42,115.71Zm.43.19h0l-.11-.05a18.75,18.75,0,0,0,1.58-1.11l0,.12C143.86,115.22,143.36,115.57,142.85,115.9Zm1.65-1.17v-.12l0,0,.07.08Zm-.06-.45-.11-.79h0l.82.2Zm.06-.94c.41-.34.8-.71,1.18-1.09s.68-.7,1-1.06l.24.75a20.13,20.13,0,0,1-1.6,1.6Zm1,.53-.07-.08,0,0,.12,0Zm.24-.22h0l-.12,0,.71-.68c.23-.23.44-.46.66-.69l0,.12C146.65,112.81,146.22,113.24,145.78,113.65Zm1.42-1.44,0-.11,0,0,.08.07Zm-.13-.43-.25-.76.84,0C147.47,111.32,147.27,111.55,147.07,111.78Zm.73-.88-.84-.05a19.52,19.52,0,0,0,1.77-2.5l.38.7A22,22,0,0,1,147.8,110.9Zm.27.28-.08-.06,0,0h.13Zm.2-.25h-.12c.39-.51.77-1,1.11-1.58l.06.11C149,110,148.64,110.45,148.27,110.93Zm1.16-1.66-.06-.11,0,0,.09,0A.22.22,0,0,0,149.43,109.27Zm-.21-.4-.38-.7h0l.84-.1C149.54,108.34,149.38,108.61,149.22,108.87Zm.57-1L149,108a19.27,19.27,0,0,0,1.3-2.76l.49.63A19,19,0,0,1,149.79,107.87Zm.32.24-.09,0,0,0h.12A.31.31,0,0,0,150.11,108.11Zm.15-.29h-.12c.3-.57.57-1.15.82-1.74l.07.09C150.8,106.74,150.54,107.28,150.26,107.82Zm.85-1.84-.07-.09v0l.1,0A.36.36,0,0,0,151.11,106Zm-.28-.35-.49-.63h0l.82-.24C151.06,105,151,105.34,150.83,105.63Zm.4-1.09-.81.23a19.44,19.44,0,0,0,.8-3l.59.54A20,20,0,0,1,151.23,104.54Zm.35.18-.1,0v0l.12,0Zm.1-.31h0l-.1,0c.19-.61.36-1.23.49-1.86l.1.08C152,103.25,151.86,103.83,151.68,104.41Zm.51-2-.09-.08v0l.11,0A.29.29,0,0,1,152.19,102.45Zm-.14-1.44-.75.37a21.88,21.88,0,0,0,.27-3l.68.43A18.62,18.62,0,0,1,152.05,101Zm.21-2.46-.69-.43.69-.51c0,.14,0,.29,0,.43S152.27,98.38,152.26,98.55Zm.17,2.58-.11,0v0l.12-.06A.45.45,0,0,1,152.43,101.13Zm0-.33h0l-.11.06c.09-.64.14-1.28.17-1.93l.11.07C152.61,99.61,152.55,100.21,152.48,100.8Zm.16-2-.11-.07v0h.11Zm-.11-1.35v0l.11-.08a.41.41,0,0,0,0,.11Z" fill="#fff"/><polygon points="108.67 76.22 108.67 110.61 105.2 110.59 105.25 102.94 103.28 102.62 103.28 76.22 108.67 76.22" fill="#fff"/><path d="M26.81,124.8V54.36l2.61-2.78h2.26v-5H21.42V124.8l.12,0Z" fill="#fff"/></svg>