<svg xmlns="http://www.w3.org/2000/svg" viewBox="0 0 176.13 173.3"><defs><style>.a{fill:#273691;}.b{fill:#fff;}</style></defs><title>SRI LANKA</title><rect class="a" width="176.13" height="173.3"/><path class="b" d="M41,156c-.88-.3-1.68-.61-2.4-.91A7.68,7.68,0,0,1,36.7,154a4.58,4.58,0,0,1-1.21-1.58,5.15,5.15,0,0,1-.44-2.23,4.91,4.91,0,0,1,2-4.08,8.75,8.75,0,0,1,5.5-1.53,15,15,0,0,1,2.4.18,7.2,7.2,0,0,1,1.91.55,3.3,3.3,0,0,1,1.24,1,2.19,2.19,0,0,1,.45,1.37,2.38,2.38,0,0,1-.36,1.33,3.76,3.76,0,0,1-.87.95,6.77,6.77,0,0,0-1.77-.74,8.88,8.88,0,0,0-2.43-.31,4.13,4.13,0,0,0-2,.37,1.11,1.11,0,0,0-.63,1,.86.86,0,0,0,.39.73,3.79,3.79,0,0,0,1.17.53l1.59.51a11.4,11.4,0,0,1,4.34,2.3A4.88,4.88,0,0,1,49.48,158a5,5,0,0,1-2,4.12,9.44,9.44,0,0,1-5.91,1.58,13.69,13.69,0,0,1-2.56-.23,7.74,7.74,0,0,1-2.07-.66,3.62,3.62,0,0,1-1.38-1.08,2.36,2.36,0,0,1-.5-1.48,2.26,2.26,0,0,1,.51-1.49,4,4,0,0,1,1.11-.94A8.2,8.2,0,0,0,38.73,159a7.14,7.14,0,0,0,2.65.48,3.56,3.56,0,0,0,2.07-.45,1.3,1.3,0,0,0,.6-1.05,1,1,0,0,0-.48-.92,6.23,6.23,0,0,0-1.35-.61Z"/><path class="b" d="M56.35,157.38v5.76a8.21,8.21,0,0,1-1,.18,11.09,11.09,0,0,1-1.4.09,6.17,6.17,0,0,1-1.21-.11,1.92,1.92,0,0,1-.87-.37,1.68,1.68,0,0,1-.53-.75,3.66,3.66,0,0,1-.18-1.26V146.79a1.33,1.33,0,0,1,.35-1,2.44,2.44,0,0,1,.94-.55,11.24,11.24,0,0,1,2.37-.53,23.81,23.81,0,0,1,2.88-.16q4.14,0,6.24,1.74A5.8,5.8,0,0,1,66,151a5.26,5.26,0,0,1-1,3.18,6.89,6.89,0,0,1-2.28,2q1.08,1.47,2.13,2.76a17.78,17.78,0,0,1,1.65,2.34,2.78,2.78,0,0,1-1.09,1.6,3.07,3.07,0,0,1-1.79.56,3.84,3.84,0,0,1-1.14-.15,2.76,2.76,0,0,1-.84-.42,3.44,3.44,0,0,1-.66-.66,8.81,8.81,0,0,1-.57-.84l-2.52-4.05Zm1.89-4a2.62,2.62,0,0,0,1.8-.59,2.17,2.17,0,0,0,.66-1.72,2.09,2.09,0,0,0-.73-1.73,3.75,3.75,0,0,0-2.33-.58,6.83,6.83,0,0,0-.72,0l-.6.09v4.5Z"/><path class="b" d="M73.45,163.14a8.21,8.21,0,0,1-1,.18,11.09,11.09,0,0,1-1.4.09,6.17,6.17,0,0,1-1.21-.11,2,2,0,0,1-.89-.37,1.62,1.62,0,0,1-.54-.75,3.66,3.66,0,0,1-.18-1.26V145.08l1-.17a9.54,9.54,0,0,1,1.38-.1,6.33,6.33,0,0,1,1.22.1,2.28,2.28,0,0,1,.88.38,1.62,1.62,0,0,1,.54.75,3.66,3.66,0,0,1,.18,1.26Z"/><path class="b" d="M83.74,163.35A2.59,2.59,0,0,1,81,160.56V145.05l1-.17a9.54,9.54,0,0,1,1.38-.1,6.33,6.33,0,0,1,1.22.1,2.28,2.28,0,0,1,.88.38A1.62,1.62,0,0,1,86,146a3.66,3.66,0,0,1,.18,1.26v11.85h6.87a3.88,3.88,0,0,1,.39.88,3.75,3.75,0,0,1,.18,1.16,2.29,2.29,0,0,1-.51,1.69,1.86,1.86,0,0,1-1.35.5Z"/><path class="b" d="M99.31,145.62a6.4,6.4,0,0,1,1.55-.57,8.19,8.19,0,0,1,2.08-.27,7.53,7.53,0,0,1,2.66.43,2.31,2.31,0,0,1,1.48,1.37q.54,1.56,1.17,3.63c.42,1.38.84,2.8,1.26,4.27l1.23,4.35c.4,1.43.75,2.7,1.05,3.8a2.47,2.47,0,0,1-1.08.67,5.13,5.13,0,0,1-1.71.26,5.2,5.2,0,0,1-1.21-.12,2.16,2.16,0,0,1-.81-.36,1.77,1.77,0,0,1-.51-.63,5.45,5.45,0,0,1-.35-.9l-.54-2.07h-5.43q-.24.9-.48,1.86t-.48,1.86c-.28.1-.57.18-.88.26a6,6,0,0,1-1.13.1,4,4,0,0,1-2.26-.52,1.7,1.7,0,0,1-.74-1.46,3,3,0,0,1,.12-.84q.12-.42.27-1c.14-.54.34-1.21.59-2s.52-1.66.82-2.6.62-1.88,1-2.86l1-2.78c.3-.87.58-1.64.83-2.32S99.17,146,99.31,145.62Zm3.6,3.87c-.28.84-.59,1.77-.94,2.8s-.67,2.08-1,3.14h3.72c-.28-1.08-.56-2.14-.85-3.17s-.56-1.95-.8-2.77Z"/><path class="b" d="M129.52,162.63a2.72,2.72,0,0,1-1.21.64,7.08,7.08,0,0,1-1.91.23,6.6,6.6,0,0,1-2.1-.33,2.91,2.91,0,0,1-1.62-1.59l-3-6.06c-.3-.62-.57-1.2-.81-1.76s-.5-1.18-.78-1.9l-.18,0c.08,1.08.13,2.18.14,3.3s0,2.22,0,3.3v4.65a8.22,8.22,0,0,1-1,.18,10.17,10.17,0,0,1-1.34.09,6.79,6.79,0,0,1-1.17-.09,1.79,1.79,0,0,1-.84-.36,1.69,1.69,0,0,1-.51-.74,3.39,3.39,0,0,1-.18-1.21V146a2.51,2.51,0,0,1,1.29-.9,5.67,5.67,0,0,1,1.86-.3,6.5,6.5,0,0,1,2.12.34,2.87,2.87,0,0,1,1.6,1.58l3,6.06c.3.62.57,1.21.81,1.75s.5,1.19.78,1.91l.15,0q-.12-1.62-.15-3.24t0-3.24v-4.86a8.46,8.46,0,0,1,1-.18,10,10,0,0,1,1.33-.09,3.6,3.6,0,0,1,2,.46,2.21,2.21,0,0,1,.69,1.94Z"/><path class="b" d="M137.5,156.51v6.63a8.34,8.34,0,0,1-1.05.18,11.36,11.36,0,0,1-1.41.09,6.17,6.17,0,0,1-1.21-.11,2,2,0,0,1-.89-.37,1.62,1.62,0,0,1-.54-.75,3.66,3.66,0,0,1-.18-1.26V145.08l1.05-.17a9.54,9.54,0,0,1,1.38-.1,6.33,6.33,0,0,1,1.22.1,2.28,2.28,0,0,1,.88.38,1.62,1.62,0,0,1,.54.75,3.66,3.66,0,0,1,.18,1.26v4.77l6.24-7.17a4.48,4.48,0,0,1,2.93.76,2.33,2.33,0,0,1,.88,1.82,2.94,2.94,0,0,1-.39,1.47,7.66,7.66,0,0,1-1.26,1.56l-3.75,3.75L143.7,156l1.62,1.75c.53.58,1,1.12,1.53,1.64l1.27,1.35a2.72,2.72,0,0,1-.24,1.17,2.66,2.66,0,0,1-.64.87,2.76,2.76,0,0,1-.92.54,3.22,3.22,0,0,1-1.08.18,3.15,3.15,0,0,1-2-.62,10.71,10.71,0,0,1-1.5-1.45Z"/><path class="b" d="M153.7,145.62a6.4,6.4,0,0,1,1.55-.57,8.19,8.19,0,0,1,2.08-.27,7.53,7.53,0,0,1,2.66.43,2.31,2.31,0,0,1,1.48,1.37q.54,1.56,1.17,3.63c.42,1.38.84,2.8,1.26,4.27l1.23,4.35c.4,1.43.75,2.7,1.05,3.8a2.47,2.47,0,0,1-1.08.67,5.13,5.13,0,0,1-1.71.26,5.2,5.2,0,0,1-1.21-.12,2.16,2.16,0,0,1-.81-.36,1.77,1.77,0,0,1-.51-.63,5.45,5.45,0,0,1-.35-.9l-.54-2.07h-5.43q-.24.9-.48,1.86t-.48,1.86c-.28.1-.57.18-.88.26a6,6,0,0,1-1.13.1,4,4,0,0,1-2.26-.52,1.7,1.7,0,0,1-.74-1.46,3,3,0,0,1,.12-.84q.12-.42.27-1c.14-.54.34-1.21.59-2s.52-1.66.82-2.6.62-1.88,1-2.86l1-2.78c.3-.87.58-1.64.83-2.32S153.56,146,153.7,145.62Zm3.6,3.87c-.28.84-.6,1.77-.94,2.8s-.67,2.08-1,3.14h3.72c-.28-1.08-.56-2.14-.85-3.17s-.56-1.95-.8-2.77Z"/><path class="b" d="M114.86,73.74a8.77,8.77,0,0,1-4.49-1.36l-.37-.22c-2.83-1.69-7-4.15-7.63-8-4.59-.49-7.65-2.78-9.84-7.3-1.76-3.63-4.41-9.12-.18-13.32a30.94,30.94,0,0,1,10.82-7.4c3.11-1.19,12.37-2.67,15.73.91A1.41,1.41,0,0,1,116.84,39c-2-2.14-9.52-1.41-12.66-.21a28.37,28.37,0,0,0-9.84,6.78c-2.58,2.56-1.19,6.07.74,10.06s4.38,5.65,8.68,5.8a1.44,1.44,0,0,1,1,.46,1.4,1.4,0,0,1,.37,1c-.15,2.92,3.75,5.25,6.34,6.79l.36.22a5,5,0,0,0,4.35.71,4.79,4.79,0,0,0,2.65-3.33c1.11-3.73,1.26-7,.52-12.13A11.33,11.33,0,0,0,118,51.83c-.29-.57-.59-1.16-.86-1.76-.1-.24-.31-.62-.53-1-.88-1.6-1.79-3.24-1.3-4.62a2.1,2.1,0,0,1,1.21-1.28,1.42,1.42,0,0,1,1.85.76,1.39,1.39,0,0,1-.33,1.57,14.7,14.7,0,0,0,1,2.2,14,14,0,0,1,.65,1.25c.23.52.49,1,.78,1.59a13.51,13.51,0,0,1,1.63,4.27c.79,5.48.61,9.23-.62,13.35a7.58,7.58,0,0,1-4.33,5.16A6.6,6.6,0,0,1,114.86,73.74Z"/><path class="b" d="M139.55,58.58a1.42,1.42,0,0,1-1.41-1.42c0-4.82-.66-8.82-3.86-12.63A16.4,16.4,0,0,0,128.19,40a15.49,15.49,0,0,0-4.68-.56,17.38,17.38,0,0,1-5.29-.66,1.41,1.41,0,0,1,.93-2.67,15.46,15.46,0,0,0,4.42.5,17.32,17.32,0,0,1,5.59.73,19.15,19.15,0,0,1,7.29,5.38c3.75,4.48,4.45,9.2,4.52,13.69v.77A1.42,1.42,0,0,1,139.55,58.58Z"/><path class="b" d="M142.53,86.06a1.06,1.06,0,0,1-.25,0,1.41,1.41,0,0,1-1.15-1.64,24.75,24.75,0,0,1,1.13-3.74c.14-.37.26-.72.36-1a22.42,22.42,0,0,0,.91-4,1.42,1.42,0,0,1,2.81.38,24.68,24.68,0,0,1-1,4.53c-.1.3-.23.67-.38,1.08a22,22,0,0,0-1,3.26A1.41,1.41,0,0,1,142.53,86.06Z"/><path class="b" d="M145.15,68.62a1.42,1.42,0,0,1-1.41-1.28c-.35-3.82-1.66-8.36-4.28-9.69a1.42,1.42,0,1,1,1.28-2.53c4.47,2.27,5.56,9.12,5.82,12a1.41,1.41,0,0,1-1.28,1.54Z"/><path class="b" d="M135.66,105.08a9,9,0,0,1-7.3-3.55c-1.82-2.62-2.24-8.31-2.07-11.5a1.42,1.42,0,0,1,2.83.14c-.17,3.36.42,8.08,1.57,9.74a6.28,6.28,0,0,0,7.16,1.92c2.5-1,2.92-3.16,3.25-6.07a85.74,85.74,0,0,0,.33-9.67V84.57a1.42,1.42,0,1,1,2.84,0v1.52a87.28,87.28,0,0,1-.36,10c-.29,2.64-.73,6.63-5,8.38A8.5,8.5,0,0,1,135.66,105.08Z"/><path class="b" d="M110.88,81.86a1.4,1.4,0,0,1-.85-.28,1.42,1.42,0,0,1-.28-2,17,17,0,0,0,3.17-5.94,1.42,1.42,0,1,1,2.79.53c-.5,2.66-2.75,5.87-3.7,7.12A1.41,1.41,0,0,1,110.88,81.86Z"/><path class="b" d="M125.74,70a9.57,9.57,0,0,1-2.89-.43c-2.08-.7-2.59-2-2.71-2.66a1.42,1.42,0,1,1,2.79-.49,2.42,2.42,0,0,0,1.4.61,5.43,5.43,0,0,0,3.4-.25,1.41,1.41,0,0,1,2.18.28,2.08,2.08,0,0,1,.18,1.8,1.41,1.41,0,0,1-1.81.86l-.13,0A8.07,8.07,0,0,1,125.74,70Z"/><path class="b" d="M133.9,73.27c-2.8,0-4.68-.64-5.75-1.94a4.51,4.51,0,0,1-.79-3.88A1.42,1.42,0,0,1,129,66.34,1.4,1.4,0,0,1,130.14,68c-.2,1,.1,1.41.2,1.53.28.34,1.11.91,3.56.91h0a1.42,1.42,0,1,1,0,2.83Z"/><path class="b" d="M134.55,99a2.48,2.48,0,0,1-1.18-.29c-2-1.08-2.26-4.73-2.25-8.16v-.14A1.41,1.41,0,0,1,132.54,89h0A1.41,1.41,0,0,1,134,90.42v.13c0,4,.47,5.21.7,5.56a.56.56,0,0,0,.13-.07c.38-.25,1.14-1.36.14-6.35a1.42,1.42,0,1,1,2.78-.55c.69,3.44,1.16,7.61-1.36,9.27A3.3,3.3,0,0,1,134.55,99Z"/><path class="b" d="M135.64,87.19A1.41,1.41,0,0,1,134.25,86a1.55,1.55,0,0,1,.36-1.35l.09-.09a1.47,1.47,0,0,1,.87-.52,1.42,1.42,0,0,1,1.64,1.15,1.54,1.54,0,0,1-.36,1.35l-.09.09a1.38,1.38,0,0,1-.87.52Z"/><path class="b" d="M134.87,83a1.42,1.42,0,0,1-1.39-1.13,14.82,14.82,0,0,0-.54-1.79c-.73-2.13-1.73-5-.2-7.31a1.42,1.42,0,0,1,2.34,1.6c-.73,1.08,0,3.14.54,4.79a16.83,16.83,0,0,1,.63,2.11v0A1.42,1.42,0,0,1,135.15,83Z"/><path class="b" d="M142.59,74a15.71,15.71,0,0,1-3.38-.38c-4.51-1-7.57-3.79-8.4-7.62a1.42,1.42,0,0,1,2.77-.61c.8,3.72,4.26,5,6.25,5.47,3.47.78,6.8,0,7.74-1.22a1.42,1.42,0,1,1,2.25,1.73C148.54,73,145.72,74,142.59,74Z"/><path class="b" d="M57.91,114.27l-.25,0a1.63,1.63,0,0,1-1.3-1.36,1.87,1.87,0,0,1,0-.34c.05-1.45,0-3-.11-4.74-.31-6.46-.69-14.49,6.66-17.67a8,8,0,0,1,4.81-.27l1.16.17a30.71,30.71,0,0,0,4.19,0c.73,0,1.47,0,2.21,0a55.69,55.69,0,0,0,11.49-.89l.72-.14c6-1.21,7.29-2.38,7.34-3.14a1.41,1.41,0,0,1,1.5-1.33A1.43,1.43,0,0,1,97.63,86c-.25,3.85-6.34,5.08-9.61,5.73l-.68.14a57.94,57.94,0,0,1-12.09,1c-.69,0-1.38,0-2.11,0a30.75,30.75,0,0,1-4.6-.06c-.45,0-.89-.12-1.31-.19a5.46,5.46,0,0,0-3.22.08c-5.55,2.4-5.25,8.77-5,14.93.06,1.33.13,2.6.13,3.82a1.42,1.42,0,0,1,.25,1.77A1.76,1.76,0,0,1,57.91,114.27Z"/><path class="b" d="M59.46,117.74H45.79a1.41,1.41,0,0,1-1.06-.48,1.43,1.43,0,0,1-.34-1.12c.27-2.1.33-4.29.4-6.4,0-1.58.09-3.22.22-4.83.06-.69.12-1.37.19-2.06a42,42,0,0,0,.2-8.73A51.13,51.13,0,0,0,44,87.36c-.35-1.4-.71-2.85-1-4.3A29.41,29.41,0,0,1,42.78,75c.09-1.19.17-2.42.18-3.66a1.42,1.42,0,0,1,2.83,0c0,1.32-.09,2.6-.18,3.83a27.2,27.2,0,0,0,.16,7.32c.28,1.39.64,2.8,1,4.17a54.74,54.74,0,0,1,1.46,7.12,44.48,44.48,0,0,1-.19,9.32c-.06.68-.13,1.35-.18,2-.13,1.54-.17,3.14-.22,4.68s-.1,3.38-.25,5.09H59.46a1.42,1.42,0,0,1,0,2.83Z"/><path class="b" d="M54.65,117.74H41a1.41,1.41,0,0,1-1.4-1.6c.26-2.1.33-4.29.39-6.4.05-1.58.1-3.22.23-4.83l.18-2.06a42,42,0,0,0,.21-8.73,52,52,0,0,0-1.33-6.48A1.42,1.42,0,1,1,42,87a54.19,54.19,0,0,1,1.39,6.84,45.18,45.18,0,0,1-.19,9.32c-.07.67-.13,1.35-.18,2-.13,1.54-.18,3.14-.22,4.68s-.11,3.38-.25,5.09H54.65a1.42,1.42,0,0,1,0,2.83Z"/><path class="b" d="M39.38,83A1.41,1.41,0,0,1,38,81.8,33.7,33.7,0,0,1,38,75c.08-1.19.17-2.42.18-3.66a1.4,1.4,0,0,1,1.41-1.4h0A1.42,1.42,0,0,1,41,71.35c0,1.32-.1,2.6-.18,3.84a30.36,30.36,0,0,0,0,6.25A1.42,1.42,0,0,1,39.56,83Z"/><path class="b" d="M98.11,118.92a1.42,1.42,0,0,1-1.08-.5,1.4,1.4,0,0,1-.31-1.16,57.19,57.19,0,0,0,.82-7c0-1.1,0-2.09,0-3.06,0-1.55.07-3,0-4.65l-.09-1.4c-.12-2-.23-4-.51-5.86a1.42,1.42,0,0,1,2.8-.42c.3,2,.42,4.1.54,6.11l.09,1.39c.11,1.76.07,3.29,0,4.9,0,.94,0,1.91,0,3a45,45,0,0,1-.6,5.84l11.34-.08c-.21-.34-.42-.67-.6-.92a7.68,7.68,0,0,1-1.29-5.15v-.6c0-3.13-.18-18.56-.68-29.84a1.42,1.42,0,0,1,2.83-.13c.5,11.33.68,26.82.69,30,0,.22,0,.42,0,.62,0,1.58,0,2.38.78,3.49s1.93,3.18,2,3.27a1.43,1.43,0,0,1,0,1.4,1.44,1.44,0,0,1-1.22.71l-15.47.11Z"/><path class="b" d="M39.84,83.7a1.42,1.42,0,0,1-1.34-1c-1.1-3.13-.71-6.4-.33-9.56.12-1,.24-2,.3-3,.4-6.29,3.11-9.28,6.54-13.05.39-.43.8-.88,1.21-1.35,1.06-1.18,2.08-2.46,3.06-3.69,2.51-3.16,5.11-6.42,8.8-8.73,7.72-4.82,14.7-4.14,22.79-3.36l.81.07c1.63.16,3.15.46,4.62.75,3.27.65,6.09,1.21,8.87,0a1.42,1.42,0,0,1,1.17,2.58c-3.61,1.64-7.16.93-10.59.25-1.4-.27-2.85-.56-4.34-.7l-.81-.08c-7.89-.76-14.11-1.37-21,3-3.28,2-5.62,5-8.09,8.08-1,1.27-2,2.57-3.16,3.82L47.11,59c-3.3,3.62-5.48,6-5.81,11.32-.07,1-.2,2.12-.32,3.16-.34,2.84-.69,5.78.19,8.29a1.42,1.42,0,0,1-.86,1.81A1.6,1.6,0,0,1,39.84,83.7Z"/><path class="b" d="M126.25,90.35a1.42,1.42,0,0,1-.18-2.83,62.49,62.49,0,0,1,7.11,0,1.42,1.42,0,0,1-.14,2.83,63.4,63.4,0,0,0-6.61,0Z"/><path class="b" d="M132.41,58.79a5.78,5.78,0,0,1-2.4-.53c-1.57-.75-2.41-2.08-2.12-3.38a1.41,1.41,0,0,1,2.79.43,2.26,2.26,0,0,0,1.41.63,2.43,2.43,0,0,0,2.26-1,1.42,1.42,0,0,1,2.22,1.77A5.23,5.23,0,0,1,132.41,58.79Z"/><path class="b" d="M132.71,49.36a14.63,14.63,0,0,1-8-2.35,12.55,12.55,0,0,1-5.6-9,1.42,1.42,0,0,1,2.81-.37,9.66,9.66,0,0,0,4.35,7,11.88,11.88,0,0,0,9.67,1.44,1.42,1.42,0,1,1,.77,2.73A14.61,14.61,0,0,1,132.71,49.36Z"/><path class="b" d="M76.47,50.05c-5.27,0-9.93-2.59-11.57-6.43a1.42,1.42,0,1,1,2.6-1.12c1.19,2.77,4.88,4.71,9,4.71,3.91,0,7.44-1.74,8.8-4.35a1.42,1.42,0,1,1,2.51,1.32C85.92,47.74,81.48,50.05,76.47,50.05Z"/><path class="b" d="M75.59,55.87a1.42,1.42,0,0,1-1.37-1.47h0A1.43,1.43,0,0,1,75.69,53h0a1.42,1.42,0,0,1,1.36,1.47h0a1.41,1.41,0,0,1-1.41,1.37h0Zm2.73-1.41a1.41,1.41,0,0,1,1.26-1.55h0a1.42,1.42,0,0,1,1.56,1.26h0a1.41,1.41,0,0,1-1.27,1.55h-.15A1.41,1.41,0,0,1,78.32,54.46Zm-7,.95a1.42,1.42,0,0,1-1.14-1.65h0a1.41,1.41,0,0,1,1.64-1.14h0A1.41,1.41,0,0,1,73,54.27h0a1.43,1.43,0,0,1-1.4,1.16h0ZM82.38,54a1.42,1.42,0,0,1,1-1.73h0a1.42,1.42,0,0,1,1.72,1h0a1.42,1.42,0,0,1-1,1.73h0a1.39,1.39,0,0,1-.35,0h0A1.41,1.41,0,0,1,82.38,54Zm-15.23.36a1.41,1.41,0,0,1-.87-1.8h0a1.41,1.41,0,0,1,1.8-.87h0a1.41,1.41,0,0,1,.87,1.8h0a1.4,1.4,0,0,1-1.34,1h0A1.28,1.28,0,0,1,67.15,54.31Zm19.17-1.48A1.41,1.41,0,0,1,87.05,51h0a1.41,1.41,0,0,1,1.87.73h0a1.42,1.42,0,0,1-.73,1.86h0a1.3,1.3,0,0,1-.57.12h0A1.42,1.42,0,0,1,86.32,52.83Zm-23.13-.27h0a1.42,1.42,0,0,1-.55-1.93h0a1.43,1.43,0,0,1,1.93-.56h0A1.41,1.41,0,0,1,65.12,52h0a1.41,1.41,0,0,1-1.24.73h0A1.44,1.44,0,0,1,63.19,52.56ZM90,51.09a1.41,1.41,0,0,1,.38-2h0a1.41,1.41,0,0,1,2,.37h0a1.42,1.42,0,0,1-.37,2h0a1.39,1.39,0,0,1-.8.24h0A1.39,1.39,0,0,1,90,51.09Zm-30.44-1a1.43,1.43,0,0,1-.16-2h0a1.42,1.42,0,0,1,2-.16h0a1.41,1.41,0,0,1,.16,2h0a1.41,1.41,0,0,1-1.08.5h0A1.42,1.42,0,0,1,59.59,50.08Z"/><path class="b" d="M74.6,63.21c-10.43,0-19.74-4-23.7-10.15a1.42,1.42,0,0,1,2.39-1.54c3.4,5.3,12,8.86,21.31,8.86h.62a1.42,1.42,0,0,1,0,2.84Z"/><path class="b" d="M79.41,63A1.42,1.42,0,0,1,78,61.73a1.48,1.48,0,0,1,.22-.93A1.57,1.57,0,0,1,79.48,60a1.42,1.42,0,0,1,1.62,1.19,1.39,1.39,0,0,1-.17.9,1.52,1.52,0,0,1-1.37.94Z"/><path class="b" d="M83.65,62.12a1.42,1.42,0,0,1-.34-2.79,25.68,25.68,0,0,0,9-4.09A1.42,1.42,0,0,1,94,57.51a28.54,28.54,0,0,1-10,4.57A1.39,1.39,0,0,1,83.65,62.12Z"/><path class="b" d="M74.25,66.63a1.42,1.42,0,0,1,1.35-1.48h0a1.43,1.43,0,0,1,1.48,1.36h0A1.41,1.41,0,0,1,75.72,68h-.06A1.41,1.41,0,0,1,74.25,66.63ZM71.49,68a1.4,1.4,0,0,1-1.33-1.49h0a1.42,1.42,0,0,1,1.49-1.34h0A1.42,1.42,0,0,1,73,66.62h0A1.42,1.42,0,0,1,71.57,68h-.08Zm6.85-1.57a1.4,1.4,0,0,1,1.2-1.6h0a1.41,1.41,0,0,1,1.6,1.2h0a1.41,1.41,0,0,1-1.2,1.6h0l-.2,0h0A1.41,1.41,0,0,1,78.34,66.39ZM67.28,67.52A1.42,1.42,0,0,1,66.1,65.9h0a1.42,1.42,0,0,1,1.62-1.18h0a1.41,1.41,0,0,1,1.18,1.62h0a1.41,1.41,0,0,1-1.4,1.19h-.22Zm15.1-1.78a1.41,1.41,0,0,1,1-1.72h0a1.41,1.41,0,0,1,1.72,1h0a1.4,1.4,0,0,1-1,1.72h0a1.41,1.41,0,0,1-.35,0h0A1.42,1.42,0,0,1,82.38,65.74Zm-19.25.89a1.42,1.42,0,0,1-1-1.74h0a1.42,1.42,0,0,1,1.74-1h0a1.42,1.42,0,0,1,1,1.74h0a1.41,1.41,0,0,1-1.37,1h0A1.18,1.18,0,0,1,63.13,66.63Zm23.19-2a1.43,1.43,0,0,1,.81-1.84h0a1.4,1.4,0,0,1,1.83.8h0a1.42,1.42,0,0,1-.8,1.84h0a1.32,1.32,0,0,1-.51.1h0A1.44,1.44,0,0,1,86.32,64.66Zm-27.23.61a1.42,1.42,0,0,1-.78-1.85h0a1.42,1.42,0,0,1,1.85-.78h0a1.42,1.42,0,0,1,.78,1.85h0a1.43,1.43,0,0,1-1.32.88h0A1.39,1.39,0,0,1,59.09,65.27Zm31-2.19a1.41,1.41,0,0,1,.53-1.93h0a1.42,1.42,0,0,1,1.93.53h0A1.42,1.42,0,0,1,92,63.62h0a1.46,1.46,0,0,1-.7.18h0A1.42,1.42,0,0,1,90.11,63.08Zm-34.87.28a1.42,1.42,0,0,1-.5-2h0a1.43,1.43,0,0,1,1.95-.49h0a1.42,1.42,0,0,1,.49,1.94h0a1.42,1.42,0,0,1-1.22.69h0A1.41,1.41,0,0,1,55.24,63.36ZM93.62,61a1.42,1.42,0,0,1,.18-2h0a1.4,1.4,0,0,1,2,.18h0a1.41,1.41,0,0,1-.17,2h0a1.44,1.44,0,0,1-.91.33h0A1.42,1.42,0,0,1,93.62,61Zm-41.91-.17a1.41,1.41,0,0,1-.12-2h0a1.41,1.41,0,0,1,2-.13h0a1.42,1.42,0,0,1,.12,2h0a1.4,1.4,0,0,1-1.06.48h0A1.44,1.44,0,0,1,51.71,60.81Zm-3-3.32a1.42,1.42,0,0,1,.38-2h0a1.42,1.42,0,0,1,2,.38h0a1.42,1.42,0,0,1-.38,2h0a1.43,1.43,0,0,1-.79.24h0A1.42,1.42,0,0,1,48.76,57.49Z"/><path class="b" d="M92.48,118.19c-1.28,0-2.43-.07-3.68-.19a1.43,1.43,0,0,1-1.26-1.27,7.84,7.84,0,0,1,.44-3.94c.14-.43.29-.88.43-1.49a16.13,16.13,0,0,0,.06-5.51c0-.3-.07-.6-.1-.92-.15-1.59-.36-3.16-.57-4.68A67.76,67.76,0,0,1,87,91a1.42,1.42,0,0,1,2.84,0,63.83,63.83,0,0,0,.77,8.82c.21,1.55.43,3.14.58,4.79q0,.47.09.9a18.59,18.59,0,0,1-.1,6.43,17.17,17.17,0,0,1-.51,1.76,5.48,5.48,0,0,0-.36,1.59,43.29,43.29,0,0,0,6.14-.09,1.42,1.42,0,1,1,.19,2.83C95,118.13,93.69,118.19,92.48,118.19Z"/><path class="b" d="M99.29,95.73c-1.94,0-4.54-1.64-5.94-3.23a4.69,4.69,0,0,1-1.41-3.65,1.42,1.42,0,0,1,1.6-1.21,1.41,1.41,0,0,1,1.21,1.59,2.21,2.21,0,0,0,.72,1.39,7,7,0,0,0,3.81,2.27s0,0,0,0a1.42,1.42,0,0,1,0,2.84Z"/><path class="b" d="M103.46,59.52c-3.7,0-7.66-3.59-8.1-7.43A8.16,8.16,0,0,1,96.6,46.7,1.42,1.42,0,0,1,99,48.24a5.2,5.2,0,0,0-.81,3.53c.27,2.4,3.16,5,5.41,4.92a1.42,1.42,0,1,1,.14,2.83Z"/><path class="b" d="M101.05,46.17a1.46,1.46,0,0,1-1.26-.78,1.49,1.49,0,0,1,.82-2.06,1.44,1.44,0,0,1,1.94.45,1.65,1.65,0,0,1-.73,2.22A2,2,0,0,1,101.05,46.17Z"/></svg>