<svg xmlns="http://www.w3.org/2000/svg" viewBox="0 0 176.13 173.3"><defs><style>.a{fill:#088084;}.b{fill:#fff;}</style></defs><title>TAIWAN</title><rect class="a" width="176.13" height="173.3"/><path class="b" d="M65.74,149.28a3.88,3.88,0,0,1-.39-.9,4,4,0,0,1-.18-1.2,2.27,2.27,0,0,1,.53-1.68,1.86,1.86,0,0,1,1.36-.51H80.14a3.88,3.88,0,0,1,.39.9,4,4,0,0,1,.18,1.2,2.27,2.27,0,0,1-.52,1.68,1.89,1.89,0,0,1-1.37.51H75.49v13.86a8.21,8.21,0,0,1-1,.18,11.09,11.09,0,0,1-1.4.09,6.17,6.17,0,0,1-1.21-.11,2,2,0,0,1-.89-.37,1.62,1.62,0,0,1-.54-.75,3.66,3.66,0,0,1-.18-1.26V149.28Z"/><path class="b" d="M84.73,145.62a6.4,6.4,0,0,1,1.55-.57,8.19,8.19,0,0,1,2.08-.27,7.53,7.53,0,0,1,2.66.43,2.31,2.31,0,0,1,1.48,1.37q.54,1.56,1.17,3.63c.42,1.38.84,2.8,1.26,4.27l1.23,4.35c.4,1.43.75,2.7,1,3.8a2.47,2.47,0,0,1-1.08.67,5.13,5.13,0,0,1-1.71.26,5.2,5.2,0,0,1-1.21-.12,2.16,2.16,0,0,1-.81-.36,1.77,1.77,0,0,1-.51-.63,5.45,5.45,0,0,1-.35-.9L91,159.48H85.57q-.24.9-.48,1.86t-.48,1.86c-.28.1-.57.18-.88.26a6,6,0,0,1-1.13.1,4,4,0,0,1-2.26-.52,1.7,1.7,0,0,1-.74-1.46,3,3,0,0,1,.12-.84q.12-.42.27-1c.14-.54.34-1.21.59-2s.52-1.66.82-2.6.62-1.88,1-2.86l1-2.78c.3-.87.58-1.64.83-2.32S84.59,146,84.73,145.62Zm3.6,3.87c-.28.84-.59,1.77-.94,2.8s-.67,2.08-1,3.14h3.72c-.28-1.08-.56-2.14-.85-3.17s-.56-1.95-.8-2.77Z"/><path class="b" d="M103.72,163.14a8.21,8.21,0,0,1-1,.18,11.09,11.09,0,0,1-1.4.09,6.17,6.17,0,0,1-1.21-.11,2,2,0,0,1-.89-.37,1.62,1.62,0,0,1-.54-.75,3.66,3.66,0,0,1-.18-1.26V145.08l1-.17a9.54,9.54,0,0,1,1.38-.1,6.33,6.33,0,0,1,1.22.1,2.28,2.28,0,0,1,.88.38,1.62,1.62,0,0,1,.54.75,3.66,3.66,0,0,1,.18,1.26Z"/><path class="b" d="M114.82,149.52a7.61,7.61,0,0,1,1-.35,5.28,5.28,0,0,1,1.42-.19,5.16,5.16,0,0,1,2.1.37,1.67,1.67,0,0,1,1,1.1l.62,2.3.55,2c.18.64.36,1.29.53,1.93s.33,1.31.49,2h.15c.18-1.22.34-2.39.48-3.5s.27-2.19.39-3.27.24-2.13.36-3.17.24-2.12.36-3.2a4.73,4.73,0,0,1,2.37-.63,3.7,3.7,0,0,1,1.92.48,1.73,1.73,0,0,1,.81,1.62,17.87,17.87,0,0,1-.13,1.87c-.09.82-.21,1.72-.36,2.72s-.33,2-.53,3.15S128,157,127.78,158s-.44,1.9-.67,2.71a14,14,0,0,1-.65,1.88,3.47,3.47,0,0,1-1.47.69,8.17,8.17,0,0,1-2.1.27,6.63,6.63,0,0,1-2.38-.38,1.78,1.78,0,0,1-1.19-1.06q-.39-1.2-.84-2.85t-1-3.63q-.42,1.95-.87,3.81t-.81,3.15a3.4,3.4,0,0,1-1.35.69,6.87,6.87,0,0,1-2,.27,7.48,7.48,0,0,1-2.44-.38,2.29,2.29,0,0,1-1.43-1.06,10.8,10.8,0,0,1-.58-1.6c-.21-.71-.43-1.52-.65-2.44s-.44-1.89-.67-3-.44-2.12-.63-3.18-.37-2.1-.53-3.1-.28-1.94-.36-2.78a4.21,4.21,0,0,1,1.17-.72A4,4,0,0,1,108,145a3.23,3.23,0,0,1,1.88.5,2.3,2.3,0,0,1,.91,1.66c.32,2,.59,3.74.8,5.1s.38,2.47.51,3.34.22,1.55.28,2,.12.86.18,1.14h.15q.27-1.2.51-2.22c.16-.68.33-1.37.5-2s.34-1.43.52-2.23S114.62,150.54,114.82,149.52Z"/><path class="b" d="M134.53,145.62a6.4,6.4,0,0,1,1.55-.57,8.19,8.19,0,0,1,2.08-.27,7.53,7.53,0,0,1,2.66.43,2.31,2.31,0,0,1,1.48,1.37q.54,1.56,1.17,3.63c.42,1.38.84,2.8,1.26,4.27l1.23,4.35c.4,1.43.75,2.7,1,3.8a2.47,2.47,0,0,1-1.08.67,5.13,5.13,0,0,1-1.71.26,5.2,5.2,0,0,1-1.21-.12,2.16,2.16,0,0,1-.81-.36,1.77,1.77,0,0,1-.51-.63,5.45,5.45,0,0,1-.35-.9l-.54-2.07h-5.43q-.24.9-.48,1.86t-.48,1.86c-.28.1-.57.18-.88.26a6,6,0,0,1-1.13.1,4,4,0,0,1-2.26-.52,1.7,1.7,0,0,1-.74-1.46,3,3,0,0,1,.12-.84q.12-.42.27-1c.14-.54.34-1.21.59-2s.52-1.66.82-2.6.62-1.88,1-2.86l1-2.78c.3-.87.58-1.64.83-2.32S134.39,146,134.53,145.62Zm3.6,3.87c-.28.84-.59,1.77-.94,2.8s-.67,2.08-.95,3.14H140c-.28-1.08-.56-2.14-.85-3.17s-.56-1.95-.8-2.77Z"/><path class="b" d="M164.74,162.63a2.72,2.72,0,0,1-1.21.64,7.08,7.08,0,0,1-1.91.23,6.6,6.6,0,0,1-2.1-.33,2.91,2.91,0,0,1-1.62-1.59l-3-6.06c-.3-.62-.57-1.2-.81-1.76s-.5-1.18-.78-1.9l-.18,0c.08,1.08.13,2.18.14,3.3s0,2.22,0,3.3v4.65a8.22,8.22,0,0,1-1,.18,10.17,10.17,0,0,1-1.34.09,6.79,6.79,0,0,1-1.17-.09A1.79,1.79,0,0,1,149,163a1.69,1.69,0,0,1-.51-.74,3.39,3.39,0,0,1-.18-1.21V146a2.51,2.51,0,0,1,1.29-.9,5.67,5.67,0,0,1,1.86-.3,6.5,6.5,0,0,1,2.12.34,2.87,2.87,0,0,1,1.6,1.58l3,6.06c.3.62.57,1.21.81,1.75s.5,1.19.78,1.91l.15,0q-.12-1.62-.15-3.24t0-3.24v-4.86a8.46,8.46,0,0,1,1-.18,10,10,0,0,1,1.33-.09,3.6,3.6,0,0,1,2,.46,2.21,2.21,0,0,1,.69,1.94Z"/><path class="b" d="M95.77,42.37l-6.66-25-6.66,25a32,32,0,0,1,13.32,0Z"/><path class="b" d="M82.45,104.43l6.66,25,6.66-25a32,32,0,0,1-13.32,0Z"/><path class="b" d="M58.08,66.74l-25,6.66,25,6.66a32,32,0,0,1,0-13.32Z"/><path class="b" d="M120.14,80.06l25-6.66-25-6.66a32,32,0,0,1,0,13.32Z"/><path class="b" d="M40.61,45.4,58.9,63.65a31.75,31.75,0,0,1,6.67-11.53Z"/><path class="b" d="M61.11,121.9l18.25-18.3a31.59,31.59,0,0,1-11.53-6.66Z"/><path class="b" d="M137.61,101.4l-18.3-18.25a31.73,31.73,0,0,1-6.66,11.53Z"/><path class="b" d="M117.11,24.9,98.86,43.19a31.75,31.75,0,0,1,11.53,6.67Z"/><path class="b" d="M61.11,24.9l6.72,25a31.75,31.75,0,0,1,11.53-6.67Z"/><path class="b" d="M137.61,45.4l-25,6.72a31.73,31.73,0,0,1,6.66,11.53Z"/><path class="b" d="M40.61,101.4l25-6.72A31.75,31.75,0,0,1,58.9,83.15Z"/><path class="b" d="M117.11,121.9l-6.72-25a31.59,31.59,0,0,1-11.53,6.66Z"/><polygon class="b" points="103.05 77.13 104.04 73.4 103.05 69.67 102.04 65.93 99.31 63.2 96.58 60.47 92.84 59.46 89.11 58.47 85.38 59.46 81.64 60.47 78.91 63.2 76.18 65.93 75.17 69.67 74.18 73.4 75.17 77.13 76.18 80.87 78.91 83.6 81.64 86.33 85.38 87.34 89.11 88.33 92.84 87.34 96.58 86.33 99.31 83.6 102.04 80.87 103.05 77.13"/><polygon class="b" points="103.05 77.13 104.05 73.4 103.05 69.67 104.04 73.4 103.05 77.13"/><path class="b" d="M116.29,80.14a28.11,28.11,0,0,0,0-13.48l-6.75,6.74Z"/><polygon class="b" points="75.17 69.67 74.17 73.4 75.17 77.13 74.18 73.4 75.17 69.67"/><polygon class="b" points="92.84 59.46 89.11 58.46 85.38 59.46 89.11 58.47 92.84 59.46"/><polygon class="b" points="85.38 87.34 89.11 88.34 92.84 87.34 89.11 88.33 85.38 87.34"/><path class="b" d="M82.37,100.58a28.11,28.11,0,0,0,13.48,0l-6.74-6.75Z"/><path class="b" d="M61.93,66.66a28.11,28.11,0,0,0,0,13.48l6.75-6.74Z"/><path class="b" d="M95.85,46.22a28.11,28.11,0,0,0-13.48,0L89.11,53Z"/><polygon class="b" points="78.91 83.6 81.64 86.34 85.38 87.34 81.64 86.33 78.91 83.6"/><polygon class="b" points="102.04 80.87 99.31 83.6 102.05 80.87 103.05 77.13 102.04 80.87"/><path class="b" d="M69.69,93.57a28,28,0,0,0,11.66,6.74l-2.46-9.22Z"/><polygon class="b" points="78.91 63.2 76.17 65.93 75.17 69.67 76.18 65.93 78.91 63.2"/><path class="b" d="M68.94,54A28,28,0,0,0,62.2,65.64l9.22-2.46Z"/><path class="b" d="M109.28,92.82A28,28,0,0,0,116,81.16l-9.22,2.45Z"/><path class="b" d="M108.53,53.23a28,28,0,0,0-11.66-6.74l2.45,9.22Z"/><polygon class="b" points="99.31 63.2 96.58 60.46 92.84 59.46 96.58 60.47 99.31 63.2"/><polygon class="b" points="103.05 77.13 102.05 80.87 105.21 77.72 104.05 73.4 103.05 77.13"/><path class="b" d="M73,69.08l-1.58-5.9L62.2,65.64q-.15.51-.27,1l6.75,6.74Z"/><polygon class="b" points="85.38 87.34 81.64 86.34 84.79 89.5 89.11 88.34 85.38 87.34"/><polygon class="b" points="92.84 59.46 96.58 60.46 93.42 57.3 89.11 58.46 92.84 59.46"/><path class="b" d="M105.21,77.71l1.59,5.9L116,81.16q.15-.51.27-1l-6.75-6.74Z"/><path class="b" d="M84.79,89.5l-5.9,1.59,2.46,9.22q.51.15,1,.27l6.74-6.75Z"/><path class="b" d="M93.42,57.29l5.9-1.58-2.45-9.22q-.51-.15-1-.27L89.11,53Z"/><polygon class="b" points="75.17 69.67 76.17 65.93 73 69.08 74.17 73.4 75.17 69.67"/><path class="b" d="M81.35,46.49a28,28,0,0,0-11.66,6.74l9.2,2.48Z"/><polygon class="b" points="92.84 87.34 96.58 86.34 99.31 83.6 96.58 86.33 92.84 87.34"/><path class="b" d="M96.87,100.31a28,28,0,0,0,11.66-6.74l-9.21-2.48Z"/><polygon class="b" points="75.17 77.13 76.17 80.87 78.91 83.6 76.18 80.87 75.17 77.13"/><polygon class="b" points="85.38 59.46 81.64 60.46 78.91 63.2 81.64 60.47 85.38 59.46"/><polygon class="b" points="103.05 69.67 102.05 65.93 99.31 63.2 102.04 65.93 103.05 69.67"/><path class="b" d="M116,65.64A28,28,0,0,0,109.28,54l-2.48,9.2Z"/><path class="b" d="M62.2,81.16a28,28,0,0,0,6.74,11.66l2.48-9.21Z"/><polygon class="b" points="92.84 87.34 89.11 88.34 93.42 89.5 96.58 86.34 92.84 87.34"/><path class="b" d="M84.79,57.29,89.11,53l-6.74-6.75q-.51.12-1,.27l-2.46,9.22Z"/><polygon class="b" points="75.17 77.13 74.17 73.4 73 77.72 76.17 80.87 75.17 77.13"/><polygon class="b" points="103.05 69.67 104.05 73.4 105.21 69.08 102.05 65.93 103.05 69.67"/><polygon class="b" points="85.38 59.46 89.11 58.46 84.79 57.3 81.64 60.46 85.38 59.46"/><path class="b" d="M105.21,69.08l4.33,4.32,6.75-6.74q-.12-.51-.27-1l-9.22-2.46Z"/><path class="b" d="M93.42,89.5l-4.31,4.33,6.74,6.75q.51-.12,1-.27l2.45-9.22Z"/><path class="b" d="M73,77.71,68.68,73.4l-6.75,6.74q.12.51.27,1l9.22,2.45Z"/><path class="b" d="M77.32,61.61l1.57-5.9-9.2-2.48-.75.75,2.48,9.2Z"/><polygon class="b" points="99.31 83.6 96.58 86.34 100.9 85.19 102.05 80.87 99.31 83.6"/><path class="b" d="M109.28,92.82l-2.48-9.21-5.9,1.58-1.58,5.9,9.21,2.48Z"/><polygon class="b" points="78.91 83.6 76.17 80.87 77.32 85.19 81.64 86.34 78.91 83.6"/><path class="b" d="M100.9,61.61l5.9,1.57,2.48-9.2-.75-.75-9.21,2.48Z"/><polygon class="b" points="99.31 63.2 102.05 65.93 100.9 61.61 96.58 60.46 99.31 63.2"/><path class="b" d="M77.32,85.19l-5.9-1.58-2.48,9.21.75.75,9.2-2.48Z"/><polygon class="b" points="78.91 63.2 81.64 60.46 77.32 61.61 76.17 65.93 78.91 63.2"/><polygon class="b" points="93.42 89.5 99.32 91.09 100.9 85.19 96.58 86.34 93.42 89.5"/><polygon class="b" points="77.32 85.19 78.89 91.09 84.79 89.5 81.64 86.34 77.32 85.19"/><polygon class="b" points="73 69.08 68.68 73.4 73 77.72 74.17 73.4 73 69.08"/><polygon class="b" points="73 77.72 71.42 83.61 77.32 85.19 76.17 80.87 73 77.72"/><polygon class="b" points="102.05 80.87 100.9 85.19 106.8 83.61 105.21 77.72 102.05 80.87"/><polygon class="b" points="84.79 89.5 89.11 93.83 93.42 89.5 89.11 88.34 84.79 89.5"/><polygon class="b" points="105.21 77.72 109.54 73.4 105.21 69.08 104.05 73.4 105.21 77.72"/><polygon class="b" points="105.21 69.08 106.8 63.18 100.9 61.61 102.05 65.93 105.21 69.08"/><polygon class="b" points="100.9 61.61 99.32 55.71 93.42 57.3 96.58 60.46 100.9 61.61"/><polygon class="b" points="77.32 61.61 71.42 63.18 73 69.08 76.17 65.93 77.32 61.61"/><polygon class="b" points="84.79 57.3 78.89 55.71 77.32 61.61 81.64 60.46 84.79 57.3"/><polygon class="b" points="93.42 57.3 89.11 52.97 84.79 57.3 89.11 58.46 93.42 57.3"/></svg>