<svg xmlns="http://www.w3.org/2000/svg" viewBox="0 0 176.13 173.3"><defs><style>.a{fill:#088084;}.b{fill:#fff;}</style></defs><title>THAILAND</title><rect class="a" width="176.13" height="173.3"/><path class="b" d="M36.55,149.28a3.88,3.88,0,0,1-.39-.9,4,4,0,0,1-.18-1.2,2.27,2.27,0,0,1,.53-1.68,1.86,1.86,0,0,1,1.36-.51H51a3.88,3.88,0,0,1,.39.9,4,4,0,0,1,.18,1.2,2.27,2.27,0,0,1-.52,1.68,1.89,1.89,0,0,1-1.37.51H46.3v13.86a8.21,8.21,0,0,1-1,.18,11.09,11.09,0,0,1-1.4.09,6.17,6.17,0,0,1-1.21-.11,2,2,0,0,1-.89-.37,1.62,1.62,0,0,1-.54-.75,3.66,3.66,0,0,1-.18-1.26V149.28Z"/><path class="b" d="M69.13,163.14a8.21,8.21,0,0,1-1,.18,11.09,11.09,0,0,1-1.4.09,6.17,6.17,0,0,1-1.21-.11,2,2,0,0,1-.89-.37,1.62,1.62,0,0,1-.54-.75,3.66,3.66,0,0,1-.18-1.26v-4.68H58.12v6.9a8.21,8.21,0,0,1-1,.18,11.09,11.09,0,0,1-1.4.09,6.17,6.17,0,0,1-1.21-.11,2,2,0,0,1-.89-.37,1.62,1.62,0,0,1-.54-.75,3.66,3.66,0,0,1-.18-1.26V145.08l1.05-.17a9.54,9.54,0,0,1,1.38-.1,6.33,6.33,0,0,1,1.22.1,2.28,2.28,0,0,1,.88.38,1.62,1.62,0,0,1,.54.75,3.66,3.66,0,0,1,.18,1.26v4.8h5.76v-7l1.05-.17a9.54,9.54,0,0,1,1.38-.1,6.33,6.33,0,0,1,1.22.1,2.28,2.28,0,0,1,.88.38A1.62,1.62,0,0,1,69,146a3.66,3.66,0,0,1,.18,1.26Z"/><path class="b" d="M75.7,145.62a6.4,6.4,0,0,1,1.55-.57,8.19,8.19,0,0,1,2.08-.27,7.53,7.53,0,0,1,2.66.43,2.31,2.31,0,0,1,1.48,1.37q.54,1.56,1.17,3.63c.42,1.38.84,2.8,1.26,4.27l1.23,4.35c.4,1.43.75,2.7,1.05,3.8a2.47,2.47,0,0,1-1.08.67,5.13,5.13,0,0,1-1.71.26,5.2,5.2,0,0,1-1.21-.12,2.16,2.16,0,0,1-.81-.36,1.77,1.77,0,0,1-.51-.63,5.45,5.45,0,0,1-.35-.9L82,159.48H76.54q-.24.9-.48,1.86t-.48,1.86c-.28.1-.57.18-.88.26a6,6,0,0,1-1.13.1,4,4,0,0,1-2.26-.52,1.7,1.7,0,0,1-.74-1.46,3,3,0,0,1,.12-.84q.12-.42.27-1c.14-.54.34-1.21.59-2s.52-1.66.82-2.6.62-1.88,1-2.86l1-2.78c.3-.87.58-1.64.83-2.32S75.56,146,75.7,145.62Zm3.6,3.87c-.28.84-.59,1.77-.94,2.8s-.67,2.08-1,3.14h3.72c-.28-1.08-.56-2.14-.85-3.17s-.56-1.95-.8-2.77Z"/><path class="b" d="M94.69,163.14a8.21,8.21,0,0,1-1,.18,11.09,11.09,0,0,1-1.4.09,6.17,6.17,0,0,1-1.21-.11,2,2,0,0,1-.89-.37,1.62,1.62,0,0,1-.54-.75,3.66,3.66,0,0,1-.18-1.26V145.08l1-.17a9.54,9.54,0,0,1,1.38-.1,6.33,6.33,0,0,1,1.22.1,2.28,2.28,0,0,1,.88.38,1.62,1.62,0,0,1,.54.75,3.66,3.66,0,0,1,.18,1.26Z"/><path class="b" d="M100.18,163.35a2.59,2.59,0,0,1-2.79-2.79V145.05l1-.17a9.54,9.54,0,0,1,1.38-.1,6.33,6.33,0,0,1,1.22.1,2.28,2.28,0,0,1,.88.38,1.62,1.62,0,0,1,.54.75,3.66,3.66,0,0,1,.18,1.26v11.85h6.87a3.88,3.88,0,0,1,.39.88,3.75,3.75,0,0,1,.18,1.16,2.29,2.29,0,0,1-.51,1.69,1.86,1.86,0,0,1-1.35.5Z"/><path class="b" d="M115.75,145.62a6.4,6.4,0,0,1,1.55-.57,8.19,8.19,0,0,1,2.08-.27,7.53,7.53,0,0,1,2.66.43,2.31,2.31,0,0,1,1.48,1.37q.54,1.56,1.17,3.63c.42,1.38.84,2.8,1.26,4.27l1.23,4.35c.4,1.43.75,2.7,1,3.8a2.47,2.47,0,0,1-1.08.67,5.13,5.13,0,0,1-1.71.26,5.2,5.2,0,0,1-1.21-.12,2.16,2.16,0,0,1-.81-.36,1.77,1.77,0,0,1-.51-.63,5.45,5.45,0,0,1-.35-.9l-.54-2.07h-5.43q-.24.9-.48,1.86t-.48,1.86c-.28.1-.57.18-.88.26a6,6,0,0,1-1.13.1,4,4,0,0,1-2.26-.52,1.7,1.7,0,0,1-.74-1.46,3,3,0,0,1,.12-.84q.12-.42.27-1c.14-.54.34-1.21.59-2s.52-1.66.82-2.6.62-1.88,1-2.86l1-2.78c.3-.87.58-1.64.83-2.32S115.61,146,115.75,145.62Zm3.6,3.87c-.28.84-.59,1.77-.94,2.8s-.67,2.08-1,3.14h3.72c-.28-1.08-.56-2.14-.85-3.17s-.56-1.95-.8-2.77Z"/><path class="b" d="M146,162.63a2.72,2.72,0,0,1-1.21.64,7.08,7.08,0,0,1-1.91.23,6.6,6.6,0,0,1-2.1-.33,2.91,2.91,0,0,1-1.62-1.59l-3-6.06c-.3-.62-.57-1.2-.81-1.76s-.5-1.18-.78-1.9l-.18,0c.08,1.08.13,2.18.14,3.3s0,2.22,0,3.3v4.65a8.22,8.22,0,0,1-1,.18,10.17,10.17,0,0,1-1.34.09,6.79,6.79,0,0,1-1.17-.09,1.79,1.79,0,0,1-.84-.36,1.69,1.69,0,0,1-.51-.74,3.39,3.39,0,0,1-.18-1.21V146a2.51,2.51,0,0,1,1.29-.9,5.67,5.67,0,0,1,1.86-.3,6.5,6.5,0,0,1,2.12.34,2.87,2.87,0,0,1,1.6,1.58l3,6.06c.3.62.57,1.21.81,1.75s.5,1.19.78,1.91l.15,0q-.12-1.62-.15-3.24t0-3.24v-4.86a8.46,8.46,0,0,1,1-.18,10,10,0,0,1,1.33-.09,3.6,3.6,0,0,1,2,.46,2.21,2.21,0,0,1,.69,1.94Z"/><path class="b" d="M155.56,163.74l-1.17,0c-.44,0-.89-.06-1.36-.12s-.94-.13-1.41-.22a8,8,0,0,1-1.31-.38,2.23,2.23,0,0,1-1.65-2.19v-14a1.33,1.33,0,0,1,.35-1,2.44,2.44,0,0,1,.94-.55,12,12,0,0,1,2.73-.55c1-.09,1.82-.14,2.58-.14a14.82,14.82,0,0,1,4.25.57,8.72,8.72,0,0,1,3.27,1.75,8,8,0,0,1,2.11,3,11,11,0,0,1,.75,4.26,11.21,11.21,0,0,1-.72,4.19,8.23,8.23,0,0,1-2,3,8.75,8.75,0,0,1-3.2,1.81A13.33,13.33,0,0,1,155.56,163.74Zm-1.68-4.38c.22,0,.49.07.81.1a7.18,7.18,0,0,0,.9,0,5.66,5.66,0,0,0,1.88-.3,3.77,3.77,0,0,0,1.47-.93,4.24,4.24,0,0,0,1-1.64,7.45,7.45,0,0,0,.34-2.41,5.84,5.84,0,0,0-1.26-4.07,4.35,4.35,0,0,0-3.36-1.36l-.85,0-.89.09Z"/><path class="b" d="M135.11,71.49V69.33l-10-4.22V63.18h.09l0,0V56.78a5.72,5.72,0,0,1-2.28-6.4s-4.27,1.7-1.14,7.25c0,0-13.51-12.37-20.48-40.67h0c-7,28.3-20.48,40.67-20.48,40.67,3.13-5.55-1.14-7.25-1.14-7.25a5.72,5.72,0,0,1-2.27,6.4v8.33l-9,4.22v2.16h2L51.72,76.75v.89l2.85-.76v1.64l11.56-3.06,11.29,8.37v12H71.94V94H70.36v1.82H56.87V94H55.4v1.33h-.1L39.72,114.6v-1.07H38v3.17h0v5.13h-.48v.88H38v2.68h1.69v-.09L55.4,105.9v0h2.42v19.46h3.36V105.93h3.44v15.56h2.75V105.93H81.53v19.46h3.36V105.93h3v15.56h2.75V105.93H112v15.56h2.75V105.93h3v19.46H121V105.93h11.16V94h-1.57v1.82h-5.48V71.49ZM39.72,123.3v-.59h.48Zm1.19-1.47H39.72v-1.22h2.17ZM55.4,104h-.1l-.59.72H51.24v.88H54l-1,1.21H49.63v.89H52.3l-1,1.21h-3.4v.89h2.69l-1.09,1.34H46v.88h2.79l-1,1.22H44.41v.88h2.7l-1,1.22H42.7v.88h2.72l-1.12,1.38H40.87v.88h2.72l-1,1.22H39.72v-4.28L55.4,96.05Zm2.53-1.38H56.87V97h1.06Zm2.12,0H58.54V97h1.51Zm2.11,0H60.65V97h1.51Zm2.12,0H62.77V97h1.51Zm2.11,0H64.88V97h1.51Zm2.12,0H67V97h1.51Zm1.85,0H69.11V97h1.25Zm2.74,0H71.94V97H73.1Zm2.12,0H73.71V97h1.51Zm2.11,0h-1.5V97h1.5Zm.09-20L67,75.23l10.43-2.76ZM95.6,92.12H86.76V75.49H95.6Zm20.2,0H107V75.49h8.84ZM129.37,97h1.25v5.63h-1.25Zm-2.12,0h1.51v5.63h-1.51Zm-.6,0v5.63h-1.51V97Z"/></svg>