<svg xmlns="http://www.w3.org/2000/svg" viewBox="0 0 176.13 173.3"><defs><style>.a{fill:#f7b524;}.b{fill:#fff;}</style></defs><title>TURKEY</title><rect class="a" width="176.13" height="173.3"/><path class="b" d="M66.7,149.28a3.88,3.88,0,0,1-.39-.9,4,4,0,0,1-.18-1.2,2.27,2.27,0,0,1,.53-1.68A1.86,1.86,0,0,1,68,145H81.1a3.88,3.88,0,0,1,.39.9,4,4,0,0,1,.18,1.2,2.27,2.27,0,0,1-.52,1.68,1.89,1.89,0,0,1-1.37.51H76.45v13.86a8.21,8.21,0,0,1-1,.18,11.09,11.09,0,0,1-1.4.09,6.17,6.17,0,0,1-1.21-.11,2,2,0,0,1-.89-.37,1.62,1.62,0,0,1-.54-.75,3.66,3.66,0,0,1-.18-1.26V149.28Z"/><path class="b" d="M99.13,156.54a7.65,7.65,0,0,1-.55,3A6.32,6.32,0,0,1,97,161.77a7.25,7.25,0,0,1-2.55,1.46,11.52,11.52,0,0,1-6.78,0,7.25,7.25,0,0,1-2.55-1.46,6.29,6.29,0,0,1-1.6-2.27,7.65,7.65,0,0,1-.56-3V145.08l1-.17a9.54,9.54,0,0,1,1.38-.1,6.33,6.33,0,0,1,1.22.1,2.28,2.28,0,0,1,.88.38A1.62,1.62,0,0,1,88,146a3.66,3.66,0,0,1,.18,1.26v9.15a3.08,3.08,0,0,0,.8,2.25,3,3,0,0,0,4.12,0,3.11,3.11,0,0,0,.78-2.25V145.08l1.05-.17a9.54,9.54,0,0,1,1.38-.1,6.33,6.33,0,0,1,1.22.1,2.28,2.28,0,0,1,.88.38A1.62,1.62,0,0,1,99,146a3.66,3.66,0,0,1,.18,1.26Z"/><path class="b" d="M107,157.38v5.76a8.21,8.21,0,0,1-1,.18,11.09,11.09,0,0,1-1.4.09,6.17,6.17,0,0,1-1.21-.11,1.92,1.92,0,0,1-.87-.37,1.68,1.68,0,0,1-.53-.75,3.66,3.66,0,0,1-.18-1.26V146.79a1.33,1.33,0,0,1,.35-1,2.44,2.44,0,0,1,.94-.55,11.24,11.24,0,0,1,2.37-.53,23.81,23.81,0,0,1,2.88-.16q4.14,0,6.24,1.74a5.8,5.8,0,0,1,2.1,4.71,5.26,5.26,0,0,1-1,3.18,6.89,6.89,0,0,1-2.28,2q1.08,1.47,2.13,2.76a17.78,17.78,0,0,1,1.65,2.34,2.78,2.78,0,0,1-1.09,1.6,3.07,3.07,0,0,1-1.79.56,3.84,3.84,0,0,1-1.14-.15,2.76,2.76,0,0,1-.84-.42,3.44,3.44,0,0,1-.66-.66,8.81,8.81,0,0,1-.57-.84l-2.52-4.05Zm1.89-4a2.62,2.62,0,0,0,1.8-.59,2.17,2.17,0,0,0,.66-1.72,2.09,2.09,0,0,0-.73-1.73,3.75,3.75,0,0,0-2.33-.58,6.83,6.83,0,0,0-.72,0l-.6.09v4.5Z"/><path class="b" d="M124.09,156.51v6.63a8.34,8.34,0,0,1-1,.18,11.36,11.36,0,0,1-1.41.09,6.17,6.17,0,0,1-1.21-.11,2,2,0,0,1-.89-.37,1.62,1.62,0,0,1-.54-.75,3.66,3.66,0,0,1-.18-1.26V145.08l1-.17a9.54,9.54,0,0,1,1.38-.1,6.33,6.33,0,0,1,1.22.1,2.28,2.28,0,0,1,.88.38,1.62,1.62,0,0,1,.54.75,3.66,3.66,0,0,1,.18,1.26v4.77l6.24-7.17a4.48,4.48,0,0,1,2.93.76,2.33,2.33,0,0,1,.88,1.82,2.94,2.94,0,0,1-.39,1.47,7.66,7.66,0,0,1-1.26,1.56l-3.75,3.75,1.58,1.74,1.62,1.75c.53.58,1,1.12,1.53,1.64l1.27,1.35a2.72,2.72,0,0,1-.24,1.17,2.66,2.66,0,0,1-.64.87,2.76,2.76,0,0,1-.92.54,3.22,3.22,0,0,1-1.08.18,3.15,3.15,0,0,1-2-.62,10.71,10.71,0,0,1-1.5-1.45Z"/><path class="b" d="M136.06,147.87a2.59,2.59,0,0,1,2.79-2.79h9.9a3.58,3.58,0,0,1,.38.87,3.88,3.88,0,0,1,.16,1.14,2.2,2.2,0,0,1-.49,1.62,1.81,1.81,0,0,1-1.31.48h-6.33V152h6.75a3.72,3.72,0,0,1,.54,2,2.24,2.24,0,0,1-.48,1.62,1.74,1.74,0,0,1-1.29.48h-5.52v3.15h7.71a3.58,3.58,0,0,1,.38.87,3.88,3.88,0,0,1,.16,1.14,2.24,2.24,0,0,1-.49,1.63,1.78,1.78,0,0,1-1.31.5h-8.76a2.59,2.59,0,0,1-2.79-2.79Z"/><path class="b" d="M161,163.14a8.33,8.33,0,0,1-1,.18,10.43,10.43,0,0,1-1.35.09,3.73,3.73,0,0,1-2.07-.47,2.23,2.23,0,0,1-.69-2v-4q-.75-1.11-1.62-2.46t-1.71-2.76c-.56-.94-1.08-1.87-1.56-2.78a24.44,24.44,0,0,1-1.17-2.5,4.11,4.11,0,0,1,1.07-1,2.92,2.92,0,0,1,1.66-.45,3.44,3.44,0,0,1,1.91.48,4.51,4.51,0,0,1,1.39,1.8l2.49,5h.18c.28-.62.53-1.19.74-1.7s.41-1,.61-1.53l.63-1.59c.22-.55.47-1.18.75-1.9a5.3,5.3,0,0,1,1.2-.42,5.69,5.69,0,0,1,1.26-.15,2.89,2.89,0,0,1,1.79.55,2,2,0,0,1,.73,1.67,3.17,3.17,0,0,1-.15.87,9.74,9.74,0,0,1-.69,1.54c-.36.69-.88,1.63-1.57,2.81s-1.63,2.72-2.81,4.62Z"/><rect class="b" x="66.54" y="49.37" width="21.76" height="9.79" transform="matrix(0.2, -0.98, 0.98, 0.2, 9.1, 119.61)"/><rect class="b" x="87.94" y="40.83" width="10.15" height="21.04" transform="translate(-13.07 57.2) rotate(-32.06)"/><rect class="b" x="82.58" y="44.53" width="1.71" height="20.6"/><rect class="b" x="65.78" y="27.94" width="7.07" height="27.2" transform="translate(-9.62 58.84) rotate(-43.29)"/><rect class="b" x="83.61" y="36.21" width="27.2" height="7.07" transform="translate(10.57 99.1) rotate(-56.65)"/><polygon class="b" points="84.62 33.78 76.56 37.66 73.08 27.31 79.21 24.67 84.62 33.78"/><path class="b" d="M135.5,90.4c-11.76-6.76-17.67-8.85-26.37-14.65-16.48-11-17.86-9.44-26.73-9.44-9.26,0-12.26,5.5-24.19,16.5-5.75,5.28-9.08,9.72-14.07,12.9-6,3.83-7.69,5.13-5.13,8.06,0,0,9.31,3.38,14.1,9,10.07,11.72,26,16.29,38.81,15,19.12-1.92,35.19-9.45,40.34-23.09.81-2.15-.76-6.92.31-8.77C134.58,92.42,137.35,91.47,135.5,90.4ZM91.38,69.2c.59-.6,7.88,5.7,16.26,14.07s14.7,15.64,14.1,16.24-7.88-5.7-16.26-14.07S90.78,69.8,91.38,69.2Zm-3.23,0c.36,0,1,2.65,1.39,6s.46,6.12.11,6.17-1-2.65-1.38-6S87.81,69.26,88.15,69.21Zm-1.48.87c.37,0,.68,7.29.68,16.3s-.31,16.28-.68,16.28S86,95.37,86,86.38,86.29,70.08,86.67,70.08ZM71.1,73.44c2.13-2.64,4.08-4.59,4.35-4.37s-1.22,2.54-3.34,5.18S68,78.83,67.75,78.62,69,76.08,71.1,73.44ZM62.52,90.91c6.06-11.48,19-23.54,20-23s-5.7,20.88-11.76,32.36-9.18,9.79-10.18,9.27S56.47,102.42,62.52,90.91Zm68.24.66c-8.57,0-2,9.41-3.4,13.5a12.3,12.3,0,0,1-6.45,7.28c-8.13,4.05-17,8.64-26.06,10.1-8.9,1.45-18.51,1.12-26.74-3a36.32,36.32,0,0,1-11.23-8c-3.64-4.09-9.33-12.07-15.65-11.43-1.48.15-.64-.91.33-1,9-.91,13.63,9,19.63,13.94a41,41,0,0,0,37.21,7.75c6-1.73,11.6-4.55,17.31-7,3.67-1.6,8.86-3.67,9.54-8.3.4-2.73-.38-4.37-.86-6.92-1-5.3,2.2-7.95,7.24-7.95C133.05,90.52,131.46,91.57,130.76,91.57Z"/><polygon class="b" points="58.65 32.13 54.76 27.61 55.17 26.9 60.57 29.97 58.65 32.13"/><polygon class="b" points="104.23 26.43 108.16 21.84 108.92 22.13 106.69 28 104.23 26.43"/><polygon class="b" points="60.09 29.88 59.3 29.88 59.7 26.53 60.09 26.53 60.09 29.88"/><polygon class="b" points="106.83 27.28 106.33 26.67 109.18 24.84 109.43 25.15 106.83 27.28"/><polygon class="b" points="79.74 42.83 82.05 41.49 83.09 40.15 81.86 40.15 79.74 42.83"/><polygon class="b" points="85.93 40.13 83.37 40.89 81.68 40.73 82.53 39.82 85.93 40.13"/><path class="b" d="M80.28,42.72c1.08.36,2.45.91,3.54.31a4.21,4.21,0,0,0,1.68-2.66c.13-.48-1-.35-1.07.09a4.47,4.47,0,0,1-1,1.89c-.52.58-1.94-.11-2.54-.31-.43-.14-1.25.47-.62.68Z"/><path class="b" d="M83.56,35.88c0-.3-.46.4-.85.4s-.72.24-.72.54.39.35.79.35S83.56,36.18,83.56,35.88Z"/><path class="b" d="M78.55,37.72c-.18-.23.6.05.92-.18a.62.62,0,0,1,.89,0c.18.23-.1.5-.41.74S78.73,38,78.55,37.72Z"/><path class="b" d="M79.31,24.79c.17.44-1.1,1.33-2.84,2s-3.22,1-3.39.55,1.06-1.49,2.79-2.14S79.14,24.35,79.31,24.79Z"/><path class="b" d="M84.62,33.78c.24.52-1.35,1.8-3.62,2.77s-4.21,1.63-4.44,1.1,1.35-2,3.62-3S84.4,33.25,84.62,33.78Z"/></svg>