<svg xmlns="http://www.w3.org/2000/svg" width="176.13" height="173.3" viewBox="0 0 176.13 173.3"><defs><style>.a{fill:#863376;}.b,.c{fill:#fff;}.c{fill-rule:evenodd;}</style></defs><title>Asset 70</title><rect class="a" width="176.13" height="173.3"/><path class="b" d="M29.05,162.66a3.65,3.65,0,0,1-1.3.63,6.64,6.64,0,0,1-1.94.27,5.6,5.6,0,0,1-2.16-.38,2.26,2.26,0,0,1-1.23-1c-.22-.46-.49-1.06-.81-1.78s-.65-1.55-1-2.45-.71-1.86-1.08-2.87-.73-2-1.07-3.07-.66-2.06-1-3.06-.56-1.94-.78-2.82a4,4,0,0,1,1.22-.77,4.36,4.36,0,0,1,1.69-.34,3.18,3.18,0,0,1,1.82.47,2.78,2.78,0,0,1,1,1.72q.81,2.94,1.64,5.62t1.72,5.6H26q.81-2.82,1.67-6.15t1.63-6.63a7,7,0,0,1,1.16-.45,4.93,4.93,0,0,1,1.39-.18,3.45,3.45,0,0,1,1.89.49,1.8,1.8,0,0,1,.78,1.64,8.57,8.57,0,0,1-.31,1.92c-.21.84-.48,1.79-.81,2.83s-.7,2.15-1.11,3.29-.82,2.21-1.23,3.22-.8,1.91-1.16,2.67A10.22,10.22,0,0,1,29.05,162.66Z"/><path class="b" d="M36,147.87a2.59,2.59,0,0,1,2.79-2.79h9.9a3.58,3.58,0,0,1,.38.87,3.88,3.88,0,0,1,.16,1.14,2.2,2.2,0,0,1-.49,1.62,1.81,1.81,0,0,1-1.31.48H41.08V152h6.75a3.72,3.72,0,0,1,.54,2,2.24,2.24,0,0,1-.48,1.62,1.74,1.74,0,0,1-1.29.48H41.08v3.15h7.71a3.58,3.58,0,0,1,.38.87,3.88,3.88,0,0,1,.16,1.14,2.24,2.24,0,0,1-.49,1.63,1.78,1.78,0,0,1-1.31.5H38.77A2.59,2.59,0,0,1,36,160.56Z"/><path class="b" d="M67.69,162.63a2.72,2.72,0,0,1-1.21.64,7.08,7.08,0,0,1-1.91.23,6.6,6.6,0,0,1-2.1-.33,2.91,2.91,0,0,1-1.62-1.59l-3-6.06c-.3-.62-.57-1.2-.81-1.76s-.5-1.18-.78-1.9l-.18,0c.08,1.08.13,2.18.14,3.3s0,2.22,0,3.3v4.65a8.22,8.22,0,0,1-1,.18,10.17,10.17,0,0,1-1.34.09,6.79,6.79,0,0,1-1.17-.09,1.79,1.79,0,0,1-.84-.36,1.69,1.69,0,0,1-.51-.74,3.39,3.39,0,0,1-.18-1.21V146a2.51,2.51,0,0,1,1.29-.9,5.67,5.67,0,0,1,1.86-.3,6.5,6.5,0,0,1,2.12.34,2.87,2.87,0,0,1,1.6,1.58l3,6.06c.3.62.57,1.21.81,1.75s.5,1.19.78,1.91l.15,0q-.12-1.62-.15-3.24t0-3.24v-4.86a8.46,8.46,0,0,1,1-.18,10,10,0,0,1,1.33-.09,3.6,3.6,0,0,1,2,.46,2.21,2.21,0,0,1,.69,1.94Z"/><path class="b" d="M70.39,147.87a2.59,2.59,0,0,1,2.79-2.79h9.9a3.58,3.58,0,0,1,.38.87,3.88,3.88,0,0,1,.16,1.14,2.2,2.2,0,0,1-.49,1.62,1.81,1.81,0,0,1-1.31.48H75.49V152h6.75a3.72,3.72,0,0,1,.54,2,2.24,2.24,0,0,1-.48,1.62,1.74,1.74,0,0,1-1.29.48H75.49v3.15H83.2a3.58,3.58,0,0,1,.38.87,3.88,3.88,0,0,1,.16,1.14,2.24,2.24,0,0,1-.49,1.63,1.78,1.78,0,0,1-1.31.5H73.18a2.59,2.59,0,0,1-2.79-2.79Z"/><path class="b" d="M93.07,149.28H85.69a3.88,3.88,0,0,1-.39-.9,4,4,0,0,1-.18-1.2,2.27,2.27,0,0,1,.53-1.68A1.86,1.86,0,0,1,87,145H98.2a3.53,3.53,0,0,1,1.32,2.88,3.4,3.4,0,0,1-.34,1.48,6.74,6.74,0,0,1-.89,1.4L91.48,159h7.68a3.88,3.88,0,0,1,.39.9,4,4,0,0,1,.18,1.2,2.27,2.27,0,0,1-.52,1.68,1.89,1.89,0,0,1-1.37.51H86a3.14,3.14,0,0,1-.84-1.14,3.92,3.92,0,0,1-.33-1.65,3.41,3.41,0,0,1,.39-1.53,7.71,7.71,0,0,1,.93-1.44Z"/><path class="b" d="M117.49,156.54a7.65,7.65,0,0,1-.55,3,6.32,6.32,0,0,1-1.61,2.27,7.25,7.25,0,0,1-2.55,1.46,11.52,11.52,0,0,1-6.78,0,7.25,7.25,0,0,1-2.55-1.46,6.29,6.29,0,0,1-1.6-2.27,7.65,7.65,0,0,1-.56-3V145.08l1-.17a9.54,9.54,0,0,1,1.38-.1,6.33,6.33,0,0,1,1.22.1,2.28,2.28,0,0,1,.88.38,1.62,1.62,0,0,1,.54.75,3.66,3.66,0,0,1,.18,1.26v9.15a3.08,3.08,0,0,0,.8,2.25,3,3,0,0,0,4.12,0,3.11,3.11,0,0,0,.78-2.25V145.08l1.05-.17a9.54,9.54,0,0,1,1.38-.1,6.33,6.33,0,0,1,1.22.1,2.28,2.28,0,0,1,.88.38,1.62,1.62,0,0,1,.54.75,3.66,3.66,0,0,1,.18,1.26Z"/><path class="b" d="M120.1,147.87a2.59,2.59,0,0,1,2.79-2.79h9.9a3.58,3.58,0,0,1,.38.87,3.88,3.88,0,0,1,.16,1.14,2.2,2.2,0,0,1-.49,1.62,1.81,1.81,0,0,1-1.31.48H125.2V152H132a3.72,3.72,0,0,1,.54,2,2.24,2.24,0,0,1-.48,1.62,1.74,1.74,0,0,1-1.29.48H125.2v3.15h7.71a3.58,3.58,0,0,1,.38.87,3.88,3.88,0,0,1,.16,1.14,2.24,2.24,0,0,1-.49,1.63,1.78,1.78,0,0,1-1.31.5h-8.76a2.59,2.59,0,0,1-2.79-2.79Z"/><path class="b" d="M138.13,163.35a2.59,2.59,0,0,1-2.79-2.79V145.05l1-.17a9.54,9.54,0,0,1,1.38-.1,6.4,6.4,0,0,1,1.22.1,2.28,2.28,0,0,1,.88.38,1.62,1.62,0,0,1,.54.75,3.66,3.66,0,0,1,.18,1.26v11.85h6.87a3.88,3.88,0,0,1,.39.88,3.75,3.75,0,0,1,.18,1.16,2.29,2.29,0,0,1-.51,1.69,1.86,1.86,0,0,1-1.35.5Z"/><path class="b" d="M153.7,145.62a6.3,6.3,0,0,1,1.54-.57,8.27,8.27,0,0,1,2.09-.27,7.57,7.57,0,0,1,2.66.43,2.33,2.33,0,0,1,1.48,1.37q.54,1.56,1.17,3.63c.42,1.38.84,2.8,1.26,4.27l1.23,4.35c.4,1.43.75,2.7,1.05,3.8a2.47,2.47,0,0,1-1.08.67,5.13,5.13,0,0,1-1.71.26,5.29,5.29,0,0,1-1.22-.12,2.11,2.11,0,0,1-.8-.36,1.8,1.8,0,0,1-.52-.63,5.47,5.47,0,0,1-.34-.9l-.54-2.07h-5.43q-.24.9-.48,1.86t-.48,1.86c-.28.1-.58.18-.88.26a6.08,6.08,0,0,1-1.13.1,4,4,0,0,1-2.27-.52,1.69,1.69,0,0,1-.73-1.46,3,3,0,0,1,.12-.84q.12-.42.27-1c.14-.54.33-1.21.58-2s.53-1.66.83-2.6.62-1.88,1-2.86l1-2.78c.3-.87.57-1.64.83-2.32S153.56,146,153.7,145.62Zm3.6,3.87c-.28.84-.6,1.77-1,2.8s-.66,2.08-.94,3.14h3.72c-.28-1.08-.57-2.14-.86-3.17s-.55-1.95-.79-2.77Z"/><path class="c" d="M29.75,81.65,36,82l2.44-6,1.41,6.18,6.26.33L40.72,86l1.43,6.17-4.74-4L32,91.63l2.46-6-4.75-4ZM103.23,41.5,100,47.06l-6.1-1.3,4.08,4.72L94.63,56l5.8-2.65,4.07,4.74-.5-6.36,5.81-2.62-6.11-1.28-.47-6.36Zm20.39,8.39L121.9,56.1l5.23,3.36-6.27.45-1.69,6.22L117,60.2l-6.27.48,4.93-4.12-2.18-5.91L118.69,54l4.93-4.14ZM139.68,65l-6,2.2-3.69-5,0,6.39-6,2.18,6,1.75v6.39l3.68-5.31,6,1.77-3.71-5,3.69-5.3Zm9.77,20h-6.28l-1.71-6.09L139.32,85,133,85l5,3.76-2.17,6.07L141,91.08,146,94.86l-1.74-6.09L149.45,85ZM81,40.87l2.6,5.73,6.24-1-4.63,4.47,2.62,5.71-5.47-3-4.61,4.49L79,51.05l-5.48-2.94,6.25-.93L81,40.87ZM59.7,48.09l4.41,4.4,5.6-3.08-2.88,5.77,4.42,4.38-6.19-.83-2.87,5.79-.94-6.29-6.2-.81,5.61-3.05-1-6.28ZM41.88,62.26l3,5.48-4.3,4.8,6.17-1.42,3,5.5.77-6.37,6.17-1.41-5.69-2.51L51.85,60l-4.29,4.82Z"/></svg>