<svg xmlns="http://www.w3.org/2000/svg" viewBox="0 0 176.13 178.98"><defs><style>.a{fill:#863376;}.b{font-size:30px;font-family:Baloo-Regular, Baloo;letter-spacing:-0.04em;}.b,.f{fill:#fff;}.c{letter-spacing:-0.04em;}.d{letter-spacing:-0.03em;}.e{letter-spacing:-0.04em;}.f{fill-rule:evenodd;}</style></defs><title>VENEZUELA</title><rect class="a" width="176.13" height="173.3"/><text class="b" transform="translate(16.21 163.26)">VEN<tspan class="c" x="52.23" y="0">E</tspan><tspan x="67.62" y="0">ZUE</tspan><tspan class="d" x="117.18" y="0">L</tspan><tspan class="e" x="131.67" y="0">A</tspan></text><path class="f" d="M29.75,81.65,36,82l2.44-6,1.41,6.18,6.26.33L40.72,86l1.43,6.17-4.74-4L32,91.63l2.46-6-4.75-4ZM103.23,41.5,100,47.06l-6.1-1.3,4.08,4.72L94.63,56l5.8-2.65,4.07,4.74-.5-6.36,5.81-2.62-6.11-1.28-.47-6.36Zm20.39,8.39L121.9,56.1l5.23,3.36-6.27.45-1.69,6.22L117,60.2l-6.27.48,4.93-4.12-2.18-5.91L118.69,54l4.93-4.14ZM139.68,65l-6,2.2-3.69-5,0,6.39-6,2.18,6,1.75v6.39l3.68-5.31,6,1.77-3.71-5,3.69-5.3Zm9.77,20h-6.28l-1.71-6.09L139.32,85,133,85l5,3.76-2.17,6.07L141,91.08,146,94.86l-1.74-6.09L149.45,85ZM81,40.87l2.6,5.73,6.24-1-4.63,4.47,2.62,5.71-5.47-3-4.61,4.49L79,51.05l-5.48-2.94,6.25-.93L81,40.87ZM59.7,48.09l4.41,4.4,5.6-3.08-2.88,5.77,4.42,4.38-6.19-.83-2.87,5.79-.94-6.29-6.2-.81,5.61-3.05-1-6.28ZM41.88,62.26l3,5.48-4.3,4.8,6.17-1.42,3,5.5.77-6.37,6.17-1.41-5.69-2.51L51.85,60l-4.29,4.82Z"/></svg>