<svg xmlns="http://www.w3.org/2000/svg" viewBox="0 0 176.13 173.3"><defs><style>.a{fill:#273691;}.b{fill:#fff;}</style></defs><title>VIETNAM</title><rect class="a" width="176.13" height="173.3"/><path class="b" d="M62.35,162.66a3.65,3.65,0,0,1-1.3.63,6.64,6.64,0,0,1-1.94.27,5.6,5.6,0,0,1-2.16-.38,2.26,2.26,0,0,1-1.23-1c-.22-.46-.49-1.06-.81-1.78s-.65-1.55-1-2.45-.71-1.86-1.08-2.87-.73-2-1.07-3.07-.66-2.06-1-3.06S50.24,147,50,146.1a4,4,0,0,1,1.22-.77,4.36,4.36,0,0,1,1.69-.34,3.18,3.18,0,0,1,1.82.47,2.78,2.78,0,0,1,1,1.72q.81,2.94,1.64,5.62t1.72,5.6h.18q.81-2.82,1.67-6.15t1.63-6.63a7,7,0,0,1,1.16-.45,4.93,4.93,0,0,1,1.39-.18,3.45,3.45,0,0,1,1.89.49,1.8,1.8,0,0,1,.78,1.64,8.57,8.57,0,0,1-.31,1.92c-.21.84-.48,1.79-.81,2.83s-.7,2.15-1.11,3.29-.82,2.21-1.23,3.22-.8,1.91-1.16,2.67A10.22,10.22,0,0,1,62.35,162.66Z"/><path class="b" d="M74.53,163.14a8.21,8.21,0,0,1-1,.18,11.09,11.09,0,0,1-1.4.09,6.17,6.17,0,0,1-1.21-.11,2,2,0,0,1-.89-.37,1.62,1.62,0,0,1-.54-.75,3.66,3.66,0,0,1-.18-1.26V145.08l1-.17a9.54,9.54,0,0,1,1.38-.1,6.33,6.33,0,0,1,1.22.1,2.28,2.28,0,0,1,.88.38,1.62,1.62,0,0,1,.54.75,3.66,3.66,0,0,1,.18,1.26Z"/><path class="b" d="M77.23,147.87A2.59,2.59,0,0,1,80,145.08h9.9a3.58,3.58,0,0,1,.38.87,3.88,3.88,0,0,1,.16,1.14,2.2,2.2,0,0,1-.49,1.62,1.81,1.81,0,0,1-1.31.48H82.33V152h6.75a3.72,3.72,0,0,1,.54,2,2.24,2.24,0,0,1-.48,1.62,1.74,1.74,0,0,1-1.29.48H82.33v3.15H90a3.58,3.58,0,0,1,.38.87,3.88,3.88,0,0,1,.16,1.14,2.24,2.24,0,0,1-.49,1.63,1.78,1.78,0,0,1-1.31.5H80a2.59,2.59,0,0,1-2.79-2.79Z"/><path class="b" d="M91.63,149.28a3.88,3.88,0,0,1-.39-.9,4,4,0,0,1-.18-1.2,2.27,2.27,0,0,1,.53-1.68A1.86,1.86,0,0,1,93,145H106a3.88,3.88,0,0,1,.39.9,4,4,0,0,1,.18,1.2,2.27,2.27,0,0,1-.52,1.68,1.89,1.89,0,0,1-1.37.51h-3.33v13.86a8.21,8.21,0,0,1-1,.18,11.21,11.21,0,0,1-1.4.09,6.09,6.09,0,0,1-1.21-.11,2,2,0,0,1-.89-.37,1.62,1.62,0,0,1-.54-.75,3.66,3.66,0,0,1-.18-1.26V149.28Z"/><path class="b" d="M124.42,162.63a2.72,2.72,0,0,1-1.21.64,7.08,7.08,0,0,1-1.91.23,6.6,6.6,0,0,1-2.1-.33,2.91,2.91,0,0,1-1.62-1.59l-3-6.06c-.3-.62-.57-1.2-.81-1.76s-.5-1.18-.78-1.9l-.18,0c.08,1.08.13,2.18.14,3.3s0,2.22,0,3.3v4.65a8.22,8.22,0,0,1-1,.18,10.17,10.17,0,0,1-1.34.09,6.79,6.79,0,0,1-1.17-.09,1.79,1.79,0,0,1-.84-.36,1.69,1.69,0,0,1-.51-.74A3.39,3.39,0,0,1,108,161V146a2.51,2.51,0,0,1,1.29-.9,5.67,5.67,0,0,1,1.86-.3,6.5,6.5,0,0,1,2.12.34,2.87,2.87,0,0,1,1.6,1.58l3,6.06c.3.62.57,1.21.81,1.75s.5,1.19.78,1.91l.15,0q-.12-1.62-.15-3.24t0-3.24v-4.86a8.46,8.46,0,0,1,1-.18,10,10,0,0,1,1.33-.09,3.6,3.6,0,0,1,2,.46,2.21,2.21,0,0,1,.69,1.94Z"/><path class="b" d="M131,145.62a6.4,6.4,0,0,1,1.55-.57,8.19,8.19,0,0,1,2.08-.27,7.53,7.53,0,0,1,2.66.43,2.33,2.33,0,0,1,1.48,1.37q.54,1.56,1.17,3.63c.42,1.38.84,2.8,1.26,4.27l1.23,4.35c.4,1.43.75,2.7,1.05,3.8a2.47,2.47,0,0,1-1.08.67,5.13,5.13,0,0,1-1.71.26,5.29,5.29,0,0,1-1.22-.12,2.11,2.11,0,0,1-.8-.36,1.77,1.77,0,0,1-.51-.63,5.45,5.45,0,0,1-.35-.9l-.54-2.07h-5.43q-.24.9-.48,1.86t-.48,1.86c-.28.1-.58.18-.88.26a6,6,0,0,1-1.13.1,4,4,0,0,1-2.26-.52,1.7,1.7,0,0,1-.74-1.46,3,3,0,0,1,.12-.84q.12-.42.27-1c.14-.54.33-1.21.59-2s.52-1.66.82-2.6.62-1.88,1-2.86l1-2.78c.3-.87.58-1.64.83-2.32S130.85,146,131,145.62Zm3.6,3.87c-.28.84-.6,1.77-.94,2.8s-.67,2.08-1,3.14h3.72c-.28-1.08-.56-2.14-.85-3.17s-.56-1.95-.8-2.77Z"/><path class="b" d="M157.3,158.79a2.91,2.91,0,0,1-1,.52,4.39,4.39,0,0,1-1.42.2,5.07,5.07,0,0,1-1.79-.27,1.45,1.45,0,0,1-.91-.93c-.56-1.76-1-3.19-1.38-4.27s-.64-2-.84-2.87h-.15c-.06,1.18-.1,2.25-.14,3.22s0,1.92,0,2.84,0,1.85-.07,2.79-.07,2-.13,3.12a5.42,5.42,0,0,1-1,.25,7.66,7.66,0,0,1-1.26.11,4.13,4.13,0,0,1-2-.42,1.59,1.59,0,0,1-.74-1.53l.87-15.3a2.87,2.87,0,0,1,1-.84,4.75,4.75,0,0,1,2.28-.45,5.09,5.09,0,0,1,2.49.5,2.92,2.92,0,0,1,1.32,1.6c.18.48.38,1,.59,1.65s.42,1.26.63,1.92.41,1.32.61,2l.54,1.76h.15q.72-2.52,1.44-4.88c.48-1.56.92-2.88,1.32-3.94a5.32,5.32,0,0,1,1.16-.41,6.83,6.83,0,0,1,1.57-.16,5.86,5.86,0,0,1,2.4.43,1.73,1.73,0,0,1,1.08,1.25c.08.4.16,1,.26,1.84s.18,1.77.28,2.81.2,2.14.3,3.3.19,2.28.28,3.34.17,2.06.23,2.94.1,1.58.12,2.06a4.16,4.16,0,0,1-1.07.44,6.18,6.18,0,0,1-1.42.13,4.27,4.27,0,0,1-1.92-.39,1.65,1.65,0,0,1-.84-1.53c-.12-2.18-.19-4.14-.23-5.88s-.07-3.2-.13-4.38h-.15q-.3,1.17-.87,2.94T157.3,158.79Z"/><path class="b" d="M134.25,111.73v-7.24h.61l2.43-1.34h-4.8V95.48h5.28L132.49,63.7V36.64h-.86V58.57l-4.28-25.71H111.08l-6.84,3.19L100,41.89l-3.28,6.56L94.5,55.89l-1.89,7.42L91,72.08l-.57,5.47L86.07,51.28V33.37h-.86V46.15L82.43,29.43H64.38L56.79,33,52,39.45l-3.64,7.28L46,55l-2.09,8.22L42.11,73l-.89,8.4-.43,8.7-.2,8.86H85.21v4.24H25.61l-2.34,5.61h4.09v7c-3.19-.37-5.37-.7-6.52-.9v2.6l2.07.33,5.75,8.91h104s8.95-5.9,13.55-14.18l5.76-1v-2.6Q142.82,110.51,134.25,111.73Zm-7-61.15.25,1.48L111,33.48Zm1,6.09.22,1.33L104.61,36.63Zm.75,4.5.19,1.19L100.54,42.23Zm.91,5.5.16,1L97.58,49.15Zm.85,5.15.18,1.12L95.47,56.39Zm.8,4.86.18,1.07L93.41,63.62Zm1,5.9.19,1.15-41-11.6Zm.85,5.15.19,1.13-42.49-9Zm.85,5.1.17,1L92.16,87.92v0ZM83.32,50.22,83.61,52,64.3,30.12Zm1.07,6.49.26,1.53L57.19,33.61Zm.79,4.78.23,1.37-32.73-23Zm1,6,.18,1.09-37-21Zm.92,5.6.21,1.27L47.05,55.54Zm.88,5.3.2,1.22-43.4-16ZM89,84.83l.22,1.29L42.89,73Zm.73,5.6,0,1.22L42.15,81.58Zm1.13,5.64.19,1.15-49.42-7Zm-4.82,2.84H94l-.57-3.43h38.21v7.67H86.07Zm27.52,15.44c-1.63.18-3.23.34-4.81.5v-6.09h4.81Zm0-7.5-1-2.36h1Zm3.55,7.1-2.29.26v-9.72h2.29Zm12.46-1.57q-5.75.78-11.2,1.42v-9.31h11.2Zm3.39-.47-2.13.3v-7.72H133Z"/></svg>